<svg width="536" height="729" viewBox="0 0 536 729" fill="none" xmlns="http://www.w3.org/2000/svg">
<g style="mix-blend-mode:multiply">
<path d="M493.755 0.0108034C490.161 0.189134 486.566 0.364162 482.972 0.535908C476.995 0.821463 471.018 1.09743 465.04 1.36378C463.603 1.42787 462.166 1.49135 460.729 1.55426C455.249 1.7941 449.551 1.10133 444.585 3.92584C443.879 4.22256 443.263 4.69868 442.798 5.30689C442.333 5.9151 442.035 6.63426 441.934 7.39315C441.498 6.48003 440.845 5.6881 440.031 5.08696C439.217 4.48582 438.268 4.09393 437.268 3.94591C434.272 3.27971 431.216 2.92526 428.147 2.88812C425.574 2.84212 422.965 3.07716 420.392 3.17056C417.444 3.2775 414.496 3.38195 411.548 3.48401C405.639 3.6883 399.73 3.88256 393.821 4.06672C387.93 4.25013 382.039 4.42325 376.147 4.58614C375.068 4.61581 373.989 4.64526 372.91 4.67449C369.882 4.75604 366.889 4.83565 363.861 4.81675C361.57 4.76385 359.338 5.53873 357.572 6.99927C356.753 7.63637 356.11 8.47164 355.703 9.42631C355.297 10.381 355.14 11.4235 355.248 12.4555C354.94 10.7829 354.166 9.23151 353.014 7.98008C349.833 4.81612 345.025 5.34856 340.962 5.43123C335.125 5.55031 329.288 5.65842 323.452 5.75549C317.634 5.85227 311.815 5.93808 305.997 6.01304C300.198 6.08754 294.399 6.15083 288.599 6.20292C282.819 6.25488 277.039 6.29545 271.259 6.32459C265.498 6.35366 259.737 6.37111 253.976 6.37703C244.961 6.38631 235.95 6.32672 226.944 6.19818C223.382 6.14485 220.181 5.72526 217.341 8.21568C216.921 8.58428 216.535 8.99144 216.19 9.43182C216.039 9.62483 215.241 10.5486 215.325 10.7882C214.842 9.51544 213.997 8.41174 212.895 7.61299C211.792 6.81424 210.48 6.35536 209.12 6.29273C206.916 6.21373 204.706 6.13663 202.484 6.11095C195.285 6.02828 187.796 5.88297 180.488 5.699C176.597 5.60108 172.707 5.49247 168.816 5.37311C165.352 5.51148 161.987 6.56766 159.065 8.43354C158.774 7.7126 158.314 7.07237 157.723 6.56717C157.132 6.06196 156.429 5.70665 155.671 5.53138C154.26 5.27614 152.823 5.18947 151.391 5.27322C145.84 5.0314 140.247 4.93576 134.68 4.73684C131.879 4.65472 129.077 4.56942 126.276 4.48091C125.6 4.49291 124.924 4.46318 124.251 4.39179C123.856 4.27994 123.449 4.21053 123.038 4.18469C121.651 4.30218 120.294 4.65523 119.026 5.2287C117.517 5.81608 116.272 6.93017 115.521 8.36491C115.069 8.18799 114.888 7.6632 114.698 7.21653C114.258 6.25195 113.565 5.42457 112.693 4.82217C111.821 4.21977 110.802 3.86492 109.744 3.7953C109.231 3.762 108.736 3.86182 108.232 3.87788C106.572 3.93095 104.854 3.73967 103.189 3.67621C101.401 3.60792 99.6119 3.5383 97.8233 3.46739C90.3932 3.1728 82.9643 2.85398 75.5366 2.51086C60.9397 1.83676 46.3476 1.06585 31.7604 0.198181C27.3403 -0.0745854 22.9893 1.39488 19.6398 4.29173C16.2903 7.18857 14.2088 11.2822 13.8414 15.6954C-4.63273 245.004 -4.61376 475.427 13.8981 704.733C13.9859 705.844 14.1834 706.945 14.4876 708.018C15.4606 710.812 16.8779 713.43 18.6849 715.772C19.7817 717.02 21.0778 718.078 22.5204 718.903C24.042 719.995 25.5926 721.045 27.1719 722.053C31.9699 725.117 37.1724 728.228 43.0824 727.962C50.3645 727.634 57.6474 727.322 64.931 727.028C68.676 726.876 72.4213 726.729 76.1667 726.586C78.1393 726.511 80.1119 726.437 82.0845 726.364C83.5546 726.379 85.0246 726.319 86.4886 726.184C87.8039 726.126 89.1216 726.165 90.4313 726.3C91.9534 726.314 93.4746 726.218 94.9827 726.011C95.8051 725.939 96.6067 725.713 97.3456 725.344C99.6529 724.045 99.904 720.814 101.567 718.754C101.837 720.762 102.39 722.723 103.211 724.576C103.31 724.855 103.478 725.103 103.699 725.3C104.042 725.502 104.441 725.588 104.836 725.544C108.812 725.522 112.787 725.501 116.763 725.479C118.463 725.624 120.176 725.535 121.852 725.215C123.582 724.898 125.345 724.796 127.1 724.91C134.869 724.695 142.638 724.498 150.408 724.319C155.175 724.208 159.943 724.105 164.71 724.009C166.955 723.964 169.21 723.852 171.454 723.869C171.776 723.877 172.095 723.933 172.4 724.036C173.223 724.208 174.074 724.209 174.898 724.038C175.722 723.867 176.502 723.528 177.19 723.043C178.671 722.088 179.906 720.799 180.797 719.279C181.687 717.759 182.208 716.051 182.316 714.292C182.923 715.989 183.531 717.686 184.138 719.382C184.429 720.597 185.12 721.678 186.099 722.453C186.718 722.784 187.397 722.984 188.096 723.043C197.418 724.028 206.811 724.165 216.158 723.451C225.467 723.08 234.779 723.066 244.094 723.021C251.939 722.984 259.784 722.964 267.628 722.961C275.488 722.959 283.347 722.974 291.207 723.006C296.859 723.024 302.52 723.165 308.172 723.102C308.973 722.997 309.784 722.999 310.584 723.11C312.719 723.707 314.986 723.64 317.082 722.916C318.318 722.468 319.416 721.707 320.27 720.708C321.124 719.708 321.703 718.503 321.951 717.212C322.159 718.904 322.958 720.467 324.206 721.627C325.185 722.224 326.3 722.56 327.445 722.605C329.356 722.819 331.278 722.928 333.201 722.932C334.873 722.758 336.56 722.773 338.228 722.977C341.611 723.534 345.044 723.724 348.468 723.543C353.047 723.61 357.626 723.683 362.205 723.761C370.124 723.896 378.041 724.049 385.959 724.218C393.891 724.387 401.823 724.573 409.755 724.776C411.527 724.776 413.304 724.868 415.075 724.915C416.549 724.815 418.028 724.861 419.492 725.052C420.051 725.188 420.556 725.392 421.138 725.483C422.558 725.794 424.036 725.711 425.414 725.245C426.206 724.912 426.9 724.38 427.427 723.7C427.955 723.021 428.298 722.217 428.424 721.366C428.074 722.899 429.626 724.265 431.165 724.585C432.522 724.867 433.943 724.715 435.286 725.002C435.852 725.123 436.436 725.186 437.009 725.265C438.139 725.421 439.271 725.55 440.407 725.655C442.677 725.864 444.954 725.97 447.237 725.974C447.627 726.002 448.017 725.943 448.38 725.799C448.698 725.619 448.971 725.37 449.181 725.071C450.786 723.054 451.922 720.706 452.508 718.196C453.157 720.174 453.807 722.152 454.456 724.129C454.575 724.603 454.796 725.046 455.103 725.426C455.455 725.705 455.859 725.912 456.291 726.035C456.724 726.157 457.176 726.192 457.622 726.138C459.606 726.155 461.59 726.158 463.573 726.187C464.296 726.197 464.929 726.441 465.646 726.478C466.64 726.528 467.636 726.548 468.63 726.584C472.609 726.726 476.588 726.873 480.566 727.023L481.401 727.055C489.384 727.358 497.373 727.678 505.368 728.014C509.762 728.204 514.058 726.678 517.348 723.759C520.638 720.839 522.664 716.755 522.998 712.37C540.317 483.002 540.334 252.656 523.048 23.2861C522.758 19.56 521.239 16.0355 518.73 13.2656C518.207 12.6899 517.714 11.942 517.141 11.4149C513.009 7.57868 508.285 4.43416 503.151 2.10227C500.213 0.717822 497.003 0.00343764 493.755 0.0108034V0.0108034Z" fill="url(#paint0_linear_216_99)"/>
<path d="M511.507 15.6005C528.795 244.97 528.786 475.316 511.479 704.684C511.138 709.07 509.11 713.152 505.821 716.073C502.532 718.994 498.238 720.525 493.843 720.345C491.811 720.26 489.78 720.232 487.748 720.203C486.043 720.266 484.336 720.2 482.641 720.006C482.048 719.893 481.569 719.611 480.976 719.526C480.412 719.442 479.848 719.385 479.255 719.329C477.844 719.188 476.433 719.075 475.022 718.962C471.044 718.595 467.065 718.2 463.087 717.834C462.72 717.805 462.353 717.777 462.014 717.749C461.382 717.749 460.764 717.562 460.237 717.212C459.815 716.836 459.511 716.346 459.362 715.802C456.7 709.239 455.311 702.229 455.271 695.147C455.183 687.642 454.542 680.154 453.352 672.743L452.082 663.6V666.648C452.054 673.476 451.8 680.333 451.264 687.134C450.953 691.056 450.558 694.978 450.051 698.872C449.851 704.359 449.105 709.813 447.821 715.153C447.285 716.62 446.636 717.608 445.79 717.636C442.629 717.749 439.497 717.749 436.337 717.579C434.76 717.734 433.168 717.629 431.625 717.269C430.27 716.507 430.976 716.902 430.355 715.379C429.615 713.939 429.028 712.426 428.606 710.864C428.267 709.142 428.098 707.365 427.928 705.587C427.279 699.295 426.649 692.993 426.038 686.682C425.953 688.29 425.84 689.899 425.728 691.507C425.304 698.872 424.825 706.264 424.373 713.629C424.288 714.814 424.232 715.971 424.147 717.156C424.119 717.636 424.034 718.2 423.611 718.426C423.393 718.497 423.163 718.526 422.934 718.511C418.109 718.285 413.284 718.059 408.459 717.834C396.608 717.297 384.728 716.789 372.877 716.535C371.241 716.451 369.633 716.423 368.024 716.394C357.877 716.658 347.724 716.385 337.606 715.576C336.675 715.463 326.602 714.729 326.602 714.786C324.937 691.902 324.118 668.962 324.147 645.965C324.147 644.131 324.147 642.297 324.175 640.463C324.119 641.055 324.062 641.676 324.006 642.268L323.978 642.297C323.103 651.326 322.172 660.384 321.184 669.385C320.648 674.238 320.112 679.064 319.406 683.86C318.842 687.782 317.911 691.62 317.29 695.514C317.14 696.722 317.13 697.944 317.262 699.154C316.973 702.888 316.273 706.578 315.174 710.158C315.117 710.441 315.061 710.694 314.976 710.977C314.822 711.661 314.544 712.311 314.158 712.896C313.625 713.465 312.977 713.916 312.257 714.217C311.538 714.519 310.762 714.665 309.982 714.645C309.447 714.692 308.91 714.711 308.374 714.701C304.141 714.701 300.078 715.124 295.874 715.379C290.992 715.661 286.139 715.322 281.286 715.322C269.491 715.266 257.705 715.256 245.93 715.294C243.193 715.294 240.456 715.322 237.719 715.322C228.689 715.35 219.678 715.407 210.687 715.491C207.579 715.258 204.453 715.467 201.403 716.112C198.081 716.733 194.67 716.704 191.358 716.027C190.591 716.001 189.847 715.756 189.214 715.322C188.73 714.83 188.389 714.215 188.226 713.544C186.94 708.351 186.37 703.006 186.533 697.658C186.336 692.424 185.713 687.215 184.671 682.083C184.558 681.377 184.417 680.644 184.248 679.938C183.717 688.245 182.5 696.494 180.608 704.6C180.025 707.177 179.014 709.638 177.617 711.88C177.357 712.298 177.065 712.694 176.742 713.065C175.936 714.058 174.933 714.874 173.797 715.461C172.661 716.049 171.416 716.395 170.139 716.479C169.845 716.494 169.55 716.466 169.264 716.394C168.987 716.362 168.713 716.306 168.446 716.225C166.727 715.971 164.981 715.942 163.254 716.14L155.212 716.31C150.303 716.394 145.393 716.479 140.483 716.592C135.692 716.577 130.905 716.859 126.149 717.438C123.758 717.669 121.356 717.773 118.954 717.749C116.017 717.909 113.071 717.814 110.15 717.467C108.539 717.357 106.962 716.955 105.494 716.282C105.491 716.282 105.487 716.281 105.483 716.28C105.48 716.278 105.477 716.276 105.474 716.274C105.472 716.271 105.47 716.268 105.468 716.264C105.467 716.261 105.466 716.257 105.466 716.253C104.684 715.954 104.005 715.435 103.509 714.759C103.014 714.084 102.723 713.28 102.673 712.444C102.653 709.77 102.436 707.101 102.024 704.459C101.431 698.561 100.951 692.645 100.585 686.71C99.7945 674.577 99.3713 662.415 99.1738 650.226C99.0891 644.3 99.0609 638.347 99.0327 632.421V631.546C99.0045 626.213 98.8352 620.824 99.0891 615.491C98.4966 626.947 97.7159 638.384 96.7471 649.803C96.211 655.728 95.6467 661.682 95.0259 667.608C93.9536 677.737 94.0665 688.234 93.1074 698.138C92.5428 703.668 92.2327 709.227 92.1478 714.758C92.1196 715.068 92.1195 715.379 92.1195 715.689C92.1479 716.05 92.048 716.41 91.8374 716.705C91.5866 716.903 91.2817 717.021 90.9627 717.043C84.9271 717.991 78.8401 718.575 72.7346 718.793C67.7684 718.934 62.774 719.075 57.8078 719.273C49.0606 719.554 40.3134 719.893 31.5662 720.288C27.1813 720.49 22.8893 718.982 19.5943 716.082C16.2993 713.182 14.2587 709.116 13.9022 704.741C-4.61253 475.429 -4.63141 244.999 13.8458 15.6849C14.2149 11.2731 16.2969 7.18137 19.646 4.28591C22.995 1.39044 27.3447 -0.0784826 31.7635 0.193823C43.8687 0.927744 55.9925 1.58624 68.135 2.1693C73.4116 2.42325 78.7164 2.64873 84.0211 2.90296C87.2096 3.04405 90.4264 3.15659 93.6434 3.29795C95.2259 3.31372 96.7999 3.53185 98.3271 3.94697C101.092 4.82169 104.112 4.62415 106.961 5.30107C107.891 5.47722 108.757 5.89576 109.473 6.51437C110.044 7.24321 110.414 8.1092 110.545 9.02571C110.573 9.11065 110.573 9.19498 110.601 9.27991C113.051 19.6759 114.645 30.2548 115.37 40.9107C115.511 42.8859 115.596 44.8332 115.681 46.8084C116.894 34.5058 118.107 22.1937 119.32 9.87219C119.317 8.72028 119.694 7.59943 120.393 6.68367C121.059 6.11557 121.87 5.74434 122.735 5.6115C123.61 5.38605 124.456 5.2449 125.331 5.10353C128.369 4.6924 131.436 4.52259 134.501 4.59565C140.271 4.88252 146.014 5.58027 151.685 6.68367C154.394 7.248 154.592 8.9693 154.281 10.8319C154.055 12.0167 153.632 13.2867 153.491 14.3308C153.096 17.2371 152.786 20.1716 152.56 23.1059C152.08 28.9753 151.967 34.8726 151.939 40.7697C151.939 44.6072 151.996 48.445 152.052 52.2825C152.278 68.2529 152.494 84.2141 152.701 100.166C152.757 99.9686 152.786 99.7432 152.842 99.5457C156.708 81.6277 154.62 62.892 156.99 44.6639C158.409 37.3932 159.146 30.0058 159.191 22.598C158.762 19.8556 158.801 17.0605 159.304 14.3308C160.056 12.1006 161.644 10.2493 163.734 9.16676C166.067 7.87584 168.686 7.18736 171.352 7.16365C172.904 7.02228 174.456 6.99438 175.895 6.90945C184.517 6.64132 193.147 6.8674 201.742 7.58663C203.266 7.69978 204.789 7.78414 206.313 7.86907C207.42 7.81115 208.514 8.1294 209.417 8.77203C209.95 9.34818 210.311 10.0615 210.461 10.8319C210.461 10.8601 210.489 10.9162 210.489 10.9444C210.972 12.5927 211.191 14.3068 211.138 16.0234C211.064 16.5474 211.017 17.0749 210.997 17.6037C211.195 19.6071 211.872 21.6669 212.154 23.6988C212.436 25.672 212.606 27.6597 212.662 29.6522C212.86 28.8624 213.029 28.0721 213.226 27.2823C214.496 21.78 215.794 16.3059 217.064 10.8036C217.18 10.0772 217.47 9.38959 217.91 8.79993C219.914 6.65573 226.742 7.16369 229.338 6.93795C234.332 6.54263 239.355 6.34509 244.378 6.28893C246.776 6.2325 249.146 6.23253 251.545 6.23253C255.693 6.23253 259.84 6.28893 263.989 6.34508C266.895 6.37329 269.773 6.40185 272.679 6.43007C284.813 6.51444 296.917 6.68373 309.051 6.76866C314.44 6.82509 319.858 6.85296 325.247 6.85296C331.032 6.85296 340.964 6.09139 346.156 9.08238C347.597 9.99032 348.621 11.4303 349.006 13.0892C349.419 14.6002 349.665 16.1521 349.739 17.7168C351.376 42.6602 353.041 67.5945 354.734 92.5197C354.734 92.6325 354.762 92.7733 354.762 92.8865V92.9994C354.785 93.0722 354.795 93.1487 354.79 93.2251C354.79 92.689 354.819 92.1528 354.819 91.6167C355.383 63.4842 357.029 35.4083 359.757 7.38909C359.897 6.06318 362.776 5.66785 363.707 5.44212C366.656 4.83609 369.646 4.4401 372.651 4.25706C373.16 4.20062 373.696 4.14448 374.203 4.11627C383.797 3.38235 393.419 3.18484 403.013 3.07226H403.493C404.424 3.04404 405.327 3.01548 406.23 2.98726C407.302 2.95905 408.346 2.93118 409.39 2.90296C415.097 2.62007 420.817 2.6766 426.517 3.07226C428.226 3.25712 429.911 3.62604 431.54 4.17267C432.358 4.37881 433.139 4.71208 433.854 5.16028C435.424 6.52604 436.562 8.32068 437.127 10.3239C437.373 10.9983 437.58 11.686 437.748 12.3838C438.985 17.0133 439.983 21.7034 440.739 26.4355C440.823 25.9558 440.908 25.5046 441.021 25.0246C441.924 20.0587 442.883 15.0644 443.843 10.0697C444.103 8.22113 444.8 6.46095 445.874 4.93424C446.496 4.17351 447.276 3.55737 448.16 3.12866C449.248 2.59775 450.408 2.22705 451.602 2.02816C452.025 1.97144 452.42 1.91502 452.844 1.85887C456.879 1.3789 460.857 2.02817 464.864 1.57642C466.924 1.32275 468.956 1.18169 471.044 1.09704C475.022 0.899241 479.029 0.72993 483.008 0.532412L493.758 0.0245289C498.165 -0.212901 502.49 1.28408 505.807 4.19514C509.124 7.10621 511.17 11.2001 511.507 15.6005V15.6005Z" fill="url(#paint1_linear_216_99)"/>
<path d="M84.0249 2.90041C87.2134 3.04149 90.4302 3.15403 93.6472 3.2954C95.2297 3.31117 96.8037 3.5293 98.3309 3.94442C101.096 4.81914 104.115 4.62159 106.965 5.29851C107.895 5.47466 108.761 5.8933 109.477 6.51191C110.048 7.24074 110.417 8.10665 110.549 9.02316C110.577 9.10809 110.577 9.19251 110.605 9.27745C113.054 19.6734 114.649 30.2523 115.374 40.9083C115.515 42.8835 115.6 44.8307 115.685 46.8058C116.898 34.5033 118.111 22.1913 119.324 9.86972C119.321 8.71781 119.698 7.59697 120.396 6.6812C121.062 6.1131 121.874 5.74179 122.739 5.60895C123.613 5.38349 124.46 5.24243 125.334 5.10106C124.29 21.1282 123.811 37.2119 123.698 53.6059C122.977 170.923 129.3 288.177 142.631 404.736C149.206 463.033 156.119 521.216 160.803 579.681C164.415 624.659 169.578 670.85 169.268 716.392C168.991 716.36 168.717 716.303 168.45 716.223C166.73 715.968 164.985 715.94 163.258 716.138L155.216 716.307C153.551 697.571 152.564 678.807 151.181 659.93C148.726 626.691 145.829 593.489 142.491 560.325C130.526 442.068 113.907 324.573 108.122 205.723C107.727 197.061 107.332 188.398 106.993 179.707C105.752 201.885 104.567 224.092 103.636 246.271C102.366 276.011 100.729 305.837 100.955 335.605C101.237 366.644 103.495 397.57 104.313 428.552C105.978 490.149 109.533 551.633 110.323 613.288C110.718 643.762 112.552 675.365 107.445 705.529C106.824 709.112 106.175 712.696 105.47 716.251C104.688 715.951 104.008 715.433 103.513 714.757C103.017 714.081 102.727 713.278 102.676 712.441C102.657 709.767 102.44 707.098 102.027 704.456C101.435 698.559 100.955 692.642 100.588 686.708C99.7982 674.574 99.3749 662.413 99.1774 650.223C99.0927 644.298 99.0645 638.344 99.0363 632.418V631.544C99.0081 626.211 98.8388 620.822 99.0928 615.488C98.5002 626.944 97.7195 638.382 96.7507 649.8C96.2146 655.726 95.6503 661.679 95.0295 667.605C93.9573 677.735 94.0701 688.232 93.111 698.136C92.5464 703.666 92.2363 709.225 92.1514 714.755C92.1232 715.066 92.1232 715.376 92.1232 715.687C92.1516 716.048 92.0517 716.407 91.841 716.702C91.5902 716.901 91.2853 717.019 90.9663 717.041C84.9308 717.988 78.8438 718.572 72.7382 718.79C67.772 718.932 62.7776 719.073 57.8115 719.27C56.4571 708.745 55.3566 698.192 54.8487 687.582C53.2121 652.763 53.5789 617.802 51.8859 582.954C48.9796 522.599 44.4367 461.424 48.0767 401.012C51.6884 341.051 59.053 281.373 64.64 221.581C70.4809 159.194 75.7856 96.7497 81.2315 34.334C82.1344 23.8656 83.0938 13.3686 84.0249 2.90041ZM363.711 5.43965C362.779 5.66539 359.901 6.06071 359.76 7.38662C357.051 35.378 355.405 63.4539 354.822 91.6142C354.822 92.1504 354.794 92.6865 354.794 93.2226C354.799 93.1463 354.789 93.0697 354.766 92.9968V92.8839C354.766 92.7708 354.738 92.6301 354.738 92.5172C353.073 67.5732 351.408 42.6389 349.743 17.7143C349.669 16.1495 349.423 14.5977 349.01 13.0867C348.625 11.4277 347.6 9.98786 346.16 9.07991C340.968 6.08892 331.035 6.85049 325.251 6.85049C319.861 6.85049 314.444 6.82254 309.054 6.76611C305.556 121.665 300.476 236.508 292.406 351.124C291.221 346.243 290.064 341.362 288.936 336.48C279.088 293.071 273.157 248.866 271.216 204.397C268.027 138.341 270.962 71.9468 263.992 6.34261C259.844 6.28646 255.696 6.22998 251.548 6.22998C253.693 74.063 250.956 142.038 253.072 209.871C254.339 252.517 259.057 294.991 267.181 336.875C273.304 368.337 280.809 399.573 286.255 431.147C282.926 471.244 279.163 511.33 274.968 551.408C271.78 581.713 268.253 611.99 264.387 642.238C264.19 643.846 264.049 645.455 263.851 647.035C259.421 629.682 256.091 611.99 253.383 594.439C245.905 546.414 242.575 497.598 238.315 449.206C229.172 345.425 221.921 241.445 215.487 137.467C212.778 93.7867 210.465 50.2198 201.746 7.58407C193.15 6.86484 184.521 6.63877 175.899 6.9069C174.46 6.99183 172.908 7.01982 171.356 7.16118C166.475 44.6896 166.926 82.6413 168.534 120.762C170.792 173.697 173.416 226.632 177.112 279.51C184.421 383.743 191.108 488.795 205.47 592.35C211.396 635.043 221.159 676.155 237.722 715.32C240.459 715.32 243.197 715.291 245.933 715.291C257.728 715.263 269.513 715.272 281.289 715.32C286.142 715.32 290.996 715.658 295.877 715.376C300.081 715.122 304.145 714.699 308.377 714.699C308.914 714.708 309.451 714.69 309.986 714.643C312.44 704.964 314.049 694.947 316.024 685.41C321.696 658.265 325.618 630.979 329.342 603.496C336.905 547.598 343.451 491.579 348.981 435.436C359.732 324.94 365.093 213.765 369.354 102.844C370.595 69.9998 371.696 37.1366 372.655 4.2545C369.649 4.43755 366.66 4.83362 363.711 5.43965V5.43965ZM448.164 3.12611C447.28 3.55482 446.5 4.17104 445.878 4.93177C444.804 6.45848 444.107 8.21858 443.846 10.0672C442.887 15.0618 441.928 20.0563 441.025 25.0222C440.912 25.5021 440.827 25.9533 440.743 26.433C439.987 21.7009 438.989 17.0108 437.752 12.3812C437.584 11.6835 437.376 10.9958 437.131 10.3215C436.566 8.31821 435.428 6.52349 433.858 5.15772C433.143 4.70953 432.362 4.37626 431.544 4.17012C429.914 3.62349 428.23 3.25457 426.521 3.0697C420.82 2.67404 415.101 2.61752 409.394 2.90041C408.35 2.92863 407.306 2.95658 406.233 2.9848C409.591 94.5203 411.482 185.886 406.939 277.479C401.973 378.015 392.435 478.552 383.349 578.778C380.754 607.418 377.791 635.974 375.759 664.642C374.574 681.234 372.796 699.067 372.881 716.533C384.732 716.787 396.612 717.295 408.462 717.831C411.764 705.556 414.078 692.915 416.025 681.262C420.314 655.472 423.7 629.738 426.239 603.722C431.262 552.875 435.381 501.944 439.699 451.012C442.182 421.949 444.542 392.886 446.781 363.822C448.587 384.985 450.252 406.147 451.437 427.367C454.512 481.994 459.422 536.538 462.047 591.222C464.106 633.491 463.09 675.59 462.018 717.746C462.357 717.774 462.723 717.803 463.09 717.831C467.069 718.198 471.048 718.593 475.026 718.959C476.437 719.073 477.848 719.185 479.259 719.326C486.285 679.061 485.946 637.356 484.168 596.639C481.77 541.899 476.155 487.666 468.339 433.461C460.071 376.35 457.165 317.772 453.666 260.153C453.609 259.11 453.553 258.037 453.497 256.993C455.274 219.352 456.346 181.654 456.318 143.872C456.262 96.4955 455.133 49.2039 451.606 2.02561C450.411 2.2245 449.252 2.59518 448.164 3.12611V3.12611Z" fill="url(#paint2_linear_216_99)"/>
<path d="M482.954 564.909C484.862 568.466 485.813 572.456 485.714 576.491C486.437 575.38 487.404 574.448 488.541 573.767C489.652 573.1 490.925 572.747 492.222 572.747C493.518 572.747 494.791 573.1 495.903 573.767C500.54 576.651 500.225 582.729 498.827 587.402C497.947 589.763 496.383 591.807 494.333 593.273C492.283 594.738 489.843 595.558 487.324 595.626C485.687 595.572 484.129 594.904 482.961 593.756C481.792 592.608 481.097 591.063 481.013 589.426C479.105 592.41 476.89 595.186 474.404 597.709C467.822 604.371 456.325 609.097 447.276 605.93C443.095 604.466 439.218 599.47 441.042 594.664C443.444 588.933 446.419 583.46 449.924 578.329C450.824 576.902 451.736 575.511 452.513 574.005C452.892 573.27 454.038 570.48 453.191 572.557C454.93 567.128 458.629 562.542 463.566 559.693C469.936 556.075 479.449 557.784 482.954 564.909ZM428.272 615.197C427.853 615.479 427.409 615.722 426.945 615.923C425.51 616.79 424.321 618.01 423.491 619.467C422.626 620.986 422.173 622.704 422.177 624.452C422.247 626.071 422.629 627.66 423.301 629.133C423.797 630.538 424.725 631.75 425.952 632.594C427.164 633.433 428.548 633.992 430.002 634.231C431.457 634.471 432.946 634.384 434.364 633.978C436.369 633.368 438.123 632.126 439.365 630.438C440.724 628.741 441.454 626.627 441.432 624.452C441.365 623.106 441.177 621.769 440.871 620.456C440.537 619.178 439.912 617.994 439.045 616.996C438.179 615.999 437.093 615.215 435.874 614.706C434.655 614.197 433.334 613.977 432.016 614.062C430.697 614.147 429.416 614.535 428.272 615.197V615.197ZM363.216 125.285C360.86 126.018 358.797 127.481 357.327 129.463C355.856 131.445 355.053 133.843 355.035 136.311C355.019 138.083 354.536 139.585 354.536 141.55C354.763 144.574 355.593 147.522 356.979 150.22C358.486 154.894 361.611 158.876 365.793 161.451C367.942 162.645 370.43 163.084 372.858 162.7C375.287 162.315 377.516 161.128 379.192 159.328C379.765 159.911 380.348 160.504 380.904 161.171C381.535 161.784 382.333 162.198 383.198 162.36C384.063 162.521 384.956 162.424 385.766 162.08C386.576 161.736 387.266 161.16 387.75 160.425C388.234 159.69 388.49 158.828 388.486 157.948C388.483 156.617 388.562 155.286 388.723 153.964C388.73 152.131 388.414 150.312 387.789 148.589C387.304 147.177 386.895 145.672 386.275 144.317C385.874 143.349 385.235 142.499 384.419 141.843C384.149 141.629 381.815 140.047 382.788 141.043C382.36 140.603 381.817 140.293 381.22 140.149C380.469 137.14 378.985 134.364 376.902 132.068L375.802 130.54C374.542 128.433 372.64 126.786 370.375 125.84C368.109 124.894 365.6 124.699 363.216 125.285ZM341.137 139.929C340.771 140.944 340.587 142.015 340.592 143.094C340.891 144.254 341.356 145.364 341.973 146.391C342.272 146.925 342.759 147.33 343.34 147.525C343.921 147.72 344.554 147.693 345.116 147.447C345.677 147.191 346.131 146.746 346.398 146.189C346.664 145.632 346.726 144.999 346.573 144.401C346.466 143.319 346.2 142.258 345.784 141.254C345.182 140.467 344.447 139.792 343.611 139.259C343.426 139.078 343.197 138.948 342.946 138.883C342.695 138.817 342.432 138.818 342.182 138.886C341.932 138.954 341.704 139.086 341.521 139.269C341.337 139.452 341.205 139.68 341.137 139.929V139.929ZM311.144 115.693C310.456 115.976 309.773 116.268 309.093 116.57C304.65 123.055 304.191 128.253 307.717 132.165C308.438 132.975 309.278 133.671 310.207 134.23C311.188 134.814 312.275 135.199 313.405 135.363C314.535 135.526 315.687 135.465 316.793 135.182C317.9 134.899 318.939 134.401 319.852 133.715C320.766 133.03 321.535 132.171 322.115 131.187C323.367 128.949 323.698 126.311 323.04 123.833C322.595 122.534 322.081 121.26 321.499 120.017L320.065 118.113C319.269 117.218 318.251 116.547 317.114 116.167C315.253 115.269 313.123 115.099 311.144 115.693V115.693ZM125.157 141.492C123.191 141.814 121.323 142.578 119.695 143.726C118.035 145.266 116.664 147.091 115.648 149.115C114.601 150.663 113.738 152.327 113.076 154.075C112.586 156.052 112.344 158.082 112.354 160.118C112.245 161.573 112.655 163.02 113.51 164.202C114.366 165.384 115.613 166.225 117.029 166.576C112.797 171.966 109.955 178.314 108.752 185.061C107.37 191.49 107.977 207.555 118.104 206.235C126.048 205.199 130.813 199.256 134.873 192.553C138.806 186.061 141.851 180.353 141.064 173.582C141.697 168.044 142.503 161.248 136.345 158.587C134.827 157.914 133.149 157.686 131.507 157.926C132.589 156.622 133.419 155.127 133.952 153.518C134.332 151.162 134.228 148.752 133.646 146.437C133.17 144.659 132.011 143.142 130.421 142.215C128.831 141.289 126.939 141.029 125.157 141.492V141.492ZM130.375 218.805C128.939 220.162 127.619 221.636 126.429 223.212C125.297 225.14 124.621 227.301 124.452 229.53C123.932 231.516 123.687 233.564 123.725 235.617C124.113 237.47 125.073 239.154 126.47 240.432C126.809 240.787 127.238 241.042 127.711 241.171C128.185 241.299 128.684 241.296 129.156 241.161C130.772 240.84 132.279 240.109 133.53 239.036C134.856 237.188 135.832 235.112 136.407 232.912C137.326 231.073 137.864 229.067 137.99 227.016C137.817 224.829 137.429 222.665 136.834 220.555C136.661 219.898 136.319 219.299 135.841 218.817C135.363 218.335 134.766 217.988 134.111 217.811C133.455 217.633 132.765 217.632 132.109 217.806C131.453 217.981 130.855 218.326 130.375 218.805V218.805ZM176.609 145.636C174.612 146.029 172.812 147.102 171.516 148.672C169.801 150.779 168.676 153.303 168.255 155.987C167.975 157.065 168.013 158.2 168.364 159.257C168.715 160.313 169.364 161.246 170.233 161.941C171.096 162.615 172.14 163.016 173.231 163.095C174.323 163.174 175.414 162.926 176.364 162.384L178.604 161.248C180.212 160.433 181.576 159.207 182.558 157.695C183.659 156.213 184.314 154.447 184.444 152.605C184.48 151.52 184.269 150.442 183.826 149.451C183.383 148.46 182.72 147.583 181.887 146.887C181.146 146.316 180.292 145.91 179.382 145.694C178.472 145.478 177.527 145.458 176.609 145.636V145.636ZM354.179 286.642C349.032 295.847 350.62 311.131 357.548 318.417C358.649 319.535 359.961 320.422 361.408 321.028C362.855 321.634 364.408 321.946 365.976 321.946C367.545 321.946 369.098 321.634 370.545 321.028C371.992 320.422 373.304 319.535 374.405 318.417C383.962 307.794 379.884 289.146 368.052 282.411L367.702 282.024C363.055 276.881 355.335 280.543 354.179 286.642ZM346.637 336.892C345.062 339.145 344.412 341.918 344.823 344.636C345.256 346.659 345.821 348.651 346.515 350.599C346.847 351.814 347.605 352.869 348.651 353.57C349.698 354.271 350.962 354.571 352.211 354.415C353.455 354.207 354.587 353.57 355.409 352.614C356.232 351.658 356.693 350.444 356.713 349.183C356.991 347.111 357.122 345.022 357.104 342.931C356.831 340.254 355.573 337.775 353.573 335.975C353.097 335.492 352.516 335.125 351.874 334.905C351.233 334.685 350.549 334.616 349.877 334.705C349.204 334.794 348.562 335.038 347.999 335.417C347.437 335.797 346.971 336.302 346.637 336.892V336.892ZM86.3996 619.303C80.5621 623.428 81.6922 632.248 85.2331 637.534C86.7209 639.831 88.402 641.996 90.258 644.007C91.7807 645.516 93.7207 646.534 95.8275 646.929L98.4 647.284C97.4214 647.065 97.5133 647.078 98.6757 647.323C99.7517 647.588 100.874 647.605 101.958 647.373C103.041 647.141 104.058 646.666 104.931 645.984C105.804 645.301 106.511 644.429 106.998 643.434C107.485 642.438 107.739 641.345 107.742 640.237C107.752 639.931 107.754 639.72 107.752 639.564C107.775 639.476 107.802 639.373 107.833 639.246C108.509 636.439 108.132 633.481 106.773 630.933C105.885 629.183 104.794 627.383 103.753 625.724C100.185 620.038 92.7772 614.796 86.3996 619.303ZM90.137 653.968C90.5936 656.294 91.7691 658.418 93.4976 660.041C95.0872 661.365 96.7758 662.566 98.5487 663.632C99.2507 664.039 100.026 664.303 100.831 664.409C101.635 664.515 102.453 664.461 103.236 664.25C104.02 664.04 104.754 663.676 105.396 663.181C106.039 662.685 106.577 662.068 106.98 661.364C107.772 659.909 107.984 658.208 107.574 656.604C107.164 654.999 106.162 653.609 104.77 652.712C104.185 652.323 103.622 651.91 103.055 651.495L102.943 651.387C102.649 651.112 102.339 650.853 102.044 650.58C100.99 649.544 99.7143 648.762 98.3136 648.292C97.6525 648.073 96.9956 647.852 96.3464 647.597C92.6945 646.161 89.118 650.438 90.137 653.968ZM62.6885 585.36C62.2131 587.089 62.3689 588.931 63.1281 590.555C63.8562 591.547 64.7161 592.435 65.6841 593.194C66.309 593.818 67.122 594.219 67.9975 594.335C68.8731 594.451 69.7625 594.276 70.5282 593.836C71.2721 593.345 71.8473 592.637 72.1758 591.809C72.5044 590.98 72.5705 590.071 72.3652 589.203C72.2681 587.949 71.9501 586.722 71.426 585.578C70.4326 584.177 69.0037 583.143 67.3618 582.638C66.8761 582.506 66.3691 582.472 65.8702 582.538C65.3713 582.604 64.8905 582.768 64.4557 583.022C64.0209 583.275 63.6408 583.612 63.3374 584.014C63.034 584.415 62.8135 584.873 62.6885 585.36V585.36ZM201.192 416.219C200.884 416.032 200.565 415.864 200.238 415.715C198.298 414.626 196.009 414.34 193.861 414.918C191.713 415.495 189.877 416.891 188.746 418.807C188.415 419.406 188.119 420.024 187.859 420.657C186.168 422.838 184.93 425.334 184.216 428C183.502 430.665 183.327 433.446 183.702 436.18C184.135 442.024 187.027 447.192 189.333 452.468C192.526 459.776 202.452 461.9 208.98 459.073C210.916 458.229 212.659 457.001 214.104 455.462C215.917 459.634 218.108 463.631 220.65 467.404C221.717 469.005 223.075 470.393 224.654 471.494C228.017 475.39 232.549 476.975 238.654 473.235C250.21 466.154 247.155 445.71 243.192 435.063C240.791 428.61 237.402 421.253 231.174 417.871C227.852 416.113 223.971 415.734 220.372 416.817C216.774 417.9 213.746 420.358 211.947 423.657C210.731 421.771 209.155 420.144 207.31 418.868C205.464 417.591 203.386 416.691 201.192 416.219V416.219ZM228.171 487.982C227.766 489.763 228.622 490.793 229.322 492.268C229.337 492.3 229.413 492.477 229.464 492.594C229.52 492.755 229.614 493.018 229.628 493.062C229.793 493.58 229.931 494.106 230.041 494.639C230.18 495.171 230.431 495.666 230.778 496.092C231.125 496.518 231.56 496.865 232.053 497.107C232.546 497.35 233.085 497.484 233.634 497.5C234.184 497.515 234.73 497.412 235.236 497.198C235.74 496.968 236.19 496.636 236.56 496.224C236.929 495.811 237.209 495.326 237.382 494.8C237.555 494.273 237.617 493.717 237.564 493.166C237.512 492.614 237.346 492.08 237.076 491.596C236.483 490.402 235.76 489.278 234.92 488.243C233.949 487.012 232.725 485.594 231.028 485.751C230.376 485.771 229.748 485.998 229.235 486.4C228.721 486.801 228.349 487.355 228.171 487.982V487.982ZM214.544 510.934C214.404 511.253 214.287 511.581 214.151 511.901C210.395 516.881 212.548 524.349 216.437 528.639C219.174 531.967 222.96 534.268 227.175 535.163C228.625 535.541 230.149 535.529 231.593 535.128C233.036 534.726 234.348 533.949 235.393 532.876C236.439 531.803 237.182 530.472 237.547 529.019C237.911 527.566 237.884 526.042 237.468 524.602C235.217 517.908 230.637 508.79 223.226 507.926C222.959 507.832 222.688 507.748 222.422 507.645C220.93 507.228 219.342 507.326 217.912 507.922C216.483 508.519 215.296 509.58 214.544 510.934V510.934ZM481.873 44.8115C480.555 45.1759 479.323 45.7997 478.25 46.6464C477.177 47.4931 476.284 48.5455 475.623 49.7421C474.499 51.8076 474.053 54.1739 474.346 56.5068C474.64 58.8397 475.658 61.0216 477.258 62.7447C478.868 64.5534 480.479 66.362 482.089 68.1705C483.729 69.852 485.937 70.8628 488.282 71.006C490.627 71.1492 492.941 70.4147 494.774 68.9454C496.63 67.4498 497.898 65.3462 498.353 63.0063C498.809 60.6664 498.422 58.2409 497.262 56.1584C496.069 54.0196 494.875 51.8807 493.682 49.7421C492.518 47.7472 490.735 46.1864 488.604 45.2966C486.473 44.4068 484.109 44.2365 481.873 44.8115Z" fill="#EB924D"/>
<path d="M478.425 562.727C480.332 566.283 481.283 570.274 481.184 574.308C481.907 573.197 482.874 572.266 484.011 571.585C485.123 570.917 486.395 570.565 487.692 570.565C488.989 570.565 490.261 570.917 491.373 571.585C496.01 574.468 495.695 580.547 494.297 585.219C493.418 587.58 491.853 589.625 489.804 591.09C487.754 592.556 485.313 593.375 482.795 593.444C481.157 593.389 479.6 592.722 478.431 591.574C477.262 590.425 476.567 588.88 476.484 587.244C474.575 590.228 472.36 593.004 469.874 595.527C463.292 602.189 451.796 606.914 442.746 603.747C438.565 602.284 434.688 597.287 436.512 592.481C438.914 586.751 441.89 581.278 445.394 576.146C446.295 574.72 447.207 573.329 447.984 571.823C448.363 571.088 449.509 568.297 448.661 570.374C450.401 564.946 454.099 560.36 459.036 557.511C465.407 553.893 474.919 555.602 478.425 562.727ZM423.743 613.014C423.324 613.297 422.879 613.54 422.416 613.74C420.98 614.607 419.791 615.827 418.961 617.285C418.096 618.803 417.643 620.522 417.647 622.27C417.718 623.888 418.099 625.477 418.772 626.951C419.267 628.356 420.195 629.567 421.422 630.412C422.635 631.251 424.018 631.81 425.473 632.049C426.927 632.288 428.417 632.202 429.834 631.796C431.839 631.186 433.593 629.944 434.835 628.256C436.194 626.559 436.925 624.444 436.902 622.27C436.836 620.924 436.648 619.586 436.341 618.274C436.007 616.995 435.382 615.811 434.516 614.814C433.649 613.817 432.564 613.033 431.344 612.524C430.125 612.015 428.805 611.795 427.486 611.88C426.168 611.965 424.887 612.353 423.743 613.014V613.014ZM360.787 124.114C358.43 124.847 356.368 126.311 354.897 128.293C353.427 130.274 352.624 132.673 352.605 135.14C352.589 136.913 352.107 138.414 352.107 140.379C352.333 143.404 353.164 146.352 354.549 149.049C356.056 153.723 359.182 157.705 363.363 160.28C365.513 161.474 368 161.914 370.429 161.529C372.857 161.144 375.087 159.957 376.762 158.158C377.335 158.741 377.918 159.333 378.475 160C379.105 160.613 379.903 161.027 380.768 161.189C381.633 161.351 382.527 161.253 383.337 160.909C384.146 160.565 384.837 159.989 385.32 159.254C385.804 158.519 386.06 157.658 386.056 156.778C386.053 155.446 386.133 154.115 386.293 152.793C386.301 150.961 385.985 149.141 385.359 147.419C384.874 146.006 384.466 144.501 383.846 143.146C383.444 142.179 382.806 141.328 381.989 140.672C381.719 140.458 379.386 138.876 380.358 139.872C379.931 139.432 379.387 139.122 378.79 138.978C378.04 135.969 376.556 133.193 374.472 130.897C374.106 130.388 373.739 129.878 373.373 129.369C372.113 127.262 370.21 125.615 367.945 124.669C365.68 123.723 363.171 123.529 360.787 124.114ZM338.707 138.759C338.341 139.773 338.157 140.845 338.163 141.923C338.462 143.083 338.926 144.193 339.543 145.22C339.842 145.755 340.33 146.159 340.911 146.354C341.492 146.549 342.124 146.522 342.686 146.276C343.248 146.02 343.702 145.575 343.968 145.018C344.235 144.461 344.297 143.828 344.143 143.23C344.037 142.148 343.771 141.087 343.354 140.083C342.753 139.296 342.017 138.621 341.182 138.089C340.997 137.907 340.767 137.777 340.517 137.712C340.266 137.646 340.003 137.648 339.753 137.715C339.503 137.783 339.274 137.915 339.091 138.098C338.908 138.281 338.775 138.509 338.707 138.759V138.759ZM308.714 114.522C308.027 114.805 307.343 115.097 306.664 115.399C302.221 121.884 301.762 127.082 305.287 130.994C306.009 131.804 306.848 132.5 307.778 133.059C308.759 133.644 309.846 134.029 310.976 134.192C312.106 134.355 313.257 134.294 314.364 134.011C315.47 133.728 316.51 133.23 317.423 132.544C318.336 131.859 319.105 130.999 319.686 130.016C320.937 127.778 321.269 125.14 320.611 122.662C320.166 121.363 319.651 120.09 319.07 118.846C318.592 118.211 318.114 117.577 317.636 116.942C316.839 116.047 315.822 115.376 314.685 114.997C312.824 114.098 310.694 113.929 308.714 114.522V114.522ZM120.628 139.309C118.662 139.632 116.794 140.396 115.165 141.543C113.505 143.084 112.135 144.909 111.119 146.933C110.072 148.481 109.208 150.145 108.546 151.893C108.057 153.869 107.815 155.899 107.825 157.935C107.716 159.391 108.125 160.837 108.981 162.019C109.836 163.201 111.083 164.042 112.499 164.393C108.268 169.784 105.426 176.132 104.223 182.879C102.841 189.308 103.448 205.372 113.575 204.052C121.518 203.017 126.283 197.073 130.344 190.37C134.276 183.879 137.322 178.171 136.535 171.399C137.168 165.862 137.973 159.066 131.815 156.404C130.297 155.732 128.62 155.503 126.977 155.744C128.06 154.44 128.889 152.945 129.422 151.336C129.803 148.979 129.699 146.57 129.117 144.254C128.641 142.477 127.482 140.959 125.891 140.033C124.301 139.106 122.409 138.846 120.628 139.309V139.309ZM125.845 216.623C124.41 217.979 123.09 219.454 121.899 221.03C120.768 222.958 120.091 225.119 119.923 227.347C119.403 229.334 119.158 231.382 119.195 233.434C119.584 235.287 120.544 236.972 121.94 238.25C122.279 238.605 122.708 238.86 123.182 238.988C123.655 239.117 124.154 239.113 124.626 238.978C126.242 238.658 127.749 237.927 129 236.854C130.327 235.006 131.302 232.93 131.877 230.729C132.797 228.89 133.335 226.885 133.46 224.833C133.287 222.647 132.9 220.483 132.304 218.373C132.132 217.716 131.789 217.117 131.311 216.635C130.833 216.153 130.236 215.806 129.581 215.628C128.926 215.451 128.236 215.449 127.58 215.624C126.924 215.799 126.325 216.143 125.845 216.623V216.623ZM172.079 143.453C170.082 143.846 168.282 144.919 166.987 146.49C165.272 148.597 164.146 151.121 163.725 153.805C163.445 154.883 163.483 156.018 163.834 157.074C164.185 158.131 164.834 159.063 165.703 159.759C166.566 160.432 167.61 160.834 168.702 160.913C169.793 160.991 170.884 160.744 171.835 160.202C172.581 159.823 173.328 159.444 174.074 159.066C175.682 158.25 177.046 157.024 178.029 155.513C179.13 154.03 179.784 152.264 179.915 150.422C179.951 149.338 179.739 148.259 179.296 147.268C178.853 146.278 178.19 145.401 177.357 144.705C176.617 144.134 175.763 143.727 174.853 143.511C173.943 143.296 172.998 143.276 172.079 143.453V143.453ZM349.65 284.46C344.502 293.664 346.09 308.949 353.018 316.235C354.119 317.352 355.431 318.24 356.878 318.846C358.325 319.452 359.878 319.764 361.446 319.764C363.015 319.764 364.568 319.452 366.015 318.846C367.462 318.24 368.774 317.352 369.875 316.235C379.433 305.612 375.354 286.964 363.522 280.228L363.173 279.842C358.525 274.698 350.806 278.361 349.65 284.46V284.46ZM342.107 334.71C340.532 336.963 339.883 339.735 340.294 342.454C340.726 344.476 341.291 346.468 341.986 348.417C342.317 349.632 343.075 350.687 344.122 351.387C345.168 352.088 346.432 352.388 347.682 352.233C348.926 352.025 350.057 351.388 350.88 350.432C351.702 349.476 352.163 348.262 352.183 347.001C352.462 344.929 352.593 342.839 352.575 340.748C352.302 338.072 351.043 335.593 349.044 333.793C348.568 333.309 347.986 332.943 347.345 332.722C346.703 332.502 346.019 332.434 345.347 332.523C344.674 332.612 344.032 332.856 343.47 333.235C342.907 333.615 342.441 334.119 342.107 334.71V334.71ZM83.6664 617.985C77.8289 622.11 78.9589 630.93 82.5 636.217C83.9878 638.513 85.6687 640.679 87.5245 642.69C89.0474 644.199 90.9873 645.216 93.094 645.612L95.6668 645.967C94.6882 645.748 94.7801 645.761 95.9425 646.006C97.0185 646.271 98.1407 646.288 99.2244 646.056C100.308 645.824 101.325 645.349 102.198 644.666C103.071 643.984 103.778 643.112 104.265 642.116C104.751 641.121 105.006 640.028 105.008 638.919C105.019 638.614 105.021 638.403 105.018 638.247C105.042 638.159 105.069 638.056 105.099 637.929C105.776 635.122 105.399 632.164 104.039 629.616C103.152 627.866 102.061 626.066 101.02 624.406C97.4515 618.721 90.044 613.479 83.6664 617.985ZM87.4038 652.65C87.8604 654.977 89.0357 657.101 90.7641 658.724C92.3538 660.048 94.0425 661.248 95.8155 662.315C96.5175 662.722 97.293 662.986 98.0975 663.092C98.9019 663.198 99.7194 663.144 100.503 662.933C101.286 662.722 102.021 662.359 102.663 661.863C103.306 661.368 103.844 660.75 104.247 660.046C105.039 658.591 105.251 656.891 104.841 655.287C104.431 653.682 103.429 652.292 102.036 651.395C101.452 651.005 100.888 650.593 100.322 650.178L100.209 650.07C99.9157 649.795 99.6061 649.536 99.3101 649.262C98.2563 648.227 96.9808 647.445 95.5802 646.975C94.919 646.756 94.2624 646.535 93.6129 646.28C89.9613 644.843 86.3846 649.121 87.4038 652.65ZM59.9552 584.043C59.4798 585.772 59.6357 587.613 60.3948 589.238C61.1229 590.23 61.9828 591.117 62.9508 591.877C63.5757 592.501 64.3887 592.902 65.2642 593.018C66.1398 593.134 67.0292 592.958 67.795 592.518C68.5388 592.027 69.114 591.32 69.4425 590.492C69.7711 589.663 69.8372 588.754 69.6319 587.886C69.5348 586.632 69.2169 585.405 68.6927 584.261C67.6993 582.86 66.2705 581.826 64.6285 581.32C64.1429 581.189 63.6359 581.155 63.137 581.221C62.6381 581.287 62.1573 581.451 61.7224 581.704C61.2876 581.958 60.9075 582.295 60.6041 582.696C60.3007 583.098 60.0802 583.556 59.9552 584.043ZM196.663 414.036C196.355 413.85 196.036 413.682 195.708 413.532C193.769 412.443 191.48 412.157 189.332 412.735C187.184 413.313 185.348 414.709 184.216 416.624C183.886 417.223 183.59 417.842 183.33 418.475C181.639 420.656 180.4 423.152 179.686 425.817C178.972 428.483 178.798 431.264 179.172 433.998C179.605 439.842 182.498 445.01 184.804 450.286C187.997 457.593 197.923 459.717 204.451 456.891C206.386 456.047 208.129 454.818 209.574 453.279C211.387 457.451 213.578 461.449 216.12 465.221C217.188 466.823 218.546 468.21 220.124 469.312C223.487 473.208 228.02 474.793 234.124 471.053C245.681 463.971 242.626 443.528 238.663 432.88C236.261 426.428 232.872 419.071 226.644 415.688C223.323 413.93 219.442 413.551 215.843 414.635C212.244 415.718 209.217 418.175 207.417 421.474C206.201 419.589 204.625 417.961 202.78 416.685C200.935 415.409 198.856 414.509 196.663 414.036H196.663ZM225.54 486.714C225.134 488.495 225.991 489.525 226.69 491C226.705 491.032 226.781 491.209 226.832 491.326C226.888 491.487 226.982 491.75 226.997 491.794C227.162 492.312 227.299 492.838 227.409 493.37C227.548 493.902 227.799 494.398 228.146 494.824C228.493 495.25 228.928 495.596 229.421 495.839C229.914 496.082 230.453 496.216 231.002 496.231C231.552 496.247 232.098 496.144 232.604 495.93C233.108 495.7 233.559 495.368 233.928 494.955C234.297 494.543 234.577 494.058 234.75 493.532C234.923 493.005 234.985 492.449 234.933 491.898C234.88 491.346 234.714 490.812 234.444 490.328C233.851 489.134 233.128 488.01 232.288 486.975C231.317 485.744 230.093 484.326 228.396 484.482C227.744 484.503 227.117 484.73 226.603 485.131C226.09 485.533 225.717 486.087 225.54 486.714V486.714ZM211.912 509.666C211.772 509.984 211.655 510.312 211.519 510.633C207.763 515.612 209.916 523.081 213.805 527.371C216.542 530.699 220.328 533 224.544 533.894C225.993 534.273 227.518 534.261 228.961 533.859C230.405 533.458 231.716 532.681 232.762 531.608C233.808 530.535 234.55 529.204 234.915 527.75C235.279 526.297 235.252 524.773 234.836 523.334C232.585 516.639 228.005 507.522 220.594 506.657C220.327 506.564 220.057 506.48 219.791 506.376C218.299 505.96 216.71 506.058 215.281 506.654C213.851 507.251 212.665 508.312 211.912 509.666V509.666ZM477.343 42.6289C476.025 42.9933 474.794 43.6172 473.721 44.4639C472.647 45.3107 471.754 46.3632 471.093 47.5598C469.97 49.6253 469.523 51.9914 469.817 54.3243C470.11 56.6572 471.129 58.8391 472.728 60.5621C474.339 62.3708 475.949 64.1795 477.559 65.9882C479.2 67.6697 481.407 68.6804 483.752 68.8236C486.097 68.9668 488.411 68.2324 490.244 66.7631C492.101 65.2675 493.369 63.1638 493.824 60.8238C494.279 58.4838 493.893 56.0583 492.733 53.9757C491.539 51.8372 490.346 49.6985 489.152 47.5598C487.988 45.5649 486.206 44.0041 484.074 43.1142C481.943 42.2243 479.58 42.0539 477.343 42.6289V42.6289Z" fill="url(#paint3_linear_216_99)"/>
<path d="M481.346 564.909C483.254 568.465 484.205 572.456 484.106 576.491C484.829 575.38 485.796 574.448 486.933 573.767C488.045 573.1 489.317 572.747 490.614 572.747C491.911 572.747 493.183 573.1 494.295 573.767C498.932 576.651 498.617 582.729 497.219 587.402C496.34 589.763 494.775 591.807 492.725 593.273C490.676 594.738 488.235 595.558 485.716 595.626C484.079 595.572 482.521 594.904 481.353 593.756C480.184 592.608 479.489 591.063 479.405 589.426C477.497 592.41 475.282 595.186 472.796 597.709C466.214 604.371 454.717 609.097 445.668 605.93C441.487 604.466 437.61 599.47 439.434 594.664C441.836 588.933 444.812 583.46 448.316 578.329C449.216 576.902 450.128 575.511 450.905 574.005C451.284 573.27 452.43 570.48 451.583 572.557C453.322 567.128 457.021 562.542 461.958 559.693C468.328 556.075 477.841 557.784 481.346 564.909ZM426.664 615.197C426.245 615.479 425.801 615.722 425.337 615.923C423.902 616.79 422.713 618.01 421.883 619.467C421.018 620.986 420.565 622.704 420.569 624.452C420.639 626.071 421.021 627.66 421.693 629.133C422.189 630.538 423.117 631.75 424.344 632.594C425.556 633.433 426.94 633.992 428.394 634.231C429.849 634.471 431.338 634.384 432.756 633.978C434.761 633.368 436.515 632.127 437.757 630.438C439.116 628.741 439.846 626.627 439.824 624.452C439.757 623.106 439.569 621.769 439.263 620.456C438.929 619.178 438.304 617.994 437.437 616.996C436.571 615.999 435.485 615.215 434.266 614.706C433.047 614.197 431.726 613.977 430.408 614.062C429.089 614.147 427.808 614.535 426.664 615.197V615.197ZM362.355 125.285C359.998 126.018 357.936 127.481 356.465 129.463C354.994 131.445 354.191 133.843 354.173 136.311C354.157 138.083 353.674 139.585 353.674 141.55C353.901 144.574 354.731 147.522 356.117 150.22C357.624 154.894 360.749 158.876 364.931 161.451C367.08 162.645 369.568 163.084 371.996 162.7C374.425 162.315 376.655 161.128 378.33 159.328C378.903 159.911 379.486 160.504 380.042 161.171C380.673 161.784 381.471 162.198 382.336 162.36C383.201 162.521 384.094 162.424 384.904 162.08C385.714 161.736 386.404 161.16 386.888 160.425C387.372 159.69 387.628 158.828 387.624 157.948C387.621 156.617 387.7 155.286 387.861 153.964C387.868 152.131 387.552 150.312 386.927 148.589C386.442 147.177 386.033 145.672 385.413 144.317C385.012 143.349 384.374 142.498 383.557 141.843C383.287 141.629 380.953 140.047 381.926 141.043C381.498 140.603 380.955 140.293 380.358 140.149C379.607 137.14 378.124 134.364 376.04 132.068L374.94 130.54C373.68 128.433 371.778 126.786 369.513 125.84C367.248 124.894 364.739 124.699 362.355 125.285V125.285ZM340.275 139.929C339.909 140.944 339.725 142.015 339.73 143.094C340.029 144.254 340.494 145.364 341.111 146.391C341.41 146.925 341.898 147.33 342.478 147.525C343.059 147.72 343.692 147.693 344.254 147.447C344.815 147.191 345.269 146.746 345.536 146.189C345.802 145.632 345.864 144.999 345.711 144.401C345.604 143.319 345.338 142.258 344.922 141.254C344.32 140.467 343.585 139.792 342.749 139.259C342.564 139.078 342.335 138.948 342.084 138.883C341.834 138.817 341.57 138.818 341.32 138.886C341.07 138.954 340.842 139.086 340.659 139.269C340.475 139.452 340.343 139.68 340.275 139.929V139.929ZM310.282 115.693C309.594 115.976 308.911 116.268 308.231 116.57C303.789 123.055 303.33 128.253 306.855 132.165C307.576 132.975 308.416 133.671 309.345 134.23C310.326 134.814 311.413 135.199 312.543 135.363C313.674 135.526 314.825 135.465 315.931 135.182C317.038 134.899 318.077 134.401 318.991 133.715C319.904 133.03 320.673 132.171 321.253 131.187C322.505 128.949 322.837 126.311 322.178 123.833C321.733 122.534 321.219 121.26 320.637 120.017C320.159 119.382 319.682 118.748 319.204 118.113C318.407 117.218 317.389 116.547 316.253 116.167C314.392 115.269 312.261 115.099 310.282 115.693V115.693ZM123.549 141.492C121.583 141.814 119.715 142.578 118.087 143.726C116.427 145.266 115.056 147.092 114.04 149.115C112.993 150.663 112.13 152.327 111.468 154.075C110.979 156.052 110.736 158.082 110.746 160.118C110.637 161.573 111.047 163.02 111.903 164.202C112.758 165.384 114.005 166.225 115.421 166.576C111.189 171.966 108.347 178.314 107.144 185.061C105.762 191.49 106.369 207.555 116.496 206.235C124.44 205.199 129.205 199.256 133.265 192.553C137.198 186.061 140.243 180.353 139.456 173.582C140.089 168.044 140.895 161.248 134.737 158.587C133.219 157.914 131.541 157.686 129.899 157.926C130.981 156.622 131.811 155.127 132.344 153.518C132.724 151.162 132.62 148.752 132.038 146.437C131.562 144.659 130.403 143.142 128.813 142.215C127.223 141.289 125.331 141.029 123.549 141.492V141.492ZM128.767 218.805C127.331 220.162 126.011 221.636 124.821 223.212C123.689 225.14 123.013 227.301 122.844 229.53C122.324 231.516 122.079 233.564 122.117 235.617C122.505 237.47 123.465 239.154 124.862 240.432C125.201 240.787 125.63 241.042 126.103 241.171C126.577 241.299 127.076 241.296 127.548 241.161C129.164 240.84 130.671 240.109 131.922 239.036C133.249 237.188 134.224 235.112 134.799 232.912C135.718 231.073 136.256 229.067 136.382 227.016C136.209 224.829 135.821 222.665 135.226 220.555C135.053 219.898 134.711 219.299 134.233 218.817C133.755 218.335 133.158 217.988 132.503 217.811C131.847 217.633 131.157 217.632 130.501 217.806C129.845 217.981 129.247 218.326 128.767 218.805V218.805ZM175.001 145.636C173.004 146.029 171.204 147.102 169.909 148.672C168.193 150.779 167.068 153.303 166.646 155.987C166.367 157.065 166.405 158.2 166.756 159.257C167.107 160.313 167.756 161.246 168.625 161.941C169.488 162.615 170.532 163.016 171.623 163.095C172.715 163.174 173.806 162.926 174.756 162.384L176.996 161.248C178.604 160.433 179.968 159.207 180.95 157.695C182.051 156.213 182.706 154.447 182.836 152.605C182.872 151.52 182.661 150.442 182.218 149.451C181.775 148.46 181.112 147.583 180.279 146.887C179.538 146.316 178.685 145.91 177.775 145.694C176.865 145.478 175.919 145.458 175.001 145.636V145.636ZM352.571 286.642C347.424 295.847 349.012 311.131 355.94 318.417C357.041 319.535 358.353 320.422 359.8 321.028C361.247 321.634 362.8 321.946 364.368 321.946C365.937 321.946 367.49 321.634 368.937 321.028C370.384 320.422 371.696 319.535 372.797 318.417C382.355 307.794 378.276 289.146 366.444 282.411L366.094 282.024C361.447 276.881 353.727 280.543 352.571 286.642ZM345.029 336.892C343.454 339.145 342.804 341.918 343.215 344.636C343.648 346.659 344.213 348.651 344.907 350.599C345.239 351.814 345.997 352.869 347.043 353.57C348.09 354.271 349.354 354.571 350.604 354.415C351.847 354.207 352.979 353.57 353.801 352.614C354.624 351.658 355.085 350.444 355.105 349.183C355.383 347.111 355.514 345.022 355.496 342.931C355.223 340.254 353.965 337.775 351.966 335.975C351.49 335.492 350.908 335.125 350.267 334.905C349.625 334.685 348.941 334.616 348.269 334.705C347.596 334.794 346.954 335.038 346.391 335.417C345.829 335.797 345.363 336.302 345.029 336.892V336.892ZM85.4299 619.303C79.5924 623.428 80.7225 632.248 84.2634 637.534C85.7512 639.831 87.4321 641.996 89.288 644.007C90.8108 645.516 92.7507 646.534 94.8574 646.929L97.4302 647.284C96.4517 647.065 96.5436 647.078 97.7059 647.323C98.7819 647.588 99.9041 647.605 100.988 647.373C102.071 647.141 103.088 646.666 103.961 645.984C104.835 645.301 105.541 644.429 106.028 643.434C106.515 642.438 106.769 641.345 106.772 640.237C106.782 639.931 106.784 639.72 106.782 639.564C106.806 639.476 106.832 639.373 106.863 639.246C107.539 636.439 107.162 633.481 105.803 630.933C104.916 629.183 103.825 627.383 102.783 625.724C99.215 620.038 91.8075 614.796 85.4299 619.303ZM89.1672 653.968C89.6239 656.294 90.7992 658.418 92.5275 660.041C94.1172 661.365 95.806 662.566 97.5789 663.632C98.281 664.039 99.0565 664.303 99.8609 664.409C100.665 664.515 101.483 664.461 102.266 664.25C103.05 664.04 103.784 663.676 104.427 663.181C105.069 662.685 105.608 662.068 106.011 661.364C106.802 659.909 107.014 658.208 106.604 656.604C106.194 654.999 105.192 653.609 103.8 652.712C103.216 652.323 102.652 651.91 102.085 651.495L101.973 651.387C101.679 651.112 101.37 650.853 101.074 650.58C100.02 649.544 98.7444 648.762 97.3436 648.292C96.6825 648.073 96.0259 647.852 95.3766 647.597C91.7248 646.161 88.148 650.438 89.1672 653.968ZM61.7187 585.36C61.2433 587.089 61.3991 588.931 62.1583 590.555C62.8864 591.547 63.7463 592.435 64.7143 593.194C65.3392 593.818 66.1522 594.219 67.0278 594.335C67.9033 594.451 68.7927 594.276 69.5585 593.836C70.3024 593.345 70.8775 592.637 71.2061 591.809C71.5346 590.98 71.6007 590.071 71.3954 589.203C71.2983 587.949 70.9804 586.722 70.4562 585.578C69.4628 584.177 68.034 583.143 66.392 582.638C65.9064 582.506 65.3994 582.472 64.9005 582.538C64.4016 582.604 63.9207 582.768 63.4859 583.022C63.0511 583.275 62.671 583.612 62.3676 584.014C62.0642 584.415 61.8436 584.873 61.7187 585.36V585.36ZM199.584 416.219C199.276 416.032 198.957 415.864 198.63 415.715C196.69 414.626 194.401 414.34 192.254 414.917C190.106 415.495 188.269 416.891 187.138 418.807C186.807 419.406 186.511 420.024 186.251 420.657C184.56 422.838 183.322 425.334 182.608 428C181.894 430.665 181.719 433.446 182.094 436.18C182.527 442.024 185.42 447.192 187.725 452.468C190.918 459.776 200.844 461.9 207.372 459.073C209.308 458.229 211.051 457.001 212.496 455.462C214.309 459.634 216.5 463.631 219.042 467.404C220.109 469.005 221.467 470.393 223.046 471.494C226.409 475.39 230.941 476.975 237.046 473.235C248.603 466.154 245.547 445.71 241.584 435.063C239.183 428.61 235.794 421.253 229.566 417.871C226.244 416.113 222.364 415.734 218.765 416.817C215.166 417.9 212.138 420.358 210.339 423.657C209.123 421.771 207.547 420.144 205.702 418.868C203.856 417.591 201.778 416.691 199.584 416.219ZM227.238 487.982C226.832 489.763 227.689 490.793 228.388 492.268C228.404 492.3 228.479 492.477 228.53 492.594C228.586 492.755 228.68 493.018 228.695 493.062C228.86 493.58 228.997 494.106 229.107 494.639C229.246 495.171 229.497 495.666 229.844 496.092C230.191 496.518 230.626 496.865 231.119 497.107C231.612 497.35 232.151 497.484 232.701 497.5C233.25 497.515 233.796 497.412 234.302 497.198C234.806 496.968 235.257 496.636 235.626 496.223C235.996 495.811 236.276 495.326 236.448 494.8C236.621 494.273 236.683 493.717 236.631 493.166C236.578 492.614 236.412 492.08 236.142 491.596C235.549 490.402 234.827 489.278 233.987 488.243C233.016 487.012 231.791 485.594 230.094 485.751C229.442 485.771 228.815 485.998 228.301 486.4C227.787 486.801 227.415 487.355 227.238 487.982V487.982ZM213.61 510.934C213.47 511.253 213.353 511.581 213.217 511.901C209.461 516.881 211.615 524.349 215.503 528.639C218.24 531.968 222.026 534.268 226.242 535.163C227.691 535.541 229.216 535.529 230.659 535.128C232.103 534.726 233.414 533.949 234.46 532.876C235.506 531.803 236.249 530.472 236.613 529.019C236.977 527.566 236.95 526.042 236.534 524.602C234.283 517.908 229.703 508.79 222.292 507.926C222.025 507.832 221.755 507.748 221.489 507.645C219.997 507.228 218.408 507.326 216.979 507.922C215.549 508.519 214.363 509.58 213.61 510.934V510.934ZM480.265 44.8115C478.947 45.1759 477.716 45.7997 476.642 46.6464C475.569 47.4931 474.676 48.5455 474.015 49.7421C472.891 51.8077 472.445 54.1739 472.738 56.5068C473.032 58.8397 474.05 61.0216 475.65 62.7447C477.26 64.5534 478.871 66.362 480.481 68.1705C482.121 69.852 484.329 70.8628 486.674 71.006C489.019 71.1492 491.333 70.4147 493.166 68.9454C495.022 67.4499 496.29 65.3463 496.745 63.0064C497.201 60.6664 496.814 58.2409 495.654 56.1584C494.461 54.0196 493.267 51.8807 492.074 49.7421C490.91 47.7472 489.127 46.1864 486.996 45.2966C484.865 44.4068 482.501 44.2365 480.265 44.8115Z" fill="url(#paint4_linear_216_99)"/>
<path d="M435.718 715.15C437.226 715.426 438.755 715.577 440.289 715.602C441.051 715.635 441.814 715.625 442.574 715.574C442.84 715.54 443.104 715.493 443.364 715.432C444.186 715.311 445.018 715.273 445.848 715.319C446.497 715.291 447.174 715.235 447.823 715.15C447.287 716.618 446.638 717.605 445.791 717.633C442.631 717.746 439.499 717.746 436.338 717.577C434.761 717.732 433.169 717.627 431.626 717.266C430.272 716.505 430.977 716.9 430.356 715.376C429.616 713.937 429.03 712.423 428.607 710.861C428.268 709.14 428.099 707.362 427.93 705.585C427.281 699.293 426.651 692.991 426.039 686.68C425.955 688.288 425.842 689.896 425.729 691.504C425.701 690.15 425.644 688.824 425.588 687.47C425.532 686.2 425.475 684.902 425.419 683.604C425.442 682.511 425.395 681.418 425.277 680.331C426.745 689.078 428.184 697.853 430.498 706.403C431.051 708.704 431.855 710.937 432.896 713.062C433.168 713.647 433.574 714.159 434.081 714.558C434.58 714.867 435.137 715.068 435.718 715.15V715.15Z" fill="#EB924D"/>
<path d="M202.28 714.376L202.466 714.364C203.213 714.306 203.906 714.021 204.646 713.937C206.815 713.694 209.117 714.123 211.31 714.035C215.62 714.127 219.819 712.672 223.147 709.933C227.001 706.336 228.125 700.763 229.048 695.573C229.106 699.639 229.163 703.706 229.22 707.772C229.166 708.601 229.313 709.432 229.647 710.193C230.074 710.764 230.615 711.24 231.237 711.589C231.858 711.939 232.546 712.154 233.256 712.222C241.594 714.099 250.151 714.807 258.684 714.327C259.783 712.415 260.541 710.326 260.925 708.154C261.059 708.858 261.337 709.526 261.743 710.117C262.149 710.707 262.673 711.207 263.283 711.583C263.892 711.96 264.573 712.206 265.283 712.304C265.993 712.403 266.715 712.353 267.404 712.157C270.174 711.208 272.537 709.34 274.099 706.863C274.206 710.382 277.943 712.698 281.412 713.292C284.19 713.769 287.029 713.64 289.809 714.126C290.708 714.273 291.623 714.294 292.528 714.19C293.764 714.154 295.001 714.18 296.234 714.268C299.606 714.318 302.974 714.028 306.287 713.402C308.126 713.06 309.944 712.617 311.733 712.076C312.636 711.794 313.511 711.512 314.414 711.173C314.597 711.095 314.786 711.029 314.978 710.976C314.824 711.659 314.546 712.309 314.16 712.894C313.392 713.609 312.474 714.141 311.473 714.454C310.472 714.767 309.413 714.851 308.376 714.7C304.143 714.7 300.08 715.123 295.875 715.377C290.994 715.659 286.141 715.321 281.288 715.321C269.493 715.264 257.707 715.255 245.932 715.292C234.165 715.321 222.418 715.386 210.689 715.49C207.58 715.257 204.455 715.466 201.405 716.111C198.083 716.732 194.672 716.703 191.36 716.026C190.593 715.999 189.849 715.755 189.216 715.321C188.732 714.828 188.391 714.214 188.228 713.543C186.942 708.35 186.372 703.005 186.535 697.657C186.338 692.423 185.715 687.214 184.673 682.081C184.612 680.758 184.481 679.44 184.278 678.131C186.084 686.653 187.664 695.231 189.103 703.865C189.325 705.657 189.751 707.417 190.373 709.113C190.997 710.825 192.193 712.27 193.759 713.204C195.272 713.897 196.92 714.244 198.584 714.22C199.812 714.338 201.046 714.39 202.28 714.376V714.376Z" fill="#EB924D"/>
<path d="M324.148 645.962C325.023 662.92 327.872 679.766 328.493 696.752C328.384 700.983 328.955 705.203 330.186 709.252C331.228 711.985 336.812 714.76 338.816 711.51C339.084 711.016 339.259 710.477 339.334 709.92C339.915 706.839 340.173 703.706 340.103 700.571C340.963 704.557 342.505 708.365 344.66 711.826C344.909 712.498 345.345 713.084 345.916 713.516C346.488 713.947 347.171 714.207 347.885 714.263C349.627 714.852 351.459 715.138 353.298 715.107C354.53 714.983 355.771 714.98 357.004 715.097C361.905 715.387 366.818 715.414 371.722 715.178C372.292 715.187 372.858 715.081 373.386 714.868C374.042 714.466 374.593 713.915 374.994 713.259C375.982 711.877 376.97 710.466 377.957 709.083C377.98 709.025 378.014 708.973 378.058 708.929C378.101 708.886 378.154 708.852 378.211 708.829C378.465 708.716 378.719 708.913 378.888 709.083C380.983 711.467 383.536 713.405 386.395 714.783C387.703 715.483 389.107 715.988 390.561 716.283C394.233 716.571 397.928 716.257 401.499 715.354C402.915 715.105 404.229 714.45 405.281 713.47C406.024 712.533 406.549 711.443 406.819 710.278C408.283 705.48 409.46 700.599 410.344 695.661L410.944 714.881C410.949 715.032 418.284 715.511 418.972 715.659C419.81 715.977 420.735 715.974 421.571 715.65C422.651 715.205 423.612 714.512 424.374 713.626C424.289 714.811 424.233 715.968 424.148 717.153C424.12 717.633 424.035 718.197 423.612 718.423C423.394 718.494 423.164 718.523 422.935 718.508C404.707 717.661 386.309 716.758 368.025 716.391C357.878 716.655 347.725 716.382 337.607 715.573C336.676 715.46 326.603 714.726 326.603 714.783C324.938 691.899 324.119 668.959 324.148 645.962Z" fill="#EB924D"/>
<path d="M324.008 642.264L323.98 642.292C323.994 642.16 323.994 642.028 323.98 641.896C323.975 642.019 323.985 642.143 324.008 642.264V642.264Z" fill="#EB924D"/>
<path d="M99.0338 631.545C100.304 641.731 98.8927 652.228 100.614 662.358C101.178 665.716 102.081 669.017 102.42 672.403C102.702 675.535 102.533 678.667 102.617 681.771C102.949 689.634 104.412 697.407 106.963 704.852C107.574 707.452 108.826 709.857 110.603 711.85C111.337 712.528 112.164 713.098 113.058 713.543C114.791 714.461 116.716 714.957 118.677 714.993C119.192 714.933 119.712 714.916 120.229 714.945C121.83 715.117 123.411 715.296 125.023 715.321C128.235 715.372 131.439 715.02 134.563 714.273C135.468 714.137 136.311 713.732 136.982 713.109C137.53 712.359 137.85 711.466 137.904 710.539C138.488 706.723 139.072 702.906 139.657 699.089C140.048 704.352 140.438 709.615 140.828 714.877C140.803 714.536 153.466 714.637 154.589 714.567C158.855 714.302 163.196 714.172 167.488 713.854C170.284 713.734 173.057 713.299 175.755 712.556C176.376 712.358 177.025 712.132 177.618 711.879C177.358 712.296 177.066 712.693 176.743 713.064C175.937 714.057 174.934 714.873 173.798 715.46C172.662 716.048 171.417 716.394 170.14 716.478C169.566 716.478 168.996 716.393 168.447 716.224C166.728 715.97 164.982 715.941 163.255 716.139C155.665 716.28 148.075 716.431 140.484 716.591C135.693 716.576 130.906 716.858 126.15 717.437C123.759 717.668 121.357 717.772 118.955 717.747C116.018 717.907 113.072 717.813 110.151 717.466C108.54 717.356 106.963 716.954 105.495 716.28C104.708 715.976 104.025 715.453 103.525 714.773C103.025 714.093 102.73 713.285 102.674 712.443C102.654 709.769 102.437 707.1 102.025 704.458C101.432 698.56 100.953 692.644 100.586 686.709C99.7956 674.576 99.3724 662.414 99.1748 650.224C99.0902 644.299 99.062 638.345 99.0338 632.42V631.545Z" fill="#EB924D"/>
<path d="M152.845 99.5425C156.71 81.6245 154.622 62.8887 156.993 44.6606C158.412 37.39 159.149 30.0026 159.194 22.5948C158.765 19.8523 158.803 17.0572 159.306 14.3275C160.058 12.0974 161.647 10.2462 163.736 9.16361C167.151 6.99119 172.004 7.13222 175.898 6.90621C186.047 6.67573 196.201 6.99613 206.316 7.86591C207.423 7.80799 208.516 8.12616 209.42 8.76879C209.952 9.34494 210.314 10.0583 210.464 10.8287C210.238 10.8287 210.069 10.8569 209.871 10.8569C208.213 10.9466 206.55 10.8804 204.905 10.6594C202.69 10.2201 200.445 9.94644 198.189 9.84078C197.343 9.84078 196.609 9.84079 195.763 9.78464C195.519 9.7564 195.273 9.7564 195.029 9.78464C194.036 9.88381 193.049 10.044 192.075 10.2643C190.727 10.4529 189.365 10.5206 188.005 10.4664C185.112 10.597 182.228 10.8479 179.353 11.2189C179.127 11.186 178.896 11.2086 178.68 11.2849C178.464 11.3612 178.27 11.4888 178.115 11.6568C177.959 11.8248 177.847 12.028 177.788 12.2491C177.728 12.4701 177.724 12.7022 177.774 12.9255C177.89 22.8629 178.531 32.7873 179.693 42.6573C179.272 34.1296 177.967 25.6686 175.8 17.4099C175.693 16.5906 175.418 15.8023 174.991 15.0947C174.564 14.3871 173.995 13.7755 173.321 13.2985C172.049 12.8283 170.657 12.7956 169.364 13.2056C167.735 13.3404 166.209 14.0599 165.069 15.2313C164.539 16.0572 164.2 16.9906 164.076 17.9638C163.961 18.5403 163.848 19.1172 163.738 19.6946C162.636 25.4695 161.786 31.285 161.19 37.1409C160.892 40.0653 160.658 42.9952 160.488 45.9307C160.316 48.8906 159.695 51.6062 159.504 54.5653C159.391 56.3145 159.278 58.0919 159.165 59.8413C158.799 65.8515 158.441 71.8429 158.093 77.8155C157.896 80.7779 157.867 83.7972 157.529 86.7317C157.394 87.5681 157.127 88.3778 156.739 89.1304C156.55 89.578 156.399 90.0405 156.287 90.513C155.723 93.1369 155.412 95.8461 154.933 98.4985C154.594 100.389 154.256 102.251 153.889 104.142L153.381 106.766C153.18 107.449 153.039 108.147 152.958 108.854C152.901 105.75 152.845 102.646 152.845 99.5425Z" fill="#EB924D"/>
<path d="M272.681 6.42544C290.204 6.56652 307.727 6.82048 325.249 6.84841C331.034 6.84841 340.966 6.08684 346.158 9.07783C347.599 9.98578 348.623 11.4256 349.008 13.0846C348.585 12.8868 348.133 12.746 347.682 12.5767C345.195 11.6648 342.624 11.003 340.007 10.6012C338.808 10.5142 337.618 10.3254 336.451 10.0369C335.249 9.69685 334.005 9.52584 332.755 9.52897C329.058 9.21886 325.334 8.90851 321.609 8.59785C318.618 8.34418 315.627 8.09033 312.636 7.83628C311.141 7.6952 309.645 7.58201 308.15 7.4412C307.499 7.31908 306.835 7.28121 306.175 7.3284C305.981 7.39772 305.783 7.45427 305.582 7.49769C304.848 7.66699 304.002 7.52591 303.409 8.08996C303.076 8.4609 302.86 8.92256 302.789 9.41642C301.645 14.0038 301.058 18.7122 301.039 23.4399C300.597 21.4399 300.492 19.38 300.729 17.3454C300.968 15.3058 300.775 13.239 300.164 11.2785C299.673 9.95711 298.735 8.84917 297.512 8.14663C296.908 7.86834 296.273 7.66006 295.621 7.52585C294.441 7.38926 293.249 7.37986 292.066 7.49769C289.893 7.52591 287.721 7.55384 285.52 7.55384C279.481 7.61027 273.443 7.66693 267.405 8.11812C262.814 8.4333 258.239 8.87438 253.644 9.13397C252.148 9.21834 251.372 10.1283 250.018 10.483C248.38 10.9122 246.458 10.0053 244.962 11.04C244.445 11.5505 244.054 12.1743 243.821 12.8621C243.587 13.5498 243.516 14.2825 243.615 15.0022C243.498 24.4661 243.38 33.9302 243.263 43.3943C243.52 34.5283 242.586 25.6678 240.486 17.0502C240.327 15.9585 240.005 14.8967 239.533 13.8995C238.573 12.3389 237.116 11.1461 235.397 10.5126C234.551 10.1433 233.669 9.8834 232.807 9.55919C232.522 9.4226 232.223 9.32001 231.914 9.25358C230.777 9.20798 229.639 9.26992 228.515 9.43846C227.181 9.5138 225.848 9.591 224.515 9.6701C223.009 9.59936 221.514 9.95135 220.198 10.6862C218.629 12.0643 217.624 13.9733 217.376 16.0471L213.651 31.2845C213.422 29.9597 213.281 28.6211 213.228 27.2777C214.498 21.7754 215.796 16.3013 217.066 10.799C217.182 10.0725 217.472 9.38505 217.912 8.79539C219.916 6.65119 226.744 7.15906 229.34 6.93332C234.334 6.538 239.357 6.34045 244.38 6.2843C253.804 6.115 263.257 6.36872 272.681 6.42544Z" fill="#EB924D"/>
<path d="M115.372 40.9092C115.514 42.8844 115.598 44.8316 115.683 46.8068C116.896 34.5042 118.109 22.1922 119.323 9.87067C119.319 8.71876 119.696 7.59792 120.395 6.68215C121.061 6.11405 121.872 5.74274 122.737 5.60989C126.603 4.79293 130.555 4.45175 134.503 4.59404C140.274 4.88091 146.016 5.57876 151.688 6.68215C154.396 7.24649 154.594 8.96769 154.283 10.8303C153.933 10.3034 153.471 9.86068 152.929 9.5338C152.388 9.20692 151.781 9.004 151.151 8.93972C143.972 8.52106 136.774 8.51169 129.594 8.91156C128.228 8.96549 126.877 9.22214 125.587 9.67313C124.739 10.0182 123.999 10.5831 123.443 11.3097C123.189 11.6534 122.972 12.0223 122.793 12.4104C122.701 12.5518 122.626 12.7032 122.568 12.8616C122.483 13.1159 122.342 13.3134 122.229 13.5671C122.079 13.9857 121.984 14.4221 121.947 14.8653C121.637 16.6994 121.298 18.505 121.016 20.3394C119.802 27.5629 118.871 34.8429 118.194 42.1225C117.925 46.8683 117.284 51.5857 116.275 56.231C116.078 52.7603 115.711 49.7411 115.57 46.2707C115.514 44.493 115.429 42.6869 115.372 40.9092Z" fill="#EB924D"/>
<path d="M430.809 7.36C429.151 6.98543 427.468 6.72975 425.773 6.59482C422.935 6.35187 420.084 6.3665 417.239 6.37102C414.777 6.15951 412.298 6.3112 409.88 6.82112C408.175 7.44817 406.367 7.75214 404.551 7.71754C402.234 7.31348 399.852 7.84263 397.924 9.18935C397.073 10.2209 396.441 11.4145 396.065 12.6979C395.69 13.9812 395.579 15.3274 395.739 16.6549L395.59 30.4267C394.861 24.3448 393.876 18.301 392.634 12.2952C392.648 11.8365 392.553 11.3811 392.358 10.9658C392.163 10.5505 391.872 10.1871 391.511 9.90493C391.149 9.62277 390.725 9.42981 390.275 9.34176C389.825 9.25372 389.36 9.27307 388.919 9.39817C382.856 9.64478 376.779 9.78722 370.722 10.1388C367.348 10.3349 364.435 10.9438 363.299 14.4701C362.284 18.4379 361.586 22.4805 361.215 26.5593C360.134 33.7495 359.169 40.9559 358.32 48.1783C356.629 62.6081 355.418 77.0983 354.822 91.6156C355.386 63.4831 357.032 35.4072 359.759 7.38799C359.9 6.06208 362.778 5.66675 363.71 5.44102C367.174 4.75998 370.681 4.31695 374.206 4.11508C383.8 3.38116 393.422 3.18366 403.016 3.07107H403.496C405.471 3.01436 407.417 2.92999 409.393 2.90178C415.1 2.61889 420.819 2.67541 426.52 3.07107C428.229 3.25594 429.913 3.62486 431.543 4.17148C432.361 4.37763 433.142 4.71089 433.857 5.15909C435.427 6.52485 436.565 8.31958 437.13 10.3228C436.028 9.39699 434.778 8.66251 433.433 8.15007C432.573 7.8401 431.697 7.57637 430.809 7.36V7.36Z" fill="#EB924D"/>
<path d="M72.7346 718.789C58.993 719.156 45.2702 719.655 31.5662 720.285C27.1813 720.487 22.8893 718.979 19.5943 716.079C16.2993 713.178 14.2587 709.112 13.9022 704.737C-4.61253 475.426 -4.63141 244.996 13.8458 15.6815C14.2149 11.2698 16.2969 7.17805 19.646 4.28258C22.995 1.38712 27.3447 -0.0818055 31.7635 0.1905C43.8687 0.924421 55.9925 1.58292 68.135 2.16597C76.6283 2.56101 85.1216 2.95575 93.6433 3.29463C95.2259 3.3104 96.7999 3.52853 98.327 3.94365C101.092 4.81837 104.111 4.62082 106.961 5.29775C107.891 5.4739 108.757 5.89244 109.473 6.51105C110.044 7.23988 110.413 8.10588 110.545 9.02239C110.573 9.10733 110.573 9.19166 110.601 9.27659C110.511 9.24431 110.415 9.22533 110.319 9.22019C106.542 8.76621 102.744 8.51045 98.9405 8.45406C97.7054 8.61137 96.4602 8.67395 95.2156 8.64118C93.4101 8.37978 91.5713 8.46702 89.7988 8.89822C87.5601 9.61677 85.6648 11.1353 84.4753 13.1633C83.2858 15.1913 82.8855 17.5866 83.3509 19.8912C80.3837 16.5153 81.9012 10.2227 78.1061 7.81469C77.0059 7.32046 75.8189 7.0485 74.6134 7.01446C73.4078 6.98041 72.2073 7.18502 71.0811 7.61637C69.605 21.7945 69.0297 36.0519 69.3584 50.3028C70.0209 38.0219 68.658 25.7156 65.3243 13.8773C64.9595 11.9256 64.0104 10.1309 62.6027 8.73065C61.0608 7.69379 59.2655 7.09656 57.4096 7.00318C54.3752 6.57766 51.2747 6.29891 48.2671 5.71538C47.3691 5.54129 46.5867 5.08133 45.7033 4.88381C44.2565 4.67716 42.7911 4.63365 41.3345 4.75404C37.9148 4.72109 34.5032 5.0931 31.171 5.86238C29.1454 6.34989 27.1983 7.11924 25.3866 8.14794C24.209 8.609 23.1411 9.31167 22.2517 10.2107C21.3623 11.1098 20.6712 12.1853 20.2229 13.3678C19.6208 15.2026 19.2696 17.1104 19.1788 19.0393C18.6145 25.3881 18.5299 29.7339 17.7965 36.0545C16.7788 44.8224 15.8613 53.6013 15.0439 62.3914C13.922 74.2648 12.9457 86.1506 12.115 98.0488C11.6957 103.997 11.3078 109.948 10.9511 115.902C10.7815 117.187 10.7598 118.487 10.8865 119.776C11.0908 120.708 11.1156 121.67 10.9596 122.612C10.2882 125.42 9.92377 128.293 9.87265 131.18C9.81579 133.02 10.3532 134.829 11.4053 136.339C12.4574 137.849 13.9681 138.98 15.7135 139.564C14.2975 140.526 12.5935 140.971 10.8879 140.825C12.4012 142.456 14.1951 143.801 16.1842 144.798C14.0299 146.842 11.3178 148.202 8.3907 148.705C9.23034 155.902 9.18001 163.175 8.24086 170.359C10.8487 171.376 13.4566 172.392 16.0646 173.408C13.2503 175.43 10.9174 178.049 9.23261 181.078C7.54783 184.106 6.55275 187.469 6.31846 190.927C5.90102 197.831 6.1873 204.76 7.17286 211.606C7.94148 220.577 7.87886 229.601 6.98578 238.561C6.7433 239.634 6.90619 240.76 7.44317 241.721C7.93112 242.27 8.55751 242.678 9.25695 242.902C11.3969 243.775 13.6206 244.427 15.8933 244.847C14.0606 245.382 12.3694 246.317 10.9418 247.584C9.51415 248.852 8.38571 250.42 7.63787 252.177C6.16937 255.706 5.49504 259.514 5.66269 263.333C5.70812 270.334 7.10655 277.273 7.16665 284.274C7.14172 288.124 6.89148 291.969 6.41721 295.789C5.62306 301.367 5.24307 306.995 5.28035 312.628C5.33538 314.011 5.44937 315.392 5.64097 316.763C5.91557 317.983 6.09622 319.222 6.18131 320.47C6.10284 321.26 5.97829 322.046 5.80829 322.822C5.6699 324.412 5.62833 326.01 5.68385 327.605C5.64689 331.118 5.61171 334.631 5.57832 338.144C5.43724 350.136 5.29625 362.138 5.15535 374.149C5.01399 386.169 4.87281 398.18 4.73182 410.182C4.67538 416.164 4.59101 422.174 4.5343 428.184C4.50608 429.539 4.2242 430.808 4.28035 432.163C4.61923 439.64 4.95783 447.146 5.29644 454.623C5.57663 460.814 5.84929 467.005 6.11444 473.196C6.00527 475.667 5.6887 478.124 5.16804 480.542C4.71937 483.383 4.93544 486.289 5.79926 489.032C7.21716 492.929 11.5073 496.113 15.4407 494.798C11.023 494.462 7.24086 498.45 6.14379 502.742C5.40608 507.123 5.5781 511.608 6.64915 515.92C8.46805 527.017 9.17227 538.269 8.75131 549.507L18.1978 550.578C14.8147 551.412 11.5763 552.751 8.59131 554.549C12.9559 556.571 17.884 557.027 22.5457 555.841C18.2669 558.862 11.4079 558.327 8.90255 562.927C6.35062 567.613 10.7307 573.247 10.1588 578.551C13.1734 578.354 16.1881 578.157 19.2028 577.96C17.6362 578.138 16.1286 578.662 14.7894 579.495C13.4503 580.327 12.3129 581.447 11.4598 582.773C8.98551 586.466 9.86446 589.833 10.1777 593.958C10.5163 598.417 10.8549 602.875 11.2217 607.333C11.8145 615.29 12.435 623.247 13.0276 631.233C13.309 632.986 13.3942 634.765 13.2815 636.538C12.9753 637.709 12.7955 638.911 12.7454 640.121C12.9693 659.63 14.5533 679.1 17.4858 698.389C17.916 701.944 18.9264 705.404 20.4768 708.632C21.5628 710.664 23.1321 712.398 25.0464 713.681C26.4686 714.49 28.0261 715.034 29.6429 715.285C30.7156 715.635 31.7572 716.074 32.7569 716.597C34.947 717.588 37.2864 718.209 39.6798 718.434C41.5032 718.643 43.3491 718.343 45.0119 717.566C46.6748 716.789 48.0894 715.565 49.0984 714.032C51.183 710.238 49.6134 705.253 51.5868 701.4C51.0209 705.907 51.4124 710.483 52.7358 714.828C52.8051 715.474 53.1212 716.069 53.6181 716.489C54.115 716.908 54.7544 717.119 55.4033 717.079C58.1608 717.363 60.9421 717.324 63.6906 716.964C65.02 716.79 66.3457 716.418 67.6674 716.317C69.1519 716.204 70.6456 716.163 72.1322 716.078C78.0338 715.739 83.9311 715.329 89.8338 715.009C90.8216 714.952 91.4139 714.726 92.1475 714.754C92.1193 715.065 92.1193 715.375 92.1193 715.686C92.1477 716.047 92.0478 716.407 91.8372 716.701C91.5864 716.9 91.2815 717.018 90.9624 717.04C84.927 717.987 78.8401 718.572 72.7346 718.789V718.789Z" fill="#EB924D"/>
<path d="M511.509 15.6005C528.798 244.97 528.788 475.316 511.481 704.684C511.141 709.07 509.113 713.152 505.824 716.073C502.534 718.994 498.241 720.525 493.846 720.345C491.814 720.26 489.782 720.232 487.751 720.203C486.046 720.266 484.339 720.2 482.643 720.006C482.051 719.893 481.571 719.611 480.979 719.526C479.004 719.244 477 719.131 475.025 718.962C471.047 718.595 467.068 718.2 463.089 717.834C462.722 717.805 462.356 717.777 462.017 717.749C461.385 717.749 460.766 717.562 460.239 717.212C459.818 716.836 459.514 716.346 459.365 715.802C456.702 709.239 455.314 702.229 455.273 695.147C455.185 687.642 454.544 680.154 453.354 672.743L452.085 663.6V662.811C452.085 662.218 452.113 661.626 452.113 661.033C452.164 660.546 452.174 660.054 452.141 659.565C455.442 674.831 457.474 690.322 459.873 705.756C460.065 707.797 460.599 709.791 461.453 711.654L461.707 712.077C462.262 713.168 463.087 714.1 464.103 714.783C465.119 715.466 466.292 715.879 467.512 715.983C468.659 715.96 469.78 716.224 470.927 716.287C472.029 716.444 473.151 716.354 474.213 716.023C475.275 715.691 476.25 715.127 477.066 714.371C477.914 713.307 478.524 712.074 478.857 710.754C481.549 702.34 483.019 693.582 483.222 684.749L483.045 706.098C483.027 708.267 482.897 710.476 483.012 712.642C483.088 714.087 483.074 716.718 484.199 717.773C484.672 718.165 485.25 718.408 485.861 718.47C489.141 718.515 492.421 718.349 495.68 717.975C497.642 718.146 499.618 717.974 501.521 717.467C503.296 716.704 504.866 715.531 506.102 714.045C507.338 712.559 508.205 710.802 508.631 708.917C509.107 707.09 509.456 705.233 509.675 703.358C509.788 702.399 509.873 701.468 509.986 700.508C510.042 700.057 510.099 699.577 510.183 699.097C510.267 698.659 510.324 698.216 510.352 697.771C510.299 697.539 510.261 697.303 510.24 697.066C510.183 696.36 510.24 695.627 510.24 694.893V691.733C510.211 687.895 510.127 684.058 510.296 680.192C510.409 678.273 510.55 676.383 510.804 674.464C510.893 674.047 510.94 673.621 510.945 673.194C510.921 672.939 510.884 672.684 510.832 672.432C510.804 672.226 510.804 672.017 510.832 671.812C511.01 670.046 511.302 668.294 511.705 666.566C511.982 665.475 511.936 664.327 511.575 663.262C511.135 662.433 510.514 661.714 509.756 661.159C508.999 660.605 508.126 660.229 507.203 660.06C505.358 659.737 503.548 659.238 501.798 658.57C503.777 658.481 505.759 658.513 507.734 658.664C508.725 658.729 509.716 658.539 510.613 658.113C511.51 657.686 512.282 657.037 512.857 656.227C513.341 655.15 513.558 653.972 513.49 652.794C513.531 650.847 513.582 648.9 513.615 646.952C513.54 645.688 513.382 644.431 513.141 643.188C513.086 641.304 513.192 639.418 513.459 637.553C513.598 635.56 513.735 633.567 513.87 631.574C514.41 623.601 514.911 615.625 515.376 607.647C515.5 605.505 515.742 603.33 515.742 601.185C516.842 581.292 517.708 561.39 518.338 541.478C518.525 535.508 518.404 529.458 518.843 523.503C518.935 522.769 519.09 522.045 519.305 521.337C519.516 519.563 519.197 517.766 518.387 516.174C516.934 512.462 514.382 509.283 511.072 507.063C517.513 505.131 521.037 497.998 521.703 491.306C522.369 484.614 520.957 477.876 521.235 471.157C521.316 469.192 521.156 467.314 521.179 465.4C521.195 464.107 521.698 462.779 521.821 461.48C522.093 458.628 521.796 455.75 520.945 453.014C515.286 452.652 509.627 452.289 503.968 451.927C509.496 451.555 514.97 450.61 520.302 449.106C521.19 448.951 522.002 448.505 522.608 447.838C523.061 447.027 523.231 446.089 523.089 445.171C522.729 437.093 522.369 429.014 522.008 420.935C519.247 420.835 516.523 420.271 513.95 419.267C517.413 418.481 520.594 416.758 523.143 414.286C519.032 412.984 515.218 410.886 511.917 408.113C515.724 407.401 520.193 406.138 521.394 402.457C521.799 400.668 521.781 398.81 521.341 397.03C520.737 393.132 520.438 389.194 520.445 385.25C520.495 383.797 520.376 382.344 520.092 380.918C519.882 379.121 519.866 377.307 520.045 375.507C520.048 372.57 520.052 369.633 520.056 366.696C520.074 354.691 520.111 342.686 520.167 330.681C520.185 327.319 520.206 323.958 520.228 320.596C520.228 318.932 520.228 317.238 520.257 315.574C520.341 303.582 520.464 291.59 520.623 279.597C520.793 267.605 521 255.613 521.244 243.621C521.357 237.639 521.498 231.629 521.639 225.647C521.696 222.656 521.78 219.637 521.865 216.646C522.041 214.491 521.831 212.321 521.244 210.24C520.943 209.316 520.754 208.359 520.68 207.39C520.513 205.438 520.428 203.474 520.33 201.517C520.355 200.883 520.296 200.249 520.154 199.631C519.769 198.863 519.549 198.022 519.509 197.164C519.513 196.557 519.43 195.953 519.262 195.37C518.938 194.199 518.417 193.092 517.722 192.096C516.192 190.017 514.38 188.163 512.337 186.585C514.379 185.053 516.294 183.36 518.066 181.522C518.402 181.223 518.658 180.844 518.81 180.421C519.242 178.835 516.97 177.952 516.195 176.503C516.88 176.046 517.439 175.426 517.823 174.698C518.206 173.97 518.401 173.157 518.39 172.335C518.35 170.693 518.092 169.063 517.624 167.489C516.546 162.809 516.236 157.985 516.706 153.206L513.941 151.442C516.538 150.638 517.234 147.319 517.239 144.601C517.242 142.686 517.125 140.773 516.889 138.872C516.513 137.283 516.335 135.653 516.358 134.02C516.612 130.641 516.542 127.245 516.15 123.88C515.642 115.918 515.108 107.958 514.547 100C513.986 92.0422 513.394 84.0866 512.774 76.1333C512.167 68.3779 511.529 60.625 510.86 52.8747C510.691 51.0973 510.72 49.2632 510.635 47.457C510.409 41.5317 510.155 35.6059 509.732 29.6807C509.506 26.7179 509.252 23.7551 508.942 20.8203C508.773 19.3533 508.659 17.8579 508.406 16.3903C508.29 15.9591 508.149 15.5351 507.982 15.1208C507.771 12.4036 506.857 9.78799 505.33 7.53042C503.941 6.1104 502.147 5.15435 500.194 4.79312C499.197 4.59499 498.189 4.45369 497.175 4.36989C495.265 4.13817 493.343 4.00643 491.419 3.97516C484.337 4.03131 477.254 4.11617 470.172 4.17261C469.466 4.17261 468.761 4.17266 468.084 4.20059C465.153 4.19557 462.223 4.34636 459.308 4.65233C458 4.9386 456.668 5.09911 455.33 5.13171C454.963 5.1035 454.568 5.01914 454.201 4.99092C452.609 5.03286 451.09 5.66668 449.94 6.7686C449.235 7.47402 448.586 8.2638 447.909 9.02565C447.405 9.58629 446.995 10.2247 446.695 10.9162C446.096 12.3511 445.652 13.8455 445.369 15.3744C444.494 18.9583 443.648 22.5415 442.801 26.1251C442.643 27.0645 442.266 27.9537 441.701 28.7211C441.532 27.4516 441.052 27.113 441.024 25.8432V25.0247C441.927 20.0588 442.886 15.0643 443.845 10.0697C444.106 8.22107 444.802 6.46097 445.877 4.93426C446.499 4.17353 447.279 3.55731 448.163 3.1286C449.635 2.4281 451.222 1.99806 452.846 1.85889C456.882 1.37892 460.86 2.0282 464.867 1.57645C466.927 1.32278 468.958 1.18163 471.047 1.09698C475.025 0.899181 479.032 0.729869 483.01 0.532351L493.761 0.024468C498.168 -0.212917 502.493 1.28411 505.81 4.19517C509.127 7.10623 511.173 11.2001 511.509 15.6005V15.6005Z" fill="#EB924D"/>
<path d="M48.7819 421.015C50.4416 385.098 52.1041 349.147 56.2414 313.431C59.6671 283.857 64.7939 254.374 64.9984 224.604C69.286 291.828 50.6756 353.68 48.7819 421.015ZM132.846 278.831C132.901 281.017 132.678 283.243 132.619 285.431C132.297 297.297 132.44 309.174 132.951 321.032C133.462 332.885 134.341 344.72 135.486 356.528C136.059 362.441 136.695 368.347 137.393 374.247C137.741 377.199 138.101 380.151 138.475 383.1C138.662 384.576 138.851 386.051 139.044 387.526C139.185 388.613 139.096 389.674 139.205 390.739C139.472 392.142 139.859 393.519 140.362 394.856C140.773 396.276 141.183 397.696 141.59 399.117C142.404 401.958 143.204 404.804 143.988 407.654C145.549 413.355 147.021 419.081 148.317 424.848C149.392 429.631 150.344 434.44 151.174 439.273C153.149 450.781 154.426 462.398 154.999 474.06C155.286 479.889 155.395 485.723 155.328 491.562C155.241 492.901 155.252 494.243 155.362 495.58C155.724 498.174 156.105 500.764 156.486 503.355C156.92 506.303 157.346 509.252 157.764 512.202C157.917 513.298 158.403 514.168 158.623 515.233C158.898 516.646 159.097 518.073 159.217 519.508C159.754 525.221 159.399 530.966 159.586 536.692C160.101 552.486 164.717 567.827 167.111 583.447C168.693 595.15 169.654 606.929 169.988 618.734C169.94 617.423 169.89 616.112 169.837 614.801C169.361 602.882 168.711 590.972 167.889 579.07C167.066 567.169 166.071 555.283 164.903 543.41C164.319 537.475 163.692 531.543 163.022 525.616C162.638 522.215 162.501 518.817 162.293 515.392C161.858 508.217 161.286 501.052 160.576 493.897C159.168 479.511 157.288 465.175 155.172 450.877C146.711 393.705 134.302 336.8 132.846 278.831H132.846ZM343.718 500.781C347.941 487.78 350.683 474.345 351.893 460.73C352.692 453.861 353.372 446.98 354.191 440.114C354.402 438.349 354.671 436.591 354.895 434.827C355.063 433.503 355.115 432.163 355.288 430.841C355.368 430.428 355.48 430.022 355.623 429.626C355.839 428.413 355.984 427.188 356.057 425.958C356.548 423.353 357.176 420.775 357.937 418.235C358.962 415.025 359.438 411.666 359.344 408.298C359.025 405.862 358.584 403.444 358.021 401.053C357.566 398.219 357.381 395.349 357.468 392.481C357.599 386.669 358.241 380.881 359.388 375.182C359.888 372.607 360.49 370.052 361.169 367.519C361.909 364.761 362.784 362.052 363.628 359.325C364.119 357.59 364.276 355.778 364.091 353.984C364.11 351.514 364.382 349.053 364.903 346.639C365.326 343.84 365.721 341.037 366.088 338.23C367.575 326.896 368.648 315.518 369.307 304.096C369.99 292.628 370.309 281.146 370.265 269.649C370.234 258.27 369.879 246.898 369.2 235.533C368.945 231.228 368.525 226.928 368.301 222.623C368.95 237.305 368.569 252.015 367.161 266.644C366.505 274.052 365.675 281.445 364.761 288.825C364.525 290.096 364.368 291.38 364.289 292.67C364.293 292.885 364.323 293.099 364.377 293.307C364.496 293.883 364.553 294.47 364.548 295.058C364.689 300.337 364.633 305.616 364.38 310.896C363.017 339.372 355.951 367.369 354.988 395.861C354.812 401.084 355.059 406.308 355.218 411.528C355.337 415.05 355.074 418.575 354.435 422.041C353.786 425.561 353.014 429.058 352.402 432.585C351.472 437.937 351.224 443.382 350.779 448.788C350.297 454.652 349.73 460.507 349.078 466.355C348.417 472.197 347.642 478.025 346.753 483.838C345.877 489.509 344.865 495.156 343.718 500.781ZM296.195 347.315C296.136 344.901 296.077 342.487 296.018 340.074C295.914 338.14 295.988 336.202 296.239 334.282C296.363 333.633 296.397 332.97 296.338 332.312C296.271 330.838 296.412 329.363 296.759 327.929C296.841 327.291 296.844 326.645 296.769 326.006C296.781 323.774 296.916 321.544 297.173 319.326C297.331 316.973 297.501 314.621 297.683 312.27C298.06 307.369 298.479 302.471 298.937 297.576C302.534 258.581 307.902 219.402 304.737 180.179C301.619 225.909 298.5 271.638 295.382 317.367C295.199 315.017 294.735 312.697 294.001 310.457C293.51 308.099 292.999 305.745 292.47 303.395C291.967 301.164 291.447 298.937 290.91 296.714C290.61 295.472 290.412 294.124 290.024 292.918C289.69 292.11 289.306 291.325 288.872 290.566C288.122 288.987 287.414 287.389 286.746 285.774C285.415 282.559 284.238 279.285 283.214 275.954C281.183 269.273 279.621 262.457 278.54 255.558C277.411 248.583 276.665 241.552 276.099 234.511C275.53 227.43 275.144 220.337 274.748 213.245C274.547 209.647 274.343 206.049 274.11 202.453C274.093 201.227 273.884 200.011 273.49 198.849C273.15 197.997 272.617 197.237 272.235 196.404C271.597 194.771 271.248 193.04 271.202 191.288C270.833 186.888 270.464 182.488 270.095 178.087C269.261 170.419 268.997 162.699 269.305 154.991C269.776 147.712 271.267 140.522 271.621 133.236C271.773 124.697 271.144 116.162 269.742 107.737C268.035 124.718 267.346 141.786 267.679 158.85C267.848 167.522 268.282 176.187 268.715 184.85C269.094 192.435 269.476 200.021 269.985 207.598C270.497 215.211 271.137 222.817 272.035 230.395C272.929 237.947 274.08 245.471 275.612 252.921C276.378 256.643 277.243 260.342 278.209 264.019C278.491 265.087 278.839 266.138 279.152 267.197C279.308 267.628 279.404 268.079 279.438 268.535C279.476 268.97 279.582 269.395 279.753 269.797C280.99 273.449 281.994 277.177 282.879 280.929C283.761 284.668 284.526 288.433 285.29 292.197C285.397 292.726 285.505 293.256 285.612 293.785C286.408 297.707 287.204 301.629 288 305.551L290.388 317.317C290.786 319.277 291.184 321.238 291.582 323.199C291.781 324.18 291.98 325.16 292.18 326.141C292.291 326.547 292.353 326.966 292.364 327.387C292.322 328.363 292.784 329.268 292.68 330.269C292.633 331.945 292.794 333.622 293.159 335.259C293.445 337.22 293.725 339.182 294 341.145C294.546 345.07 295.057 349.001 295.494 352.94C296.419 360.803 296.892 368.712 296.913 376.629C296.674 366.858 296.435 357.086 296.195 347.315V347.315ZM440.464 461.002C440.894 465.691 440.833 470.489 440.797 475.194C440.759 480.117 440.571 485.039 440.267 489.953C439.655 499.808 438.574 509.629 437.284 519.417C436.637 524.328 435.937 529.233 435.217 534.134C434.875 536.463 434.568 538.803 434.179 541.125C434.117 541.499 434.022 541.867 433.895 542.224C433.569 543.781 433.562 545.387 433.875 546.945C434.504 553.074 434.277 559.259 433.201 565.325C432.516 568.585 431.42 571.764 431.034 575.072C430.677 578.123 430.934 581.222 430.55 584.27C430.137 586.789 429.566 589.28 428.84 591.728C424.448 608.812 425.793 626.877 428.983 644.225C425.889 618.159 431.311 591.949 435.291 566.004C435.991 561.443 436.647 556.871 437.016 552.272C437.313 548.55 437.423 544.809 437.959 541.115C438.502 537.371 439.469 533.705 440.113 529.979C440.451 528.12 440.658 526.24 440.732 524.352C440.763 523.412 440.741 522.47 440.668 521.531C440.653 520.738 440.698 519.945 440.8 519.159C441.305 511.254 441.631 503.337 441.724 495.416C441.816 487.658 441.686 479.897 441.27 472.149C441.07 468.429 440.802 464.713 440.464 461.002ZM456.827 80.7573C458.581 115.787 459.247 150.848 458.825 185.941C467.143 153.236 462.609 114.005 456.827 80.7573V80.7573Z" fill="#EB924D"/>
<path d="M46.3509 420.834C48.0106 384.917 49.6731 348.966 53.8104 313.25C57.2361 283.676 62.3627 254.193 62.5674 224.423C66.855 291.647 48.2446 353.499 46.3509 420.834ZM130.415 278.65C130.39 279.247 130.366 279.844 130.343 280.441C129.893 292.352 129.924 304.28 130.338 316.192C130.753 328.091 131.551 339.974 132.63 351.831C132.709 352.965 132.902 354.087 133.207 355.182C133.436 356.333 133.503 357.511 133.407 358.681C133.452 361.575 133.676 364.464 134.078 367.331C134.841 373.048 136.087 378.687 136.994 384.381C138.953 398.895 139.702 413.548 139.231 428.186C139.959 422.647 140.688 417.107 141.417 411.568C144.446 418.646 146.534 426.09 147.626 433.712C149.069 441.683 150.343 449.682 151.448 457.71C153.06 469.425 154.309 481.183 155.195 492.983C155.638 498.879 155.989 504.781 156.249 510.689C156.314 512.166 156.374 513.643 156.427 515.12C156.466 516.197 156.26 517.136 156.204 518.184C156.087 520.382 156.926 522.496 156.813 524.659C156.782 525.247 156.636 525.785 156.653 526.385C156.711 528.344 157.091 530.348 157.311 532.297C157.756 536.258 158.207 540.218 158.662 544.178C159.574 552.097 160.506 560.015 161.458 567.929C163.364 583.759 165.352 599.578 167.422 615.387C169.492 631.196 171.644 646.994 173.878 662.78C173.968 663.412 174.057 664.043 174.147 664.674C171.445 628.226 168.737 591.727 163.019 555.629C161.239 546.431 160.206 537.104 159.928 527.74C159.945 523.993 160.235 520.237 159.93 516.494C159.638 514.879 159.463 513.245 159.407 511.604C159.482 509.981 159.44 508.354 159.281 506.736C158.695 499.046 157.965 491.368 157.091 483.704C155.358 468.289 153.146 452.932 150.743 437.609C148.33 422.222 145.723 406.867 143.2 391.498C140.683 376.161 138.247 360.807 136.177 345.402C134.121 330.104 132.425 314.753 131.386 299.351C130.921 292.458 130.597 285.558 130.415 278.65H130.415ZM365.87 222.442C366.458 233.821 366.331 245.226 365.491 256.589C365.097 265.181 363.256 273.642 362.979 282.243C362.704 290.789 363.346 299.352 362.988 307.923C362.156 327.899 356.306 347.346 354.486 367.256C353.994 372.632 353.797 378.03 353.601 383.424L353.093 397.374C353.047 398.639 353 399.903 352.938 401.167C352.828 404.038 352.542 406.899 352.083 409.734C351.816 411.273 351.29 412.79 351.12 414.326C350.323 421.517 349.764 428.731 349.284 435.949C348.796 443.279 348.226 450.605 347.514 457.917C346.803 465.219 345.952 472.509 344.903 479.77C344.358 483.547 343.757 487.315 343.099 491.074C342.795 492.81 342.477 494.543 342.146 496.274C341.965 497.735 341.679 499.181 341.287 500.6C350.312 475.208 349.516 447.759 354.497 421.534C354.757 419.207 355.343 416.929 356.237 414.765C356.662 414.003 356.937 413.166 357.045 412.3C357.286 409.348 357.339 406.383 357.203 403.425C357.081 397.469 356.634 391.523 356.628 385.564C356.953 380.638 357.646 375.743 358.699 370.92C359.366 366.486 359.907 362.036 360.321 357.57C360.451 354.949 360.875 352.351 361.585 349.825C361.991 348.838 362.274 347.804 362.428 346.748C362.554 345.346 362.847 343.939 363.044 342.545C363.844 336.901 364.535 331.244 365.119 325.573C366.302 314.136 367.09 302.667 367.481 291.166C367.891 279.678 367.95 268.184 367.661 256.684C367.386 245.368 366.798 234.065 365.897 222.776L365.87 222.442ZM286.353 289.077C285.98 287.956 285.61 286.833 285.242 285.709C283.386 279.986 282.093 274.022 280.63 268.161C279.824 264.935 278.717 261.846 278.089 258.607C276.823 253.117 275.843 247.565 275.152 241.974C275.1 241.101 275.142 240.225 275.277 239.362C275.363 236.979 275.103 234.596 274.504 232.289C273.549 226.51 272.907 220.684 272.582 214.836C272.51 213.56 272.455 212.283 272.414 211.006C272.336 210.329 272.344 209.645 272.439 208.97C272.554 208.448 272.592 207.911 272.55 207.378C272.433 206.3 272.213 205.236 271.895 204.2C271.403 202.324 271.027 200.419 270.771 198.496C270.72 197.758 270.563 197.031 270.305 196.337C270.041 195.53 269.885 194.691 269.843 193.843C269.323 190.03 268.843 186.209 268.626 182.364C268.315 176.763 268.088 171.158 267.945 165.55C267.718 160.002 267.829 154.445 268.276 148.911C268.429 147.315 268.631 145.724 268.857 144.137C270.345 136.658 271.19 129.066 271.383 121.444C271.328 119.571 271.009 117.75 270.857 115.891C270.87 114.744 270.986 113.601 271.203 112.475C271.319 109.345 271.247 106.21 270.988 103.089C270.844 98.3929 270.693 93.6972 270.537 89.0017C270.212 79.2201 269.872 69.4389 269.519 59.6582C268.81 79.7492 268.102 99.8401 267.393 119.931C266.682 140.084 265.971 160.259 266.768 180.409C266.929 184.475 267.15 188.539 267.431 192.599C268.506 208.215 270.429 223.766 272.961 239.211C274.227 246.938 275.637 254.641 277.19 262.319C277.386 263.292 277.626 264.257 277.861 265.221C277.917 265.447 277.947 265.678 277.95 265.91C277.997 266.334 278.094 266.751 278.239 267.152C278.496 268.084 278.751 269.017 279.005 269.95C279.567 272.021 280.186 274.077 280.61 276.19C281.353 279.883 281.772 283.631 282.446 287.336C283.054 290.676 283.868 293.973 284.737 297.252C285.708 300.919 286.748 304.568 287.65 308.254C288.1 310.092 288.515 311.939 288.869 313.799C289.046 314.728 289.207 315.661 289.351 316.596C289.439 316.989 289.474 317.391 289.454 317.793C289.436 318.878 289.548 319.96 289.789 321.017C290.28 324.842 290.678 328.677 290.983 332.523C291.283 336.367 291.476 340.218 291.562 344.075C291.592 345.526 291.606 346.976 291.604 348.427C291.58 348.768 291.582 349.111 291.61 349.451C291.646 349.677 291.753 349.88 291.791 350.107C291.914 350.849 291.969 351.608 292.058 352.355C292.294 354.334 292.529 356.313 292.764 358.292C292.841 359.019 292.983 359.739 293.186 360.442C293.518 361.952 293.743 363.483 293.859 365.024C294.362 368.425 294.855 371.828 295.338 375.232C296.116 380.711 296.87 386.193 297.599 391.68C298.434 381.206 298.318 370.679 297.25 360.226C296.658 355.763 295.717 351.345 294.948 346.908C294.37 343.759 293.971 340.58 293.752 337.386C293.563 330.362 294.036 323.336 295.164 316.401C295.937 310.492 296.709 304.583 297.482 298.674C297.778 296.699 297.741 294.689 297.373 292.726C297.125 290.272 297.222 287.796 297.659 285.368C298.833 273.461 300.07 261.559 301.085 249.636C302.095 237.753 302.885 225.847 303.16 213.923C303.29 208.27 303.305 202.614 303.173 196.961C303.106 194.103 303.001 191.246 302.857 188.391C302.715 185.61 302.306 182.778 302.306 179.998C299.188 225.727 296.069 271.457 292.951 317.186C292.768 314.836 292.304 312.516 291.57 310.276C291.182 308.413 290.686 306.552 290.373 304.675C290.318 304.353 290.299 304.026 290.317 303.699C290.387 303.119 290.377 302.532 290.288 301.955C289.906 300.116 289.314 298.298 288.765 296.505C288.002 294.015 287.175 291.547 286.353 289.077H286.353ZM438.033 460.821C438.372 466.821 438.445 472.836 438.307 478.844C438.215 482.819 438.037 486.791 437.773 490.76C437.643 492.746 437.496 494.73 437.33 496.713C437.271 498.594 437.068 500.468 436.723 502.318C436.371 504.234 436.138 506.17 436.026 508.115L435.353 514.066C434.905 518.034 434.456 522.001 434.007 525.968C430.644 520.676 430.027 514.164 429.219 507.946C427.891 497.742 425.816 487.649 423.01 477.748C424.097 494.768 426.03 511.704 428.809 528.559C429.566 533.147 430.389 537.732 430.807 542.366C430.853 543.339 431.015 544.303 431.289 545.238C431.625 546.827 431.69 548.461 431.482 550.071C431.379 553.983 431.259 557.896 431.086 561.806C430.739 569.614 430.175 577.42 429.086 585.162C428.738 587.637 428.333 590.104 427.871 592.562C426.959 597.385 425.803 602.171 425.267 607.05C424.568 616.679 425.234 626.357 427.243 635.799C427.221 631.266 427.199 626.733 427.178 622.2C427.149 616.305 427.121 610.401 427.618 604.527C427.949 600.613 428.513 596.722 429.185 592.853C429.841 589.072 430.768 585.314 431.338 581.525C432.478 573.94 433.533 566.342 434.502 558.733C435.467 551.084 436.314 543.421 437.043 535.744C437.757 528.105 438.318 520.453 438.726 512.789C439.116 505.231 439.33 497.663 439.321 490.095C439.312 482.689 439.088 475.282 438.593 467.893C438.435 465.535 438.166 463.179 438.033 460.821ZM454.396 80.5765C456.15 115.606 456.816 150.667 456.394 185.76C464.712 153.055 460.178 113.824 454.396 80.5765Z" fill="url(#paint5_linear_216_99)"/>
</g>
<defs>
<linearGradient id="paint0_linear_216_99" x1="-265.355" y1="183.178" x2="176.99" y2="333.028" gradientUnits="userSpaceOnUse">
<stop stop-color="#CF5C2B"/>
<stop offset="1" stop-color="#59173E"/>
</linearGradient>
<linearGradient id="paint1_linear_216_99" x1="-95.8014" y1="200.477" x2="945.938" y2="664.433" gradientUnits="userSpaceOnUse">
<stop stop-color="#CF5C2B"/>
<stop offset="1" stop-color="#59173E"/>
</linearGradient>
<linearGradient id="paint2_linear_216_99" x1="-33.302" y1="232.378" x2="1008.44" y2="696.334" gradientUnits="userSpaceOnUse">
<stop stop-color="#CF5C2B"/>
<stop offset="1" stop-color="#59173E"/>
</linearGradient>
<linearGradient id="paint3_linear_216_99" x1="-349.917" y1="113.407" x2="653.192" y2="488.636" gradientUnits="userSpaceOnUse">
<stop stop-color="#CF5C2B"/>
<stop offset="1" stop-color="#59173E"/>
</linearGradient>
<linearGradient id="paint4_linear_216_99" x1="-145.715" y1="190.666" x2="857.393" y2="565.894" gradientUnits="userSpaceOnUse">
<stop stop-color="#CF5C2B"/>
<stop offset="1" stop-color="#59173E"/>
</linearGradient>
<linearGradient id="paint5_linear_216_99" x1="-594.42" y1="18.2152" x2="372.809" y2="395.456" gradientUnits="userSpaceOnUse">
<stop stop-color="#CF5C2B"/>
<stop offset="1" stop-color="#59173E"/>
</linearGradient>
</defs>
</svg>
