<svg width="530" height="195" viewBox="0 0 530 195" fill="none" xmlns="http://www.w3.org/2000/svg">
<g style="mix-blend-mode:multiply">
<path d="M520.422 76.0006C516.446 71.2105 512.065 66.7719 507.327 62.7342C505.137 60.7566 502.947 58.7792 500.758 56.8018C496.546 52.9987 492.335 49.1958 488.123 45.3931C486.365 43.4476 484.366 41.7346 482.174 40.2954C480.18 39.1332 478.326 37.745 476.65 36.1584C468.398 29.3301 459.797 22.9333 450.883 16.9938C443.994 11.9477 436.27 8.15304 428.066 5.78309C424.399 4.99132 420.683 4.45132 416.943 4.16691C411.574 3.63574 406.206 3.10442 400.838 2.57291L392.7 1.76727C391.629 1.68766 390.567 1.50835 389.529 1.23171C387.768 0.724718 385.997 1.46787 384.189 1.21193C380.756 0.858953 377.305 0.721655 373.855 0.800868C370.075 0.745821 366.295 0.693674 362.515 0.644458C347.431 0.447423 332.347 0.295654 317.262 0.189163C302.234 0.0831856 287.207 0.0230194 272.179 0.0086147C257.208 -0.00553274 242.237 0.026597 227.266 0.105051C212.353 0.183505 197.439 0.308781 182.527 0.480866C167.671 0.652693 152.815 0.872017 137.961 1.13885C123.163 1.40507 108.367 1.71926 93.571 2.08135C78.8322 2.44249 64.0948 2.85223 49.3586 3.3106C41.6446 3.55085 33.9311 3.80456 26.2182 4.07173C25.5785 4.04285 24.9375 4.0827 24.3063 4.19058C23.6563 4.36215 23.0145 4.61705 22.3801 4.83981C21.0661 5.29011 19.7774 5.81125 18.5197 6.40092C16.0277 7.48934 13.8575 9.20056 12.2179 11.37C11.3166 12.6533 10.69 14.1008 9.85064 15.4221C9.37347 16.0238 8.92766 16.6497 8.5149 17.2973C6.93608 20.7405 5.02174 24.0198 2.79961 27.0876C0.652091 30.3774 -0.305615 34.3029 0.0855786 38.2121C0.435175 43.0814 0.552468 48.007 0.984865 52.8573C1.67552 60.6057 1.0427 68.3649 1.88203 76.1573C1.81575 76.6341 1.84968 77.1194 1.98157 77.5823C2.11346 78.0452 2.34043 78.4755 2.64803 78.8458C2.95563 79.216 3.33707 79.5179 3.76798 79.7324C4.19888 79.9469 4.66984 80.0691 5.15066 80.0913L12.5071 81.6972C9.47333 83.6634 4.94613 83.8121 3.34698 87.0544C2.90072 88.1331 2.66797 89.2881 2.66169 90.4555C2.37334 94.6035 1.98415 98.7436 1.70455 102.892C1.57902 104.756 1.47562 106.622 1.41363 108.489C1.35421 110.274 1.20454 111.976 1.03683 113.749C0.647134 117.865 -0.403379 123.241 0.857775 127.266C2.07728 131.158 6.93291 131.321 10.2959 132.265C9.42765 132.467 8.61033 132.845 7.89507 133.377C7.17981 133.908 6.58201 134.582 6.13912 135.356C5.61952 136.085 5.25068 136.868 4.75526 137.614C4.32084 138.269 3.92211 138.947 3.56074 139.645C2.83784 141.042 2.26317 142.511 1.84608 144.028C1.56822 144.961 1.40484 145.925 1.35962 146.897C1.31745 147.839 1.27877 148.781 1.2436 149.723C1.17312 151.607 1.11705 153.491 1.07537 155.376C0.991776 159.145 0.965117 162.914 0.995384 166.685C1.02497 170.332 0.162512 173.873 1.71279 177.473C3.08462 180.712 5.34653 183.497 8.23638 185.504C11.1262 187.511 14.5257 188.658 18.0408 188.812C54.6554 190.824 91.3847 191.656 128.041 192.519C165.349 193.397 202.663 193.898 239.983 194.021C277.573 194.148 315.163 193.903 352.751 193.287C365.461 193.108 378.171 192.35 390.832 193.168C402.496 193.826 414.192 193.704 425.84 192.803C435.964 192.102 445.009 192.122 452.984 184.817C470.579 168.701 489.162 153.686 506.757 137.603C511.618 133.367 516.081 128.696 520.092 123.647C524.31 118.514 527.412 112.558 529.199 106.159C529.968 103.335 530.186 100.391 529.842 97.4852C529.633 96.2765 529.305 95.0913 528.864 93.9468C528.365 92.9667 527.988 91.929 527.742 90.857C527.424 88.7083 526.752 86.6272 525.754 84.698C524.333 81.5949 522.543 78.6746 520.422 76.0006Z" fill="url(#paint0_linear_219_156)"/>
<path d="M527.019 103.209C526.565 104.037 526.084 104.838 525.657 105.585C525.497 105.852 525.337 106.146 525.176 106.386C524.957 106.682 524.685 106.935 524.375 107.134C523.697 107.436 522.944 107.529 522.213 107.401C522.132 107.405 522.051 107.396 521.973 107.374C510.385 106.386 498.478 103.316 487.371 106.76C490.424 107.903 493.644 108.534 496.903 108.629C505.339 109.323 513.749 110.044 522.159 110.738C522.079 110.818 521.999 110.872 521.919 110.952C521.038 111.78 520.157 112.58 519.276 113.381C517.781 114.743 516.526 116.398 515.084 117.84C512.948 119.949 510.706 121.978 508.49 123.981C507.876 124.541 507.262 125.102 506.594 125.689C505.953 126.277 505.286 126.864 504.645 127.425C498.958 132.604 493.218 137.731 487.398 142.723C485.502 144.379 483.58 146.007 481.658 147.582C479.629 149.318 477.573 150.999 475.49 152.655C465.245 161.045 454.394 168.666 443.025 175.456L441.823 176.176C441.071 176.667 440.264 177.07 439.42 177.378C439.035 177.465 438.641 177.51 438.246 177.511H437.845C437.124 177.485 436.404 177.485 435.683 177.485C429.729 177.405 423.695 177.805 417.741 177.992C408.717 178.205 399.702 178.419 390.696 178.633C380.257 178.873 369.818 179.069 359.378 179.22C350.061 179.354 340.734 179.478 331.398 179.594C323.442 179.674 315.486 179.754 307.557 179.781C302.484 179.834 297.385 179.861 292.285 179.888C283.955 179.941 275.625 179.941 267.322 179.941C262.516 179.941 257.71 179.941 252.905 179.914H247.138C244.254 179.914 241.371 179.888 238.488 179.861C237.34 179.861 236.218 179.861 235.097 179.834C226.58 179.807 218.117 179.727 209.627 179.647C206.743 179.621 203.886 179.594 201.003 179.54C195.156 179.487 189.309 179.407 183.462 179.3C179.991 179.273 176.52 179.22 173.023 179.14C164.106 179.006 155.242 178.82 146.351 178.633C142.8 178.579 139.276 178.499 135.725 178.419C131.266 178.312 126.781 178.205 122.322 178.045C118.371 177.965 114.446 177.858 110.495 177.752C101.925 177.511 93.3634 177.244 84.811 176.951C83.3159 176.924 81.8206 176.871 80.3254 176.817C78.4299 176.764 76.5076 176.684 74.6121 176.604C68.4446 176.39 62.2951 176.168 56.1634 175.936C53.4134 175.829 50.6633 175.723 47.9136 175.589C40.7048 175.215 33.4428 174.708 26.2343 174.708C22.6806 174.558 19.2444 173.392 16.3338 171.348C13.4232 169.303 11.1605 166.466 9.81456 163.174C8.71934 160.309 8.29028 157.232 8.55983 154.177C8.57433 153.635 8.65497 153.097 8.80004 152.575C9.1049 151.795 9.34604 150.991 9.52106 150.172C9.68131 149.131 9.76134 148.063 9.84133 146.995C9.92133 145.98 10.0016 144.939 10.0551 143.898C10.1083 143.097 10.1886 142.296 10.2418 141.495C10.3185 140.455 10.4612 139.42 10.6691 138.398C10.7226 138.051 10.8293 137.704 10.9093 137.384C10.9893 137.116 11.0695 136.85 11.1763 136.583C11.326 136.114 11.5322 135.666 11.7903 135.247C11.9729 134.909 12.1971 134.595 12.4578 134.313C12.7076 134.028 12.9848 133.769 13.2853 133.539C18.5718 129.587 28.8774 129.641 36.5666 129.48C38.0619 129.427 39.4498 129.4 40.7049 129.32C44.0421 129.107 47.3796 129.027 50.7436 129.054C42.814 129.029 34.9006 128.332 27.0885 126.971C23.3776 126.357 19.6931 125.556 16.0621 124.622C15.1518 124.412 14.2659 124.107 13.4188 123.714C12.2726 123.279 11.3301 122.431 10.7758 121.338C10.4259 120.364 10.2982 119.324 10.4021 118.294C10.4285 117.306 10.2953 116.291 10.3486 115.304C10.4286 113.194 10.6958 111.139 10.9093 109.056C11.1228 107.374 11.3098 105.665 11.4166 103.957C11.6836 99.4179 11.9774 94.9059 12.3243 90.3939C12.2755 89.0169 12.7099 87.6662 13.5525 86.5759C14.1515 86.0416 14.8632 85.6492 15.6348 85.428C17.6594 84.6772 19.7516 84.1228 21.8823 83.7727C22.8703 83.5857 23.9381 83.5857 24.8994 83.3189C25.948 82.9661 27.0307 82.7244 28.1298 82.5979C39.8238 81.2364 51.5089 79.8749 63.1849 78.5132C64.5734 78.353 65.9883 78.193 67.3766 78.0327C49.7556 75.8967 32.1346 73.7075 14.5136 71.5715C13.7394 71.4647 12.9651 71.3847 12.1908 71.2779C11.4358 71.2862 10.7076 70.9987 10.1618 70.4769C9.85992 69.9878 9.70249 69.4232 9.70781 68.8484C8.9068 59.3169 9.81454 49.4919 9.28053 39.8804C9.25378 39.6134 9.22732 38.8124 9.14732 37.6911C9.12057 37.1304 9.09383 36.4896 9.04056 35.7956C9.04056 35.5551 9.04055 35.2616 9.01379 34.9944C8.98704 34.5674 8.96032 34.1401 8.93357 33.6861V33.5797C8.90682 33.1257 8.88016 32.6717 8.85358 32.2179C8.82683 31.7374 8.80002 31.2834 8.77327 30.8029C8.69328 29.2544 8.58653 27.7326 8.50653 26.5579C8.47978 26.1571 8.45306 25.8101 8.42631 25.4899C8.42631 25.3564 8.39985 25.1961 8.39985 25.0894C8.3731 24.7424 8.34635 24.5019 8.31963 24.3419C8.29285 24.2084 8.29284 24.1284 8.26609 24.1284C8.08048 21.6214 8.40267 19.1028 9.21342 16.7233C10.0242 14.3438 11.3068 12.1524 12.9844 10.2803C14.6621 8.40817 16.7003 6.89391 18.977 5.82811C21.2537 4.76232 23.7221 4.16694 26.2343 4.07762C31.6809 3.89088 37.1274 3.71285 42.5738 3.54359C49.6756 3.30334 56.7506 3.08985 63.8524 2.90284C86.7064 2.20885 109.623 1.65711 132.601 1.24761L150.703 0.927372C174.625 0.526614 198.627 0.259506 222.709 0.126091C228.93 0.0995971 235.177 0.0728523 241.398 0.0461008C248.847 0.0193492 256.304 0.0104154 263.771 0.0193325C278.188 0.0193325 292.659 0.0460941 307.103 0.126091C308.518 0.126091 309.906 0.15286 311.321 0.15286C323.949 0.233114 336.578 0.339957 349.206 0.473372C358.257 0.580121 367.317 0.704689 376.385 0.847106C383.914 0.953855 391.452 1.07842 398.999 1.22084C403.084 1.30084 407.115 1.43459 411.2 1.46109C411.948 1.48784 412.695 1.48786 413.443 1.48786C414.164 1.48786 414.885 1.48784 415.605 1.46109H415.632C417.127 1.46109 418.622 1.40785 420.117 1.3276C420.545 1.3276 420.945 1.30083 421.372 1.27434C423.201 1.14106 425.038 1.29417 426.819 1.7281C426.874 1.72387 426.929 1.73307 426.979 1.75487C429.911 2.63192 432.719 3.87893 435.336 5.46584C435.603 5.62609 435.896 5.75963 436.163 5.91988C458.425 18.1353 478.914 33.3337 497.063 51.0936C497.73 51.7344 498.398 52.4019 499.039 53.0427C505.313 59.3169 511.266 65.8579 517.22 72.3725C518.208 73.4672 519.196 74.5617 520.157 75.6832C522.362 78.1469 524.32 80.8205 526.004 83.6659C527.194 85.6642 528.093 87.8217 528.674 90.0735C528.941 91.1415 529.048 92.263 529.341 93.331C529.623 95.0493 529.563 96.8065 529.165 98.5016C528.766 100.197 528.037 101.797 527.019 103.209V103.209Z" fill="url(#paint1_linear_219_156)"/>
<path d="M517.22 72.3716C511.266 65.8571 505.313 59.3161 499.038 53.0418C498.398 52.4011 497.73 51.7336 497.063 51.0928C474.849 50.8526 452.636 49.8113 430.45 48.2361C379.589 44.6318 328.835 39.8796 277.974 36.0081C227.141 32.1371 176.28 28.8798 125.285 28.6395C99.5481 28.5325 73.9176 29.3336 48.2868 31.2293C35.2048 32.1903 22.0156 32.4841 8.93329 33.6053C9.09357 36.6491 9.22701 39.3456 9.28025 39.8796C9.81426 49.4911 8.90652 59.3161 9.70753 68.8476C9.70221 69.4224 9.85964 69.987 10.1616 70.4761C10.1883 70.5029 10.2151 70.5561 10.2683 70.5829C21.1856 71.9622 32.1842 72.5954 43.1876 72.4783C68.8449 72.6921 94.4486 71.2504 120.106 71.3839C126.861 71.437 133.633 71.526 140.423 71.6509C143.788 71.7308 147.178 71.8111 150.569 71.8911C152.531 71.7927 154.498 71.8821 156.443 72.1581C158.894 72.5726 161.387 72.6801 163.865 72.4783C169.445 72.3451 174.998 71.8111 180.578 71.3303C185.811 70.8498 191.044 70.4226 196.303 70.3691C216.301 70.1556 236.004 75.4419 256.002 75.7089C261.36 75.5252 266.725 75.7573 272.047 76.4031C275.171 76.9639 278.188 77.9248 281.285 78.6726C286.528 79.9698 291.903 80.6595 297.304 80.7281C300.023 80.7992 302.744 80.6833 305.447 80.3811C308.099 80.2079 310.761 80.2615 313.403 80.5414C324.724 81.1289 336.053 81.6273 347.391 82.0366C356.281 82.3569 365.172 82.5882 374.062 82.7306C333.187 86.2816 292.311 89.7079 251.436 93.0096C230.451 94.6916 209.386 96.5339 188.294 96.5339C165.52 96.5339 142.746 93.8374 119.892 95.0921C99.7084 96.2134 79.3374 97.9222 59.3134 100.779C43.7216 103.022 27.1151 107.721 10.909 109.055C10.6955 111.138 10.4283 113.194 10.3483 115.303C10.2951 116.291 10.4283 117.305 10.4018 118.293C10.2979 119.323 10.4256 120.363 10.7755 121.337C11.3298 122.43 12.2723 123.278 13.4185 123.713C14.2657 124.106 15.1516 124.411 16.0618 124.621C19.6928 125.555 23.3773 126.356 27.0883 126.97C33.2291 126.73 39.3696 126.329 45.3768 125.582C63.0781 123.419 82.5678 122.672 100.616 119.041L111.99 118.32C132.921 116.477 153.716 113.32 174.251 108.869C187.493 106.252 200.896 104.303 214.299 102.728C216.034 102.514 217.662 102.034 219.371 101.9C220.76 101.767 222.175 101.66 223.563 101.553C229.17 101.126 234.785 100.779 240.41 100.512C251.623 99.9779 262.89 99.7376 274.13 99.6309C285.397 99.5241 296.637 99.5774 307.904 99.5774C319.17 99.6042 330.41 99.5774 341.677 99.3907C352.917 99.2304 364.184 98.8566 375.397 98.1624C378.948 97.9489 382.472 97.6819 385.997 97.4149C376.578 95.2244 367.026 93.6547 357.402 92.7159C375.077 91.2206 392.662 89.0135 410.159 86.0946C421.052 84.2524 431.918 82.1701 442.918 80.9151C448.405 80.2705 453.921 79.9051 459.444 79.8206C462.194 79.7671 464.944 79.8206 467.694 80.0073C470.195 80.3755 472.722 80.5452 475.25 80.5149C477.012 80.3011 478.641 79.6068 480.429 79.4468C483.233 79.2063 486.036 78.9928 488.866 78.7526C494.473 78.2721 500.088 77.7381 505.713 77.1506C507.208 76.9906 508.73 76.8303 510.252 76.6433C513.509 76.2696 516.82 75.9758 520.157 75.6823C519.196 74.5608 518.208 73.4664 517.22 72.3716ZM482.298 114.876C454.276 113.189 426.183 113.038 398.144 114.422C392.297 114.662 386.584 114.796 380.79 115.516C378.014 115.89 375.21 116.237 372.407 116.558C361.22 117.893 350.007 118.978 338.767 119.815C334.388 120.162 330.01 120.456 325.631 120.723C336.978 120.643 348.334 120.563 359.699 120.482C371.045 120.402 382.401 120.313 393.766 120.215C399.453 120.189 405.14 120.135 410.8 120.109C413.657 120.082 416.487 120.055 419.317 120.029C420.521 120.1 421.73 120.038 422.921 119.842C423.641 119.681 424.336 119.388 425.057 119.281C427.711 119.117 430.375 119.206 433.013 119.548C435.816 119.708 438.646 119.868 441.45 120.029C447.083 120.376 452.716 120.767 458.35 121.203C467.214 121.871 476.078 122.618 484.942 123.393C492.177 124.06 499.394 124.825 506.594 125.689L506.647 125.635C507.261 125.101 507.875 124.541 508.49 123.98C510.705 121.977 512.948 119.948 515.084 117.839C504.191 116.691 493.271 115.623 482.298 114.876ZM297.011 137.302C247.244 136.315 197.585 133.458 147.792 133.645C121.548 133.725 95.3298 134.152 69.1386 134.926C49.8089 135.487 30.2121 135.38 10.909 137.383C10.5657 138.731 10.3423 140.107 10.2416 141.494C10.0281 143.924 9.94782 146.407 9.68107 148.836C31.1733 149.717 52.9326 148.249 74.3714 148.195C100.589 148.142 126.807 148.418 153.025 149.023C202.711 150.198 252.344 152.948 302.03 153.829C352.57 154.737 403.03 151.106 453.464 148.569C462.835 148.089 472.233 147.795 481.658 147.581C483.58 146.006 485.502 144.378 487.398 142.722C493.218 137.73 498.958 132.603 504.645 127.424C485.876 129.24 467.08 130.975 448.258 132.016C397.877 134.793 347.471 138.29 297.011 137.302Z" fill="url(#paint2_linear_219_156)"/>
<path d="M372.227 127.703C361.857 121.904 344.637 123.694 336.428 131.499C335.169 132.739 334.169 134.217 333.486 135.847C332.804 137.478 332.452 139.227 332.452 140.995C332.452 142.762 332.804 144.512 333.486 146.142C334.169 147.772 335.169 149.251 336.428 150.491C348.396 161.259 369.407 156.664 376.995 143.333C377.14 143.202 377.285 143.071 377.431 142.939C383.225 137.703 379.099 129.006 372.227 127.703Z" fill="#EB924D"/>
<path d="M374.686 122.599C364.316 116.8 347.095 118.589 338.887 126.394C337.628 127.635 336.628 129.113 335.945 130.743C335.262 132.373 334.911 134.123 334.911 135.891C334.911 137.658 335.262 139.408 335.945 141.038C336.628 142.668 337.628 144.146 338.887 145.386C350.855 156.155 371.865 151.56 379.453 138.229L379.889 137.835C385.684 132.599 381.557 123.902 374.686 122.599Z" fill="url(#paint3_linear_219_156)"/>
<path d="M372.227 125.889C361.857 120.09 344.637 121.879 336.428 129.685C335.169 130.925 334.169 132.403 333.486 134.033C332.804 135.663 332.452 137.413 332.452 139.181C332.452 140.948 332.804 142.698 333.486 144.328C334.169 145.958 335.169 147.436 336.428 148.676C348.396 159.445 369.407 154.85 376.995 141.519C377.14 141.388 377.285 141.256 377.431 141.125C383.225 135.889 379.099 127.192 372.227 125.889Z" fill="url(#paint4_linear_219_156)"/>
<path d="M125.025 23.5212C121.997 22.0483 118.616 21.4556 115.267 21.8107C111.919 22.1657 108.737 23.4542 106.085 25.5294C105.419 26.1855 104.89 26.9676 104.528 27.8302C104.167 28.6927 103.981 29.6184 103.981 30.5535C103.981 31.4886 104.167 32.4144 104.528 33.2769C104.89 34.1394 105.419 34.9215 106.085 35.5777C112.417 41.275 123.533 38.8437 127.548 31.7908L127.779 31.5822C128.399 30.9521 128.832 30.1619 129.028 29.2998C129.225 28.4378 129.178 27.5381 128.892 26.7013C128.606 25.8646 128.093 25.124 127.41 24.5623C126.727 24.0007 125.902 23.6402 125.025 23.5212V23.5212Z" fill="#EB924D"/>
<path d="M126.325 20.8203C123.297 19.3473 119.916 18.7546 116.567 19.1096C113.219 19.4646 110.037 20.7531 107.385 22.8282C106.719 23.4843 106.189 24.2664 105.828 25.129C105.467 25.9915 105.281 26.9173 105.281 27.8523C105.281 28.7874 105.467 29.7132 105.828 30.5757C106.189 31.4383 106.719 32.2204 107.385 32.8765C113.717 38.5738 124.833 36.1427 128.848 29.0896L129.078 28.8812C129.699 28.2512 130.131 27.4609 130.328 26.5989C130.525 25.7368 130.477 24.8371 130.192 24.0004C129.906 23.1637 129.393 22.4231 128.71 21.8614C128.027 21.2998 127.201 20.9392 126.325 20.8203V20.8203Z" fill="url(#paint5_linear_219_156)"/>
<path d="M125.025 22.5608C121.997 21.0879 118.616 20.4952 115.267 20.8502C111.919 21.2052 108.737 22.4937 106.085 24.5689C105.419 25.225 104.89 26.0071 104.528 26.8697C104.167 27.7322 103.981 28.658 103.981 29.593C103.981 30.5281 104.167 31.4539 104.528 32.3164C104.89 33.179 105.419 33.9611 106.085 34.6172C112.417 40.3145 123.533 37.8832 127.548 30.8303L127.779 30.6217C128.399 29.9917 128.832 29.2014 129.028 28.3394C129.225 27.4774 129.178 26.5776 128.892 25.7409C128.606 24.9042 128.093 24.1635 127.41 23.6019C126.727 23.0402 125.902 22.6797 125.025 22.5608V22.5608Z" fill="url(#paint6_linear_219_156)"/>
<path d="M74.1985 41.0661C65.6135 36.2649 51.3571 37.7463 44.5614 44.2081C43.5189 45.2348 42.691 46.4585 42.1259 47.8082C41.5608 49.1578 41.2698 50.6064 41.2698 52.0696C41.2698 53.5327 41.5608 54.9813 42.1259 56.3309C42.691 57.6805 43.5189 58.9043 44.5614 59.931C54.4695 68.8457 71.8633 65.0416 78.1453 54.0056L78.5062 53.6794C83.3035 49.3444 79.887 42.1444 74.1985 41.0661Z" fill="#EB924D"/>
<path d="M76.2338 36.8399C67.6486 32.039 53.3922 33.5204 46.5965 39.9822C45.554 41.0088 44.7261 42.2326 44.161 43.5822C43.5959 44.9318 43.3049 46.3804 43.3049 47.8435C43.3049 49.3067 43.5959 50.7552 44.161 52.1049C44.7261 53.4545 45.554 54.6783 46.5965 55.7049C56.5048 64.6198 73.8984 60.8157 80.1804 49.7794L80.5413 49.4532C85.3389 45.1185 81.9223 37.9182 76.2338 36.8399Z" fill="url(#paint7_linear_219_156)"/>
<path d="M74.1985 39.5635C65.6135 34.7624 51.3571 36.2437 44.5614 42.7055C43.5189 43.7322 42.691 44.956 42.1259 46.3056C41.5608 47.6552 41.2698 49.1038 41.2698 50.567C41.2698 52.0301 41.5608 53.4787 42.1259 54.8283C42.691 56.178 43.5189 57.4018 44.5614 58.4285C54.4695 67.3431 71.8633 63.539 78.1453 52.503L78.5062 52.1768C83.3035 47.8418 79.887 40.6418 74.1985 39.5635Z" fill="url(#paint8_linear_219_156)"/>
<path d="M12.8279 117.899C12.6733 119.858 12.8723 121.83 13.4154 123.719C12.2693 123.284 11.3268 122.436 10.7724 121.343C10.4224 120.369 10.2946 119.329 10.3983 118.299C10.4251 117.311 10.2916 116.297 10.3451 115.309C10.5051 111.491 11.1993 107.753 11.4131 103.962C11.6799 99.4233 11.9736 94.9111 12.3206 90.3991C12.272 89.0222 12.7064 87.6716 13.5488 86.5814C14.1478 86.0469 14.8597 85.6545 15.6313 85.4333C17.656 84.6825 19.7482 84.1282 21.8789 83.7778C22.8667 83.5911 23.9346 83.5911 24.8956 83.3241C25.9444 82.9714 27.0272 82.7297 28.1264 82.6031C39.8201 81.2415 51.5052 79.8799 63.1814 78.5183C50.6332 81.0546 38.0848 83.582 25.5364 86.1006C23.0912 86.586 19.8278 86.5654 17.7859 88.1746C17.012 88.8558 16.3129 89.6176 15.7003 90.447C15.5015 90.6931 13.7562 94.1865 14.4314 94.2091C23.6521 94.5162 32.8729 94.8233 42.0938 95.1302C35.2621 96.2407 28.4525 97.4766 21.6649 98.8381C18.2414 99.5247 14.3633 100.588 12.8495 103.734C12.0256 105.899 11.8289 108.252 12.2818 110.524C12.3903 111.246 12.639 111.928 12.782 112.641C12.9898 114.387 13.0053 116.15 12.8279 117.899V117.899Z" fill="#EB924D"/>
<path d="M465.527 46.5074C464.806 46.4542 464.112 46.4274 463.418 46.3739H466.809C466.382 46.4007 465.954 46.4542 465.527 46.5074Z" fill="#EB924D"/>
<path d="M527.036 103.202C526.868 103.506 526.744 103.832 526.666 104.171C526.604 104.642 526.515 105.11 526.4 105.571C526.259 106.247 525.884 106.852 525.34 107.279C524.797 107.705 524.12 107.926 523.43 107.903C522.706 107.887 521.987 107.779 521.291 107.58C521.55 106.844 521.905 106.146 522.348 105.504C522.625 104.928 522.878 104.341 523.107 103.743C523.617 102.407 524.019 101.032 524.31 99.6319C524.845 96.9418 525.099 94.2035 525.07 91.4609C525.281 88.3152 524.466 85.1859 522.747 82.5434C519.356 78.1651 512.895 78.0315 507.342 78.325C502.536 78.5653 497.73 78.8323 492.951 79.0726C499.92 78.2718 506.906 77.462 513.91 76.643C511.08 72.558 508.241 68.4732 505.393 64.3885C503.041 60.3317 499.732 56.9126 495.754 54.4301C492.157 52.9038 488.289 52.1141 484.381 52.1073C474.823 51.4666 465.291 50.8523 455.733 50.2115C466.055 49.9974 476.342 48.9347 486.49 47.0343C483.18 43.7238 479.735 40.5468 476.211 37.4765C471.192 33.071 465.959 28.9063 460.566 24.9815C455.173 21.03 449.593 17.3458 443.879 13.9015C441.022 12.1928 438.112 10.5108 435.175 8.93578C433.76 8.16127 432.239 7.49403 430.877 6.61303C430.495 6.30795 430.072 6.05636 429.622 5.86524C429.272 5.78149 428.914 5.73673 428.554 5.73176C426.659 5.65176 424.763 5.67852 422.868 5.65176C417.234 5.5986 411.592 5.57195 405.941 5.57177C404.179 5.57177 402.39 5.57176 400.601 5.54501H390.322C385.57 5.51825 380.817 5.51828 376.065 5.51828H375.371C367.842 5.49153 360.313 5.49149 352.784 5.46474C349.019 5.46474 345.255 5.46474 341.49 5.43825C339.712 5.57217 337.924 5.54534 336.151 5.35802C334.534 4.75931 332.885 4.25127 331.212 3.83628C329.561 3.79201 327.909 3.88128 326.272 4.10325C322.161 4.45025 318.049 4.82399 313.964 5.27799C312.084 5.27711 310.265 5.94955 308.838 7.17351C308.47 7.69571 308.05 8.17882 307.583 8.61527C306.936 8.90687 306.228 9.04189 305.519 9.00945C304.809 8.97701 304.117 8.77801 303.498 8.42852C300.825 7.4922 298.026 6.96125 295.195 6.85327C292.632 6.74652 290.122 7.20027 287.56 7.04002C285.977 6.87939 284.407 6.61184 282.861 6.23925C276.575 5.2724 270.235 4.69281 263.878 4.50375C259.232 4.1565 254.56 3.9165 249.915 3.75625C234.857 3.22224 219.772 3.48899 204.714 4.12974C197.185 4.45025 189.656 4.84186 182.127 5.30452C178.58 5.78371 174.997 5.94458 171.421 5.78525C170.433 5.65175 169.525 5.25126 168.537 5.06451C167.512 4.91345 166.474 4.86873 165.44 4.93102C161.249 4.95752 157.057 4.98426 152.892 5.01102C148.006 5.03777 143.094 5.01102 138.181 5.01102C136.526 5.01102 134.924 5.35802 133.322 5.35802C131.827 5.35802 130.359 5.03774 128.89 5.03774C125.777 5.06507 122.697 5.68109 119.813 6.85327C118.749 7.4146 117.571 7.72508 116.368 7.761C114.179 7.65399 112.657 5.57174 110.682 4.63724C105.956 2.36774 101.097 6.66627 96.2644 4.93102C93.8693 4.25978 91.378 3.99792 88.8956 4.15651C85.6651 4.12976 82.4347 4.12974 79.2309 4.12974C68.3111 4.18325 57.3914 4.55701 46.5251 5.65176C41.1053 6.21252 35.7123 6.93327 30.3459 7.89453C27.7561 8.34827 25.1128 9.12252 22.4966 9.41627C21.7437 9.40834 21.0037 9.61181 20.3606 10.0035C17.1569 12.273 8.31956 24.7948 14.6203 29.2265C16.8316 30.4245 19.3562 30.9182 21.8559 30.6415C37.9284 30.4013 54.0097 30.1789 70.0999 29.9743C52.7459 31.3623 35.3829 32.7417 18.0111 34.1125C16.8783 34.1224 15.7601 34.3679 14.7274 34.8333C11.3898 36.6488 12.5381 40.8671 12.0841 43.9108C11.7423 48.0196 11.9217 52.1551 12.6181 56.2188C13.1253 61.3451 13.7394 66.4711 14.5136 71.5703C13.7394 71.4636 12.9651 71.3836 12.1908 71.2768C11.4358 71.2851 10.7076 70.9976 10.1618 70.4758C9.85992 69.9867 9.70249 69.4221 9.70781 68.8473C8.9068 59.3158 9.81454 49.4908 9.28053 39.8793C9.25378 39.6123 9.22732 38.8113 9.14732 37.69C9.12057 37.1293 9.09383 36.4885 9.04056 35.7945C9.04056 35.554 9.04055 35.2605 9.01379 34.9933C8.98704 34.5663 8.96032 34.139 8.93357 33.685V33.5786C8.90682 33.1245 8.88016 32.6706 8.85358 32.2168C8.82683 31.7363 8.80002 31.2823 8.77327 30.8018C8.69328 29.2533 8.58653 27.7315 8.50653 26.5568C8.47978 26.156 8.45306 25.809 8.42631 25.4888C8.42631 25.3553 8.39985 25.195 8.39985 25.0883C8.3731 24.7413 8.34635 24.5008 8.31963 24.3408C8.29285 24.2073 8.29284 24.1273 8.26609 24.1273C8.08048 21.6203 8.40267 19.1017 9.21342 16.7222C10.0242 14.3427 11.3068 12.1513 12.9844 10.2792C14.6621 8.40707 16.7003 6.89281 18.977 5.82701C21.2537 4.76122 23.7221 4.16584 26.2343 4.07652C31.6809 3.88978 37.1274 3.71175 42.5738 3.54249C49.6756 3.30224 56.7506 3.08875 63.8524 2.90174C86.7064 2.20775 109.623 1.65601 132.601 1.24651L150.703 0.926272C174.625 0.525513 198.627 0.258406 222.709 0.124991C228.93 0.098497 235.177 0.0717521 241.398 0.0450006C263.237 -0.0349967 285.139 -0.0083376 307.103 0.124991C308.518 0.124991 309.906 0.151759 311.321 0.151759C323.949 0.232014 336.578 0.338857 349.206 0.472272C358.257 0.57902 367.317 0.703589 376.385 0.846006C383.914 0.952755 391.452 1.07732 398.999 1.21974C402.443 1.27324 405.887 1.32651 409.331 1.40676C409.955 1.38453 410.579 1.40229 411.2 1.45999L411.681 1.54025C412.146 1.69127 412.634 1.76345 413.123 1.75377C413.95 1.70027 414.778 1.56699 415.632 1.45999C416.452 1.31134 417.282 1.23098 418.115 1.21974C418.783 1.21974 419.45 1.27325 420.117 1.3265C420.571 1.35325 421.052 1.40674 421.533 1.43349C423.295 1.59349 425.057 1.70025 426.819 1.727C426.874 1.72277 426.929 1.73197 426.979 1.75377C429.911 2.63082 432.719 3.87783 435.336 5.46474C435.603 5.62499 435.896 5.75853 436.163 5.91878C458.425 18.1342 478.914 33.3326 497.063 51.0925C497.73 51.7333 498.398 52.4008 499.038 53.0416C505.313 59.3158 511.266 65.8568 517.22 72.3713C518.208 73.4661 519.196 74.5605 520.157 75.6821C522.362 78.1458 524.32 80.8194 526.004 83.6648C527.194 85.6631 528.093 87.8206 528.674 90.0724C528.941 91.1404 529.048 92.2618 529.341 93.3298C529.92 96.4874 529.253 99.7462 527.48 102.423C527.328 102.69 527.173 102.942 527.036 103.202Z" fill="#EB924D"/>
<path d="M521.917 110.951C521.036 111.779 520.155 112.58 519.274 113.381C517.779 114.742 516.524 116.398 515.082 117.839C512.946 119.948 510.704 121.977 508.488 123.98C507.874 124.541 507.26 125.101 506.592 125.689C505.951 126.276 505.284 126.863 504.643 127.424C498.956 132.603 493.216 137.73 487.396 142.722C485.5 144.378 483.578 146.006 481.656 147.581C479.627 149.317 477.571 150.999 475.488 152.654C465.243 161.044 454.392 168.665 443.023 175.455L441.822 176.175C441.069 176.666 440.262 177.069 439.419 177.377C439.033 177.464 438.639 177.509 438.244 177.51H437.844C437.787 177.477 437.722 177.459 437.657 177.457C436.999 177.399 436.337 177.408 435.681 177.484C429.701 177.67 423.72 177.839 417.74 177.991C408.715 178.204 399.7 178.418 390.694 178.632C370.884 179.032 351.118 179.353 331.396 179.593C323.44 179.673 315.484 179.753 307.555 179.78C302.482 179.833 297.383 179.86 292.283 179.887C283.953 179.94 275.623 179.94 267.32 179.94C262.514 179.94 257.708 179.94 252.903 179.913C248.07 179.913 243.265 179.887 238.486 179.86C237.338 179.86 236.216 179.86 235.095 179.833C226.578 179.806 218.115 179.726 209.625 179.646C206.741 179.62 203.884 179.593 201.001 179.539C195.154 179.486 189.307 179.406 183.46 179.299C179.989 179.272 176.518 179.219 173.021 179.139C164.104 179.005 155.24 178.819 146.349 178.632C138.34 178.472 130.33 178.258 122.32 178.044C118.369 177.964 114.444 177.857 110.493 177.751C101.923 177.51 93.3615 177.243 84.8091 176.95C81.4183 176.843 78.0007 176.709 74.6102 176.603C68.4427 176.389 62.2932 176.167 56.1615 175.935C53.4115 175.828 50.6615 175.722 47.9117 175.588C40.6762 175.321 33.4498 175.027 26.2325 174.707C22.6787 174.558 19.2425 173.391 16.3319 171.347C13.4213 169.302 11.1587 166.466 9.8127 163.173C8.71748 160.308 8.28842 157.231 8.55797 154.176C8.57247 153.634 8.65311 153.096 8.79818 152.574C9.10304 151.794 9.34417 150.99 9.51919 150.171C9.67945 149.13 9.75947 148.062 9.83947 146.994C9.94622 145.979 9.99972 144.938 10.0532 143.897C10.1065 143.096 10.1867 142.295 10.24 141.494C10.3166 140.454 10.4593 139.419 10.6672 138.397C10.7207 138.05 10.8275 137.703 10.9075 137.383C10.9874 137.115 11.0677 136.849 11.1744 136.582C11.3242 136.113 11.5304 135.665 11.7884 135.247C11.971 134.908 12.1952 134.595 12.4559 134.312C12.7057 134.028 12.9829 133.768 13.2835 133.538C18.57 129.587 28.8755 129.64 36.5648 129.48C42.8388 129.56 49.0865 129.613 55.4673 129.96C53.5985 129.96 51.9432 130.841 50.1542 131.002C47.698 131.242 45.1883 131.295 42.7323 131.429C37.8463 131.722 32.9605 132.016 28.1012 132.31C24.6983 132.359 21.3157 132.843 18.036 133.752C16.7872 134.072 15.6452 134.717 14.7255 135.62C13.8371 136.708 13.2398 138.003 12.99 139.385C12.0747 142.117 11.694 144.999 11.8687 147.875C12.0022 148.676 12.2957 149.45 12.4027 150.278C12.4737 151.167 12.4647 152.06 12.3759 152.948C12.1405 155.977 12.6064 159.019 13.7375 161.838C16.7277 168.513 24.5504 171.423 31.7322 172.758C40.5159 174.36 47.9117 175.882 56.7755 174.68L95.6218 175.081C103.204 175.161 110.76 175.268 118.342 175.294C119.597 175.321 120.772 174.921 122 174.894C123.816 174.894 125.711 175.214 127.527 175.348C131.238 175.642 134.976 175.828 138.713 175.962C147.844 176.256 157.002 176.122 166.133 175.535C168.256 175.173 170.427 175.201 172.54 175.615C175.628 176.341 178.793 176.682 181.965 176.629C189.467 176.976 196.996 177.003 204.498 176.763C206.314 176.709 208.103 176.629 209.918 176.522C212.807 176.526 215.677 176.048 218.408 175.108C219.797 174.574 221.105 173.799 222.547 173.399C226.605 172.277 230.797 174.333 234.775 175.828C239.927 177.724 245.561 176.816 250.954 177.19C258.187 177.928 265.476 177.946 272.713 177.243C272.793 177.243 272.847 177.217 272.927 177.217C276.403 176.824 279.799 175.896 282.992 174.467C284.542 173.492 286.297 172.889 288.118 172.705C290.292 173.081 292.333 174.009 294.045 175.401C299.999 178.952 307.368 178.872 314.256 178.124C320.098 177.103 326.033 176.718 331.957 176.976C334.414 177.217 336.763 176.87 339.246 176.896C342.29 176.896 345.36 176.923 348.43 176.923C351.716 176.94 355.002 176.956 358.287 176.97C365.842 177.002 373.397 177.01 380.952 176.996C388.506 176.974 396.059 176.905 403.612 176.79C407.388 176.728 411.163 176.65 414.937 176.556C416.824 176.508 418.711 176.455 420.597 176.398C421.538 176.369 422.486 176.298 423.426 176.308C424.029 176.315 424.555 176.558 425.151 176.594C428.602 176.668 432.041 176.181 435.335 175.151C438.63 174.208 441.821 172.937 444.863 171.359C451.121 167.929 457.081 163.979 462.677 159.551C465.244 157.635 467.81 155.719 470.376 153.803C471.675 152.833 472.973 151.864 474.271 150.895C474.852 150.572 475.377 150.156 475.824 149.664C476.531 148.529 474.402 147.634 473.597 147.543C470.85 147.233 468.033 147.163 465.263 146.994C476.85 147.314 487.583 140.426 495.406 131.856C494.578 131.696 493.724 131.536 492.896 131.375C495.164 130.572 497.376 129.618 499.517 128.519C502.251 127.112 504.867 125.487 507.34 123.659C509.81 121.835 512.123 119.808 514.255 117.599C515.323 116.504 516.337 115.356 517.325 114.155C517.684 113.742 518.014 113.305 518.313 112.847C518.5 112.553 518.713 112.286 518.873 111.992C518.937 111.898 518.966 111.785 518.954 111.672C518.927 111.565 518.82 111.512 518.713 111.458C517.592 110.924 516.124 111.245 515.136 110.47C515.269 110.577 515.99 110.444 516.177 110.444C516.577 110.47 516.951 110.47 517.352 110.497C518.126 110.577 518.873 110.684 519.648 110.817C520.125 110.888 520.608 110.906 521.089 110.871C521.367 110.871 521.644 110.898 521.917 110.951V110.951Z" fill="#EB924D"/>
<path d="M521.616 110.472C521.429 110.712 521.243 110.952 521.056 111.193C520.148 112.314 519.213 113.382 518.226 114.45C507.867 111.673 496.813 109.057 486.054 107.001C497.935 107.855 509.789 109.012 521.616 110.472Z" fill="#EB924D"/>
<path d="M227.567 31.6334C210.03 34.6432 192.094 34.4714 174.618 31.1261C192.248 30.1713 209.921 31.0477 227.567 31.6334Z" fill="#EB924D"/>
<path d="M370.427 46.0356C361.556 47.1842 352.588 47.3967 343.672 46.6697C319.21 45.534 294.215 44.2944 271.49 35.8621C285.349 35.8106 299.089 38.1128 312.815 39.9046C331.732 42.374 351.422 44.2404 370.427 46.0356Z" fill="#EB924D"/>
<path d="M381.592 45.2608C375.099 45.0553 368.634 44.3479 362.177 43.6411C333.008 40.4484 303.84 37.2558 274.672 34.0633C243.037 30.6007 211.2 27.1333 179.452 29.3313C175.232 29.2778 170.72 29.7853 166.499 29.7318C185.961 31.8896 205.559 32.5606 225.123 31.7392C232.812 31.1546 240.534 31.1225 248.227 31.6432C254.352 32.4379 260.426 33.5798 266.42 35.0631C277.739 37.5368 289.171 39.4686 300.649 41.0418C332.719 45.2604 365.047 47.1999 397.391 46.8456C391.448 46.138 387.574 45.4504 381.592 45.2608Z" fill="url(#paint9_linear_219_156)"/>
<path d="M124.859 73.6555C109.371 75.3703 93.7388 75.3372 78.2578 73.5565C93.7648 72.2285 109.358 72.2616 124.859 73.6555V73.6555Z" fill="#EB924D"/>
<path d="M137.084 73.7853C115.157 73.3468 93.2276 73.2573 71.2945 73.5168C73.9545 73.3462 76.6031 73.0297 79.2284 72.5687C81.956 72.2237 84.6839 71.8785 87.419 71.5999C92.8827 70.989 98.39 70.8682 103.875 71.2391C104.764 71.2643 105.653 71.1879 106.524 71.0116C107.818 70.9321 109.117 70.9767 110.403 71.1449C113.208 71.3183 116.012 71.5242 118.813 71.7627C124.415 72.2396 130.004 72.8466 135.58 73.5834C136.081 73.6495 136.583 73.7168 137.084 73.7853Z" fill="url(#paint10_linear_219_156)"/>
<path d="M179.595 109.484C173.617 111.825 167.64 114.165 161.662 116.506C157.935 118.06 154.11 119.368 150.212 120.421C145.124 121.529 139.951 122.196 134.748 122.415C121.676 123.326 108.353 124.1 95.6313 120.955C123.984 120.677 151.804 115.11 179.595 109.484Z" fill="#EB924D"/>
<path d="M206.246 102.905C191.107 106.862 175.967 110.818 160.828 114.775C153.643 116.784 146.36 118.423 139.007 119.686C129.841 120.921 120.601 121.512 111.352 121.455C103.156 121.56 94.9594 121.571 86.7621 121.489C89.9273 120.992 93.1039 120.58 96.292 120.253C97.5849 120.12 98.9816 120.167 100.253 119.972C106.838 119.301 113.458 119.018 120.077 119.123C127.17 118.462 134.216 117.357 141.171 115.815C152.248 113.998 163.277 111.9 174.277 109.666C184.952 107.499 195.599 105.202 206.246 102.905Z" fill="url(#paint11_linear_219_156)"/>
<path d="M470.21 132.542C457.668 137.06 443.921 136.242 430.616 135.397C427.83 135.142 425.027 135.12 422.236 135.33C420.457 135.545 418.691 135.852 416.943 136.249C409.076 138.054 401.081 139.253 393.031 139.836C384.957 140.415 376.85 139.382 369.179 136.797C390.204 140.176 411.872 133.601 433.162 133.153C438.462 133.041 443.77 133.283 449.065 133.016C456.304 132.65 462.962 132.64 470.21 132.542Z" fill="#EB924D"/>
<path d="M361.057 135.964C372.543 137.996 384.217 138.769 395.871 138.268C403.367 137.671 410.741 136.023 418.216 135.205C427.083 134.235 436.03 134.441 444.949 134.301C460.967 134.051 476.948 132.686 492.776 130.215C488.347 130.109 483.917 130.138 479.486 130.299C475.587 130.441 471.713 130.215 467.801 130.293C459.117 130.464 450.446 131.026 441.791 131.744C433.151 132.461 424.525 133.333 415.892 134.129C407.275 134.924 398.649 135.645 390.004 136.058C381.352 136.472 372.68 136.576 364.027 136.137C363.048 136.087 362.028 136.1 361.057 135.964Z" fill="url(#paint12_linear_219_156)"/>
</g>
<g filter="url(#filter0_d_219_156)">
<path d="M92.4375 37.1307C92.3466 36.3239 91.9716 35.6989 91.3125 35.2557C90.6534 34.8068 89.8239 34.5824 88.8239 34.5824C88.108 34.5824 87.4886 34.696 86.9659 34.9233C86.4432 35.1449 86.0369 35.4517 85.7472 35.8438C85.4631 36.2301 85.321 36.6705 85.321 37.1648C85.321 37.5795 85.4176 37.9375 85.6108 38.2386C85.8097 38.5398 86.0682 38.7926 86.3864 38.9972C86.7102 39.196 87.0568 39.3636 87.4261 39.5C87.7955 39.6307 88.1506 39.7386 88.4915 39.8239L90.196 40.267C90.7528 40.4034 91.3239 40.5881 91.9091 40.821C92.4943 41.054 93.0369 41.3608 93.5369 41.7415C94.0369 42.1222 94.4403 42.5938 94.7472 43.1562C95.0597 43.7188 95.2159 44.392 95.2159 45.1761C95.2159 46.1648 94.9602 47.0426 94.4489 47.8097C93.9432 48.5767 93.2074 49.1818 92.2415 49.625C91.2813 50.0682 90.1193 50.2898 88.7557 50.2898C87.4489 50.2898 86.3182 50.0824 85.3636 49.6676C84.4091 49.2528 83.6619 48.6648 83.1222 47.9034C82.5824 47.1364 82.2841 46.2273 82.2273 45.1761H84.8693C84.9205 45.8068 85.125 46.3324 85.483 46.7528C85.8466 47.1676 86.3097 47.4773 86.8722 47.6818C87.4403 47.8807 88.0625 47.9801 88.7386 47.9801C89.483 47.9801 90.1449 47.8636 90.7244 47.6307C91.3097 47.392 91.7699 47.0625 92.1051 46.642C92.4403 46.2159 92.608 45.7187 92.608 45.1506C92.608 44.6335 92.4602 44.2102 92.1648 43.8807C91.875 43.5511 91.4801 43.2784 90.9801 43.0625C90.4858 42.8466 89.9261 42.6562 89.3011 42.4915L87.2386 41.929C85.8409 41.5483 84.733 40.9886 83.9148 40.25C83.1023 39.5114 82.696 38.5341 82.696 37.3182C82.696 36.3125 82.9688 35.4347 83.5142 34.6847C84.0597 33.9347 84.7983 33.3523 85.7301 32.9375C86.6619 32.517 87.7131 32.3068 88.8835 32.3068C90.0653 32.3068 91.108 32.5142 92.0114 32.929C92.9205 33.3438 93.6364 33.9148 94.1591 34.642C94.6818 35.3636 94.9545 36.1932 94.9773 37.1307H92.4375ZM99.1184 50V36.9091H101.581V38.9886H101.718C101.956 38.2841 102.377 37.7301 102.979 37.3267C103.587 36.9176 104.275 36.7131 105.042 36.7131C105.201 36.7131 105.388 36.7187 105.604 36.7301C105.826 36.7415 105.999 36.7557 106.124 36.7727V39.2102C106.022 39.1818 105.84 39.1506 105.579 39.1165C105.317 39.0767 105.056 39.0568 104.795 39.0568C104.192 39.0568 103.655 39.1847 103.184 39.4403C102.718 39.6903 102.348 40.0398 102.076 40.4886C101.803 40.9318 101.667 41.4375 101.667 42.0057V50H99.1184ZM109.289 50V36.9091H111.838V50H109.289ZM110.576 34.8892C110.133 34.8892 109.752 34.7415 109.434 34.446C109.122 34.1449 108.965 33.7869 108.965 33.3722C108.965 32.9517 109.122 32.5937 109.434 32.2983C109.752 31.9972 110.133 31.8466 110.576 31.8466C111.019 31.8466 111.397 31.9972 111.71 32.2983C112.028 32.5937 112.187 32.9517 112.187 33.3722C112.187 33.7869 112.028 34.1449 111.71 34.446C111.397 34.7415 111.019 34.8892 110.576 34.8892ZM137.83 32.5455V50H135.41L126.537 37.1989H126.376V50H123.742V32.5455H126.179L135.06 45.3636H135.222V32.5455H137.83ZM142.427 50V36.9091H144.975V50H142.427ZM143.714 34.8892C143.271 34.8892 142.89 34.7415 142.572 34.446C142.26 34.1449 142.103 33.7869 142.103 33.3722C142.103 32.9517 142.26 32.5937 142.572 32.2983C142.89 31.9972 143.271 31.8466 143.714 31.8466C144.157 31.8466 144.535 31.9972 144.848 32.2983C145.166 32.5937 145.325 32.9517 145.325 33.3722C145.325 33.7869 145.166 34.1449 144.848 34.446C144.535 34.7415 144.157 34.8892 143.714 34.8892ZM160.563 36.9091L155.815 50H153.088L148.332 36.9091H151.068L154.384 46.983H154.52L157.827 36.9091H160.563ZM167.352 50.2898C166.523 50.2898 165.773 50.1364 165.102 49.8295C164.432 49.517 163.9 49.0653 163.508 48.4744C163.122 47.8835 162.929 47.1591 162.929 46.3011C162.929 45.5625 163.071 44.9545 163.355 44.4773C163.639 44 164.023 43.6222 164.506 43.3438C164.988 43.0653 165.528 42.8551 166.125 42.7131C166.721 42.571 167.329 42.4631 167.949 42.3892C168.733 42.2983 169.369 42.2244 169.858 42.1676C170.346 42.1051 170.702 42.0057 170.923 41.8693C171.145 41.733 171.256 41.5114 171.256 41.2045V41.1449C171.256 40.4006 171.045 39.8239 170.625 39.4148C170.21 39.0057 169.591 38.8011 168.767 38.8011C167.909 38.8011 167.233 38.9915 166.738 39.3722C166.25 39.7472 165.912 40.1648 165.724 40.625L163.329 40.0795C163.613 39.2841 164.028 38.642 164.574 38.1534C165.125 37.6591 165.758 37.3011 166.474 37.0795C167.19 36.8523 167.943 36.7386 168.733 36.7386C169.256 36.7386 169.809 36.8011 170.395 36.9261C170.986 37.0455 171.537 37.267 172.048 37.5909C172.565 37.9148 172.988 38.3778 173.318 38.9801C173.648 39.5767 173.812 40.3523 173.812 41.3068V50H171.324V48.2102H171.221C171.057 48.5398 170.809 48.8636 170.48 49.1818C170.15 49.5 169.727 49.7642 169.21 49.9744C168.693 50.1847 168.074 50.2898 167.352 50.2898ZM167.906 48.2443C168.611 48.2443 169.213 48.1051 169.713 47.8267C170.219 47.5483 170.602 47.1847 170.863 46.7358C171.131 46.2812 171.264 45.7955 171.264 45.2784V43.5909C171.173 43.6818 170.997 43.767 170.736 43.8466C170.48 43.9205 170.187 43.9858 169.858 44.0426C169.528 44.0937 169.207 44.142 168.895 44.1875C168.582 44.2273 168.321 44.2614 168.111 44.2898C167.616 44.3523 167.165 44.4574 166.756 44.6051C166.352 44.7528 166.028 44.9659 165.784 45.2443C165.545 45.517 165.426 45.8807 165.426 46.3352C165.426 46.9659 165.659 47.4432 166.125 47.767C166.591 48.0852 167.184 48.2443 167.906 48.2443ZM187.976 40.1051L185.667 40.5142C185.57 40.2187 185.417 39.9375 185.206 39.6705C185.002 39.4034 184.723 39.1847 184.371 39.0142C184.019 38.8437 183.578 38.7585 183.05 38.7585C182.328 38.7585 181.726 38.9205 181.243 39.2443C180.76 39.5625 180.519 39.9744 180.519 40.4801C180.519 40.9176 180.681 41.2699 181.005 41.5369C181.328 41.804 181.851 42.0227 182.573 42.1932L184.652 42.6705C185.857 42.9489 186.755 43.3778 187.345 43.9574C187.936 44.5369 188.232 45.2898 188.232 46.2159C188.232 47 188.005 47.6989 187.55 48.3125C187.101 48.9205 186.473 49.3977 185.667 49.7443C184.865 50.0909 183.936 50.2642 182.88 50.2642C181.414 50.2642 180.218 49.9517 179.292 49.3267C178.365 48.696 177.797 47.8011 177.587 46.642L180.05 46.267C180.203 46.9091 180.519 47.3949 180.996 47.7244C181.473 48.0483 182.095 48.2102 182.863 48.2102C183.698 48.2102 184.365 48.0369 184.865 47.6903C185.365 47.3381 185.615 46.9091 185.615 46.4034C185.615 45.9943 185.462 45.6506 185.155 45.3722C184.854 45.0937 184.391 44.8835 183.766 44.7415L181.55 44.2557C180.328 43.9773 179.425 43.5341 178.84 42.9261C178.26 42.3182 177.97 41.5483 177.97 40.6165C177.97 39.8437 178.186 39.1676 178.618 38.5881C179.05 38.0085 179.647 37.5568 180.408 37.233C181.169 36.9034 182.042 36.7386 183.024 36.7386C184.439 36.7386 185.553 37.0455 186.365 37.6591C187.178 38.267 187.715 39.0824 187.976 40.1051ZM195.803 50.2898C194.974 50.2898 194.224 50.1364 193.553 49.8295C192.883 49.517 192.352 49.0653 191.96 48.4744C191.573 47.8835 191.38 47.1591 191.38 46.3011C191.38 45.5625 191.522 44.9545 191.806 44.4773C192.09 44 192.474 43.6222 192.957 43.3438C193.44 43.0653 193.979 42.8551 194.576 42.7131C195.173 42.571 195.781 42.4631 196.4 42.3892C197.184 42.2983 197.82 42.2244 198.309 42.1676C198.798 42.1051 199.153 42.0057 199.374 41.8693C199.596 41.733 199.707 41.5114 199.707 41.2045V41.1449C199.707 40.4006 199.497 39.8239 199.076 39.4148C198.661 39.0057 198.042 38.8011 197.218 38.8011C196.36 38.8011 195.684 38.9915 195.19 39.3722C194.701 39.7472 194.363 40.1648 194.176 40.625L191.781 40.0795C192.065 39.2841 192.479 38.642 193.025 38.1534C193.576 37.6591 194.21 37.3011 194.926 37.0795C195.641 36.8523 196.394 36.7386 197.184 36.7386C197.707 36.7386 198.261 36.8011 198.846 36.9261C199.437 37.0455 199.988 37.267 200.499 37.5909C201.016 37.9148 201.44 38.3778 201.769 38.9801C202.099 39.5767 202.264 40.3523 202.264 41.3068V50H199.775V48.2102H199.673C199.508 48.5398 199.261 48.8636 198.931 49.1818C198.602 49.5 198.178 49.7642 197.661 49.9744C197.144 50.1847 196.525 50.2898 195.803 50.2898ZM196.357 48.2443C197.062 48.2443 197.664 48.1051 198.164 47.8267C198.67 47.5483 199.053 47.1847 199.315 46.7358C199.582 46.2812 199.715 45.7955 199.715 45.2784V43.5909C199.624 43.6818 199.448 43.767 199.187 43.8466C198.931 43.9205 198.639 43.9858 198.309 44.0426C197.979 44.0937 197.658 44.142 197.346 44.1875C197.033 44.2273 196.772 44.2614 196.562 44.2898C196.068 44.3523 195.616 44.4574 195.207 44.6051C194.803 44.7528 194.479 44.9659 194.235 45.2443C193.997 45.517 193.877 45.8807 193.877 46.3352C193.877 46.9659 194.11 47.4432 194.576 47.767C195.042 48.0852 195.636 48.2443 196.357 48.2443ZM214.134 50V32.5455H220.355C221.708 32.5455 222.83 32.7784 223.722 33.2443C224.62 33.7102 225.29 34.3551 225.733 35.179C226.176 35.9972 226.398 36.9432 226.398 38.017C226.398 39.0852 226.174 40.0256 225.725 40.8381C225.282 41.6449 224.611 42.2727 223.713 42.7216C222.821 43.1705 221.699 43.3949 220.347 43.3949H215.634V41.1278H220.108C220.961 41.1278 221.654 41.0057 222.188 40.7614C222.728 40.517 223.122 40.1619 223.372 39.696C223.622 39.2301 223.747 38.6705 223.747 38.017C223.747 37.358 223.62 36.7869 223.364 36.304C223.114 35.821 222.719 35.4517 222.179 35.196C221.645 34.9347 220.944 34.804 220.074 34.804H216.767V50H214.134ZM222.75 42.125L227.063 50H224.063L219.836 42.125H222.75ZM235.836 50.2642C234.546 50.2642 233.435 49.9886 232.504 49.4375C231.578 48.8807 230.862 48.0994 230.356 47.0938C229.856 46.0824 229.606 44.8977 229.606 43.5398C229.606 42.1989 229.856 41.017 230.356 39.9943C230.862 38.9716 231.566 38.1733 232.47 37.5994C233.379 37.0256 234.441 36.7386 235.657 36.7386C236.396 36.7386 237.112 36.8608 237.805 37.1051C238.498 37.3494 239.12 37.733 239.671 38.2557C240.222 38.7784 240.657 39.4574 240.975 40.2926C241.293 41.1222 241.453 42.1307 241.453 43.3182V44.2216H231.046V42.3125H238.955C238.955 41.642 238.819 41.0483 238.546 40.5312C238.274 40.0085 237.89 39.5966 237.396 39.2955C236.907 38.9943 236.333 38.8438 235.674 38.8438C234.958 38.8438 234.333 39.0199 233.799 39.3722C233.271 39.7187 232.862 40.1733 232.572 40.7358C232.288 41.2926 232.146 41.8977 232.146 42.5511V44.0426C232.146 44.9176 232.299 45.6619 232.606 46.2756C232.918 46.8892 233.353 47.358 233.91 47.6818C234.467 48 235.117 48.1591 235.862 48.1591C236.345 48.1591 236.785 48.0909 237.183 47.9545C237.58 47.8125 237.924 47.6023 238.214 47.3239C238.504 47.0455 238.725 46.7017 238.879 46.2926L241.291 46.7273C241.097 47.4375 240.751 48.0597 240.251 48.5938C239.757 49.1222 239.134 49.5341 238.384 49.8295C237.64 50.1193 236.791 50.2642 235.836 50.2642ZM250.141 50.2557C249.084 50.2557 248.141 49.9858 247.311 49.446C246.487 48.9006 245.839 48.125 245.368 47.1193C244.902 46.108 244.669 44.8949 244.669 43.4801C244.669 42.0653 244.905 40.8551 245.376 39.8494C245.854 38.8437 246.507 38.0739 247.337 37.5398C248.166 37.0057 249.106 36.7386 250.158 36.7386C250.97 36.7386 251.623 36.875 252.118 37.1477C252.618 37.4148 253.004 37.7273 253.277 38.0852C253.555 38.4432 253.771 38.7585 253.925 39.0312H254.078V32.5455H256.626V50H254.138V47.9631H253.925C253.771 48.2415 253.55 48.5597 253.26 48.9176C252.976 49.2756 252.584 49.5881 252.084 49.8551C251.584 50.1222 250.936 50.2557 250.141 50.2557ZM250.703 48.0824C251.436 48.0824 252.055 47.8892 252.561 47.5028C253.072 47.1108 253.459 46.5682 253.72 45.875C253.987 45.1818 254.121 44.375 254.121 43.4545C254.121 42.5455 253.99 41.75 253.729 41.0682C253.467 40.3864 253.084 39.8551 252.578 39.4744C252.072 39.0937 251.447 38.9034 250.703 38.9034C249.936 38.9034 249.297 39.1023 248.785 39.5C248.274 39.8977 247.888 40.4403 247.626 41.1278C247.371 41.8153 247.243 42.5909 247.243 43.4545C247.243 44.3295 247.373 45.1165 247.635 45.8153C247.896 46.5142 248.283 47.0682 248.794 47.4773C249.311 47.8807 249.947 48.0824 250.703 48.0824ZM266.124 50.2557C265.067 50.2557 264.124 49.9858 263.294 49.446C262.471 48.9006 261.823 48.125 261.351 47.1193C260.885 46.108 260.652 44.8949 260.652 43.4801C260.652 42.0653 260.888 40.8551 261.36 39.8494C261.837 38.8437 262.49 38.0739 263.32 37.5398C264.15 37.0057 265.09 36.7386 266.141 36.7386C266.953 36.7386 267.607 36.875 268.101 37.1477C268.601 37.4148 268.988 37.7273 269.26 38.0852C269.539 38.4432 269.755 38.7585 269.908 39.0312H270.061V32.5455H272.61V50H270.121V47.9631H269.908C269.755 48.2415 269.533 48.5597 269.243 48.9176C268.959 49.2756 268.567 49.5881 268.067 49.8551C267.567 50.1222 266.919 50.2557 266.124 50.2557ZM266.686 48.0824C267.419 48.0824 268.039 47.8892 268.544 47.5028C269.056 47.1108 269.442 46.5682 269.703 45.875C269.971 45.1818 270.104 44.375 270.104 43.4545C270.104 42.5455 269.973 41.75 269.712 41.0682C269.451 40.3864 269.067 39.8551 268.561 39.4744C268.056 39.0937 267.431 38.9034 266.686 38.9034C265.919 38.9034 265.28 39.1023 264.769 39.5C264.257 39.8977 263.871 40.4403 263.61 41.1278C263.354 41.8153 263.226 42.5909 263.226 43.4545C263.226 44.3295 263.357 45.1165 263.618 45.8153C263.88 46.5142 264.266 47.0682 264.777 47.4773C265.294 47.8807 265.931 48.0824 266.686 48.0824ZM278.818 54.9091C278.437 54.9091 278.09 54.8778 277.778 54.8153C277.465 54.7585 277.232 54.696 277.079 54.6278L277.693 52.5398C278.159 52.6648 278.573 52.7188 278.937 52.7017C279.301 52.6847 279.622 52.5483 279.9 52.2926C280.184 52.0369 280.434 51.6193 280.65 51.0398L280.965 50.1705L276.176 36.9091H278.903L282.218 47.0682H282.355L285.67 36.9091H288.406L283.011 51.7472C282.761 52.429 282.443 53.0057 282.056 53.4773C281.67 53.9545 281.21 54.3125 280.676 54.5511C280.141 54.7898 279.522 54.9091 278.818 54.9091ZM299.277 50V32.5455H301.91V47.733H309.819V50H299.277ZM317.389 50.2898C316.559 50.2898 315.809 50.1364 315.139 49.8295C314.468 49.517 313.937 49.0653 313.545 48.4744C313.159 47.8835 312.965 47.1591 312.965 46.3011C312.965 45.5625 313.107 44.9545 313.392 44.4773C313.676 44 314.059 43.6222 314.542 43.3438C315.025 43.0653 315.565 42.8551 316.161 42.7131C316.758 42.571 317.366 42.4631 317.985 42.3892C318.769 42.2983 319.406 42.2244 319.894 42.1676C320.383 42.1051 320.738 42.0057 320.96 41.8693C321.181 41.733 321.292 41.5114 321.292 41.2045V41.1449C321.292 40.4006 321.082 39.8239 320.661 39.4148C320.247 39.0057 319.627 38.8011 318.803 38.8011C317.945 38.8011 317.269 38.9915 316.775 39.3722C316.286 39.7472 315.948 40.1648 315.761 40.625L313.366 40.0795C313.65 39.2841 314.065 38.642 314.61 38.1534C315.161 37.6591 315.795 37.3011 316.511 37.0795C317.227 36.8523 317.98 36.7386 318.769 36.7386C319.292 36.7386 319.846 36.8011 320.431 36.9261C321.022 37.0455 321.573 37.267 322.085 37.5909C322.602 37.9148 323.025 38.3778 323.355 38.9801C323.684 39.5767 323.849 40.3523 323.849 41.3068V50H321.36V48.2102H321.258C321.093 48.5398 320.846 48.8636 320.517 49.1818C320.187 49.5 319.764 49.7642 319.247 49.9744C318.73 50.1847 318.11 50.2898 317.389 50.2898ZM317.943 48.2443C318.647 48.2443 319.249 48.1051 319.749 47.8267C320.255 47.5483 320.639 47.1847 320.9 46.7358C321.167 46.2812 321.301 45.7955 321.301 45.2784V43.5909C321.21 43.6818 321.034 43.767 320.772 43.8466C320.517 43.9205 320.224 43.9858 319.894 44.0426C319.565 44.0937 319.244 44.142 318.931 44.1875C318.619 44.2273 318.357 44.2614 318.147 44.2898C317.653 44.3523 317.201 44.4574 316.792 44.6051C316.389 44.7528 316.065 44.9659 315.82 45.2443C315.582 45.517 315.463 45.8807 315.463 46.3352C315.463 46.9659 315.695 47.4432 316.161 47.767C316.627 48.0852 317.221 48.2443 317.943 48.2443ZM329.345 54.9091C328.964 54.9091 328.618 54.8778 328.305 54.8153C327.993 54.7585 327.76 54.696 327.606 54.6278L328.22 52.5398C328.686 52.6648 329.101 52.7188 329.464 52.7017C329.828 52.6847 330.149 52.5483 330.428 52.2926C330.712 52.0369 330.962 51.6193 331.178 51.0398L331.493 50.1705L326.703 36.9091H329.43L332.746 47.0682H332.882L336.197 36.9091H338.933L333.538 51.7472C333.288 52.429 332.97 53.0057 332.584 53.4773C332.197 53.9545 331.737 54.3125 331.203 54.5511C330.669 54.7898 330.05 54.9091 329.345 54.9091ZM347.357 50.2642C346.13 50.2642 345.059 49.983 344.144 49.4205C343.229 48.858 342.519 48.071 342.013 47.0597C341.508 46.0483 341.255 44.8665 341.255 43.5142C341.255 42.1562 341.508 40.9687 342.013 39.9517C342.519 38.9347 343.229 38.1449 344.144 37.5824C345.059 37.0199 346.13 36.7386 347.357 36.7386C348.584 36.7386 349.655 37.0199 350.57 37.5824C351.485 38.1449 352.195 38.9347 352.701 39.9517C353.206 40.9687 353.459 42.1562 353.459 43.5142C353.459 44.8665 353.206 46.0483 352.701 47.0597C352.195 48.071 351.485 48.858 350.57 49.4205C349.655 49.983 348.584 50.2642 347.357 50.2642ZM347.365 48.125C348.161 48.125 348.82 47.9148 349.343 47.4943C349.865 47.0739 350.252 46.5142 350.502 45.8153C350.758 45.1165 350.885 44.3466 350.885 43.5057C350.885 42.6705 350.758 41.9034 350.502 41.2045C350.252 40.5 349.865 39.9347 349.343 39.5085C348.82 39.0824 348.161 38.8693 347.365 38.8693C346.564 38.8693 345.9 39.0824 345.371 39.5085C344.848 39.9347 344.459 40.5 344.204 41.2045C343.954 41.9034 343.829 42.6705 343.829 43.5057C343.829 44.3466 343.954 45.1165 344.204 45.8153C344.459 46.5142 344.848 47.0739 345.371 47.4943C345.9 47.9148 346.564 48.125 347.365 48.125ZM365.556 44.571V36.9091H368.113V50H365.607V47.733H365.471C365.17 48.4318 364.687 49.0142 364.022 49.4801C363.363 49.9403 362.542 50.1705 361.559 50.1705C360.718 50.1705 359.974 49.9858 359.326 49.6165C358.684 49.2415 358.178 48.6875 357.809 47.9545C357.446 47.2216 357.264 46.3153 357.264 45.2358V36.9091H359.812V44.929C359.812 45.821 360.059 46.5312 360.553 47.0597C361.048 47.5881 361.69 47.8523 362.48 47.8523C362.957 47.8523 363.431 47.733 363.903 47.4943C364.38 47.2557 364.775 46.8949 365.088 46.4119C365.406 45.929 365.562 45.3153 365.556 44.571ZM378.608 36.9091V38.9545H371.457V36.9091H378.608ZM373.375 33.7727H375.923V46.1562C375.923 46.6506 375.997 47.0227 376.145 47.2727C376.293 47.517 376.483 47.6847 376.716 47.7756C376.955 47.8608 377.213 47.9034 377.491 47.9034C377.696 47.9034 377.875 47.8892 378.028 47.8608C378.182 47.8324 378.301 47.8097 378.386 47.7926L378.847 49.8977C378.699 49.9545 378.489 50.0114 378.216 50.0682C377.943 50.1307 377.602 50.1648 377.193 50.1705C376.523 50.1818 375.898 50.0625 375.318 49.8125C374.739 49.5625 374.27 49.1761 373.912 48.6534C373.554 48.1307 373.375 47.4744 373.375 46.6847V33.7727ZM385.702 47.6136L385.574 48.5426C385.489 49.2244 385.344 49.9347 385.14 50.6733C384.941 51.4176 384.733 52.108 384.517 52.7443C384.307 53.3807 384.134 53.8864 383.998 54.2614H382.191C382.265 53.9091 382.367 53.4318 382.498 52.8295C382.628 52.233 382.756 51.5653 382.881 50.8267C383.006 50.0881 383.1 49.3352 383.162 48.5682L383.248 47.6136H385.702ZM84.392 80H81.5966L87.8778 62.5455H90.9205L97.2017 80H94.4062L89.4716 65.7159H89.3352L84.392 80ZM84.8608 73.1648H93.929V75.3807H84.8608V73.1648ZM100.682 80V62.5455H111.625V64.8125H103.316V70.1307H111.054V72.3892H103.316V77.733H111.728V80H100.682ZM130.6 68.2216H127.941C127.839 67.6534 127.649 67.1534 127.37 66.7216C127.092 66.2898 126.751 65.9233 126.348 65.6222C125.944 65.321 125.492 65.0937 124.992 64.9403C124.498 64.7869 123.973 64.7102 123.416 64.7102C122.41 64.7102 121.509 64.9631 120.714 65.4688C119.924 65.9744 119.299 66.7159 118.839 67.6932C118.384 68.6705 118.157 69.8636 118.157 71.2727C118.157 72.6932 118.384 73.892 118.839 74.8693C119.299 75.8466 119.927 76.5852 120.723 77.0852C121.518 77.5852 122.413 77.8352 123.407 77.8352C123.958 77.8352 124.481 77.7614 124.975 77.6136C125.475 77.4602 125.927 77.2358 126.331 76.9403C126.734 76.6449 127.075 76.2841 127.353 75.858C127.637 75.4261 127.833 74.9318 127.941 74.375L130.6 74.3835C130.458 75.2415 130.183 76.0312 129.774 76.7528C129.37 77.4688 128.85 78.0881 128.214 78.6108C127.583 79.1278 126.862 79.5284 126.049 79.8125C125.237 80.0966 124.35 80.2386 123.39 80.2386C121.879 80.2386 120.532 79.8807 119.35 79.1648C118.169 78.4432 117.237 77.4119 116.555 76.071C115.879 74.7301 115.541 73.1307 115.541 71.2727C115.541 69.4091 115.882 67.8097 116.563 66.4744C117.245 65.1335 118.177 64.1051 119.359 63.3892C120.541 62.6676 121.884 62.3068 123.39 62.3068C124.316 62.3068 125.18 62.4403 125.981 62.7074C126.788 62.9687 127.512 63.3551 128.154 63.8665C128.796 64.3722 129.328 64.9915 129.748 65.7244C130.169 66.4517 130.453 67.2841 130.6 68.2216ZM144.232 67.1307C144.141 66.3239 143.766 65.6989 143.107 65.2557C142.447 64.8068 141.618 64.5824 140.618 64.5824C139.902 64.5824 139.283 64.696 138.76 64.9233C138.237 65.1449 137.831 65.4517 137.541 65.8438C137.257 66.2301 137.115 66.6705 137.115 67.1648C137.115 67.5795 137.212 67.9375 137.405 68.2386C137.604 68.5398 137.862 68.7926 138.18 68.9972C138.504 69.196 138.851 69.3636 139.22 69.5C139.59 69.6307 139.945 69.7386 140.286 69.8239L141.99 70.267C142.547 70.4034 143.118 70.5881 143.703 70.821C144.288 71.054 144.831 71.3608 145.331 71.7415C145.831 72.1222 146.234 72.5938 146.541 73.1562C146.854 73.7188 147.01 74.392 147.01 75.1761C147.01 76.1648 146.754 77.0426 146.243 77.8097C145.737 78.5767 145.001 79.1818 144.036 79.625C143.075 80.0682 141.913 80.2898 140.55 80.2898C139.243 80.2898 138.112 80.0824 137.158 79.6676C136.203 79.2528 135.456 78.6648 134.916 77.9034C134.376 77.1364 134.078 76.2273 134.021 75.1761H136.663C136.715 75.8068 136.919 76.3324 137.277 76.7528C137.641 77.1676 138.104 77.4773 138.666 77.6818C139.234 77.8807 139.857 77.9801 140.533 77.9801C141.277 77.9801 141.939 77.8636 142.518 77.6307C143.104 77.392 143.564 77.0625 143.899 76.642C144.234 76.2159 144.402 75.7187 144.402 75.1506C144.402 74.6335 144.254 74.2102 143.959 73.8807C143.669 73.5511 143.274 73.2784 142.774 73.0625C142.28 72.8466 141.72 72.6562 141.095 72.4915L139.033 71.929C137.635 71.5483 136.527 70.9886 135.709 70.25C134.896 69.5114 134.49 68.5341 134.49 67.3182C134.49 66.3125 134.763 65.4347 135.308 64.6847C135.854 63.9347 136.592 63.3523 137.524 62.9375C138.456 62.517 139.507 62.3068 140.678 62.3068C141.859 62.3068 142.902 62.5142 143.805 62.929C144.715 63.3438 145.43 63.9148 145.953 64.642C146.476 65.3636 146.749 66.1932 146.771 67.1307H144.232ZM158.429 80V62.5455H161.062V77.733H168.971V80H158.429ZM176.541 80.2898C175.711 80.2898 174.961 80.1364 174.291 79.8295C173.62 79.517 173.089 79.0653 172.697 78.4744C172.31 77.8835 172.117 77.1591 172.117 76.3011C172.117 75.5625 172.259 74.9545 172.543 74.4773C172.827 74 173.211 73.6222 173.694 73.3438C174.177 73.0653 174.717 72.8551 175.313 72.7131C175.91 72.571 176.518 72.4631 177.137 72.3892C177.921 72.2983 178.558 72.2244 179.046 72.1676C179.535 72.1051 179.89 72.0057 180.112 71.8693C180.333 71.733 180.444 71.5114 180.444 71.2045V71.1449C180.444 70.4006 180.234 69.8239 179.813 69.4148C179.398 69.0057 178.779 68.8011 177.955 68.8011C177.097 68.8011 176.421 68.9915 175.927 69.3722C175.438 69.7472 175.1 70.1648 174.913 70.625L172.518 70.0795C172.802 69.2841 173.217 68.642 173.762 68.1534C174.313 67.6591 174.947 67.3011 175.663 67.0795C176.379 66.8523 177.131 66.7386 177.921 66.7386C178.444 66.7386 178.998 66.8011 179.583 66.9261C180.174 67.0455 180.725 67.267 181.237 67.5909C181.754 67.9148 182.177 68.3778 182.506 68.9801C182.836 69.5767 183.001 70.3523 183.001 71.3068V80H180.512V78.2102H180.41C180.245 78.5398 179.998 78.8636 179.668 79.1818C179.339 79.5 178.916 79.7642 178.398 79.9744C177.881 80.1847 177.262 80.2898 176.541 80.2898ZM177.095 78.2443C177.799 78.2443 178.401 78.1051 178.901 77.8267C179.407 77.5483 179.791 77.1847 180.052 76.7358C180.319 76.2812 180.452 75.7955 180.452 75.2784V73.5909C180.362 73.6818 180.185 73.767 179.924 73.8466C179.668 73.9205 179.376 73.9858 179.046 74.0426C178.717 74.0937 178.396 74.142 178.083 74.1875C177.771 74.2273 177.509 74.2614 177.299 74.2898C176.805 74.3523 176.353 74.4574 175.944 74.6051C175.541 74.7528 175.217 74.9659 174.972 75.2443C174.734 75.517 174.614 75.8807 174.614 76.3352C174.614 76.9659 174.847 77.4432 175.313 77.767C175.779 78.0852 176.373 78.2443 177.095 78.2443ZM188.497 84.9091C188.116 84.9091 187.77 84.8778 187.457 84.8153C187.145 84.7585 186.912 84.696 186.758 84.6278L187.372 82.5398C187.838 82.6648 188.253 82.7188 188.616 82.7017C188.98 82.6847 189.301 82.5483 189.579 82.2926C189.863 82.0369 190.113 81.6193 190.329 81.0398L190.645 80.1705L185.855 66.9091H188.582L191.898 77.0682H192.034L195.349 66.9091H198.085L192.69 81.7472C192.44 82.429 192.122 83.0057 191.736 83.4773C191.349 83.9545 190.889 84.3125 190.355 84.5511C189.821 84.7898 189.202 84.9091 188.497 84.9091ZM206.509 80.2642C205.282 80.2642 204.211 79.983 203.296 79.4205C202.381 78.858 201.671 78.071 201.165 77.0597C200.659 76.0483 200.407 74.8665 200.407 73.5142C200.407 72.1562 200.659 70.9687 201.165 69.9517C201.671 68.9347 202.381 68.1449 203.296 67.5824C204.211 67.0199 205.282 66.7386 206.509 66.7386C207.736 66.7386 208.807 67.0199 209.722 67.5824C210.637 68.1449 211.347 68.9347 211.853 69.9517C212.358 70.9687 212.611 72.1562 212.611 73.5142C212.611 74.8665 212.358 76.0483 211.853 77.0597C211.347 78.071 210.637 78.858 209.722 79.4205C208.807 79.983 207.736 80.2642 206.509 80.2642ZM206.517 78.125C207.313 78.125 207.972 77.9148 208.495 77.4943C209.017 77.0739 209.404 76.5142 209.654 75.8153C209.909 75.1165 210.037 74.3466 210.037 73.5057C210.037 72.6705 209.909 71.9034 209.654 71.2045C209.404 70.5 209.017 69.9347 208.495 69.5085C207.972 69.0824 207.313 68.8693 206.517 68.8693C205.716 68.8693 205.051 69.0824 204.523 69.5085C204 69.9347 203.611 70.5 203.355 71.2045C203.105 71.9034 202.98 72.6705 202.98 73.5057C202.98 74.3466 203.105 75.1165 203.355 75.8153C203.611 76.5142 204 77.0739 204.523 77.4943C205.051 77.9148 205.716 78.125 206.517 78.125ZM224.708 74.571V66.9091H227.265V80H224.759V77.733H224.623C224.322 78.4318 223.839 79.0142 223.174 79.4801C222.515 79.9403 221.694 80.1705 220.711 80.1705C219.87 80.1705 219.126 79.9858 218.478 79.6165C217.836 79.2415 217.33 78.6875 216.961 77.9545C216.597 77.2216 216.416 76.3153 216.416 75.2358V66.9091H218.964V74.929C218.964 75.821 219.211 76.5312 219.705 77.0597C220.2 77.5881 220.842 77.8523 221.631 77.8523C222.109 77.8523 222.583 77.733 223.055 77.4943C223.532 77.2557 223.927 76.8949 224.239 76.4119C224.558 75.929 224.714 75.3153 224.708 74.571ZM237.76 66.9091V68.9545H230.609V66.9091H237.76ZM232.527 63.7727H235.075V76.1562C235.075 76.6506 235.149 77.0227 235.297 77.2727C235.444 77.517 235.635 77.6847 235.868 77.7756C236.106 77.8608 236.365 77.9034 236.643 77.9034C236.848 77.9034 237.027 77.8892 237.18 77.8608C237.334 77.8324 237.453 77.8097 237.538 77.7926L237.998 79.8977C237.851 79.9545 237.64 80.0114 237.368 80.0682C237.095 80.1307 236.754 80.1648 236.345 80.1705C235.675 80.1818 235.05 80.0625 234.47 79.8125C233.89 79.5625 233.422 79.1761 233.064 78.6534C232.706 78.1307 232.527 77.4744 232.527 76.6847V63.7727ZM244.854 77.6136L244.726 78.5426C244.641 79.2244 244.496 79.9347 244.292 80.6733C244.093 81.4176 243.885 82.108 243.669 82.7443C243.459 83.3807 243.286 83.8864 243.149 84.2614H241.343C241.417 83.9091 241.519 83.4318 241.649 82.8295C241.78 82.233 241.908 81.5653 242.033 80.8267C242.158 80.0881 242.252 79.3352 242.314 78.5682L242.399 77.6136H244.854ZM82.9176 92.5455H86.1136L91.6705 106.114H91.875L97.4318 92.5455H100.628V110H98.1222V97.3693H97.9602L92.8125 109.974H90.733L85.5852 97.3608H85.4233V110H82.9176V92.5455ZM109.022 110.29C108.192 110.29 107.442 110.136 106.772 109.83C106.101 109.517 105.57 109.065 105.178 108.474C104.792 107.884 104.598 107.159 104.598 106.301C104.598 105.562 104.741 104.955 105.025 104.477C105.309 104 105.692 103.622 106.175 103.344C106.658 103.065 107.198 102.855 107.795 102.713C108.391 102.571 108.999 102.463 109.618 102.389C110.402 102.298 111.039 102.224 111.527 102.168C112.016 102.105 112.371 102.006 112.593 101.869C112.814 101.733 112.925 101.511 112.925 101.205V101.145C112.925 100.401 112.715 99.8239 112.295 99.4148C111.88 99.0057 111.26 98.8011 110.437 98.8011C109.579 98.8011 108.902 98.9915 108.408 99.3722C107.92 99.7472 107.581 100.165 107.394 100.625L104.999 100.08C105.283 99.2841 105.698 98.642 106.243 98.1534C106.795 97.6591 107.428 97.3011 108.144 97.0795C108.86 96.8523 109.613 96.7386 110.402 96.7386C110.925 96.7386 111.479 96.8011 112.064 96.9261C112.655 97.0455 113.206 97.267 113.718 97.5909C114.235 97.9148 114.658 98.3778 114.988 98.9801C115.317 99.5767 115.482 100.352 115.482 101.307V110H112.993V108.21H112.891C112.726 108.54 112.479 108.864 112.15 109.182C111.82 109.5 111.397 109.764 110.88 109.974C110.363 110.185 109.743 110.29 109.022 110.29ZM109.576 108.244C110.28 108.244 110.883 108.105 111.383 107.827C111.888 107.548 112.272 107.185 112.533 106.736C112.8 106.281 112.934 105.795 112.934 105.278V103.591C112.843 103.682 112.667 103.767 112.405 103.847C112.15 103.92 111.857 103.986 111.527 104.043C111.198 104.094 110.877 104.142 110.564 104.188C110.252 104.227 109.991 104.261 109.78 104.29C109.286 104.352 108.834 104.457 108.425 104.605C108.022 104.753 107.698 104.966 107.454 105.244C107.215 105.517 107.096 105.881 107.096 106.335C107.096 106.966 107.329 107.443 107.795 107.767C108.26 108.085 108.854 108.244 109.576 108.244ZM119.836 110V96.9091H122.299V98.9886H122.436C122.674 98.2841 123.095 97.7301 123.697 97.3267C124.305 96.9176 124.992 96.7131 125.759 96.7131C125.919 96.7131 126.106 96.7187 126.322 96.7301C126.544 96.7415 126.717 96.7557 126.842 96.7727V99.2102C126.74 99.1818 126.558 99.1506 126.296 99.1165C126.035 99.0767 125.774 99.0568 125.512 99.0568C124.91 99.0568 124.373 99.1847 123.902 99.4403C123.436 99.6903 123.066 100.04 122.794 100.489C122.521 100.932 122.384 101.437 122.384 102.006V110H119.836ZM133.7 110.29C132.87 110.29 132.12 110.136 131.45 109.83C130.779 109.517 130.248 109.065 129.856 108.474C129.469 107.884 129.276 107.159 129.276 106.301C129.276 105.562 129.418 104.955 129.702 104.477C129.987 104 130.37 103.622 130.853 103.344C131.336 103.065 131.876 102.855 132.472 102.713C133.069 102.571 133.677 102.463 134.296 102.389C135.08 102.298 135.717 102.224 136.205 102.168C136.694 102.105 137.049 102.006 137.271 101.869C137.492 101.733 137.603 101.511 137.603 101.205V101.145C137.603 100.401 137.393 99.8239 136.972 99.4148C136.558 99.0057 135.938 98.8011 135.114 98.8011C134.256 98.8011 133.58 98.9915 133.086 99.3722C132.597 99.7472 132.259 100.165 132.072 100.625L129.677 100.08C129.961 99.2841 130.376 98.642 130.921 98.1534C131.472 97.6591 132.106 97.3011 132.822 97.0795C133.538 96.8523 134.291 96.7386 135.08 96.7386C135.603 96.7386 136.157 96.8011 136.742 96.9261C137.333 97.0455 137.884 97.267 138.396 97.5909C138.913 97.9148 139.336 98.3778 139.666 98.9801C139.995 99.5767 140.16 100.352 140.16 101.307V110H137.671V108.21H137.569C137.404 108.54 137.157 108.864 136.827 109.182C136.498 109.5 136.075 109.764 135.558 109.974C135.041 110.185 134.421 110.29 133.7 110.29ZM134.254 108.244C134.958 108.244 135.56 108.105 136.06 107.827C136.566 107.548 136.95 107.185 137.211 106.736C137.478 106.281 137.612 105.795 137.612 105.278V103.591C137.521 103.682 137.344 103.767 137.083 103.847C136.827 103.92 136.535 103.986 136.205 104.043C135.876 104.094 135.555 104.142 135.242 104.188C134.93 104.227 134.668 104.261 134.458 104.29C133.964 104.352 133.512 104.457 133.103 104.605C132.7 104.753 132.376 104.966 132.131 105.244C131.893 105.517 131.773 105.881 131.773 106.335C131.773 106.966 132.006 107.443 132.472 107.767C132.938 108.085 133.532 108.244 134.254 108.244ZM150.625 96.9091V98.9545H143.474V96.9091H150.625ZM145.392 93.7727H147.94V106.156C147.94 106.651 148.014 107.023 148.162 107.273C148.309 107.517 148.5 107.685 148.733 107.776C148.971 107.861 149.23 107.903 149.508 107.903C149.713 107.903 149.892 107.889 150.045 107.861C150.199 107.832 150.318 107.81 150.403 107.793L150.863 109.898C150.716 109.955 150.505 110.011 150.233 110.068C149.96 110.131 149.619 110.165 149.21 110.17C148.54 110.182 147.915 110.062 147.335 109.812C146.755 109.562 146.287 109.176 145.929 108.653C145.571 108.131 145.392 107.474 145.392 106.685V93.7727ZM157.233 102.227V110H154.685V92.5455H157.199V99.0398H157.361C157.668 98.3352 158.137 97.7756 158.767 97.3608C159.398 96.946 160.222 96.7386 161.239 96.7386C162.137 96.7386 162.921 96.9233 163.591 97.2926C164.267 97.6619 164.79 98.2131 165.159 98.946C165.534 99.6733 165.722 100.582 165.722 101.673V110H163.174V101.98C163.174 101.02 162.926 100.276 162.432 99.7472C161.938 99.2131 161.25 98.946 160.37 98.946C159.767 98.946 159.228 99.0739 158.75 99.3295C158.279 99.5852 157.907 99.9602 157.634 100.455C157.367 100.943 157.233 101.534 157.233 102.227ZM173.892 110.29C173.063 110.29 172.313 110.136 171.642 109.83C170.972 109.517 170.44 109.065 170.048 108.474C169.662 107.884 169.469 107.159 169.469 106.301C169.469 105.562 169.611 104.955 169.895 104.477C170.179 104 170.563 103.622 171.046 103.344C171.528 103.065 172.068 102.855 172.665 102.713C173.261 102.571 173.869 102.463 174.489 102.389C175.273 102.298 175.909 102.224 176.398 102.168C176.886 102.105 177.242 102.006 177.463 101.869C177.685 101.733 177.796 101.511 177.796 101.205V101.145C177.796 100.401 177.585 99.8239 177.165 99.4148C176.75 99.0057 176.131 98.8011 175.307 98.8011C174.449 98.8011 173.773 98.9915 173.278 99.3722C172.79 99.7472 172.452 100.165 172.264 100.625L169.869 100.08C170.153 99.2841 170.568 98.642 171.114 98.1534C171.665 97.6591 172.298 97.3011 173.014 97.0795C173.73 96.8523 174.483 96.7386 175.273 96.7386C175.796 96.7386 176.349 96.8011 176.935 96.9261C177.526 97.0455 178.077 97.267 178.588 97.5909C179.105 97.9148 179.528 98.3778 179.858 98.9801C180.188 99.5767 180.352 100.352 180.352 101.307V110H177.864V108.21H177.761C177.597 108.54 177.349 108.864 177.02 109.182C176.69 109.5 176.267 109.764 175.75 109.974C175.233 110.185 174.614 110.29 173.892 110.29ZM174.446 108.244C175.151 108.244 175.753 108.105 176.253 107.827C176.759 107.548 177.142 107.185 177.403 106.736C177.671 106.281 177.804 105.795 177.804 105.278V103.591C177.713 103.682 177.537 103.767 177.276 103.847C177.02 103.92 176.727 103.986 176.398 104.043C176.068 104.094 175.747 104.142 175.435 104.188C175.122 104.227 174.861 104.261 174.651 104.29C174.156 104.352 173.705 104.457 173.296 104.605C172.892 104.753 172.568 104.966 172.324 105.244C172.085 105.517 171.966 105.881 171.966 106.335C171.966 106.966 172.199 107.443 172.665 107.767C173.131 108.085 173.724 108.244 174.446 108.244ZM187.255 102.227V110H184.707V92.5455H187.221V99.0398H187.383C187.689 98.3352 188.158 97.7756 188.789 97.3608C189.42 96.946 190.243 96.7386 191.26 96.7386C192.158 96.7386 192.942 96.9233 193.613 97.2926C194.289 97.6619 194.812 98.2131 195.181 98.946C195.556 99.6733 195.743 100.582 195.743 101.673V110H193.195V101.98C193.195 101.02 192.948 100.276 192.454 99.7472C191.959 99.2131 191.272 98.946 190.391 98.946C189.789 98.946 189.249 99.0739 188.772 99.3295C188.3 99.5852 187.928 99.9602 187.655 100.455C187.388 100.943 187.255 101.534 187.255 102.227ZM203.914 110.29C203.084 110.29 202.334 110.136 201.664 109.83C200.993 109.517 200.462 109.065 200.07 108.474C199.684 107.884 199.49 107.159 199.49 106.301C199.49 105.562 199.632 104.955 199.917 104.477C200.201 104 200.584 103.622 201.067 103.344C201.55 103.065 202.09 102.855 202.686 102.713C203.283 102.571 203.891 102.463 204.51 102.389C205.294 102.298 205.931 102.224 206.419 102.168C206.908 102.105 207.263 102.006 207.485 101.869C207.706 101.733 207.817 101.511 207.817 101.205V101.145C207.817 100.401 207.607 99.8239 207.186 99.4148C206.772 99.0057 206.152 98.8011 205.328 98.8011C204.47 98.8011 203.794 98.9915 203.3 99.3722C202.811 99.7472 202.473 100.165 202.286 100.625L199.891 100.08C200.175 99.2841 200.59 98.642 201.135 98.1534C201.686 97.6591 202.32 97.3011 203.036 97.0795C203.752 96.8523 204.505 96.7386 205.294 96.7386C205.817 96.7386 206.371 96.8011 206.956 96.9261C207.547 97.0455 208.098 97.267 208.61 97.5909C209.127 97.9148 209.55 98.3778 209.88 98.9801C210.209 99.5767 210.374 100.352 210.374 101.307V110H207.885V108.21H207.783C207.618 108.54 207.371 108.864 207.042 109.182C206.712 109.5 206.289 109.764 205.772 109.974C205.255 110.185 204.635 110.29 203.914 110.29ZM204.468 108.244C205.172 108.244 205.774 108.105 206.274 107.827C206.78 107.548 207.164 107.185 207.425 106.736C207.692 106.281 207.826 105.795 207.826 105.278V103.591C207.735 103.682 207.559 103.767 207.297 103.847C207.042 103.92 206.749 103.986 206.419 104.043C206.09 104.094 205.769 104.142 205.456 104.188C205.144 104.227 204.882 104.261 204.672 104.29C204.178 104.352 203.726 104.457 203.317 104.605C202.914 104.753 202.59 104.966 202.345 105.244C202.107 105.517 201.988 105.881 201.988 106.335C201.988 106.966 202.22 107.443 202.686 107.767C203.152 108.085 203.746 108.244 204.468 108.244ZM217.276 92.5455V110H214.728V92.5455H217.276ZM224.213 92.5455V110H221.665V92.5455H224.213ZM228.601 110V96.9091H231.149V110H228.601ZM229.888 94.8892C229.445 94.8892 229.064 94.7415 228.746 94.446C228.434 94.1449 228.277 93.7869 228.277 93.3722C228.277 92.9517 228.434 92.5937 228.746 92.2983C229.064 91.9972 229.445 91.8466 229.888 91.8466C230.331 91.8466 230.709 91.9972 231.022 92.2983C231.34 92.5937 231.499 92.9517 231.499 93.3722C231.499 93.7869 231.34 94.1449 231.022 94.446C230.709 94.7415 230.331 94.8892 229.888 94.8892ZM238.853 107.614L238.725 108.543C238.64 109.224 238.495 109.935 238.291 110.673C238.092 111.418 237.884 112.108 237.668 112.744C237.458 113.381 237.285 113.886 237.149 114.261H235.342C235.416 113.909 235.518 113.432 235.649 112.83C235.779 112.233 235.907 111.565 236.032 110.827C236.157 110.088 236.251 109.335 236.313 108.568L236.399 107.614H238.853ZM250.647 110V92.5455H257.039C258.277 92.5455 259.303 92.75 260.115 93.1591C260.928 93.5625 261.536 94.1108 261.939 94.804C262.343 95.4915 262.544 96.267 262.544 97.1307C262.544 97.858 262.411 98.4716 262.144 98.9716C261.877 99.4659 261.519 99.8636 261.07 100.165C260.627 100.46 260.138 100.676 259.604 100.812V100.983C260.184 101.011 260.749 101.199 261.3 101.545C261.857 101.886 262.317 102.372 262.681 103.003C263.044 103.634 263.226 104.401 263.226 105.304C263.226 106.196 263.016 106.997 262.596 107.707C262.181 108.412 261.539 108.972 260.669 109.386C259.8 109.795 258.689 110 257.337 110H250.647ZM253.28 107.741H257.081C258.343 107.741 259.246 107.497 259.792 107.009C260.337 106.52 260.61 105.909 260.61 105.176C260.61 104.625 260.471 104.119 260.192 103.659C259.914 103.199 259.516 102.832 258.999 102.56C258.488 102.287 257.88 102.151 257.175 102.151H253.28V107.741ZM253.28 100.097H256.809C257.4 100.097 257.931 99.983 258.402 99.7557C258.88 99.5284 259.257 99.2102 259.536 98.8011C259.82 98.3864 259.962 97.8977 259.962 97.3352C259.962 96.6136 259.709 96.0085 259.203 95.5199C258.698 95.0312 257.922 94.7869 256.877 94.7869H253.28V100.097ZM272.747 110.264C271.458 110.264 270.347 109.989 269.415 109.438C268.489 108.881 267.773 108.099 267.267 107.094C266.767 106.082 266.517 104.898 266.517 103.54C266.517 102.199 266.767 101.017 267.267 99.9943C267.773 98.9716 268.477 98.1733 269.381 97.5994C270.29 97.0256 271.352 96.7386 272.568 96.7386C273.307 96.7386 274.023 96.8608 274.716 97.1051C275.409 97.3494 276.031 97.733 276.583 98.2557C277.134 98.7784 277.568 99.4574 277.887 100.293C278.205 101.122 278.364 102.131 278.364 103.318V104.222H267.958V102.312H275.867C275.867 101.642 275.73 101.048 275.458 100.531C275.185 100.009 274.801 99.5966 274.307 99.2955C273.818 98.9943 273.244 98.8438 272.585 98.8438C271.869 98.8438 271.244 99.0199 270.71 99.3722C270.182 99.7187 269.773 100.173 269.483 100.736C269.199 101.293 269.057 101.898 269.057 102.551V104.043C269.057 104.918 269.21 105.662 269.517 106.276C269.83 106.889 270.264 107.358 270.821 107.682C271.378 108 272.029 108.159 272.773 108.159C273.256 108.159 273.696 108.091 274.094 107.955C274.492 107.812 274.835 107.602 275.125 107.324C275.415 107.045 275.637 106.702 275.79 106.293L278.202 106.727C278.009 107.437 277.662 108.06 277.162 108.594C276.668 109.122 276.046 109.534 275.296 109.83C274.551 110.119 273.702 110.264 272.747 110.264ZM284.699 102.227V110H282.151V96.9091H284.597V99.0398H284.759C285.06 98.3466 285.532 97.7898 286.174 97.3693C286.822 96.9489 287.637 96.7386 288.62 96.7386C289.512 96.7386 290.293 96.9261 290.964 97.3011C291.634 97.6705 292.154 98.2216 292.523 98.9545C292.893 99.6875 293.077 100.594 293.077 101.673V110H290.529V101.98C290.529 101.031 290.282 100.29 289.788 99.7557C289.293 99.2159 288.614 98.946 287.751 98.946C287.16 98.946 286.634 99.0739 286.174 99.3295C285.719 99.5852 285.359 99.9602 285.092 100.455C284.83 100.943 284.699 101.534 284.699 102.227ZM302.944 115.182C301.904 115.182 301.009 115.045 300.259 114.773C299.515 114.5 298.907 114.139 298.435 113.69C297.963 113.241 297.611 112.75 297.378 112.216L299.569 111.312C299.722 111.562 299.927 111.827 300.182 112.105C300.444 112.389 300.796 112.631 301.239 112.83C301.688 113.028 302.265 113.128 302.969 113.128C303.935 113.128 304.733 112.892 305.364 112.42C305.995 111.955 306.31 111.21 306.31 110.188V107.614H306.148C305.995 107.892 305.773 108.202 305.483 108.543C305.199 108.884 304.807 109.179 304.307 109.429C303.807 109.679 303.157 109.804 302.356 109.804C301.321 109.804 300.39 109.562 299.56 109.08C298.736 108.591 298.083 107.872 297.6 106.923C297.123 105.969 296.884 104.795 296.884 103.403C296.884 102.011 297.12 100.818 297.591 99.8239C298.069 98.8295 298.722 98.0682 299.552 97.5398C300.381 97.0057 301.321 96.7386 302.373 96.7386C303.185 96.7386 303.841 96.875 304.341 97.1477C304.841 97.4148 305.231 97.7273 305.509 98.0852C305.793 98.4432 306.012 98.7585 306.165 99.0312H306.353V96.9091H308.85V110.29C308.85 111.415 308.588 112.338 308.066 113.06C307.543 113.781 306.836 114.315 305.944 114.662C305.057 115.009 304.057 115.182 302.944 115.182ZM302.918 107.69C303.651 107.69 304.27 107.52 304.776 107.179C305.287 106.832 305.674 106.338 305.935 105.696C306.202 105.048 306.336 104.273 306.336 103.369C306.336 102.489 306.205 101.713 305.944 101.043C305.682 100.372 305.299 99.8494 304.793 99.4744C304.287 99.0937 303.662 98.9034 302.918 98.9034C302.151 98.9034 301.512 99.1023 301 99.5C300.489 99.892 300.103 100.426 299.841 101.102C299.586 101.778 299.458 102.534 299.458 103.369C299.458 104.227 299.588 104.98 299.85 105.628C300.111 106.276 300.498 106.781 301.009 107.145C301.526 107.509 302.162 107.69 302.918 107.69ZM317.037 110.29C316.208 110.29 315.458 110.136 314.787 109.83C314.117 109.517 313.585 109.065 313.193 108.474C312.807 107.884 312.614 107.159 312.614 106.301C312.614 105.562 312.756 104.955 313.04 104.477C313.324 104 313.708 103.622 314.191 103.344C314.673 103.065 315.213 102.855 315.81 102.713C316.406 102.571 317.014 102.463 317.634 102.389C318.418 102.298 319.054 102.224 319.543 102.168C320.031 102.105 320.387 102.006 320.608 101.869C320.83 101.733 320.941 101.511 320.941 101.205V101.145C320.941 100.401 320.73 99.8239 320.31 99.4148C319.895 99.0057 319.276 98.8011 318.452 98.8011C317.594 98.8011 316.918 98.9915 316.423 99.3722C315.935 99.7472 315.597 100.165 315.409 100.625L313.014 100.08C313.298 99.2841 313.713 98.642 314.259 98.1534C314.81 97.6591 315.443 97.3011 316.159 97.0795C316.875 96.8523 317.628 96.7386 318.418 96.7386C318.941 96.7386 319.494 96.8011 320.08 96.9261C320.671 97.0455 321.222 97.267 321.733 97.5909C322.25 97.9148 322.673 98.3778 323.003 98.9801C323.333 99.5767 323.497 100.352 323.497 101.307V110H321.009V108.21H320.906C320.742 108.54 320.494 108.864 320.165 109.182C319.835 109.5 319.412 109.764 318.895 109.974C318.378 110.185 317.759 110.29 317.037 110.29ZM317.591 108.244C318.296 108.244 318.898 108.105 319.398 107.827C319.904 107.548 320.287 107.185 320.548 106.736C320.816 106.281 320.949 105.795 320.949 105.278V103.591C320.858 103.682 320.682 103.767 320.421 103.847C320.165 103.92 319.872 103.986 319.543 104.043C319.213 104.094 318.892 104.142 318.58 104.188C318.267 104.227 318.006 104.261 317.796 104.29C317.301 104.352 316.85 104.457 316.441 104.605C316.037 104.753 315.713 104.966 315.469 105.244C315.23 105.517 315.111 105.881 315.111 106.335C315.111 106.966 315.344 107.443 315.81 107.767C316.276 108.085 316.869 108.244 317.591 108.244ZM330.4 92.5455V110H327.852V92.5455H330.4ZM343.081 104.571V96.9091H345.637V110H343.132V107.733H342.995C342.694 108.432 342.211 109.014 341.547 109.48C340.887 109.94 340.066 110.17 339.084 110.17C338.243 110.17 337.498 109.986 336.851 109.616C336.209 109.241 335.703 108.688 335.334 107.955C334.97 107.222 334.788 106.315 334.788 105.236V96.9091H337.336V104.929C337.336 105.821 337.584 106.531 338.078 107.06C338.572 107.588 339.214 107.852 340.004 107.852C340.481 107.852 340.956 107.733 341.427 107.494C341.905 107.256 342.299 106.895 342.612 106.412C342.93 105.929 343.086 105.315 343.081 104.571ZM350.022 110V96.9091H352.485V98.9886H352.621C352.86 98.2841 353.28 97.7301 353.882 97.3267C354.49 96.9176 355.178 96.7131 355.945 96.7131C356.104 96.7131 356.291 96.7187 356.507 96.7301C356.729 96.7415 356.902 96.7557 357.027 96.7727V99.2102C356.925 99.1818 356.743 99.1506 356.482 99.1165C356.22 99.0767 355.959 99.0568 355.698 99.0568C355.095 99.0568 354.558 99.1847 354.087 99.4403C353.621 99.6903 353.252 100.04 352.979 100.489C352.706 100.932 352.57 101.437 352.57 102.006V110H350.022ZM368.485 104.571V96.9091H371.042V110H368.536V107.733H368.4C368.099 108.432 367.616 109.014 366.951 109.48C366.292 109.94 365.471 110.17 364.488 110.17C363.647 110.17 362.903 109.986 362.255 109.616C361.613 109.241 361.107 108.688 360.738 107.955C360.374 107.222 360.192 106.315 360.192 105.236V96.9091H362.741V104.929C362.741 105.821 362.988 106.531 363.482 107.06C363.977 107.588 364.619 107.852 365.408 107.852C365.886 107.852 366.36 107.733 366.832 107.494C367.309 107.256 367.704 106.895 368.016 106.412C368.334 105.929 368.491 105.315 368.485 104.571ZM378.741 107.614L378.613 108.543C378.528 109.224 378.383 109.935 378.179 110.673C377.98 111.418 377.772 112.108 377.557 112.744C377.346 113.381 377.173 113.886 377.037 114.261H375.23C375.304 113.909 375.406 113.432 375.537 112.83C375.667 112.233 375.795 111.565 375.92 110.827C376.045 110.088 376.139 109.335 376.201 108.568L376.287 107.614H378.741ZM82.9176 140V122.545H85.5511V130.881H85.7642L93.0852 122.545H96.4006L89.3608 130.403L96.4261 140H93.2557L87.6136 132.202L85.5511 134.571V140H82.9176ZM103.42 140.29C102.591 140.29 101.841 140.136 101.17 139.83C100.5 139.517 99.9685 139.065 99.5765 138.474C99.1901 137.884 98.9969 137.159 98.9969 136.301C98.9969 135.562 99.139 134.955 99.4231 134.477C99.7072 134 100.091 133.622 100.574 133.344C101.057 133.065 101.596 132.855 102.193 132.713C102.79 132.571 103.397 132.463 104.017 132.389C104.801 132.298 105.437 132.224 105.926 132.168C106.415 132.105 106.77 132.006 106.991 131.869C107.213 131.733 107.324 131.511 107.324 131.205V131.145C107.324 130.401 107.113 129.824 106.693 129.415C106.278 129.006 105.659 128.801 104.835 128.801C103.977 128.801 103.301 128.991 102.807 129.372C102.318 129.747 101.98 130.165 101.792 130.625L99.3975 130.08C99.6816 129.284 100.096 128.642 100.642 128.153C101.193 127.659 101.826 127.301 102.542 127.08C103.258 126.852 104.011 126.739 104.801 126.739C105.324 126.739 105.878 126.801 106.463 126.926C107.054 127.045 107.605 127.267 108.116 127.591C108.633 127.915 109.057 128.378 109.386 128.98C109.716 129.577 109.88 130.352 109.88 131.307V140H107.392V138.21H107.29C107.125 138.54 106.878 138.864 106.548 139.182C106.219 139.5 105.795 139.764 105.278 139.974C104.761 140.185 104.142 140.29 103.42 140.29ZM103.974 138.244C104.679 138.244 105.281 138.105 105.781 137.827C106.287 137.548 106.67 137.185 106.932 136.736C107.199 136.281 107.332 135.795 107.332 135.278V133.591C107.241 133.682 107.065 133.767 106.804 133.847C106.548 133.92 106.255 133.986 105.926 134.043C105.596 134.094 105.275 134.142 104.963 134.188C104.65 134.227 104.389 134.261 104.179 134.29C103.684 134.352 103.233 134.457 102.824 134.605C102.42 134.753 102.096 134.966 101.852 135.244C101.613 135.517 101.494 135.881 101.494 136.335C101.494 136.966 101.727 137.443 102.193 137.767C102.659 138.085 103.253 138.244 103.974 138.244ZM114.235 140V126.909H116.698V128.989H116.834C117.073 128.284 117.493 127.73 118.095 127.327C118.703 126.918 119.391 126.713 120.158 126.713C120.317 126.713 120.505 126.719 120.72 126.73C120.942 126.741 121.115 126.756 121.24 126.773V129.21C121.138 129.182 120.956 129.151 120.695 129.116C120.433 129.077 120.172 129.057 119.911 129.057C119.308 129.057 118.772 129.185 118.3 129.44C117.834 129.69 117.465 130.04 117.192 130.489C116.919 130.932 116.783 131.437 116.783 132.006V140H114.235ZM126.954 132.227V140H124.406V126.909H126.852V129.04H127.014C127.315 128.347 127.786 127.79 128.428 127.369C129.076 126.949 129.891 126.739 130.874 126.739C131.766 126.739 132.548 126.926 133.218 127.301C133.889 127.67 134.408 128.222 134.778 128.955C135.147 129.687 135.332 130.594 135.332 131.673V140H132.783V131.98C132.783 131.031 132.536 130.29 132.042 129.756C131.548 129.216 130.869 128.946 130.005 128.946C129.414 128.946 128.889 129.074 128.428 129.33C127.974 129.585 127.613 129.96 127.346 130.455C127.085 130.943 126.954 131.534 126.954 132.227ZM143.519 140.29C142.689 140.29 141.939 140.136 141.269 139.83C140.599 139.517 140.067 139.065 139.675 138.474C139.289 137.884 139.096 137.159 139.096 136.301C139.096 135.562 139.238 134.955 139.522 134.477C139.806 134 140.189 133.622 140.672 133.344C141.155 133.065 141.695 132.855 142.292 132.713C142.888 132.571 143.496 132.463 144.116 132.389C144.9 132.298 145.536 132.224 146.025 132.168C146.513 132.105 146.868 132.006 147.09 131.869C147.312 131.733 147.422 131.511 147.422 131.205V131.145C147.422 130.401 147.212 129.824 146.792 129.415C146.377 129.006 145.758 128.801 144.934 128.801C144.076 128.801 143.4 128.991 142.905 129.372C142.417 129.747 142.079 130.165 141.891 130.625L139.496 130.08C139.78 129.284 140.195 128.642 140.741 128.153C141.292 127.659 141.925 127.301 142.641 127.08C143.357 126.852 144.11 126.739 144.9 126.739C145.422 126.739 145.976 126.801 146.562 126.926C147.153 127.045 147.704 127.267 148.215 127.591C148.732 127.915 149.155 128.378 149.485 128.98C149.814 129.577 149.979 130.352 149.979 131.307V140H147.491V138.21H147.388C147.224 138.54 146.976 138.864 146.647 139.182C146.317 139.5 145.894 139.764 145.377 139.974C144.86 140.185 144.241 140.29 143.519 140.29ZM144.073 138.244C144.778 138.244 145.38 138.105 145.88 137.827C146.385 137.548 146.769 137.185 147.03 136.736C147.297 136.281 147.431 135.795 147.431 135.278V133.591C147.34 133.682 147.164 133.767 146.903 133.847C146.647 133.92 146.354 133.986 146.025 134.043C145.695 134.094 145.374 134.142 145.062 134.188C144.749 134.227 144.488 134.261 144.278 134.29C143.783 134.352 143.331 134.457 142.922 134.605C142.519 134.753 142.195 134.966 141.951 135.244C141.712 135.517 141.593 135.881 141.593 136.335C141.593 136.966 141.826 137.443 142.292 137.767C142.758 138.085 143.351 138.244 144.073 138.244ZM160.444 126.909V128.955H153.294V126.909H160.444ZM155.211 123.773H157.76V136.156C157.76 136.651 157.833 137.023 157.981 137.273C158.129 137.517 158.319 137.685 158.552 137.776C158.791 137.861 159.049 137.903 159.328 137.903C159.532 137.903 159.711 137.889 159.865 137.861C160.018 137.832 160.137 137.81 160.223 137.793L160.683 139.898C160.535 139.955 160.325 140.011 160.052 140.068C159.779 140.131 159.438 140.165 159.029 140.17C158.359 140.182 157.734 140.062 157.154 139.812C156.575 139.562 156.106 139.176 155.748 138.653C155.39 138.131 155.211 137.474 155.211 136.685V123.773ZM168.033 140.29C167.203 140.29 166.453 140.136 165.783 139.83C165.112 139.517 164.581 139.065 164.189 138.474C163.803 137.884 163.609 137.159 163.609 136.301C163.609 135.562 163.751 134.955 164.036 134.477C164.32 134 164.703 133.622 165.186 133.344C165.669 133.065 166.209 132.855 166.805 132.713C167.402 132.571 168.01 132.463 168.629 132.389C169.413 132.298 170.05 132.224 170.538 132.168C171.027 132.105 171.382 132.006 171.604 131.869C171.825 131.733 171.936 131.511 171.936 131.205V131.145C171.936 130.401 171.726 129.824 171.305 129.415C170.891 129.006 170.271 128.801 169.448 128.801C168.59 128.801 167.913 128.991 167.419 129.372C166.93 129.747 166.592 130.165 166.405 130.625L164.01 130.08C164.294 129.284 164.709 128.642 165.254 128.153C165.805 127.659 166.439 127.301 167.155 127.08C167.871 126.852 168.624 126.739 169.413 126.739C169.936 126.739 170.49 126.801 171.075 126.926C171.666 127.045 172.217 127.267 172.729 127.591C173.246 127.915 173.669 128.378 173.999 128.98C174.328 129.577 174.493 130.352 174.493 131.307V140H172.004V138.21H171.902C171.737 138.54 171.49 138.864 171.161 139.182C170.831 139.5 170.408 139.764 169.891 139.974C169.374 140.185 168.754 140.29 168.033 140.29ZM168.587 138.244C169.291 138.244 169.894 138.105 170.394 137.827C170.899 137.548 171.283 137.185 171.544 136.736C171.811 136.281 171.945 135.795 171.945 135.278V133.591C171.854 133.682 171.678 133.767 171.416 133.847C171.161 133.92 170.868 133.986 170.538 134.043C170.209 134.094 169.888 134.142 169.575 134.188C169.263 134.227 169.001 134.261 168.791 134.29C168.297 134.352 167.845 134.457 167.436 134.605C167.033 134.753 166.709 134.966 166.465 135.244C166.226 135.517 166.107 135.881 166.107 136.335C166.107 136.966 166.34 137.443 166.805 137.767C167.271 138.085 167.865 138.244 168.587 138.244ZM181.191 135.56L181.174 132.449H181.617L186.833 126.909H189.884L183.935 133.216H183.535L181.191 135.56ZM178.847 140V122.545H181.395V140H178.847ZM187.114 140L182.427 133.778L184.182 131.997L190.242 140H187.114ZM196.976 140.29C196.147 140.29 195.397 140.136 194.726 139.83C194.056 139.517 193.524 139.065 193.132 138.474C192.746 137.884 192.553 137.159 192.553 136.301C192.553 135.562 192.695 134.955 192.979 134.477C193.263 134 193.647 133.622 194.13 133.344C194.613 133.065 195.152 132.855 195.749 132.713C196.345 132.571 196.953 132.463 197.573 132.389C198.357 132.298 198.993 132.224 199.482 132.168C199.97 132.105 200.326 132.006 200.547 131.869C200.769 131.733 200.88 131.511 200.88 131.205V131.145C200.88 130.401 200.669 129.824 200.249 129.415C199.834 129.006 199.215 128.801 198.391 128.801C197.533 128.801 196.857 128.991 196.363 129.372C195.874 129.747 195.536 130.165 195.348 130.625L192.953 130.08C193.238 129.284 193.652 128.642 194.198 128.153C194.749 127.659 195.382 127.301 196.098 127.08C196.814 126.852 197.567 126.739 198.357 126.739C198.88 126.739 199.434 126.801 200.019 126.926C200.61 127.045 201.161 127.267 201.672 127.591C202.189 127.915 202.613 128.378 202.942 128.98C203.272 129.577 203.436 130.352 203.436 131.307V140H200.948V138.21H200.845C200.681 138.54 200.434 138.864 200.104 139.182C199.774 139.5 199.351 139.764 198.834 139.974C198.317 140.185 197.698 140.29 196.976 140.29ZM197.53 138.244C198.235 138.244 198.837 138.105 199.337 137.827C199.843 137.548 200.226 137.185 200.488 136.736C200.755 136.281 200.888 135.795 200.888 135.278V133.591C200.797 133.682 200.621 133.767 200.36 133.847C200.104 133.92 199.811 133.986 199.482 134.043C199.152 134.094 198.831 134.142 198.519 134.188C198.206 134.227 197.945 134.261 197.735 134.29C197.24 134.352 196.789 134.457 196.38 134.605C195.976 134.753 195.652 134.966 195.408 135.244C195.169 135.517 195.05 135.881 195.05 136.335C195.05 136.966 195.283 137.443 195.749 137.767C196.215 138.085 196.809 138.244 197.53 138.244ZM220.829 140.239C219.761 140.239 218.801 140.034 217.949 139.625C217.102 139.21 216.426 138.642 215.92 137.92C215.415 137.199 215.145 136.375 215.111 135.449H217.667C217.73 136.199 218.062 136.815 218.665 137.298C219.267 137.781 219.989 138.023 220.829 138.023C221.5 138.023 222.094 137.869 222.611 137.562C223.133 137.25 223.542 136.821 223.838 136.276C224.139 135.73 224.29 135.108 224.29 134.409C224.29 133.699 224.136 133.065 223.829 132.509C223.523 131.952 223.099 131.514 222.56 131.196C222.025 130.878 221.412 130.716 220.719 130.71C220.19 130.71 219.659 130.801 219.125 130.983C218.591 131.165 218.159 131.403 217.829 131.699L215.417 131.341L216.398 122.545H225.994V124.804H218.588L218.034 129.688H218.136C218.477 129.358 218.929 129.082 219.491 128.861C220.06 128.639 220.667 128.528 221.315 128.528C222.378 128.528 223.324 128.781 224.153 129.287C224.989 129.793 225.645 130.483 226.122 131.358C226.605 132.227 226.844 133.227 226.838 134.358C226.844 135.489 226.588 136.497 226.071 137.384C225.56 138.27 224.849 138.969 223.94 139.48C223.037 139.986 222 140.239 220.829 140.239ZM237.005 140.239C236.226 140.227 235.459 140.085 234.703 139.812C233.953 139.54 233.272 139.085 232.658 138.449C232.044 137.812 231.553 136.957 231.184 135.884C230.82 134.81 230.638 133.469 230.638 131.861C230.638 130.338 230.789 128.986 231.09 127.804C231.397 126.622 231.837 125.625 232.411 124.812C232.985 123.994 233.678 123.372 234.49 122.946C235.303 122.52 236.215 122.307 237.226 122.307C238.266 122.307 239.189 122.511 239.996 122.92C240.803 123.33 241.456 123.895 241.956 124.616C242.462 125.338 242.783 126.159 242.919 127.08H240.32C240.144 126.352 239.794 125.759 239.272 125.298C238.749 124.838 238.067 124.608 237.226 124.608C235.948 124.608 234.951 125.165 234.235 126.278C233.524 127.392 233.167 128.94 233.161 130.923H233.289C233.59 130.429 233.959 130.009 234.397 129.662C234.84 129.31 235.334 129.04 235.88 128.852C236.431 128.659 237.01 128.562 237.618 128.562C238.63 128.562 239.544 128.81 240.363 129.304C241.186 129.793 241.843 130.469 242.331 131.332C242.82 132.196 243.064 133.185 243.064 134.298C243.064 135.412 242.811 136.42 242.306 137.324C241.806 138.227 241.101 138.943 240.192 139.472C239.283 139.994 238.221 140.25 237.005 140.239ZM236.996 138.023C237.667 138.023 238.266 137.858 238.794 137.528C239.323 137.199 239.74 136.756 240.047 136.199C240.354 135.642 240.507 135.02 240.507 134.332C240.507 133.662 240.357 133.051 240.056 132.5C239.76 131.949 239.351 131.511 238.828 131.188C238.311 130.864 237.721 130.702 237.056 130.702C236.55 130.702 236.081 130.798 235.649 130.991C235.223 131.185 234.848 131.452 234.524 131.793C234.201 132.134 233.945 132.526 233.757 132.969C233.576 133.406 233.485 133.869 233.485 134.358C233.485 135.011 233.635 135.616 233.936 136.173C234.243 136.73 234.661 137.179 235.189 137.52C235.723 137.855 236.326 138.023 236.996 138.023ZM253.205 140.29C251.859 140.284 250.708 139.929 249.754 139.224C248.799 138.52 248.069 137.494 247.563 136.148C247.058 134.801 246.805 133.179 246.805 131.281C246.805 129.389 247.058 127.773 247.563 126.432C248.075 125.091 248.808 124.068 249.762 123.364C250.722 122.659 251.87 122.307 253.205 122.307C254.541 122.307 255.685 122.662 256.64 123.372C257.595 124.077 258.325 125.099 258.83 126.44C259.342 127.776 259.597 129.389 259.597 131.281C259.597 133.185 259.345 134.81 258.839 136.156C258.333 137.497 257.603 138.523 256.649 139.233C255.694 139.938 254.546 140.29 253.205 140.29ZM253.205 138.014C254.387 138.014 255.31 137.438 255.975 136.284C256.646 135.131 256.981 133.463 256.981 131.281C256.981 129.832 256.828 128.608 256.521 127.608C256.22 126.602 255.785 125.841 255.217 125.324C254.654 124.801 253.984 124.54 253.205 124.54C252.029 124.54 251.106 125.119 250.435 126.278C249.765 127.437 249.427 129.105 249.421 131.281C249.421 132.736 249.572 133.966 249.873 134.972C250.18 135.972 250.614 136.73 251.177 137.247C251.739 137.759 252.416 138.014 253.205 138.014ZM269.658 140.29C268.311 140.284 267.16 139.929 266.206 139.224C265.251 138.52 264.521 137.494 264.016 136.148C263.51 134.801 263.257 133.179 263.257 131.281C263.257 129.389 263.51 127.773 264.016 126.432C264.527 125.091 265.26 124.068 266.214 123.364C267.175 122.659 268.322 122.307 269.658 122.307C270.993 122.307 272.138 122.662 273.092 123.372C274.047 124.077 274.777 125.099 275.283 126.44C275.794 127.776 276.05 129.389 276.05 131.281C276.05 133.185 275.797 134.81 275.291 136.156C274.785 137.497 274.055 138.523 273.101 139.233C272.146 139.938 270.998 140.29 269.658 140.29ZM269.658 138.014C270.839 138.014 271.763 137.438 272.427 136.284C273.098 135.131 273.433 133.463 273.433 131.281C273.433 129.832 273.28 128.608 272.973 127.608C272.672 126.602 272.237 125.841 271.669 125.324C271.106 124.801 270.436 124.54 269.658 124.54C268.481 124.54 267.558 125.119 266.888 126.278C266.217 127.437 265.879 129.105 265.873 131.281C265.873 132.736 266.024 133.966 266.325 134.972C266.632 135.972 267.067 136.73 267.629 137.247C268.192 137.759 268.868 138.014 269.658 138.014ZM286.11 140.239C284.939 140.239 283.894 140.037 282.973 139.634C282.059 139.23 281.334 138.67 280.8 137.955C280.272 137.233 279.988 136.398 279.948 135.449H282.624C282.658 135.966 282.831 136.415 283.144 136.795C283.462 137.17 283.877 137.46 284.388 137.665C284.9 137.869 285.468 137.972 286.093 137.972C286.78 137.972 287.388 137.852 287.917 137.614C288.451 137.375 288.868 137.043 289.169 136.616C289.471 136.185 289.621 135.688 289.621 135.125C289.621 134.54 289.471 134.026 289.169 133.582C288.874 133.134 288.439 132.781 287.865 132.526C287.297 132.27 286.61 132.142 285.803 132.142H284.328V129.994H285.803C286.451 129.994 287.019 129.878 287.507 129.645C288.002 129.412 288.388 129.088 288.667 128.673C288.945 128.253 289.084 127.761 289.084 127.199C289.084 126.659 288.962 126.19 288.718 125.793C288.479 125.389 288.138 125.074 287.695 124.847C287.257 124.619 286.74 124.506 286.144 124.506C285.576 124.506 285.044 124.611 284.55 124.821C284.061 125.026 283.664 125.321 283.357 125.707C283.05 126.088 282.885 126.545 282.863 127.08H280.314C280.343 126.136 280.621 125.307 281.15 124.591C281.684 123.875 282.388 123.315 283.263 122.912C284.138 122.509 285.11 122.307 286.178 122.307C287.297 122.307 288.263 122.526 289.076 122.963C289.894 123.395 290.525 123.972 290.968 124.693C291.417 125.415 291.638 126.205 291.632 127.062C291.638 128.04 291.365 128.869 290.814 129.551C290.269 130.233 289.542 130.69 288.632 130.923V131.06C289.792 131.236 290.689 131.696 291.326 132.44C291.968 133.185 292.286 134.108 292.28 135.21C292.286 136.17 292.019 137.031 291.479 137.793C290.945 138.554 290.215 139.153 289.289 139.591C288.363 140.023 287.303 140.239 286.11 140.239ZM297.05 140L304.669 124.932V124.804H295.857V122.545H307.396V124.881L299.803 140H297.05Z" fill="white"/>
</g>
<defs>
<filter id="filter0_d_219_156" x="77.5966" y="31.8466" width="312.106" height="116.443" filterUnits="userSpaceOnUse" color-interpolation-filters="sRGB">
<feFlood flood-opacity="0" result="BackgroundImageFix"/>
<feColorMatrix in="SourceAlpha" type="matrix" values="0 0 0 0 0 0 0 0 0 0 0 0 0 0 0 0 0 0 127 0" result="hardAlpha"/>
<feOffset dy="4"/>
<feGaussianBlur stdDeviation="2"/>
<feComposite in2="hardAlpha" operator="out"/>
<feColorMatrix type="matrix" values="0 0 0 0 0 0 0 0 0 0 0 0 0 0 0 0 0 0 0.25 0"/>
<feBlend mode="normal" in2="BackgroundImageFix" result="effect1_dropShadow_219_156"/>
<feBlend mode="normal" in="SourceGraphic" in2="effect1_dropShadow_219_156" result="shape"/>
</filter>
<linearGradient id="paint0_linear_219_156" x1="379.824" y1="-240.025" x2="295.736" y2="-13.73" gradientUnits="userSpaceOnUse">
<stop stop-color="#CF5C2B"/>
<stop offset="1" stop-color="#59173E"/>
</linearGradient>
<linearGradient id="paint1_linear_219_156" x1="293.427" y1="-70.5339" x2="213.539" y2="350.808" gradientUnits="userSpaceOnUse">
<stop stop-color="#CF5C2B"/>
<stop offset="1" stop-color="#59173E"/>
</linearGradient>
<linearGradient id="paint2_linear_219_156" x1="289.38" y1="-64.0593" x2="185.046" y2="468.764" gradientUnits="userSpaceOnUse">
<stop stop-color="#CF5C2B"/>
<stop offset="1" stop-color="#59173E"/>
</linearGradient>
<linearGradient id="paint3_linear_219_156" x1="376.973" y1="84.7387" x2="350.865" y2="154.534" gradientUnits="userSpaceOnUse">
<stop stop-color="#CF5C2B"/>
<stop offset="1" stop-color="#59173E"/>
</linearGradient>
<linearGradient id="paint4_linear_219_156" x1="431.707" y1="-38.3415" x2="245.191" y2="394.455" gradientUnits="userSpaceOnUse">
<stop stop-color="#CF5C2B"/>
<stop offset="1" stop-color="#59173E"/>
</linearGradient>
<linearGradient id="paint5_linear_219_156" x1="127.535" y1="0.789182" x2="113.722" y2="37.7162" gradientUnits="userSpaceOnUse">
<stop stop-color="#CF5C2B"/>
<stop offset="1" stop-color="#59173E"/>
</linearGradient>
<linearGradient id="paint6_linear_219_156" x1="190.157" y1="-142.44" x2="3.63961" y2="290.36" gradientUnits="userSpaceOnUse">
<stop stop-color="#CF5C2B"/>
<stop offset="1" stop-color="#59173E"/>
</linearGradient>
<linearGradient id="paint7_linear_219_156" x1="78.1269" y1="5.49629" x2="56.5127" y2="63.2779" gradientUnits="userSpaceOnUse">
<stop stop-color="#CF5C2B"/>
<stop offset="1" stop-color="#59173E"/>
</linearGradient>
<linearGradient id="paint8_linear_219_156" x1="150.623" y1="-159.474" x2="-35.8925" y2="273.322" gradientUnits="userSpaceOnUse">
<stop stop-color="#CF5C2B"/>
<stop offset="1" stop-color="#59173E"/>
</linearGradient>
<linearGradient id="paint9_linear_219_156" x1="349.136" y1="-88.8019" x2="305.169" y2="-5.63912" gradientUnits="userSpaceOnUse">
<stop stop-color="#CF5C2B"/>
<stop offset="1" stop-color="#59173E"/>
</linearGradient>
<linearGradient id="paint10_linear_219_156" x1="211.03" y1="-190.112" x2="145.59" y2="-28.5573" gradientUnits="userSpaceOnUse">
<stop stop-color="#CF5C2B"/>
<stop offset="1" stop-color="#59173E"/>
</linearGradient>
<linearGradient id="paint11_linear_219_156" x1="260.793" y1="-169.953" x2="195.354" y2="-8.39862" gradientUnits="userSpaceOnUse">
<stop stop-color="#CF5C2B"/>
<stop offset="1" stop-color="#59173E"/>
</linearGradient>
<linearGradient id="paint12_linear_219_156" x1="514.403" y1="-67.1742" x2="444.617" y2="92.5714" gradientUnits="userSpaceOnUse">
<stop stop-color="#CF5C2B"/>
<stop offset="1" stop-color="#59173E"/>
</linearGradient>
</defs>
</svg>
