<svg width="146" height="51" viewBox="0 0 146 51" fill="none" xmlns="http://www.w3.org/2000/svg">
<path d="M143.362 20.1859C142.266 18.9752 141.06 17.8534 139.754 16.833C139.151 16.3332 138.548 15.8334 137.945 15.3336C136.784 14.3724 135.624 13.4113 134.464 12.4502C133.98 11.9585 133.429 11.5256 132.825 11.1618C132.276 10.8681 131.765 10.5173 131.304 10.1162C129.03 8.39047 126.661 6.77376 124.206 5.27261C122.308 3.9973 120.18 3.03823 117.92 2.43925C116.91 2.23914 115.886 2.10266 114.856 2.03078C113.377 1.89654 111.898 1.76225 110.419 1.62792L108.178 1.4243C107.883 1.40418 107.59 1.35886 107.304 1.28895C106.819 1.16081 106.331 1.34863 105.833 1.28395C104.888 1.19474 103.937 1.16004 102.986 1.18006C101.945 1.16614 100.904 1.15296 99.8626 1.14053C95.7075 1.09073 91.5522 1.05237 87.3967 1.02546C83.257 0.998671 79.1173 0.983464 74.9775 0.979824C70.8535 0.976248 66.7294 0.984368 62.6054 1.0042C58.4972 1.02403 54.389 1.05569 50.2809 1.09918C46.1885 1.14261 42.0963 1.19804 38.0043 1.26548C33.928 1.33276 29.852 1.41217 25.7762 1.50368C21.716 1.59496 17.6563 1.69851 13.5969 1.81436C11.4719 1.87508 9.34706 1.9392 7.22237 2.00673C7.04614 1.99943 6.86958 2.0095 6.69569 2.03677C6.51663 2.08013 6.33984 2.14455 6.16509 2.20085C5.80311 2.31466 5.44811 2.44637 5.10165 2.5954C4.41517 2.87049 3.81736 3.30298 3.3657 3.85129C3.11741 4.17563 2.94478 4.54144 2.71357 4.8754C2.58213 5.02748 2.45932 5.18566 2.34561 5.34933C1.91069 6.21957 1.38335 7.04837 0.771213 7.82371C0.179633 8.65518 -0.0841882 9.64728 0.0235745 10.6353C0.119878 11.8659 0.152189 13.1108 0.271303 14.3367C0.461558 16.295 0.287235 18.2561 0.518447 20.2255C0.500189 20.346 0.509534 20.4687 0.545866 20.5857C0.582199 20.7026 0.644722 20.8114 0.729457 20.905C0.814191 20.9985 0.919267 21.0749 1.03797 21.1291C1.15667 21.1833 1.28641 21.2142 1.41886 21.2198L3.44534 21.6256C2.60963 22.1226 1.36252 22.1602 0.921999 22.9796C0.799065 23.2522 0.73495 23.5442 0.733219 23.8392C0.653787 24.8876 0.546577 25.9339 0.469554 26.9824C0.434975 27.4535 0.406491 27.925 0.389414 28.3968C0.373046 28.8481 0.331818 29.2781 0.285618 29.7264C0.178267 30.7665 -0.111119 32.1253 0.236293 33.1427C0.572233 34.1264 1.90982 34.1675 2.83623 34.4061C2.59705 34.457 2.3719 34.5526 2.17487 34.687C1.97783 34.8214 1.81316 34.9917 1.69115 35.1872C1.54802 35.3715 1.44641 35.5693 1.30994 35.7579C1.19027 35.9234 1.08043 36.0947 0.980882 36.2711C0.781744 36.6243 0.623438 36.9956 0.508543 37.3791C0.432001 37.6149 0.386993 37.8583 0.374537 38.1041C0.362921 38.3421 0.352265 38.5802 0.342576 38.8183C0.323161 39.2944 0.307714 39.7707 0.296235 40.2471C0.273206 41.1996 0.265862 42.1523 0.2742 43.1053C0.282349 44.0271 0.0447675 44.9219 0.471825 45.8317C0.849725 46.6506 1.47282 47.3544 2.26889 47.8616C3.06496 48.3689 4.00143 48.6587 4.96972 48.6976C15.056 49.206 25.1739 49.4165 35.2717 49.6346C45.5489 49.8565 55.8278 49.983 66.1084 50.014C76.4635 50.0462 86.8184 49.9844 97.1729 49.8286C100.674 49.7834 104.175 49.5918 107.663 49.7986C110.876 49.9648 114.098 49.934 117.307 49.7064C120.096 49.5291 122.587 49.5341 124.784 47.688C129.631 43.6147 134.75 39.82 139.597 35.7551C140.936 34.6846 142.166 33.504 143.271 32.2281C144.433 30.9307 145.287 29.4253 145.779 27.808C145.991 27.0944 146.051 26.3502 145.956 25.6159C145.899 25.3104 145.809 25.0108 145.687 24.7216C145.55 24.4739 145.446 24.2116 145.378 23.9407C145.29 23.3976 145.105 22.8716 144.83 22.384C144.439 21.5998 143.946 20.8617 143.362 20.1859Z" fill="url(#paint0_linear_102_9194)"/>
<path d="M145.179 27.0625C145.054 27.2718 144.921 27.4742 144.803 27.6631C144.759 27.7306 144.715 27.8048 144.671 27.8656C144.611 27.9403 144.536 28.0043 144.45 28.0545C144.264 28.1308 144.056 28.1544 143.855 28.122C143.832 28.1231 143.81 28.1208 143.789 28.1152C140.597 27.8656 137.316 27.0895 134.257 27.96C135.098 28.2489 135.985 28.4084 136.883 28.4323C139.207 28.6078 141.523 28.79 143.84 28.9654C143.818 28.9856 143.796 28.9992 143.774 29.0194C143.531 29.2286 143.288 29.431 143.046 29.6335C142.634 29.9776 142.288 30.396 141.891 30.7603C141.303 31.2934 140.685 31.8062 140.074 32.3123C139.905 32.454 139.736 32.5957 139.552 32.7442C139.376 32.8926 139.192 33.0411 139.015 33.1828C137.449 34.4918 135.868 35.7874 134.264 37.0492C133.742 37.4676 133.213 37.8792 132.683 38.2773C132.124 38.7159 131.558 39.141 130.984 39.5594C128.162 41.6798 125.173 43.6059 122.041 45.3219L121.71 45.5041C121.502 45.628 121.28 45.7299 121.048 45.8078C120.942 45.8298 120.833 45.8411 120.724 45.8415H120.614C120.415 45.8347 120.217 45.8347 120.018 45.8347C118.378 45.8145 116.716 45.9157 115.076 45.9629C112.59 46.0169 110.106 46.0709 107.626 46.1249C104.75 46.1856 101.874 46.2351 98.9985 46.2734C96.4317 46.3071 93.8625 46.3386 91.2908 46.3678C89.0991 46.3881 86.9074 46.4083 84.7231 46.4151C83.3257 46.4286 81.921 46.4353 80.5162 46.4421C78.2215 46.4555 75.9268 46.4555 73.6396 46.4555C72.3157 46.4555 70.9918 46.4555 69.668 46.4488H68.0794C67.2851 46.4488 66.4908 46.4421 65.6965 46.4353C65.3802 46.4353 65.0713 46.4353 64.7624 46.4286C62.4163 46.4218 60.0849 46.4016 57.7461 46.3814C56.9518 46.3746 56.1648 46.3678 55.3705 46.3543C53.7598 46.3409 52.1491 46.3206 50.5384 46.2936C49.5823 46.2868 48.6263 46.2734 47.6628 46.2532C45.2063 46.2194 42.7646 46.1722 40.3155 46.1249C39.3373 46.1114 38.3664 46.0912 37.3883 46.0709C36.16 46.044 34.9245 46.0169 33.6962 45.9765C32.6077 45.9563 31.5266 45.9292 30.4381 45.9022C28.0773 45.8415 25.7189 45.774 23.3629 45.6998C22.9511 45.6931 22.5392 45.6796 22.1273 45.6661C21.6051 45.6526 21.0756 45.6323 20.5534 45.6121C18.8545 45.5581 17.1604 45.5019 15.4713 45.4434C14.7138 45.4164 13.9562 45.3894 13.1988 45.3557C11.2129 45.2612 9.21247 45.1329 7.22673 45.1329C6.24777 45.0952 5.30119 44.8005 4.49941 44.2837C3.69762 43.767 3.07433 43.0501 2.70355 42.2179C2.40185 41.4938 2.28365 40.7162 2.35791 39.944C2.3619 39.8071 2.38411 39.6711 2.42408 39.5391C2.50806 39.3419 2.57448 39.1388 2.6227 38.9318C2.66684 38.6687 2.68889 38.3987 2.71092 38.1288C2.73296 37.8724 2.75507 37.6093 2.76981 37.3461C2.78447 37.1437 2.80658 36.9412 2.82125 36.7388C2.84236 36.4759 2.88168 36.2144 2.93895 35.9561C2.95369 35.8683 2.98309 35.7806 3.00512 35.6997C3.02716 35.6321 3.04926 35.5647 3.07867 35.4972C3.11992 35.3789 3.17672 35.2656 3.24781 35.1598C3.2981 35.0744 3.35987 34.995 3.43168 34.9237C3.5005 34.8517 3.57686 34.7862 3.65965 34.728C5.11593 33.7293 7.95481 33.7428 10.073 33.7023C10.4849 33.6888 10.8672 33.6821 11.213 33.6619C12.1323 33.6078 13.0517 33.5876 13.9784 33.5944C11.794 33.5881 9.61404 33.412 7.46204 33.0681C6.43977 32.9129 5.4248 32.7104 4.42456 32.4743C4.17382 32.4212 3.92978 32.3443 3.69641 32.2448C3.38066 32.1348 3.12103 31.9207 2.96834 31.6443C2.87195 31.3981 2.83678 31.1353 2.86539 30.875C2.87268 30.6253 2.83599 30.3689 2.85066 30.1193C2.8727 29.5862 2.94631 29.0666 3.00512 28.5403C3.06394 28.1152 3.11545 27.6833 3.14486 27.2515C3.2184 26.1043 3.29934 24.964 3.39492 23.8236C3.38146 23.4756 3.50114 23.1342 3.73326 22.8587C3.89824 22.7236 4.09431 22.6245 4.30686 22.5686C4.86459 22.3788 5.44091 22.2387 6.02788 22.1502C6.30004 22.1029 6.59419 22.1029 6.85898 22.0355C7.14784 21.9463 7.44611 21.8853 7.74889 21.8533C10.9703 21.5092 14.1892 21.1651 17.4056 20.8209C17.7881 20.7804 18.1778 20.74 18.5603 20.6995C13.7062 20.1596 8.85209 19.6063 3.998 19.0665C3.78472 19.0395 3.57142 19.0193 3.35814 18.9923C3.15016 18.9944 2.94956 18.9217 2.79922 18.7899C2.71604 18.6662 2.67268 18.5235 2.67414 18.3783C2.45349 15.9693 2.70354 13.4861 2.55644 11.0569C2.54907 10.9895 2.54178 10.787 2.51974 10.5036C2.51237 10.3619 2.50501 10.2 2.49033 10.0246C2.49033 9.96379 2.49033 9.8896 2.48296 9.82206C2.47559 9.71414 2.46823 9.60616 2.46086 9.49142V9.46451C2.45349 9.34976 2.44615 9.23504 2.43883 9.12034C2.43146 8.9989 2.42407 8.88415 2.4167 8.76271C2.39467 8.37135 2.36526 7.98674 2.34322 7.68983C2.33585 7.58854 2.32849 7.50085 2.32112 7.41991C2.32112 7.38617 2.31384 7.34567 2.31384 7.31869C2.30647 7.23099 2.2991 7.1702 2.29174 7.12977C2.28436 7.09602 2.28436 7.07581 2.27699 7.07581C2.22586 6.44221 2.31461 5.80565 2.53795 5.20426C2.76129 4.60287 3.11461 4.04902 3.57676 3.57586C4.03891 3.10271 4.60037 2.72 5.22754 2.45063C5.85471 2.18127 6.53468 2.03079 7.22673 2.00822C8.72709 1.96102 10.2275 1.91603 11.7278 1.87325C13.6841 1.81253 15.6331 1.75857 17.5894 1.71131C23.8851 1.53591 30.1979 1.39646 36.5278 1.29297L41.5143 1.21203C48.1041 1.11074 54.716 1.04323 61.3499 1.00952C63.0635 1.00282 64.7845 0.99606 66.4981 0.989299C68.5501 0.982538 70.6045 0.98028 72.6614 0.982534C76.6329 0.982534 80.6191 0.989298 84.598 1.00952C84.9879 1.00952 85.3703 1.01628 85.7601 1.01628C89.2388 1.03656 92.7176 1.06357 96.1964 1.09729C98.6896 1.12427 101.185 1.15575 103.683 1.19174C105.757 1.21872 107.834 1.25021 109.913 1.2862C111.038 1.30642 112.149 1.34022 113.274 1.34692C113.48 1.35368 113.686 1.35369 113.892 1.35369C114.09 1.35369 114.289 1.35368 114.487 1.34692H114.495C114.907 1.34692 115.319 1.33347 115.73 1.31318C115.848 1.31318 115.958 1.30642 116.076 1.29972C116.58 1.26604 117.086 1.30473 117.576 1.41441C117.592 1.41334 117.607 1.41566 117.621 1.42117C118.428 1.64283 119.202 1.958 119.923 2.35907C119.996 2.39958 120.077 2.43333 120.151 2.47383C126.283 5.56114 131.927 9.40233 136.927 13.891C137.111 14.0529 137.294 14.2216 137.471 14.3835C139.199 15.9693 140.839 17.6225 142.479 19.2689C142.752 19.5456 143.024 19.8222 143.288 20.1057C143.896 20.7283 144.435 21.4041 144.899 22.1232C145.227 22.6282 145.474 23.1735 145.635 23.7426C145.708 24.0126 145.738 24.296 145.818 24.5659C145.896 25.0002 145.88 25.4443 145.77 25.8728C145.66 26.3012 145.459 26.7055 145.179 27.0625Z" fill="url(#paint1_linear_102_9194)"/>
<path d="M142.479 19.2685C140.839 17.6221 139.199 15.9689 137.471 14.3831C137.294 14.2212 137.11 14.0525 136.926 13.8906C130.807 13.8298 124.688 13.5667 118.577 13.1686C104.566 12.2576 90.5846 11.0565 76.5739 10.0781C62.5706 9.09972 48.5599 8.27648 34.5124 8.21576C27.4225 8.18872 20.362 8.39116 13.3015 8.87029C9.69775 9.11317 6.06449 9.18742 2.46069 9.4708C2.50485 10.2401 2.54161 10.9216 2.55627 11.0565C2.70338 13.4857 2.45332 15.9689 2.67397 18.3779C2.67251 18.5231 2.71588 18.6658 2.79905 18.7895C2.80642 18.7962 2.8138 18.8097 2.82846 18.8164C5.83585 19.165 8.86565 19.3251 11.8968 19.2955C18.9646 19.3495 26.0177 18.9851 33.0856 19.0189C34.9464 19.0323 36.812 19.0548 38.6825 19.0864C39.6093 19.1066 40.5433 19.1269 41.4774 19.1471C42.0178 19.1222 42.5596 19.1448 43.0954 19.2146C43.7706 19.3193 44.4574 19.3465 45.14 19.2955C46.677 19.2618 48.2069 19.1269 49.744 19.0054C51.1855 18.8839 52.627 18.7759 54.0759 18.7624C59.5846 18.7085 65.0123 20.0445 70.521 20.112C71.9971 20.0656 73.4749 20.1242 74.9412 20.2874C75.8017 20.4292 76.6328 20.672 77.4859 20.861C78.9303 21.1889 80.4109 21.3632 81.8987 21.3805C82.6477 21.3985 83.3972 21.3692 84.1418 21.2928C84.8723 21.2491 85.6056 21.2626 86.3336 21.3333C89.452 21.4818 92.5728 21.6078 95.6961 21.7112C98.1452 21.7922 100.594 21.8506 103.043 21.8866C91.7834 22.7841 80.5233 23.6501 69.2633 24.4845C63.4826 24.9096 57.6797 25.3753 51.8695 25.3753C45.5959 25.3753 39.3224 24.6937 33.0268 25.0109C27.4667 25.2942 21.855 25.7261 16.339 26.4481C12.0439 27.015 7.46925 28.2026 3.00496 28.5399C2.94614 29.0662 2.87253 29.5858 2.85049 30.1189C2.83583 30.3685 2.87252 30.6249 2.86522 30.8746C2.83661 31.1349 2.87179 31.3977 2.96817 31.6439C3.12086 31.9203 3.38049 32.1344 3.69624 32.2444C3.92961 32.3439 4.17365 32.4208 4.4244 32.4739C5.42463 32.71 6.43961 32.9125 7.46188 33.0677C9.15349 33.0069 10.845 32.9057 12.4999 32.7168C17.3761 32.1702 22.7449 31.9813 27.7167 31.0636L30.8498 30.8814C36.6157 30.4156 42.3441 29.6178 48.001 28.4927C51.6488 27.8314 55.3409 27.3388 59.033 26.9407C59.511 26.8867 59.9596 26.7652 60.4303 26.7315C60.8128 26.6978 61.2026 26.6708 61.585 26.6438C63.1295 26.5358 64.6765 26.4481 66.2259 26.3806C69.3149 26.2457 72.4185 26.1849 75.5148 26.158C78.6185 26.131 81.7148 26.1445 84.8186 26.1445C87.9222 26.1512 91.0185 26.1445 94.1222 26.0973C97.2185 26.0568 100.322 25.9623 103.411 25.7868C104.389 25.7329 105.36 25.6654 106.331 25.5979C103.737 25.0443 101.105 24.6476 98.4541 24.4103C103.323 24.0324 108.167 23.4746 112.987 22.7368C115.988 22.2712 118.981 21.745 122.011 21.4278C123.523 21.2649 125.042 21.1725 126.564 21.1512C127.321 21.1376 128.079 21.1512 128.836 21.1984C129.525 21.2914 130.221 21.3343 130.918 21.3266C131.403 21.2726 131.852 21.0971 132.344 21.0567C133.117 20.9959 133.889 20.942 134.669 20.8812C136.213 20.7598 137.76 20.6248 139.309 20.4763C139.721 20.4359 140.141 20.3954 140.56 20.3481C141.457 20.2537 142.369 20.1794 143.288 20.1053C143.024 19.8218 142.751 19.5452 142.479 19.2685ZM132.859 30.0109C125.14 29.5847 117.401 29.5464 109.677 29.8962C108.067 29.9569 106.493 29.9907 104.897 30.1729C104.132 30.2674 103.36 30.3551 102.587 30.436C99.5058 30.7734 96.4168 31.0478 93.3205 31.2592C92.1144 31.3469 90.9082 31.4212 89.702 31.4887C92.8278 31.4685 95.956 31.4482 99.0866 31.4279C102.212 31.4077 105.341 31.3852 108.471 31.3605C110.038 31.3537 111.604 31.3402 113.163 31.3335C113.95 31.3267 114.73 31.32 115.51 31.3133C115.841 31.3314 116.174 31.3155 116.503 31.266C116.701 31.2255 116.892 31.1513 117.091 31.1243C117.822 31.0828 118.556 31.1054 119.283 31.1918C120.055 31.2323 120.834 31.2728 121.607 31.3133C123.159 31.401 124.71 31.4999 126.262 31.6101C128.704 31.7788 131.146 31.9677 133.587 32.1635C135.581 32.3322 137.569 32.5256 139.552 32.7438L139.567 32.7302C139.736 32.5953 139.905 32.4536 140.074 32.3119C140.685 31.8058 141.303 31.293 141.891 30.7599C138.89 30.4698 135.882 30.1998 132.859 30.0109ZM81.8178 35.679C68.1086 35.4294 54.429 34.7073 40.7125 34.7545C33.4828 34.7748 26.2605 34.8828 19.0456 35.0785C13.7208 35.2202 8.32239 35.1932 3.00496 35.6993C2.91037 36.04 2.84884 36.3877 2.82108 36.7384C2.76227 37.3524 2.74017 37.98 2.66669 38.594C8.5872 38.8167 14.5813 38.4456 20.487 38.4321C27.7094 38.4186 34.9317 38.4883 42.154 38.6413C55.841 38.9382 69.5134 39.6332 83.2005 39.8558C97.1229 40.0853 111.023 39.1676 124.916 38.5266C127.498 38.4051 130.087 38.3309 132.683 38.2769C133.212 37.8788 133.742 37.4672 134.264 37.0488C135.867 35.787 137.449 34.4914 139.015 33.1824C133.845 33.6412 128.667 34.0798 123.482 34.343C109.604 35.0447 95.7182 35.9286 81.8178 35.679Z" fill="url(#paint2_linear_102_9194)"/>
<path d="M102.537 33.253C99.6806 31.7874 94.9368 32.2397 92.6756 34.2124C92.3287 34.5258 92.0532 34.8994 91.8652 35.3114C91.6772 35.7234 91.5803 36.1656 91.5803 36.6123C91.5803 37.059 91.6772 37.5012 91.8652 37.9133C92.0532 38.3253 92.3287 38.6989 92.6756 39.0123C95.9725 41.7339 101.76 40.5726 103.851 37.2033C103.891 37.1702 103.931 37.137 103.971 37.1038C105.567 35.7804 104.43 33.5823 102.537 33.253Z" fill="#EB924D"/>
<path d="M103.215 31.9628C100.358 30.4971 95.6146 30.9493 93.3533 32.922C93.0064 33.2354 92.731 33.609 92.5429 34.0211C92.3549 34.4331 92.2581 34.8753 92.2581 35.322C92.2581 35.7687 92.3549 36.2109 92.5429 36.623C92.731 37.035 93.0064 37.4086 93.3533 37.722C96.6502 40.4436 102.438 39.2822 104.528 35.913L104.648 35.8134C106.245 34.4901 105.108 32.292 103.215 31.9628Z" fill="url(#paint3_linear_102_9194)"/>
<path d="M102.537 32.7943C99.6806 31.3286 94.9368 31.7809 92.6756 33.7536C92.3287 34.067 92.0532 34.4406 91.8652 34.8526C91.6772 35.2647 91.5803 35.7069 91.5803 36.1536C91.5803 36.6003 91.6772 37.0425 91.8652 37.4545C92.0532 37.8665 92.3287 38.2401 92.6756 38.5535C95.9725 41.2751 101.76 40.1137 103.851 36.7446C103.891 36.7114 103.931 36.6782 103.971 36.645C105.567 35.3216 104.43 33.1235 102.537 32.7943Z" fill="url(#paint4_linear_102_9194)"/>
<path d="M34.4411 6.92274C33.6069 6.55048 32.6755 6.40068 31.753 6.49041C30.8306 6.58015 29.9541 6.90581 29.2235 7.43028C29.04 7.59611 28.8942 7.79378 28.7948 8.01177C28.6953 8.22977 28.644 8.46374 28.644 8.70007C28.644 8.93641 28.6953 9.17038 28.7948 9.38837C28.8942 9.60637 29.04 9.80403 29.2235 9.96987C30.9679 11.4098 34.03 10.7953 35.136 9.01278L35.1995 8.96005C35.3704 8.80082 35.4896 8.60108 35.5438 8.38321C35.5979 8.16535 35.5849 7.93795 35.5062 7.72648C35.4275 7.51501 35.2861 7.32782 35.098 7.18586C34.9099 7.04391 34.6825 6.95281 34.4411 6.92274Z" fill="#EB924D"/>
<path d="M34.799 6.2399C33.9648 5.86763 33.0334 5.71782 32.111 5.80755C31.1885 5.89727 30.312 6.22292 29.5814 6.74738C29.3979 6.91321 29.2522 7.11088 29.1527 7.32888C29.0532 7.54687 29.002 7.78084 29.002 8.01718C29.002 8.25351 29.0532 8.48748 29.1527 8.70548C29.2522 8.92347 29.3979 9.12114 29.5814 9.28697C31.3258 10.7269 34.3879 10.1125 35.4939 8.32987L35.5574 8.27721C35.7283 8.11798 35.8475 7.91824 35.9017 7.70037C35.9558 7.48251 35.9428 7.25511 35.8641 7.04364C35.7854 6.83217 35.644 6.64499 35.4559 6.50304C35.2678 6.36109 35.0404 6.26997 34.799 6.2399Z" fill="url(#paint5_linear_102_9194)"/>
<path d="M34.4411 6.67982C33.6069 6.30756 32.6755 6.15776 31.753 6.24749C30.8306 6.33723 29.9541 6.66288 29.2235 7.18735C29.04 7.35318 28.8942 7.55085 28.7948 7.76884C28.6953 7.98684 28.644 8.22081 28.644 8.45714C28.644 8.69348 28.6953 8.92745 28.7948 9.14544C28.8942 9.36344 29.04 9.5611 29.2235 9.72693C30.9679 11.1669 34.03 10.5524 35.136 8.76985L35.1995 8.71712C35.3704 8.55789 35.4896 8.35816 35.5438 8.14029C35.5979 7.92243 35.5849 7.69503 35.5062 7.48356C35.4275 7.27209 35.2861 7.0849 35.098 6.94295C34.9099 6.80099 34.6825 6.70989 34.4411 6.67982Z" fill="url(#paint6_linear_102_9194)"/>
<path d="M20.4393 11.3559C18.0744 10.1425 14.1472 10.5169 12.2752 12.15C11.988 12.4095 11.7599 12.7188 11.6042 13.0599C11.4486 13.401 11.3684 13.7671 11.3684 14.1369C11.3684 14.5067 11.4486 14.8728 11.6042 15.2139C11.7599 15.555 11.988 15.8643 12.2752 16.1238C15.0046 18.3769 19.7961 17.4154 21.5266 14.6262L21.626 14.5438C22.9475 13.4481 22.0064 11.6284 20.4393 11.3559Z" fill="#EB924D"/>
<path d="M21.0002 10.2877C18.6352 9.07437 14.708 9.44877 12.8359 11.0819C12.5488 11.3414 12.3207 11.6507 12.165 11.9918C12.0094 12.3329 11.9292 12.699 11.9292 13.0688C11.9292 13.4386 12.0094 13.8047 12.165 14.1458C12.3207 14.4869 12.5488 14.7962 12.8359 15.0556C15.5654 17.3088 20.3569 16.3473 22.0874 13.558L22.1868 13.4756C23.5084 12.38 22.5672 10.5603 21.0002 10.2877Z" fill="url(#paint7_linear_102_9194)"/>
<path d="M20.4393 10.976C18.0744 9.76259 14.1472 10.137 12.2752 11.7701C11.988 12.0296 11.7599 12.3389 11.6042 12.68C11.4486 13.0211 11.3684 13.3872 11.3684 13.757C11.3684 14.1268 11.4486 14.4929 11.6042 14.834C11.7599 15.1751 11.988 15.4844 12.2752 15.7439C15.0046 17.997 19.7961 17.0355 21.5266 14.2463L21.626 14.1639C22.9475 13.0682 22.0064 11.2485 20.4393 10.976Z" fill="url(#paint8_linear_102_9194)"/>
<path d="M3.53389 30.7749C3.49131 31.2702 3.54612 31.7685 3.69573 32.246C3.38 32.136 3.12039 31.9218 2.96766 31.6454C2.87125 31.3993 2.83604 31.1364 2.86462 30.8761C2.87199 30.6265 2.83522 30.37 2.84996 30.1204C2.89403 29.1555 3.08527 28.2108 3.14416 27.2526C3.21764 26.1055 3.29857 24.9651 3.39415 23.8247C3.38075 23.4767 3.50043 23.1354 3.73249 22.8599C3.89749 22.7248 4.09358 22.6256 4.30616 22.5697C4.86389 22.3799 5.44023 22.2398 6.02719 22.1513C6.29929 22.1041 6.59349 22.1041 6.85822 22.0366C7.14711 21.9475 7.44539 21.8864 7.74819 21.8544C10.9695 21.5103 14.1884 21.1661 17.4049 20.822C13.9482 21.463 10.4915 22.1018 7.03471 22.7384C6.36113 22.861 5.46216 22.8558 4.89968 23.2625C4.68649 23.4347 4.4939 23.6272 4.32517 23.8368C4.27039 23.8991 3.78961 24.782 3.97561 24.7877C6.51565 24.8653 9.05573 24.9429 11.5958 25.0205C9.71389 25.3011 7.83802 25.6135 5.96822 25.9576C5.02517 26.1311 3.95684 26.3998 3.53984 27.195C3.31289 27.7421 3.25869 28.3369 3.38345 28.9111C3.41334 29.0937 3.48186 29.266 3.52126 29.4462C3.5785 29.8874 3.58275 30.3329 3.53389 30.7749Z" fill="#EB924D"/>
<path d="M128.24 12.7317C128.041 12.7183 127.85 12.7115 127.659 12.698H128.593C128.475 12.7048 128.358 12.7183 128.24 12.7317Z" fill="#EB924D"/>
<path d="M145.183 27.0605C145.137 27.1374 145.103 27.2199 145.082 27.3055C145.064 27.4246 145.04 27.5428 145.008 27.6594C144.969 27.8303 144.866 27.9832 144.716 28.091C144.567 28.1988 144.38 28.2547 144.19 28.2487C143.991 28.2448 143.793 28.2173 143.601 28.167C143.672 27.9811 143.77 27.8047 143.892 27.6424C143.968 27.4968 144.038 27.3484 144.101 27.1974C144.242 26.8597 144.352 26.5122 144.432 26.1583C144.58 25.4784 144.65 24.7863 144.642 24.0932C144.7 23.2982 144.476 22.5072 144.002 21.8394C143.068 20.7328 141.288 20.6991 139.758 20.7733C138.434 20.834 137.111 20.9015 135.794 20.9622C137.714 20.7598 139.638 20.5551 141.567 20.3482C140.788 19.3157 140.006 18.2833 139.221 17.251C138.574 16.2257 137.662 15.3615 136.566 14.7341C135.575 14.3484 134.51 14.1487 133.433 14.147C130.8 13.9851 128.175 13.8299 125.542 13.6679C128.385 13.6138 131.219 13.3452 134.014 12.8649C133.102 12.0282 132.153 11.2253 131.183 10.4493C129.8 9.33585 128.358 8.28326 126.873 7.29132C125.387 6.29262 123.85 5.36148 122.276 4.49098C121.489 4.05911 120.687 3.63401 119.878 3.23595C119.489 3.0402 119.069 2.87156 118.694 2.6489C118.589 2.5718 118.473 2.50821 118.349 2.45991C118.252 2.43874 118.154 2.42743 118.055 2.42617C117.532 2.40595 117.01 2.41272 116.488 2.40596C114.936 2.39252 113.382 2.38578 111.825 2.38574C111.34 2.38574 110.847 2.38573 110.354 2.37897H107.523C106.213 2.37221 104.904 2.37222 103.595 2.37222H103.404C101.33 2.36546 99.2559 2.36545 97.1819 2.35869C96.1449 2.35869 95.1079 2.35869 94.0708 2.35199C93.5809 2.38584 93.0886 2.37906 92.5999 2.33171C92.1545 2.1804 91.7003 2.052 91.2393 1.94711C90.7846 1.93592 90.3295 1.95849 89.8787 2.01459C88.746 2.10229 87.6134 2.19674 86.4881 2.31149C85.9702 2.31127 85.4693 2.48122 85.0761 2.79056C84.9747 2.92254 84.8589 3.04464 84.7304 3.15494C84.552 3.22864 84.3571 3.26277 84.1616 3.25457C83.9661 3.24637 83.7755 3.19608 83.6051 3.10775C82.8686 2.8711 82.0977 2.73691 81.3179 2.70962C80.6118 2.68264 79.9204 2.79732 79.2144 2.75682C78.7785 2.71622 78.346 2.6486 77.92 2.55444C76.1884 2.31008 74.442 2.16359 72.6908 2.11581C71.4111 2.02804 70.124 1.96739 68.8443 1.92689C64.6963 1.79192 60.5409 1.85934 56.3928 2.02128C54.3188 2.10229 52.2448 2.20126 50.1707 2.31819C49.1936 2.4393 48.2066 2.47996 47.2215 2.43969C46.9494 2.40595 46.6993 2.30473 46.4272 2.25753C46.1448 2.21936 45.8589 2.20805 45.574 2.2238C44.4194 2.23049 43.2647 2.23725 42.1174 2.24401C40.7714 2.25077 39.4182 2.24401 38.0649 2.24401C37.609 2.24401 37.1676 2.33171 36.7264 2.33171C36.3145 2.33171 35.9101 2.25077 35.5055 2.25077C34.6479 2.25767 33.7994 2.41337 33.0049 2.70962C32.7119 2.85149 32.3873 2.92996 32.0561 2.93904C31.453 2.91199 31.0339 2.38573 30.4896 2.14955C29.1878 1.57596 27.8492 2.66236 26.518 2.2238C25.8582 2.05415 25.172 1.98797 24.4882 2.02805C23.5982 2.02129 22.7083 2.02128 21.8258 2.02128C18.8177 2.0348 15.8096 2.12927 12.8163 2.40596C11.3233 2.54768 9.83766 2.72984 8.35934 2.97279C7.64593 3.08747 6.91779 3.28315 6.19709 3.35739C5.98968 3.35539 5.78583 3.40681 5.60869 3.50581C4.72615 4.0794 2.29172 7.24412 4.02739 8.36419C4.63654 8.66696 5.332 8.79174 6.02059 8.72182C10.4481 8.6611 14.8781 8.60489 19.3104 8.55319C14.5299 8.90398 9.7469 9.25261 4.96145 9.59908C4.64942 9.60158 4.34138 9.66361 4.05689 9.78124C3.1375 10.2401 3.4538 11.3062 3.32873 12.0755C3.23458 13.1139 3.28401 14.1591 3.47584 15.1862C3.61557 16.4818 3.78472 17.7773 3.998 19.0661C3.78472 19.0391 3.57142 19.0189 3.35814 18.9919C3.15016 18.994 2.94956 18.9213 2.79922 18.7895C2.71604 18.6658 2.67268 18.5231 2.67414 18.3779C2.45349 15.9689 2.70354 13.4857 2.55644 11.0566C2.54907 10.9891 2.54178 10.7866 2.51974 10.5032C2.51237 10.3615 2.50501 10.1996 2.49033 10.0242C2.49033 9.9634 2.49033 9.88922 2.48296 9.82167C2.47559 9.71375 2.46823 9.60577 2.46086 9.49103V9.46412C2.45349 9.34937 2.44615 9.23465 2.43883 9.11995C2.43146 8.99851 2.42407 8.88377 2.4167 8.76233C2.39467 8.37096 2.36526 7.98635 2.34322 7.68944C2.33585 7.58816 2.32849 7.50046 2.32112 7.41952C2.32112 7.38578 2.31384 7.34528 2.31384 7.3183C2.30647 7.2306 2.2991 7.16982 2.29174 7.12938C2.28436 7.09564 2.28436 7.07542 2.27699 7.07542C2.22586 6.44182 2.31461 5.80526 2.53795 5.20387C2.76129 4.60248 3.11461 4.04863 3.57676 3.57548C4.03891 3.10233 4.60037 2.71961 5.22754 2.45025C5.85471 2.18088 6.53468 2.0304 7.22673 2.00783C8.72709 1.96063 10.2275 1.91564 11.7278 1.87286C13.6841 1.81214 15.6331 1.75818 17.5894 1.71092C23.8851 1.53552 30.1979 1.39608 36.5278 1.29258L41.5143 1.21164C48.1041 1.11036 54.7159 1.04285 61.3499 1.00913C63.0635 1.00243 64.7845 0.995674 66.4981 0.988912C72.5143 0.968694 78.5476 0.975432 84.598 1.00913C84.9878 1.00913 85.3703 1.01589 85.7601 1.01589C89.2388 1.03618 92.7176 1.06318 96.1964 1.0969C98.6896 1.12388 101.185 1.15536 103.683 1.19136C105.757 1.21834 107.834 1.24982 109.913 1.28581C110.862 1.29934 111.81 1.3128 112.759 1.33308C112.931 1.32746 113.103 1.33195 113.274 1.34653L113.406 1.36682C113.535 1.40499 113.669 1.42323 113.804 1.42078C114.031 1.40726 114.26 1.37358 114.495 1.34653C114.721 1.30896 114.949 1.28865 115.179 1.28581C115.363 1.28581 115.547 1.29934 115.73 1.3128C115.855 1.31956 115.988 1.33308 116.12 1.33984C116.606 1.38027 117.091 1.40726 117.576 1.41402C117.592 1.41295 117.607 1.41527 117.621 1.42078C118.428 1.64245 119.202 1.95762 119.923 2.35869C119.996 2.39919 120.077 2.43294 120.151 2.47344C126.283 5.56075 131.927 9.40194 136.927 13.8906C137.111 14.0525 137.294 14.2212 137.471 14.3832C139.199 15.9689 140.839 17.6221 142.479 19.2685C142.752 19.5452 143.024 19.8218 143.288 20.1053C143.896 20.728 144.435 21.4037 144.899 22.1228C145.227 22.6279 145.474 23.1732 145.635 23.7423C145.708 24.0122 145.738 24.2956 145.818 24.5655C145.978 25.3636 145.794 26.1872 145.306 26.8636C145.264 26.9312 145.221 26.9949 145.183 27.0605Z" fill="#EB924D"/>
<path d="M143.773 29.0191C143.53 29.2283 143.288 29.4307 143.045 29.6332C142.633 29.9773 142.287 30.3957 141.89 30.76C141.302 31.2931 140.684 31.8059 140.074 32.312C139.905 32.4537 139.735 32.5954 139.552 32.7439C139.375 32.8923 139.191 33.0408 139.015 33.1825C137.448 34.4915 135.867 35.7871 134.264 37.0489C133.741 37.4673 133.212 37.8789 132.682 38.277C132.123 38.7156 131.557 39.1407 130.983 39.5591C128.161 41.6795 125.172 43.6056 122.04 45.3216L121.709 45.5038C121.502 45.6277 121.28 45.7296 121.047 45.8075C120.941 45.8294 120.832 45.8408 120.724 45.8412H120.613C120.598 45.8328 120.58 45.8281 120.562 45.8278C120.381 45.8131 120.198 45.8153 120.018 45.8344C118.37 45.8816 116.723 45.9244 115.075 45.9626C112.589 46.0166 110.106 46.0706 107.625 46.1246C102.168 46.2258 96.7228 46.3068 91.2901 46.3675C89.0985 46.3878 86.9067 46.408 84.7224 46.4148C83.325 46.4282 81.9203 46.435 80.5155 46.4418C78.2208 46.4552 75.9261 46.4552 73.6389 46.4552C72.3151 46.4552 70.9911 46.4552 69.6674 46.4485C68.3361 46.4485 67.0123 46.4418 65.6958 46.435C65.3796 46.435 65.0706 46.435 64.7617 46.4283C62.4156 46.4215 60.0842 46.4013 57.7454 46.3811C56.9511 46.3743 56.1641 46.3675 55.3698 46.354C53.7591 46.3406 52.1484 46.3203 50.5378 46.2933C49.5817 46.2865 48.6256 46.2731 47.6621 46.2529C45.2057 46.2191 42.7639 46.1719 40.3148 46.1246C38.1084 46.0842 35.902 46.0301 33.6955 45.9762C32.607 45.956 31.5259 45.9289 30.4375 45.9019C28.0766 45.8412 25.7182 45.7737 23.3623 45.6995C22.4282 45.6725 21.4868 45.6388 20.5528 45.6118C18.8538 45.5578 17.1598 45.5016 15.4707 45.4431C14.7131 45.4161 13.9556 45.3891 13.1981 45.3554C11.2049 45.2879 9.21424 45.2137 7.22606 45.1326C6.24711 45.0949 5.30053 44.8002 4.49874 44.2834C3.69696 43.7667 3.07367 43.0497 2.70289 42.2176C2.40119 41.4935 2.28299 40.7159 2.35725 39.9437C2.36124 39.8068 2.38345 39.6708 2.42342 39.5388C2.5074 39.3416 2.57382 39.1385 2.62203 38.9315C2.66618 38.6684 2.68822 38.3984 2.71026 38.1285C2.73967 37.8721 2.75441 37.609 2.76914 37.3458C2.78381 37.1434 2.80592 36.9409 2.82059 36.7385C2.8417 36.4756 2.88101 36.2141 2.93829 35.9558C2.95303 35.868 2.98242 35.7803 3.00446 35.6994C3.0265 35.6318 3.0486 35.5644 3.078 35.4969C3.11926 35.3786 3.17606 35.2653 3.24715 35.1595C3.29744 35.0741 3.35921 34.9947 3.43102 34.9234C3.49984 34.8514 3.5762 34.7859 3.65898 34.7277C5.11527 33.729 7.95415 33.7425 10.0723 33.702C11.8006 33.7223 13.5217 33.7357 15.2794 33.8235C14.7646 33.8235 14.3087 34.0462 13.8158 34.0867C13.1392 34.1474 12.4479 34.1608 11.7713 34.1946C10.4253 34.2688 9.07944 34.3431 7.74085 34.4173C6.80345 34.4296 5.87164 34.5521 4.96816 34.7817C4.62415 34.8627 4.30957 35.0256 4.05622 35.254C3.81149 35.5288 3.64696 35.8562 3.57813 36.2054C3.32601 36.8959 3.22114 37.6244 3.26925 38.3512C3.30603 38.5536 3.38688 38.7494 3.41636 38.9585C3.43591 39.1832 3.43344 39.409 3.40899 39.6333C3.34413 40.3988 3.47249 41.1677 3.78406 41.8803C4.60778 43.5672 6.76271 44.3027 8.74108 44.6401C11.1608 45.0449 13.1981 45.4296 15.6398 45.126L26.3409 45.2272C28.4296 45.2474 30.5109 45.2744 32.5997 45.2811C32.9454 45.2879 33.269 45.1867 33.6073 45.1799C34.1074 45.1799 34.6296 45.2609 35.1297 45.2946C36.152 45.3689 37.1817 45.4161 38.2114 45.4498C40.7266 45.5241 43.2493 45.4903 45.7646 45.3419C46.3495 45.2506 46.9476 45.2574 47.5298 45.3621C48.3803 45.5457 49.2523 45.6319 50.1259 45.6185C52.1926 45.7062 54.2666 45.713 56.3333 45.6523C56.8334 45.6388 57.3262 45.6185 57.8263 45.5915C58.6222 45.5924 59.4126 45.4716 60.1651 45.2339C60.5475 45.099 60.9079 44.9033 61.3051 44.8021C62.423 44.5186 63.5777 45.0382 64.6735 45.4161C66.093 45.8952 67.6448 45.6658 69.1305 45.7602C71.1231 45.9468 73.1309 45.9514 75.1245 45.7737C75.1466 45.7737 75.1613 45.767 75.1833 45.767C76.1411 45.6677 77.0764 45.4333 77.9561 45.072C78.3831 44.8257 78.8663 44.6733 79.3682 44.6266C79.9671 44.7217 80.5293 44.9563 81.001 45.3081C82.641 46.2056 84.6709 46.1853 86.5684 45.9964C88.1776 45.7383 89.8125 45.641 91.4445 45.7062C92.1212 45.767 92.7684 45.6793 93.4524 45.686C94.2908 45.686 95.1366 45.6928 95.9824 45.6928C96.8875 45.6971 97.7926 45.7011 98.6978 45.7047C100.779 45.7127 102.86 45.7148 104.941 45.7111C107.022 45.7055 109.103 45.6882 111.184 45.6591C112.224 45.6435 113.263 45.6238 114.303 45.5999C114.823 45.5878 115.343 45.5745 115.862 45.5601C116.121 45.5528 116.383 45.5348 116.642 45.5373C116.808 45.539 116.953 45.6004 117.117 45.6095C118.067 45.6284 119.015 45.5053 119.922 45.245C120.83 45.0065 121.709 44.6854 122.547 44.2864C124.271 43.4195 125.913 42.4213 127.454 41.3022C128.161 40.8179 128.868 40.3336 129.575 39.8493C129.933 39.6043 130.29 39.3593 130.648 39.1144C130.808 39.0328 130.953 38.9278 131.076 38.8034C131.271 38.5166 130.684 38.2903 130.462 38.2673C129.706 38.189 128.93 38.1712 128.167 38.1285C131.358 38.2095 134.315 36.4686 136.47 34.3026C136.242 34.2621 136.007 34.2216 135.779 34.1811C136.404 33.9781 137.013 33.7369 137.603 33.4591C138.356 33.1036 139.076 32.6929 139.757 32.231C140.438 31.77 141.075 31.2577 141.662 30.6993C141.957 30.4227 142.236 30.1325 142.508 29.8288C142.607 29.7244 142.698 29.614 142.78 29.4982C142.832 29.424 142.891 29.3565 142.935 29.2822C142.952 29.2585 142.96 29.2298 142.957 29.2013C142.949 29.1743 142.92 29.1608 142.891 29.1473C142.582 29.0123 142.177 29.0933 141.905 28.8976C141.942 28.9246 142.14 28.8909 142.192 28.8909C142.302 28.8976 142.405 28.8976 142.515 28.9044C142.729 28.9246 142.935 28.9517 143.148 28.9853C143.279 29.0033 143.413 29.0078 143.545 28.9989C143.622 28.9989 143.698 29.0057 143.773 29.0191Z" fill="#EB924D"/>
<path d="M143.69 28.8979C143.639 28.9587 143.588 29.0194 143.536 29.0802C143.286 29.3636 143.029 29.6335 142.756 29.9034C139.903 29.2016 136.858 28.5403 133.894 28.0208C137.167 28.2367 140.432 28.5291 143.69 28.8979Z" fill="#EB924D"/>
<path d="M62.6884 8.97257C57.8574 9.73326 52.9167 9.68983 48.1025 8.84437C52.9591 8.60305 57.8274 8.82454 62.6884 8.97257Z" fill="#EB924D"/>
<path d="M102.042 12.6127C99.5981 12.903 97.1277 12.9567 94.6717 12.773C87.933 12.4859 81.0477 12.1727 74.7874 10.0415C78.6053 10.0285 82.3903 10.6103 86.1715 11.0632C91.3826 11.6873 96.8065 12.159 102.042 12.6127Z" fill="#EB924D"/>
<path d="M105.118 12.4168C103.329 12.3649 101.548 12.1861 99.7697 12.0074C91.7346 11.2005 83.6995 10.3936 75.6645 9.58675C66.95 8.71164 58.1799 7.83529 49.4343 8.39081C48.2715 8.37729 47.0288 8.50555 45.866 8.49203C51.2272 9.03738 56.6259 9.20698 62.0153 8.99937C64.1334 8.85161 66.2604 8.8435 68.3798 8.97512C70.0668 9.17597 71.7401 9.46455 73.3915 9.83945C76.5093 10.4647 79.6587 10.9529 82.8206 11.3505C91.6548 12.4167 100.56 12.9069 109.47 12.8173C107.833 12.6385 106.766 12.4647 105.118 12.4168Z" fill="url(#paint9_linear_102_9194)"/>
<path d="M34.3953 19.5929C30.1287 20.0263 25.8224 20.0179 21.5579 19.5679C25.8296 19.2322 30.1252 19.2406 34.3953 19.5929Z" fill="#EB924D"/>
<path d="M37.7628 19.626C31.7227 19.5151 25.6816 19.4925 19.6396 19.5581C20.3724 19.515 21.102 19.435 21.8252 19.3185C22.5766 19.2313 23.3281 19.144 24.0815 19.0736C25.5866 18.9192 27.1037 18.8887 28.6147 18.9824C28.8595 18.9888 29.1043 18.9695 29.3444 18.925C29.7009 18.9048 30.0587 18.9161 30.4128 18.9586C31.1858 19.0025 31.9581 19.0545 32.7297 19.1148C34.2729 19.2353 35.8124 19.3887 37.3484 19.5749C37.4866 19.5916 37.6247 19.6087 37.7628 19.626Z" fill="url(#paint10_linear_102_9194)"/>
<path d="M49.4736 28.6484C47.8269 29.24 46.1802 29.8315 44.5335 30.423C43.5068 30.8157 42.4531 31.1463 41.3793 31.4126C39.9779 31.6927 38.5527 31.8613 37.1196 31.9166C33.5185 32.1468 29.8484 32.3424 26.344 31.5476C34.1544 31.4771 41.8181 30.0702 49.4736 28.6484Z" fill="#EB924D"/>
<path d="M56.8146 26.9856C52.6441 27.9855 48.4736 28.9855 44.3032 29.9854C42.3239 30.4933 40.3176 30.9076 38.2922 31.2268C35.7673 31.5388 33.2217 31.6881 30.6741 31.6737C28.4163 31.7003 26.1583 31.7032 23.9001 31.6824C24.7721 31.5569 25.6471 31.4528 26.5254 31.3701C26.8815 31.3365 27.2663 31.3483 27.6164 31.2991C29.4306 31.1295 31.2541 31.0578 33.0775 31.0845C35.0315 30.9173 36.9722 30.638 38.8883 30.2484C41.9397 29.7891 44.9779 29.2589 48.0081 28.6944C50.9486 28.1465 53.8817 27.5661 56.8146 26.9856Z" fill="url(#paint11_linear_102_9194)"/>
<path d="M129.53 34.4756C126.075 35.6175 122.288 35.4109 118.623 35.1972C117.855 35.133 117.083 35.1273 116.314 35.1802C115.824 35.2347 115.338 35.3123 114.856 35.4126C112.689 35.8687 110.487 36.1717 108.269 36.3192C106.045 36.4656 103.812 36.2045 101.699 35.5511C107.49 36.405 113.459 34.7434 119.324 34.63C120.784 34.6018 122.246 34.663 123.705 34.5955C125.699 34.5031 127.533 34.5005 129.53 34.4756Z" fill="#EB924D"/>
<path d="M99.4614 35.3406C102.626 35.8542 105.841 36.0495 109.052 35.9231C111.117 35.7722 113.148 35.3554 115.207 35.1488C117.65 34.9037 120.114 34.9556 122.571 34.9205C126.984 34.8572 131.386 34.5121 135.746 33.8876C134.526 33.861 133.306 33.8681 132.085 33.9088C131.011 33.9447 129.944 33.8878 128.866 33.9073C126.474 33.9505 124.085 34.0927 121.701 34.2741C119.321 34.4552 116.945 34.6756 114.567 34.8769C112.193 35.0779 109.817 35.2601 107.435 35.3645C105.052 35.469 102.663 35.4953 100.28 35.3843C100.01 35.3716 99.729 35.375 99.4614 35.3406Z" fill="url(#paint12_linear_102_9194)"/>
<defs>
<linearGradient id="paint0_linear_102_9194" x1="104.631" y1="-59.6858" x2="84.7507" y2="-1.37292" gradientUnits="userSpaceOnUse">
<stop stop-color="#CF5C2B"/>
<stop offset="1" stop-color="#59173E"/>
</linearGradient>
<linearGradient id="paint1_linear_102_9194" x1="80.8306" y1="-16.849" x2="62.204" y2="90.2281" gradientUnits="userSpaceOnUse">
<stop stop-color="#CF5C2B"/>
<stop offset="1" stop-color="#59173E"/>
</linearGradient>
<linearGradient id="paint2_linear_102_9194" x1="79.7158" y1="-15.2128" x2="55.3805" y2="120.244" gradientUnits="userSpaceOnUse">
<stop stop-color="#CF5C2B"/>
<stop offset="1" stop-color="#59173E"/>
</linearGradient>
<linearGradient id="paint3_linear_102_9194" x1="103.845" y1="22.394" x2="97.6711" y2="40.3833" gradientUnits="userSpaceOnUse">
<stop stop-color="#CF5C2B"/>
<stop offset="1" stop-color="#59173E"/>
</linearGradient>
<linearGradient id="paint4_linear_102_9194" x1="118.922" y1="-8.71301" x2="74.5737" y2="103.451" gradientUnits="userSpaceOnUse">
<stop stop-color="#CF5C2B"/>
<stop offset="1" stop-color="#59173E"/>
</linearGradient>
<linearGradient id="paint5_linear_102_9194" x1="35.1323" y1="1.17728" x2="31.8659" y2="10.695" gradientUnits="userSpaceOnUse">
<stop stop-color="#CF5C2B"/>
<stop offset="1" stop-color="#59173E"/>
</linearGradient>
<linearGradient id="paint6_linear_102_9194" x1="52.383" y1="-35.0221" x2="8.03402" y2="77.143" gradientUnits="userSpaceOnUse">
<stop stop-color="#CF5C2B"/>
<stop offset="1" stop-color="#59173E"/>
</linearGradient>
<linearGradient id="paint7_linear_102_9194" x1="21.5217" y1="2.36601" x2="16.4105" y2="17.2589" gradientUnits="userSpaceOnUse">
<stop stop-color="#CF5C2B"/>
<stop offset="1" stop-color="#59173E"/>
</linearGradient>
<linearGradient id="paint8_linear_102_9194" x1="41.4922" y1="-39.3283" x2="-2.8564" y2="72.8358" gradientUnits="userSpaceOnUse">
<stop stop-color="#CF5C2B"/>
<stop offset="1" stop-color="#59173E"/>
</linearGradient>
<linearGradient id="paint9_linear_102_9194" x1="96.1774" y1="-21.466" x2="85.6172" y2="0.305028" gradientUnits="userSpaceOnUse">
<stop stop-color="#CF5C2B"/>
<stop offset="1" stop-color="#59173E"/>
</linearGradient>
<linearGradient id="paint10_linear_102_9194" x1="58.1328" y1="-47.071" x2="42.6123" y2="-5.30844" gradientUnits="userSpaceOnUse">
<stop stop-color="#CF5C2B"/>
<stop offset="1" stop-color="#59173E"/>
</linearGradient>
<linearGradient id="paint11_linear_102_9194" x1="71.8408" y1="-41.9761" x2="56.3204" y2="-0.213662" gradientUnits="userSpaceOnUse">
<stop stop-color="#CF5C2B"/>
<stop offset="1" stop-color="#59173E"/>
</linearGradient>
<linearGradient id="paint12_linear_102_9194" x1="141.704" y1="-16.0001" x2="125.101" y2="25.4242" gradientUnits="userSpaceOnUse">
<stop stop-color="#CF5C2B"/>
<stop offset="1" stop-color="#59173E"/>
</linearGradient>
</defs>
</svg>
