<?xml version="1.0" standalone="no"?>
<!DOCTYPE svg PUBLIC "-//W3C//DTD SVG 20010904//EN"
 "http://www.w3.org/TR/2001/REC-SVG-20010904/DTD/svg10.dtd">
<svg version="1.0" xmlns="http://www.w3.org/2000/svg"
 width="972.000000pt" height="230.000000pt" viewBox="0 0 972.000000 230.000000"
 preserveAspectRatio="xMidYMid meet">

<g transform="translate(0.000000,230.000000) scale(0.100000,-0.100000)"
fill="#000000" stroke="none">
<path d="M6578 2260 c-15 -4 -41 -18 -58 -30 -26 -18 -30 -27 -26 -49 6 -24 5
-24 -8 -8 -12 15 -15 15 -26 2 -7 -8 -18 -32 -26 -52 -7 -23 -18 -36 -26 -34
-7 2 -35 6 -62 9 -46 5 -48 4 -37 -16 17 -32 13 -37 -8 -11 -19 23 -21 23 -47
9 -34 -18 -43 -40 -17 -40 31 0 116 -47 153 -85 19 -20 53 -70 75 -113 34 -66
45 -79 79 -91 29 -11 47 -12 77 -4 21 6 39 6 39 2 0 -5 10 -9 23 -9 12 0 33
-7 45 -16 12 -8 22 -12 22 -7 0 4 11 -14 24 -40 l24 -48 11 32 c41 118 -37
210 -166 195 l-53 -6 -1 67 c-2 100 -1 98 -29 96 -23 -2 -22 -1 6 12 21 9 33
23 37 42 12 58 99 123 165 123 l25 0 -24 26 c-34 37 -86 59 -105 43 -10 -8
-14 -8 -14 0 0 13 -32 13 -72 1z"/>
<path d="M5964 2012 c-28 -10 -63 -26 -78 -35 -35 -23 -81 -88 -113 -159 -28
-64 -48 -79 -135 -105 -43 -12 -49 -17 -45 -36 3 -12 11 -50 18 -84 12 -58 15
-63 43 -68 55 -11 66 -16 66 -30 0 -20 62 -83 96 -95 47 -19 265 -13 394 9 63
11 142 23 175 27 85 10 105 19 105 48 0 21 6 26 38 31 71 12 70 12 87 91 10
41 15 80 12 87 -3 7 -27 18 -54 25 -72 19 -90 35 -130 119 -41 87 -81 130
-149 163 -68 33 -253 40 -330 12z"/>
<path d="M6431 1373 c-35 -21 -45 -23 -52 -12 -7 11 -36 9 -170 -14 -89 -15
-166 -30 -171 -33 -5 -4 -7 -13 -3 -21 11 -31 -130 -6 -247 42 -14 6 -18 2
-18 -18 0 -22 8 -29 55 -46 30 -11 94 -26 142 -32 85 -12 89 -13 114 -49 47
-65 133 -88 205 -54 41 20 71 59 87 116 11 36 21 48 65 73 47 28 65 56 44 69
-5 3 -28 -7 -51 -21z"/>
</g>
</svg>
