<svg width="515" height="173" viewBox="0 0 515 173" fill="none" xmlns="http://www.w3.org/2000/svg">
<g style="mix-blend-mode:multiply">
<path d="M505.693 67.7552C501.83 63.4848 497.573 59.5277 492.969 55.9281C490.841 54.1651 488.713 52.4022 486.585 50.6393C482.493 47.2488 478.401 43.8585 474.308 40.4684C472.6 38.734 470.657 37.2068 468.527 35.9237C466.59 34.8876 464.789 33.6501 463.16 32.2356C455.141 26.1481 446.784 20.4453 438.122 15.1502C431.428 10.6516 423.923 7.26859 415.951 5.15577C412.388 4.4499 408.777 3.96848 405.142 3.71493C399.926 3.24138 394.71 2.76771 389.493 2.29386L381.586 1.57563C380.545 1.50466 379.513 1.3448 378.505 1.09817C376.793 0.646186 375.073 1.30871 373.316 1.08054C369.98 0.765858 366.626 0.643455 363.274 0.714074C359.601 0.665 355.928 0.61851 352.255 0.574634C337.598 0.398975 322.941 0.263673 308.283 0.168735C293.681 0.0742551 279.078 0.0206164 264.475 0.00777451C249.928 -0.00483804 235.381 0.0238058 220.834 0.0937481C206.343 0.16369 191.852 0.275375 177.361 0.42879C162.925 0.581975 148.491 0.777504 134.056 1.01538C119.678 1.25273 105.3 1.53283 90.9228 1.85563C76.6011 2.17759 62.2808 2.54288 47.9616 2.95152C40.466 3.16571 32.9708 3.39189 25.4762 3.63007C24.8545 3.60433 24.2317 3.63985 23.6184 3.73603C22.9867 3.88898 22.3631 4.11623 21.7467 4.31482C20.4699 4.71627 19.2177 5.18087 17.9956 5.70656C15.574 6.67689 13.4653 8.20246 11.8721 10.1366C10.9963 11.2806 10.3874 12.571 9.57185 13.749C9.10818 14.2855 8.67499 14.8434 8.27391 15.4207C6.73977 18.4904 4.87961 21.414 2.72037 24.1489C0.633636 27.0818 -0.296965 30.5814 0.0831566 34.0665C0.422858 38.4075 0.536832 42.7987 0.956992 47.1228C1.6281 54.0305 1.01319 60.9479 1.82877 67.8949C1.76436 68.3199 1.79733 68.7526 1.92549 69.1653C2.05365 69.578 2.27419 69.9616 2.57308 70.2917C2.87198 70.6217 3.24262 70.8909 3.66133 71.0821C4.08005 71.2733 4.53767 71.3823 5.00489 71.4021L12.1531 72.8337C9.20522 74.5867 4.80615 74.7192 3.25226 77.6098C2.81862 78.5714 2.59246 79.6012 2.58636 80.6418C2.30617 84.3398 1.928 88.0307 1.6563 91.7292C1.53433 93.3908 1.43386 95.0541 1.37362 96.7185C1.31588 98.3104 1.17045 99.8271 1.00749 101.408C0.628819 105.077 -0.391962 109.87 0.833498 113.459C2.01849 116.929 6.7367 117.074 10.0045 117.916C9.16083 118.095 8.36664 118.432 7.67162 118.906C6.97661 119.381 6.39573 119.981 5.96537 120.671C5.46048 121.321 5.10207 122.019 4.62068 122.684C4.19855 123.268 3.81111 123.872 3.45996 124.494C2.75752 125.74 2.19911 127.05 1.79383 128.402C1.52384 129.234 1.36508 130.093 1.32114 130.96C1.28017 131.799 1.24258 132.639 1.2084 133.479C1.13992 135.159 1.08543 136.839 1.04494 138.519C0.963707 141.879 0.937803 145.24 0.967213 148.601C0.995957 151.852 0.157913 155.009 1.66431 158.218C2.99732 161.107 5.19521 163.589 8.00328 165.379C10.8113 167.168 14.1146 168.19 17.5302 168.327C53.1085 170.121 88.7983 170.863 124.417 171.632C160.669 172.415 196.927 172.861 233.191 172.971C269.717 173.084 306.243 172.866 342.767 172.317C355.118 172.157 367.468 171.482 379.771 172.211C391.105 172.797 402.469 172.689 413.788 171.886C423.625 171.26 432.414 171.278 440.164 164.766C457.261 150.398 475.318 137.013 492.415 122.674C497.138 118.898 501.475 114.733 505.372 110.233C509.471 105.657 512.486 100.346 514.222 94.6413C514.969 92.1244 515.18 89.4993 514.846 86.9089C514.643 85.8313 514.325 84.7747 513.896 83.7544C513.411 82.8806 513.045 81.9555 512.806 80.9998C512.497 79.0843 511.844 77.2289 510.874 75.509C509.493 72.7425 507.754 70.1391 505.693 67.7552Z" fill="url(#paint0_linear_102_8791)"/>
<path d="M512.103 92.0122C511.662 92.7501 511.195 93.4642 510.78 94.1306C510.624 94.3687 510.469 94.6306 510.313 94.8447C510.1 95.1083 509.836 95.334 509.535 95.5111C508.876 95.7805 508.144 95.8634 507.433 95.7492C507.355 95.7531 507.276 95.745 507.2 95.7253C495.94 94.8447 484.37 92.1073 473.578 95.1779C476.544 96.1968 479.673 96.7597 482.839 96.8439C491.037 97.4629 499.209 98.1057 507.381 98.7244C507.304 98.7957 507.226 98.8434 507.148 98.9147C506.292 99.6527 505.436 100.367 504.58 101.081C503.127 102.295 501.907 103.771 500.507 105.056C498.431 106.936 496.252 108.745 494.099 110.53C493.502 111.03 492.905 111.53 492.257 112.054C491.634 112.577 490.986 113.101 490.363 113.601C484.837 118.218 479.259 122.788 473.604 127.239C471.762 128.715 469.894 130.167 468.026 131.571C466.054 133.118 464.057 134.618 462.033 136.093C452.078 143.573 441.534 150.367 430.487 156.42L429.319 157.063C428.587 157.5 427.804 157.859 426.984 158.134C426.61 158.212 426.227 158.251 425.843 158.253H425.454C424.753 158.229 424.053 158.229 423.352 158.229C417.567 158.158 411.704 158.515 405.919 158.681C397.15 158.872 388.39 159.062 379.638 159.253C369.495 159.467 359.351 159.641 349.207 159.776C340.153 159.895 331.091 160.006 322.019 160.11C314.288 160.181 306.557 160.252 298.852 160.276C293.923 160.324 288.968 160.348 284.013 160.371C275.919 160.419 267.824 160.419 259.756 160.419C255.087 160.419 250.417 160.419 245.747 160.395H240.143C237.342 160.395 234.54 160.371 231.738 160.348C230.622 160.348 229.533 160.348 228.443 160.324C220.167 160.3 211.943 160.229 203.694 160.157C200.892 160.133 198.116 160.11 195.314 160.062C189.633 160.014 183.951 159.943 178.27 159.848C174.897 159.824 171.524 159.776 168.126 159.705C159.461 159.586 150.848 159.419 142.209 159.253C138.759 159.205 135.334 159.134 131.884 159.062C127.551 158.967 123.193 158.872 118.86 158.729C115.021 158.658 111.207 158.562 107.368 158.467C99.0401 158.253 90.7211 158.015 82.4107 157.753C80.958 157.73 79.505 157.682 78.0521 157.634C76.2102 157.587 74.3424 157.515 72.5005 157.444C66.5076 157.253 60.5321 157.055 54.5739 156.849C51.9018 156.754 49.2295 156.658 46.5576 156.539C39.5529 156.206 32.4964 155.754 25.4919 155.754C22.0387 155.621 18.6998 154.581 15.8716 152.758C13.0434 150.936 10.8448 148.406 9.53687 145.471C8.47265 142.917 8.05573 140.174 8.31765 137.45C8.33174 136.967 8.4101 136.488 8.55106 136.022C8.8473 135.326 9.08161 134.61 9.25167 133.88C9.40739 132.952 9.48515 131.999 9.56288 131.047C9.64062 130.143 9.7186 129.215 9.77059 128.286C9.82233 127.572 9.90031 126.858 9.95205 126.144C10.0265 125.217 10.1652 124.295 10.3672 123.383C10.4192 123.074 10.5229 122.764 10.6006 122.479C10.6784 122.241 10.7563 122.003 10.8601 121.765C11.0056 121.347 11.2059 120.948 11.4567 120.575C11.6341 120.273 11.852 119.993 12.1053 119.741C12.348 119.488 12.6174 119.257 12.9094 119.051C18.0463 115.529 28.0602 115.576 35.5318 115.433C36.9847 115.386 38.3334 115.362 39.5529 115.291C42.7957 115.1 46.0388 115.029 49.3076 115.053C41.6023 115.03 33.9129 114.409 26.322 113.196C22.716 112.649 19.1358 111.935 15.6076 111.101C14.7231 110.914 13.8623 110.643 13.0391 110.292C11.9253 109.904 11.0095 109.149 10.4709 108.174C10.1309 107.305 10.0068 106.378 10.1077 105.46C10.1335 104.58 10.0041 103.675 10.0558 102.795C10.1335 100.914 10.3932 99.0814 10.6006 97.2248C10.8081 95.7253 10.9898 94.2019 11.0935 92.6786C11.353 88.6322 11.6385 84.6097 11.9756 80.5872C11.9281 79.3596 12.3503 78.1555 13.1691 77.1835C13.751 76.7071 14.4427 76.3573 15.1924 76.1601C17.1597 75.4908 19.1926 74.9965 21.2631 74.6844C22.2231 74.5176 23.2607 74.5177 24.1947 74.2799C25.2137 73.9653 26.2658 73.7498 27.3338 73.6371C38.6968 72.4233 50.0512 71.2095 61.3967 69.9955C62.7459 69.8527 64.1208 69.71 65.4698 69.5672C48.3475 67.6629 31.2252 65.7112 14.1029 63.8069C13.3506 63.7117 12.5982 63.6404 11.8459 63.5452C11.1122 63.5526 10.4046 63.2963 9.87433 62.8311C9.58094 62.395 9.42797 61.8917 9.43314 61.3793C8.6548 52.8818 9.53685 44.1228 9.01796 35.5541C8.99196 35.316 8.96625 34.6019 8.88852 33.6023C8.86252 33.1024 8.83654 32.5312 8.78478 31.9125C8.78478 31.6981 8.78476 31.4364 8.75877 31.1981C8.73277 30.8175 8.70681 30.4366 8.68081 30.0318V29.9369C8.65482 29.5322 8.62891 29.1275 8.60309 28.7229C8.57709 28.2945 8.55105 27.8898 8.52505 27.4614C8.44732 26.0809 8.3436 24.7242 8.26586 23.6769C8.23987 23.3197 8.2139 23.0103 8.18791 22.7248C8.18791 22.6058 8.1622 22.4629 8.1622 22.3678C8.13621 22.0584 8.11022 21.844 8.08425 21.7014C8.05823 21.5823 8.05822 21.511 8.03222 21.511C7.85187 19.2761 8.16494 17.0307 8.95274 14.9093C9.74055 12.788 10.9869 10.8343 12.617 9.16533C14.2472 7.49634 16.2277 6.14636 18.44 5.1962C20.6523 4.24604 23.0508 3.71525 25.4919 3.63562C30.7843 3.46914 36.0767 3.31042 41.369 3.15953C48.2698 2.94535 55.1446 2.75501 62.0453 2.5883C84.2525 1.9696 106.52 1.47772 128.848 1.11265L146.438 0.827151C169.683 0.469872 193.005 0.231744 216.406 0.112804C222.451 0.0891838 228.521 0.0653405 234.566 0.0414913C241.804 0.0176422 249.051 0.00967753 256.306 0.0176273C270.315 0.0176273 284.376 0.0414854 298.411 0.112804C299.786 0.112804 301.135 0.136668 302.51 0.136668C314.781 0.208215 327.052 0.303467 339.323 0.422407C348.118 0.517574 356.921 0.628628 365.733 0.755594C373.049 0.850761 380.374 0.961815 387.707 1.08878C391.676 1.1601 395.593 1.27934 399.563 1.30296C400.289 1.32681 401.015 1.32683 401.742 1.32683C402.442 1.32683 403.143 1.32681 403.843 1.30296H403.869C405.322 1.30296 406.775 1.2555 408.227 1.18396C408.643 1.18396 409.032 1.16009 409.447 1.13647C411.223 1.01765 413.009 1.15415 414.739 1.54101C414.793 1.53723 414.846 1.54544 414.895 1.56487C417.744 2.34677 420.472 3.45849 423.015 4.87323C423.274 5.0161 423.56 5.13514 423.819 5.27801C445.451 16.1682 465.36 29.7176 482.995 45.5508C483.644 46.122 484.292 46.7171 484.915 47.2883C491.012 52.8819 496.797 58.7133 502.582 64.521C503.542 65.497 504.502 66.4727 505.436 67.4725C507.578 69.6689 509.481 72.0525 511.117 74.5892C512.273 76.3706 513.147 78.2941 513.711 80.3016C513.971 81.2537 514.075 82.2535 514.36 83.2057C514.634 84.7376 514.576 86.3041 514.188 87.8153C513.801 89.3265 513.092 90.7527 512.103 92.0122Z" fill="url(#paint1_linear_102_8791)"/>
<path d="M502.582 64.5198C496.796 58.7121 491.011 52.8807 484.915 47.2872C484.292 46.7159 483.644 46.1208 482.995 45.5496C461.41 45.3354 439.826 44.4071 418.267 43.0028C368.846 39.7896 319.529 35.5529 270.107 32.1014C220.712 28.6504 171.291 25.7465 121.74 25.5323C96.7309 25.4369 71.8258 26.151 46.9204 27.8411C34.2086 28.6979 21.3927 28.9598 8.68066 29.9594C8.83641 32.6729 8.96607 35.0768 9.01781 35.5529C9.5367 44.1216 8.65466 52.8807 9.43299 61.3781C9.42782 61.8905 9.58079 62.3939 9.87418 62.8299C9.90017 62.8538 9.9262 62.9013 9.97792 62.9251C20.5862 64.1548 31.2735 64.7193 41.9655 64.6149C66.8966 64.8055 91.7757 63.5202 116.707 63.6392C123.271 63.6866 129.852 63.7659 136.449 63.8772C139.718 63.9486 143.013 64.0201 146.308 64.0914C148.214 64.0037 150.125 64.0834 152.015 64.3295C154.397 64.699 156.82 64.7948 159.227 64.6149C164.649 64.4961 170.046 64.0201 175.468 63.5915C180.552 63.1631 185.637 62.7823 190.748 62.7346C210.179 62.5442 229.325 67.257 248.756 67.495C253.963 67.3313 259.176 67.5382 264.348 68.1139C267.383 68.6138 270.315 69.4705 273.324 70.1372C278.419 71.2936 283.642 71.9085 288.89 71.9697C291.532 72.0331 294.176 71.9298 296.803 71.6603C299.379 71.5059 301.966 71.5537 304.534 71.8032C315.534 72.3269 326.542 72.7713 337.559 73.1362C346.198 73.4217 354.837 73.628 363.476 73.7549C323.757 76.9207 284.039 79.9753 244.32 82.9187C223.929 84.4182 203.46 86.0607 182.965 86.0607C160.836 86.0607 138.706 83.6567 116.499 84.7753C96.8867 85.7749 77.0922 87.2983 57.6349 89.8451C42.4844 91.8446 26.3478 96.0337 10.6005 97.2237C10.393 99.0802 10.1334 100.913 10.0556 102.793C10.0039 103.674 10.1333 104.578 10.1076 105.459C10.0067 106.377 10.1308 107.304 10.4707 108.173C11.0093 109.147 11.9252 109.903 13.0389 110.291C13.8621 110.642 14.723 110.913 15.6074 111.1C19.1356 111.933 22.7159 112.647 26.3218 113.195C32.2888 112.981 38.2556 112.624 44.0928 111.957C61.2931 110.029 80.2312 109.363 97.7687 106.126L108.82 105.483C129.159 103.84 149.365 101.026 169.319 97.0572C182.187 94.7243 195.21 92.987 208.234 91.5826C209.92 91.3923 211.502 90.9637 213.163 90.8447C214.512 90.7257 215.887 90.6305 217.236 90.5354C222.684 90.1545 228.14 89.845 233.606 89.607C244.502 89.131 255.449 88.9168 266.372 88.8216C277.32 88.7265 288.241 88.774 299.19 88.774C310.137 88.7978 321.059 88.774 332.007 88.6075C342.929 88.4646 353.877 88.1314 364.773 87.5125C368.223 87.3221 371.648 87.0841 375.073 86.8461C365.921 84.8933 356.639 83.4938 347.287 82.6569C364.462 81.3238 381.55 79.3562 398.551 76.754C409.136 75.1116 419.694 73.2552 430.383 72.1364C435.714 71.5617 441.074 71.236 446.441 71.1606C449.113 71.1129 451.786 71.1606 454.458 71.3271C456.888 71.6553 459.343 71.8066 461.799 71.7796C463.512 71.589 465.094 70.9701 466.832 70.8274C469.557 70.613 472.281 70.4227 475.03 70.2085C480.479 69.7801 485.935 69.304 491.4 68.7803C492.853 68.6376 494.332 68.4948 495.811 68.3281C498.976 67.9949 502.193 67.733 505.436 67.4713C504.502 66.4715 503.542 65.4958 502.582 64.5198ZM468.649 102.412C441.42 100.909 414.121 100.774 386.876 102.008C381.195 102.222 375.643 102.341 370.014 102.984C367.315 103.317 364.591 103.626 361.868 103.912C350.997 105.102 340.101 106.07 329.179 106.816C324.925 107.125 320.67 107.387 316.415 107.625C327.441 107.554 338.476 107.482 349.519 107.411C360.544 107.34 371.579 107.26 382.622 107.173C388.148 107.149 393.674 107.101 399.173 107.078C401.949 107.054 404.699 107.03 407.449 107.006C408.62 107.07 409.794 107.014 410.951 106.84C411.652 106.697 412.326 106.435 413.027 106.34C415.606 106.194 418.195 106.273 420.758 106.578C423.482 106.721 426.232 106.864 428.956 107.006C434.43 107.316 439.904 107.665 445.378 108.053C453.991 108.649 462.604 109.315 471.217 110.005C478.247 110.601 485.26 111.283 492.256 112.052L492.308 112.005C492.905 111.529 493.502 111.029 494.099 110.529C496.252 108.744 498.431 106.935 500.506 105.054C489.922 104.031 479.311 103.079 468.649 102.412ZM288.605 122.406C240.247 121.525 191.993 118.979 143.61 119.145C118.108 119.217 92.632 119.598 67.1821 120.288C48.3994 120.788 29.3572 120.692 10.6005 122.478C10.2669 123.68 10.0498 124.906 9.95191 126.143C9.74445 128.309 9.66648 130.523 9.40728 132.689C30.2913 133.474 51.4348 132.165 72.2667 132.117C97.7428 132.07 123.219 132.316 148.695 132.855C196.974 133.903 245.202 136.354 293.482 137.139C342.592 137.949 391.624 134.712 440.63 132.451C449.736 132.022 458.868 131.76 468.026 131.57C469.894 130.166 471.762 128.714 473.604 127.238C479.259 122.787 484.837 118.217 490.363 113.6C472.125 115.218 453.861 116.765 435.571 117.693C386.617 120.169 337.637 123.287 288.605 122.406Z" fill="url(#paint2_linear_102_8791)"/>
<path d="M361.692 113.849C351.615 108.679 334.882 110.275 326.906 117.233C325.682 118.339 324.71 119.656 324.047 121.11C323.384 122.563 323.042 124.123 323.042 125.699C323.042 127.274 323.384 128.834 324.047 130.288C324.71 131.741 325.682 133.059 326.906 134.164C338.535 143.765 358.951 139.668 366.324 127.783C366.465 127.666 366.607 127.549 366.747 127.432C372.378 122.764 368.368 115.01 361.692 113.849Z" fill="#EB924D"/>
<path d="M364.081 109.298C354.005 104.128 337.271 105.724 329.295 112.682C328.072 113.788 327.1 115.105 326.437 116.559C325.773 118.012 325.432 119.572 325.432 121.148C325.432 122.723 325.773 124.283 326.437 125.737C327.1 127.19 328.072 128.508 329.295 129.614C340.925 139.214 361.34 135.117 368.714 123.233L369.137 122.881C374.768 118.213 370.758 110.46 364.081 109.298Z" fill="url(#paint3_linear_102_8791)"/>
<path d="M361.692 112.231C351.615 107.061 334.882 108.657 326.906 115.615C325.682 116.721 324.71 118.039 324.047 119.492C323.384 120.945 323.042 122.505 323.042 124.081C323.042 125.657 323.384 127.216 324.047 128.67C324.71 130.123 325.682 131.441 326.906 132.547C338.535 142.147 358.951 138.05 366.324 126.166C366.465 126.049 366.607 125.932 366.747 125.814C372.378 121.146 368.368 113.393 361.692 112.231Z" fill="url(#paint4_linear_102_8791)"/>
<path d="M121.487 20.9698C118.545 19.6567 115.259 19.1283 112.005 19.4448C108.751 19.7613 105.66 20.9101 103.083 22.7601C102.435 23.345 101.921 24.0423 101.57 24.8112C101.219 25.5802 101.039 26.4055 101.039 27.2391C101.039 28.0728 101.219 28.8981 101.57 29.6671C101.921 30.436 102.435 31.1333 103.083 31.7182C109.236 36.7974 120.037 34.6299 123.938 28.3422L124.162 28.1562C124.765 27.5945 125.186 26.89 125.377 26.1215C125.568 25.353 125.522 24.5508 125.244 23.8049C124.967 23.059 124.468 22.3987 123.804 21.8979C123.141 21.3972 122.339 21.0758 121.487 20.9698Z" fill="#EB924D"/>
<path d="M122.751 18.5617C119.808 17.2485 116.523 16.7201 113.269 17.0366C110.015 17.3531 106.923 18.5018 104.346 20.3518C103.699 20.9367 103.185 21.634 102.834 22.4029C102.483 23.1719 102.302 23.9972 102.302 24.8308C102.302 25.6645 102.483 26.4898 102.834 27.2587C103.185 28.0277 103.699 28.7249 104.346 29.3099C110.499 34.3891 121.3 32.2217 125.202 25.9338L125.426 25.7481C126.029 25.1864 126.449 24.4818 126.64 23.7133C126.831 22.9448 126.785 22.1427 126.508 21.3968C126.23 20.6508 125.731 19.9906 125.068 19.4899C124.404 18.9891 123.602 18.6677 122.751 18.5617Z" fill="url(#paint5_linear_102_8791)"/>
<path d="M121.487 20.1133C118.545 18.8002 115.259 18.2718 112.005 18.5884C108.751 18.9049 105.66 20.0536 103.083 21.9036C102.435 22.4886 101.921 23.1858 101.57 23.9548C101.219 24.7237 101.039 25.549 101.039 26.3827C101.039 27.2163 101.219 28.0416 101.57 28.8106C101.921 29.5795 102.435 30.2768 103.083 30.8617C109.236 35.9409 120.037 33.7734 123.938 27.4857L124.162 27.2997C124.765 26.738 125.186 26.0335 125.377 25.265C125.568 24.4965 125.522 23.6944 125.244 22.9484C124.967 22.2025 124.468 21.5422 123.804 21.0415C123.141 20.5408 122.339 20.2194 121.487 20.1133Z" fill="url(#paint6_linear_102_8791)"/>
<path d="M72.098 36.6101C63.7561 32.3298 49.9031 33.6505 43.2998 39.4112C42.2868 40.3265 41.4823 41.4175 40.9332 42.6207C40.3841 43.8239 40.1013 45.1154 40.1013 46.4198C40.1013 47.7242 40.3841 49.0156 40.9332 50.2188C41.4823 51.422 42.2868 52.513 43.2998 53.4283C52.9275 61.3758 69.829 57.9845 75.9332 48.1458L76.2839 47.855C80.9454 43.9903 77.6256 37.5714 72.098 36.6101Z" fill="#EB924D"/>
<path d="M74.0758 32.8423C65.7336 28.5623 51.8807 29.883 45.2773 35.6437C44.2643 36.559 43.4598 37.6499 42.9107 38.8531C42.3616 40.0563 42.0789 41.3477 42.0789 42.6521C42.0789 43.9565 42.3616 45.2479 42.9107 46.4511C43.4598 47.6543 44.2643 48.7453 45.2773 49.6606C54.9052 57.6083 71.8066 54.2169 77.9107 44.378L78.2615 44.0872C82.9232 40.2227 79.6034 33.8036 74.0758 32.8423Z" fill="url(#paint7_linear_102_8791)"/>
<path d="M72.098 35.2702C63.7561 30.99 49.9031 32.3106 43.2998 38.0714C42.2868 38.9866 41.4823 40.0776 40.9332 41.2809C40.3841 42.4841 40.1013 43.7755 40.1013 45.0799C40.1013 46.3843 40.3841 47.6757 40.9332 48.8789C41.4823 50.0822 42.2868 51.1732 43.2998 52.0885C52.9275 60.036 69.829 56.6446 75.9332 46.8059L76.2839 46.5151C80.9454 42.6504 77.6256 36.2315 72.098 35.2702Z" fill="url(#paint8_linear_102_8791)"/>
<path d="M12.4647 105.107C12.3145 106.854 12.5079 108.612 13.0356 110.296C11.9219 109.908 11.0061 109.153 10.4674 108.178C10.1273 107.31 10.0031 106.382 10.1039 105.464C10.1299 104.584 10.0002 103.679 10.0522 102.799C10.2077 99.395 10.8823 96.0625 11.09 92.6828C11.3492 88.6365 11.6346 84.6138 11.9718 80.5913C11.9245 79.3638 12.3467 78.1597 13.1653 77.1878C13.7473 76.7113 14.439 76.3615 15.1888 76.1643C17.1562 75.4949 19.1891 75.0007 21.2596 74.6884C22.2194 74.5219 23.2571 74.5219 24.1909 74.2839C25.21 73.9695 26.2621 73.754 27.3302 73.6411C38.693 72.4273 50.0474 71.2134 61.3932 69.9995C49.2 72.2606 37.0068 74.5139 24.8135 76.7592C22.4375 77.1919 19.2665 77.1735 17.2824 78.6081C16.5304 79.2155 15.8511 79.8946 15.2559 80.634C15.0626 80.8535 13.3667 83.9678 14.0228 83.988C22.9826 84.2618 31.9424 84.5355 40.9023 84.8092C34.264 85.7991 27.6471 86.901 21.0516 88.1148C17.725 88.7268 13.9566 89.6744 12.4857 92.4795C11.6852 94.4095 11.494 96.5075 11.9341 98.5327C12.0395 99.1769 12.2812 99.7846 12.4202 100.421C12.6221 101.977 12.6371 103.548 12.4647 105.107Z" fill="#EB924D"/>
<path d="M452.352 41.4618C451.651 41.4143 450.977 41.3905 450.302 41.3428H453.597C453.182 41.3666 452.767 41.4143 452.352 41.4618Z" fill="#EB924D"/>
<path d="M512.12 92.0051C511.957 92.2763 511.836 92.5672 511.761 92.8691C511.7 93.2893 511.614 93.7061 511.502 94.1173C511.365 94.7203 511 95.2595 510.472 95.6399C509.944 96.0202 509.287 96.2173 508.616 96.1961C507.913 96.1824 507.214 96.0855 506.538 95.9081C506.789 95.2522 507.134 94.6299 507.564 94.0577C507.834 93.5438 508.08 93.0205 508.302 92.4878C508.798 91.2966 509.189 90.071 509.471 88.8226C509.991 86.4243 510.238 83.9831 510.209 81.538C510.415 78.7337 509.623 75.9438 507.952 73.588C504.657 69.6848 498.379 69.5657 492.983 69.8274C488.313 70.0415 483.644 70.2796 479 70.4938C485.771 69.7799 492.559 69.0579 499.365 68.3279C496.615 64.686 493.857 61.0444 491.089 57.4029C488.805 53.7862 485.589 50.738 481.724 48.5248C478.228 47.1642 474.47 46.4601 470.672 46.4541C461.384 45.8829 452.123 45.3352 442.835 44.764C452.865 44.5731 462.861 43.6257 472.721 41.9314C469.505 38.9801 466.158 36.1478 462.734 33.4106C457.856 29.4831 452.772 25.7702 447.531 22.2712C442.291 18.7484 436.868 15.4639 431.317 12.3933C428.541 10.8699 425.713 9.37043 422.859 7.96631C421.484 7.27583 420.006 6.68098 418.683 5.89556C418.311 5.62358 417.901 5.39929 417.463 5.22891C417.123 5.15424 416.775 5.11434 416.426 5.1099C414.583 5.03859 412.742 5.06244 410.9 5.03859C405.426 4.9912 399.943 4.96743 394.452 4.96728C392.74 4.96728 391.001 4.96726 389.263 4.94341H379.275C374.657 4.91957 370.04 4.91959 365.422 4.91959H364.747C357.431 4.89574 350.115 4.89571 342.799 4.87186C339.142 4.87186 335.484 4.87186 331.826 4.84824C330.097 4.96763 328.361 4.94371 326.637 4.77672C325.066 4.24296 323.464 3.79004 321.838 3.42007C320.234 3.38061 318.629 3.46019 317.038 3.65808C313.043 3.96743 309.048 4.30062 305.078 4.70537C303.251 4.70458 301.484 5.30407 300.097 6.39524C299.74 6.86079 299.331 7.29148 298.878 7.68057C298.249 7.94054 297.561 8.06091 296.872 8.03199C296.182 8.00307 295.51 7.82566 294.909 7.51409C292.311 6.67936 289.591 6.20601 286.841 6.10975C284.35 6.01458 281.911 6.4191 279.421 6.27623C277.883 6.13302 276.358 5.8945 274.855 5.56234C268.747 4.70039 262.587 4.18368 256.41 4.01513C251.896 3.70555 247.356 3.49159 242.842 3.34872C228.21 2.87265 213.552 3.11046 198.92 3.6817C191.604 3.96743 184.288 4.31655 176.973 4.72902C173.526 5.15622 170.044 5.29964 166.57 5.1576C165.609 5.03858 164.727 4.68154 163.768 4.51505C162.772 4.38038 161.763 4.34051 160.758 4.39605C156.685 4.41967 152.612 4.44351 148.565 4.46736C143.817 4.49121 139.044 4.46736 134.27 4.46736C132.662 4.46736 131.105 4.77672 129.549 4.77672C128.096 4.77672 126.669 4.49119 125.242 4.49119C122.217 4.51555 119.224 5.06474 116.422 6.10975C115.388 6.61017 114.243 6.88697 113.075 6.91899C110.948 6.82359 109.469 4.96725 107.549 4.13414C102.958 2.11085 98.2357 5.94303 93.54 4.39605C91.2127 3.79763 88.7919 3.56418 86.3798 3.70556C83.2407 3.68171 80.1017 3.6817 76.9886 3.6817C66.3779 3.7294 55.7672 4.06261 45.2084 5.03859C39.9421 5.53851 34.7017 6.18106 29.4871 7.03803C26.9706 7.44255 24.4022 8.13279 21.86 8.39468C21.1284 8.38761 20.4093 8.569 19.7845 8.91822C16.6714 10.9415 8.08418 22.1047 14.2066 26.0557C16.3553 27.1236 18.8085 27.5638 21.2374 27.3172C36.855 27.103 52.4812 26.9047 68.116 26.7223C51.2531 27.9597 34.3816 29.1895 17.5014 30.4116C16.4007 30.4204 15.3141 30.6392 14.3106 31.0541C11.0676 32.6727 12.1833 36.4333 11.7421 39.1468C11.41 42.8098 11.5844 46.4966 12.261 50.1195C12.7539 54.6896 13.3506 59.2595 14.1029 63.8055C13.3506 63.7103 12.5982 63.639 11.8459 63.5438C11.1122 63.5512 10.4046 63.2949 9.87433 62.8297C9.58094 62.3937 9.42797 61.8903 9.43314 61.3779C8.6548 52.8805 9.53685 44.1214 9.01796 35.5527C8.99196 35.3147 8.96625 34.6005 8.88852 33.6009C8.86252 33.101 8.83654 32.5298 8.78478 31.9111C8.78478 31.6967 8.78476 31.435 8.75877 31.1968C8.73277 30.8161 8.70681 30.4352 8.68081 30.0305V29.9355C8.65482 29.5308 8.62891 29.1261 8.60309 28.7215C8.57709 28.2931 8.55105 27.8884 8.52505 27.46C8.44732 26.0795 8.3436 24.7229 8.26586 23.6756C8.23987 23.3183 8.2139 23.0089 8.18791 22.7234C8.18791 22.6044 8.1622 22.4616 8.1622 22.3664C8.13621 22.057 8.11021 21.8426 8.08425 21.7C8.05823 21.581 8.05822 21.5097 8.03222 21.5097C7.85187 19.2747 8.16494 17.0293 8.95274 14.908C9.74055 12.7866 10.9869 10.833 12.617 9.16396C14.2472 7.49497 16.2277 6.14499 18.44 5.19483C20.6523 4.24466 23.0508 3.71388 25.4919 3.63425C30.7843 3.46776 36.0767 3.30905 41.369 3.15816C48.2698 2.94397 55.1445 2.75364 62.0453 2.58693C84.2525 1.96822 106.52 1.47635 128.848 1.11127L146.438 0.825778C169.683 0.468499 193.005 0.230371 216.406 0.111431C222.451 0.0878108 228.521 0.0639675 234.566 0.0401184C255.787 -0.0311998 277.069 -0.00743304 298.411 0.111431C299.786 0.111431 301.135 0.135295 302.51 0.135295C314.781 0.206842 327.052 0.302094 339.323 0.421034C348.118 0.516201 356.921 0.627255 365.733 0.754221C373.049 0.849388 380.374 0.960442 387.707 1.08741C391.053 1.13511 394.4 1.18259 397.747 1.25414C398.353 1.23432 398.959 1.25016 399.563 1.30159L400.03 1.37315C400.482 1.50778 400.955 1.57213 401.431 1.5635C402.235 1.5158 403.039 1.39699 403.869 1.30159C404.665 1.16907 405.473 1.09743 406.282 1.08741C406.93 1.08741 407.579 1.13512 408.227 1.18258C408.668 1.20643 409.136 1.25412 409.603 1.27797C411.315 1.42061 413.027 1.51579 414.739 1.53964C414.792 1.53586 414.846 1.54406 414.895 1.5635C417.744 2.3454 420.472 3.45712 423.015 4.87186C423.274 5.01472 423.56 5.13377 423.819 5.27664C445.451 16.1668 465.36 29.7162 482.995 45.5494C483.644 46.1206 484.292 46.7157 484.915 47.2869C491.012 52.8805 496.797 58.7119 502.582 64.5196C503.542 65.4956 504.502 66.4713 505.436 67.4711C507.578 69.6675 509.481 72.0511 511.117 74.5878C512.273 76.3693 513.147 78.2927 513.711 80.3002C513.971 81.2523 514.075 82.2521 514.36 83.2043C514.922 86.0192 514.274 88.9245 512.552 91.3105C512.404 91.5488 512.253 91.7737 512.12 92.0051Z" fill="#EB924D"/>
<path d="M507.146 98.9137C506.29 99.6516 505.433 100.366 504.577 101.08C503.124 102.294 501.905 103.769 500.504 105.055C498.429 106.935 496.249 108.744 494.096 110.529C493.499 111.029 492.903 111.529 492.254 112.052C491.632 112.576 490.983 113.1 490.361 113.6C484.835 118.217 479.257 122.787 473.602 127.238C471.759 128.714 469.892 130.166 468.024 131.57C466.052 133.117 464.054 134.617 462.031 136.092C452.076 143.572 441.531 150.366 430.484 156.419L429.317 157.062C428.585 157.499 427.802 157.858 426.982 158.133C426.607 158.211 426.225 158.25 425.841 158.252H425.451C425.396 158.222 425.334 158.206 425.27 158.205C424.631 158.153 423.987 158.161 423.35 158.228C417.539 158.395 411.728 158.545 405.916 158.68C397.148 158.871 388.387 159.061 379.636 159.252C360.386 159.609 341.18 159.894 322.017 160.109C314.286 160.18 306.555 160.251 298.85 160.275C293.921 160.323 288.966 160.347 284.011 160.37C275.916 160.418 267.822 160.418 259.754 160.418C255.084 160.418 250.414 160.418 245.745 160.394C241.049 160.394 236.379 160.37 231.736 160.347C230.62 160.347 229.53 160.347 228.441 160.323C220.165 160.299 211.941 160.228 203.692 160.156C200.89 160.132 198.114 160.109 195.312 160.061C189.63 160.013 183.949 159.942 178.267 159.847C174.895 159.823 171.522 159.775 168.124 159.704C159.459 159.585 150.846 159.418 142.207 159.252C134.424 159.109 126.641 158.918 118.858 158.728C115.018 158.657 111.205 158.561 107.366 158.466C99.0378 158.252 90.7188 158.014 82.4085 157.752C79.1136 157.657 75.7928 157.538 72.4983 157.443C66.5053 157.252 60.5298 157.054 54.5717 156.848C51.8995 156.752 49.2273 156.657 46.5554 156.538C39.5246 156.3 32.5027 156.038 25.4897 155.753C22.0365 155.619 18.6975 154.58 15.8693 152.757C13.0411 150.934 10.8425 148.405 9.53462 145.47C8.4704 142.916 8.05348 140.173 8.3154 137.449C8.32949 136.966 8.40785 136.486 8.54881 136.021C8.84504 135.325 9.07935 134.609 9.24942 133.879C9.40514 132.951 9.4829 131.998 9.56063 131.046C9.66436 130.142 9.71635 129.214 9.76834 128.285C9.82007 127.571 9.89806 126.857 9.9498 126.143C10.0243 125.216 10.1629 124.293 10.365 123.382C10.417 123.073 10.5207 122.763 10.5984 122.478C10.6761 122.24 10.7541 122.002 10.8578 121.764C11.0033 121.346 11.2037 120.947 11.4544 120.573C11.6318 120.272 11.8497 119.992 12.103 119.74C12.3458 119.487 12.6151 119.255 12.9072 119.05C18.044 115.528 28.0579 115.575 35.5295 115.432C41.626 115.504 47.6969 115.551 53.8971 115.861C52.0812 115.861 50.4728 116.646 48.7344 116.789C46.3477 117.003 43.909 117.051 41.5225 117.17C36.7748 117.432 32.0273 117.693 27.3055 117.955C23.9989 117.999 20.7121 118.431 17.5251 119.241C16.3117 119.526 15.202 120.101 14.3084 120.907C13.4451 121.876 12.8647 123.031 12.622 124.263C11.7326 126.698 11.3627 129.268 11.5324 131.832C11.6621 132.546 11.9473 133.236 12.0513 133.974C12.1203 134.767 12.1116 135.563 12.0253 136.354C11.7965 139.054 12.2493 141.767 13.3483 144.28C16.2539 150.231 23.8552 152.825 30.8337 154.015C39.3689 155.443 46.5553 156.8 55.1682 155.729L92.9152 156.086C100.283 156.157 107.625 156.253 114.993 156.276C116.212 156.3 117.353 155.943 118.547 155.919C120.311 155.919 122.153 156.205 123.917 156.324C127.523 156.586 131.155 156.752 134.787 156.872C143.659 157.133 152.558 157.014 161.43 156.491C163.493 156.169 165.603 156.193 167.657 156.562C170.657 157.21 173.733 157.514 176.815 157.467C184.104 157.776 191.42 157.8 198.71 157.586C200.474 157.538 202.213 157.467 203.977 157.371C206.784 157.374 209.572 156.948 212.227 156.11C213.576 155.634 214.847 154.944 216.248 154.587C220.191 153.587 224.264 155.419 228.13 156.752C233.137 158.442 238.61 157.633 243.851 157.966C250.88 158.625 257.962 158.641 264.995 158.014C265.072 158.014 265.124 157.99 265.202 157.99C268.58 157.64 271.879 156.813 274.983 155.539C276.489 154.67 278.193 154.132 279.964 153.968C282.076 154.303 284.059 155.131 285.723 156.372C291.508 159.537 298.668 159.466 305.362 158.799C311.038 157.889 316.805 157.546 322.562 157.776C324.949 157.99 327.232 157.681 329.644 157.705C332.602 157.705 335.585 157.728 338.569 157.728C341.761 157.744 344.954 157.758 348.147 157.771C355.488 157.799 362.829 157.806 370.17 157.793C377.51 157.773 384.85 157.712 392.189 157.609C395.858 157.555 399.526 157.485 403.193 157.401C405.027 157.358 406.86 157.311 408.693 157.26C409.607 157.235 410.528 157.171 411.442 157.18C412.028 157.186 412.539 157.403 413.118 157.435C416.471 157.501 419.813 157.067 423.014 156.149C426.215 155.308 429.317 154.175 432.272 152.768C438.353 149.71 444.144 146.189 449.582 142.241C452.076 140.533 454.57 138.825 457.063 137.116C458.325 136.252 459.586 135.388 460.848 134.524C461.413 134.236 461.923 133.866 462.357 133.427C463.044 132.415 460.975 131.617 460.193 131.536C457.524 131.26 454.787 131.197 452.095 131.046C463.354 131.332 473.783 125.191 481.384 117.551C480.58 117.408 479.75 117.265 478.946 117.122C481.15 116.406 483.299 115.555 485.379 114.575C488.036 113.321 490.578 111.873 492.981 110.243C495.381 108.617 497.628 106.81 499.7 104.84C500.738 103.865 501.723 102.841 502.683 101.77C503.032 101.402 503.353 101.012 503.643 100.604C503.825 100.342 504.032 100.104 504.188 99.8419C504.25 99.7582 504.278 99.657 504.266 99.5564C504.24 99.4612 504.136 99.4135 504.032 99.3658C502.943 98.8897 501.516 99.1755 500.556 98.4853C500.686 98.5805 501.386 98.4614 501.568 98.4614C501.957 98.4853 502.32 98.4852 502.709 98.5091C503.462 98.5804 504.188 98.6758 504.941 98.7946C505.404 98.858 505.874 98.874 506.341 98.8423C506.611 98.8425 506.881 98.8664 507.146 98.9137Z" fill="#EB924D"/>
<path d="M506.853 98.4863C506.671 98.7005 506.49 98.9148 506.308 99.1291C505.426 100.129 504.518 101.081 503.558 102.033C493.493 99.5575 482.752 97.2248 472.297 95.3921C483.842 96.1539 495.36 97.1853 506.853 98.4863Z" fill="#EB924D"/>
<path d="M221.126 28.2015C204.086 30.8847 186.658 30.7315 169.676 27.7492C186.807 26.898 203.98 27.6793 221.126 28.2015Z" fill="#EB924D"/>
<path d="M359.943 41.0413C351.323 42.0652 342.609 42.2547 333.945 41.6065C310.175 40.5941 285.888 39.489 263.805 31.9715C277.273 31.9256 290.624 33.978 303.962 35.5755C322.343 37.7769 341.476 39.4409 359.943 41.0413Z" fill="#EB924D"/>
<path d="M370.792 40.3507C364.483 40.1675 358.201 39.5369 351.927 38.9067C323.584 36.0604 295.241 33.2142 266.898 30.368C236.159 27.2811 205.223 24.1899 174.374 26.1495C170.272 26.1018 165.888 26.5542 161.787 26.5065C180.698 28.4302 199.742 29.0284 218.752 28.2961C226.223 27.7749 233.726 27.7463 241.202 28.2105C247.153 28.919 253.055 29.937 258.88 31.2594C269.878 33.4647 280.987 35.1869 292.14 36.5894C323.302 40.3504 354.716 42.0794 386.144 41.7636C380.37 41.1327 376.605 40.5197 370.792 40.3507Z" fill="url(#paint9_linear_102_8791)"/>
<path d="M121.326 65.6646C106.276 67.1934 91.0862 67.1638 76.0433 65.5763C91.1114 64.3924 106.264 64.4219 121.326 65.6646Z" fill="#EB924D"/>
<path d="M133.205 65.7803C111.898 65.3893 90.5892 65.3095 69.2769 65.5409C71.8616 65.3888 74.4352 65.1067 76.9862 64.6957C79.6366 64.3881 82.2873 64.0803 84.945 63.832C90.2541 63.2873 95.6056 63.1797 100.936 63.5103C101.799 63.5327 102.663 63.4647 103.509 63.3075C104.767 63.2366 106.029 63.2764 107.278 63.4264C110.005 63.5809 112.729 63.7645 115.451 63.9771C120.894 64.4023 126.325 64.9434 131.743 65.6003C132.23 65.6593 132.717 65.7192 133.205 65.7803Z" fill="url(#paint10_linear_102_8791)"/>
<path d="M174.513 97.6064C168.705 99.693 162.896 101.78 157.087 103.866C153.466 105.251 149.749 106.417 145.961 107.357C141.018 108.345 135.991 108.939 130.936 109.135C118.233 109.947 105.287 110.636 92.9257 107.833C120.476 107.584 147.509 102.621 174.513 97.6064Z" fill="#EB924D"/>
<path d="M200.409 91.7407C185.698 95.2679 170.987 98.7951 156.276 102.322C149.295 104.114 142.218 105.575 135.073 106.701C126.167 107.802 117.187 108.328 108.201 108.278C100.237 108.371 92.272 108.382 84.3066 108.308C87.3822 107.865 90.469 107.498 93.5669 107.206C94.8231 107.088 96.1803 107.13 97.4153 106.956C103.815 106.358 110.247 106.105 116.679 106.199C123.571 105.609 130.417 104.624 137.176 103.25C147.939 101.63 158.656 99.7597 169.345 97.7683C179.717 95.8356 190.063 93.7885 200.409 91.7407Z" fill="url(#paint11_linear_102_8791)"/>
<path d="M456.902 118.162C444.715 122.19 431.357 121.461 418.429 120.707C415.721 120.48 412.997 120.46 410.286 120.647C408.557 120.839 406.841 121.113 405.143 121.467C397.498 123.076 389.73 124.145 381.907 124.665C374.062 125.181 366.184 124.26 358.731 121.955C379.16 124.968 400.215 119.106 420.902 118.706C426.053 118.607 431.21 118.823 436.355 118.584C443.39 118.259 449.859 118.249 456.902 118.162Z" fill="#EB924D"/>
<path d="M350.839 121.213C362 123.024 373.343 123.713 384.668 123.267C391.951 122.735 399.117 121.265 406.38 120.536C414.996 119.672 423.69 119.855 432.356 119.731C447.921 119.508 463.45 118.29 478.83 116.087C474.526 115.993 470.221 116.019 465.916 116.162C462.128 116.289 458.363 116.088 454.561 116.157C446.123 116.309 437.698 116.811 429.288 117.451C420.892 118.09 412.51 118.867 404.122 119.577C395.749 120.286 387.366 120.929 378.966 121.297C370.56 121.666 362.132 121.758 353.725 121.367C352.773 121.322 351.783 121.334 350.839 121.213Z" fill="url(#paint12_linear_102_8791)"/>
</g>
<defs>
<linearGradient id="paint0_linear_102_8791" x1="369.074" y1="-213.984" x2="298.949" y2="-8.29129" gradientUnits="userSpaceOnUse">
<stop stop-color="#CF5C2B"/>
<stop offset="1" stop-color="#59173E"/>
</linearGradient>
<linearGradient id="paint1_linear_102_8791" x1="285.122" y1="-62.8811" x2="219.419" y2="314.822" gradientUnits="userSpaceOnUse">
<stop stop-color="#CF5C2B"/>
<stop offset="1" stop-color="#59173E"/>
</linearGradient>
<linearGradient id="paint2_linear_102_8791" x1="281.19" y1="-57.1094" x2="195.35" y2="420.699" gradientUnits="userSpaceOnUse">
<stop stop-color="#CF5C2B"/>
<stop offset="1" stop-color="#59173E"/>
</linearGradient>
<linearGradient id="paint3_linear_102_8791" x1="366.303" y1="75.5456" x2="344.526" y2="139.001" gradientUnits="userSpaceOnUse">
<stop stop-color="#CF5C2B"/>
<stop offset="1" stop-color="#59173E"/>
</linearGradient>
<linearGradient id="paint4_linear_102_8791" x1="419.488" y1="-34.1813" x2="263.053" y2="361.467" gradientUnits="userSpaceOnUse">
<stop stop-color="#CF5C2B"/>
<stop offset="1" stop-color="#59173E"/>
</linearGradient>
<linearGradient id="paint5_linear_102_8791" x1="123.926" y1="0.703805" x2="112.404" y2="34.2766" gradientUnits="userSpaceOnUse">
<stop stop-color="#CF5C2B"/>
<stop offset="1" stop-color="#59173E"/>
</linearGradient>
<linearGradient id="paint6_linear_102_8791" x1="184.775" y1="-126.986" x2="28.339" y2="268.665" gradientUnits="userSpaceOnUse">
<stop stop-color="#CF5C2B"/>
<stop offset="1" stop-color="#59173E"/>
</linearGradient>
<linearGradient id="paint7_linear_102_8791" x1="75.9153" y1="4.89925" x2="57.8862" y2="57.4324" gradientUnits="userSpaceOnUse">
<stop stop-color="#CF5C2B"/>
<stop offset="1" stop-color="#59173E"/>
</linearGradient>
<linearGradient id="paint8_linear_102_8791" x1="146.36" y1="-142.173" x2="-10.0753" y2="253.474" gradientUnits="userSpaceOnUse">
<stop stop-color="#CF5C2B"/>
<stop offset="1" stop-color="#59173E"/>
</linearGradient>
<linearGradient id="paint9_linear_102_8791" x1="339.255" y1="-79.1672" x2="302.005" y2="-2.37231" gradientUnits="userSpaceOnUse">
<stop stop-color="#CF5C2B"/>
<stop offset="1" stop-color="#59173E"/>
</linearGradient>
<linearGradient id="paint10_linear_102_8791" x1="205.058" y1="-169.487" x2="150.311" y2="-22.1733" gradientUnits="userSpaceOnUse">
<stop stop-color="#CF5C2B"/>
<stop offset="1" stop-color="#59173E"/>
</linearGradient>
<linearGradient id="paint11_linear_102_8791" x1="253.412" y1="-151.515" x2="198.666" y2="-4.20186" gradientUnits="userSpaceOnUse">
<stop stop-color="#CF5C2B"/>
<stop offset="1" stop-color="#59173E"/>
</linearGradient>
<linearGradient id="paint12_linear_102_8791" x1="499.844" y1="-59.8864" x2="441.279" y2="86.2336" gradientUnits="userSpaceOnUse">
<stop stop-color="#CF5C2B"/>
<stop offset="1" stop-color="#59173E"/>
</linearGradient>
</defs>
</svg>
