<svg width="117" height="40" viewBox="0 0 117 40" fill="none" xmlns="http://www.w3.org/2000/svg">
<path d="M114.886 15.3933C114.008 14.4231 113.041 13.5241 111.995 12.7064C111.511 12.3058 111.028 11.9053 110.545 11.5048C109.615 10.7346 108.685 9.96433 107.756 9.19414C107.367 8.80012 106.926 8.45316 106.442 8.16167C106.002 7.92628 105.593 7.64513 105.223 7.32378C103.401 5.94079 101.502 4.64521 99.5346 3.44224C98.0137 2.42023 96.3087 1.65167 94.4976 1.17167C93.6882 1.0113 92.8677 0.901932 92.042 0.844329C90.857 0.736748 89.6719 0.629136 88.4868 0.521485L86.6904 0.358314C86.4539 0.34219 86.2196 0.305874 85.9904 0.249843C85.6016 0.147159 85.2107 0.297674 84.8116 0.245837C84.0538 0.174347 83.2918 0.146539 82.5302 0.162582C81.6958 0.151433 80.8614 0.140871 80.0269 0.130903C76.6971 0.0909965 73.3672 0.0602579 70.0371 0.0386894C66.7197 0.0172251 63.4022 0.00503926 60.0847 0.00212179C56.7798 -0.000743582 53.475 0.00576386 50.1701 0.0216537C46.8779 0.0375435 43.5857 0.0629166 40.2936 0.0977699C37.0141 0.132571 33.7347 0.176992 30.4555 0.231035C27.1889 0.284956 23.9225 0.34859 20.6562 0.421926C17.4026 0.495071 14.1492 0.578058 10.8961 0.670896C9.19325 0.719555 7.49045 0.77094 5.78779 0.825052C5.64656 0.819202 5.50507 0.827273 5.36572 0.849123C5.22223 0.883872 5.08055 0.935499 4.94052 0.980615C4.65044 1.07182 4.36595 1.17737 4.08831 1.2968C3.53818 1.51724 3.05912 1.86383 2.69717 2.30323C2.4982 2.56314 2.35986 2.8563 2.17458 3.12392C2.06924 3.24579 1.97082 3.37255 1.8797 3.50371C1.53117 4.2011 1.10857 4.86528 0.618027 5.4866C0.143952 6.15292 -0.0674659 6.94796 0.0188919 7.73972C0.0960669 8.72593 0.12196 9.72356 0.217414 10.7059C0.369878 12.2753 0.230182 13.8468 0.415468 15.425C0.400836 15.5216 0.408325 15.6199 0.437441 15.7136C0.466557 15.8074 0.516661 15.8946 0.584565 15.9695C0.652468 16.0445 0.736673 16.1057 0.831798 16.1491C0.926924 16.1926 1.03089 16.2173 1.13703 16.2218L2.76099 16.547C2.09128 16.9453 1.09188 16.9754 0.738863 17.6321C0.640347 17.8506 0.588966 18.0845 0.58758 18.3209C0.523925 19.1611 0.438011 19.9996 0.376287 20.8398C0.348576 21.2173 0.32575 21.5952 0.312065 21.9733C0.298948 22.3349 0.265909 22.6795 0.228886 23.0387C0.142858 23.8723 -0.0890478 24.9611 0.189358 25.7765C0.45857 26.5648 1.53047 26.5977 2.27287 26.7889C2.0812 26.8297 1.90077 26.9064 1.74287 27.0141C1.58498 27.1218 1.45301 27.2582 1.35524 27.4148C1.24054 27.5625 1.15911 27.7211 1.04975 27.8722C0.953846 28.0049 0.865824 28.1422 0.78605 28.2835C0.626466 28.5665 0.499604 28.8641 0.407531 29.1714C0.346192 29.3603 0.310125 29.5554 0.300143 29.7524C0.290834 29.9431 0.282295 30.1339 0.27453 30.3247C0.258971 30.7063 0.246593 31.0879 0.237394 31.4697C0.218939 32.2331 0.213054 32.9965 0.219736 33.7602C0.226266 34.4989 0.0358753 35.216 0.378106 35.9451C0.680944 36.6013 1.18027 37.1653 1.81822 37.5718C2.45617 37.9783 3.20663 38.2106 3.98259 38.2417C12.0654 38.6491 20.1736 38.8178 28.2657 38.9926C36.5015 39.1704 44.7387 39.2718 52.9773 39.2967C61.2756 39.3225 69.5736 39.2729 77.8714 39.1481C80.6773 39.1118 83.483 38.9583 86.278 39.124C88.853 39.2572 91.4348 39.2325 94.0062 39.0501C96.2411 38.908 98.2378 38.9121 99.9983 37.4326C103.883 34.1684 107.985 31.1275 111.869 27.87C112.942 27.0121 113.927 26.066 114.813 25.0435C115.744 24.0039 116.429 22.7975 116.823 21.5014C116.993 20.9296 117.041 20.3332 116.965 19.7447C116.919 19.4999 116.847 19.2598 116.749 19.0281C116.639 18.8295 116.556 18.6194 116.502 18.4023C116.431 17.9671 116.283 17.5456 116.063 17.1548C115.749 16.5263 115.354 15.9349 114.886 15.3933Z" fill="url(#paint0_linear_33_2)"/>
<path d="M116.343 20.9038C116.243 21.0715 116.136 21.2337 116.042 21.3851C116.007 21.4392 115.971 21.4987 115.936 21.5473C115.888 21.6072 115.828 21.6585 115.759 21.6987C115.61 21.7599 115.443 21.7788 115.282 21.7528C115.264 21.7537 115.246 21.7519 115.229 21.7474C112.671 21.5473 110.042 20.9254 107.59 21.623C108.264 21.8545 108.975 21.9824 109.695 22.0015C111.557 22.1421 113.414 22.2882 115.27 22.4287C115.252 22.4449 115.235 22.4558 115.217 22.472C115.023 22.6396 114.828 22.8018 114.634 22.9641C114.303 23.2399 114.026 23.5751 113.708 23.8671C113.237 24.2943 112.742 24.7052 112.252 25.1108C112.117 25.2244 111.981 25.3379 111.834 25.4569C111.693 25.5759 111.545 25.6948 111.404 25.8084C110.148 26.8574 108.881 27.8957 107.596 28.9068C107.178 29.2421 106.754 29.572 106.329 29.891C105.881 30.2425 105.427 30.5831 104.968 30.9184C102.706 32.6177 100.311 34.1612 97.8008 35.5364L97.5356 35.6823C97.3693 35.7816 97.1914 35.8632 97.0051 35.9257C96.92 35.9433 96.833 35.9524 96.7458 35.9527H96.6574C96.4982 35.9473 96.3391 35.9473 96.18 35.9473C94.8657 35.9311 93.5337 36.0122 92.2193 36.05C90.2272 36.0933 88.237 36.1365 86.2489 36.1798C83.9444 36.2285 81.6399 36.2681 79.3354 36.2988C77.2785 36.3258 75.2196 36.3511 73.1587 36.3745C71.4024 36.3907 69.646 36.407 67.8955 36.4124C66.7757 36.4232 65.65 36.4286 64.5242 36.434C62.6854 36.4448 60.8465 36.4448 59.0135 36.4448C57.9527 36.4448 56.8917 36.4448 55.8309 36.4394H54.5578C53.9212 36.4394 53.2847 36.434 52.6482 36.4286C52.3948 36.4286 52.1472 36.4286 51.8997 36.4232C50.0195 36.4178 48.1512 36.4015 46.277 36.3853C45.6404 36.3799 45.0098 36.3745 44.3732 36.3637C43.0825 36.3529 41.7917 36.3367 40.501 36.315C39.7348 36.3096 38.9686 36.2988 38.1965 36.2826C36.228 36.2555 34.2713 36.2177 32.3086 36.1798C31.5247 36.169 30.7467 36.1528 29.9629 36.1366C28.9786 36.115 27.9884 36.0933 27.0041 36.0609C26.1318 36.0447 25.2655 36.023 24.3932 36.0014C22.5013 35.9527 20.6113 35.8987 18.7234 35.8392C18.3933 35.8338 18.0632 35.8229 17.7331 35.8122C17.3147 35.8013 16.8904 35.7851 16.4719 35.7689C15.1104 35.7256 13.7529 35.6806 12.3993 35.6337C11.7922 35.6121 11.1851 35.5904 10.5781 35.5634C8.98672 35.4877 7.3836 35.3849 5.79228 35.3849C5.00778 35.3547 4.24922 35.1185 3.60669 34.7044C2.96416 34.2903 2.46468 33.7157 2.16755 33.0489C1.92577 32.4686 1.83105 31.8455 1.89056 31.2266C1.89376 31.1169 1.91156 31.0079 1.94358 30.9022C2.01088 30.7442 2.06412 30.5814 2.10275 30.4155C2.13813 30.2046 2.15579 29.9883 2.17345 29.772C2.19111 29.5665 2.20883 29.3557 2.22064 29.1448C2.2324 28.9826 2.25011 28.8203 2.26187 28.6581C2.27878 28.4474 2.31029 28.2379 2.35619 28.0308C2.368 27.9605 2.39156 27.8902 2.40922 27.8254C2.42688 27.7713 2.44459 27.7172 2.46815 27.6631C2.50121 27.5683 2.54673 27.4775 2.6037 27.3928C2.644 27.3243 2.6935 27.2607 2.75105 27.2035C2.8062 27.1459 2.86739 27.0933 2.93373 27.0467C4.10075 26.2464 6.37575 26.2572 8.07319 26.2247C8.40327 26.2139 8.70967 26.2085 8.98672 26.1923C9.72344 26.149 10.4602 26.1328 11.2028 26.1382C9.45232 26.1332 7.7054 25.9921 5.98086 25.7165C5.16164 25.5921 4.34827 25.4299 3.54671 25.2406C3.34577 25.1981 3.15021 25.1365 2.96319 25.0568C2.71016 24.9686 2.5021 24.797 2.37974 24.5755C2.3025 24.3782 2.27431 24.1676 2.29724 23.9591C2.30308 23.7589 2.27368 23.5535 2.28543 23.3534C2.30309 22.9262 2.36209 22.5098 2.40922 22.0881C2.45635 21.7474 2.49763 21.4013 2.5212 21.0552C2.58013 20.136 2.64499 19.2221 2.72159 18.3083C2.7108 18.0294 2.80671 17.7558 2.99272 17.535C3.12494 17.4268 3.28206 17.3473 3.45239 17.3025C3.89934 17.1504 4.36119 17.0381 4.83156 16.9672C5.04967 16.9293 5.28538 16.9293 5.49758 16.8753C5.72907 16.8039 5.96809 16.7549 6.21073 16.7293C8.79224 16.4535 11.3718 16.1778 13.9493 15.902C14.2558 15.8695 14.5682 15.8371 14.8746 15.8047C10.9847 15.372 7.0948 14.9286 3.20488 14.496C3.03396 14.4744 2.86303 14.4582 2.69211 14.4366C2.52544 14.4383 2.36469 14.38 2.24421 14.2743C2.17756 14.1753 2.1428 14.0609 2.14398 13.9445C1.96715 12.014 2.16754 10.0241 2.04966 8.07742C2.04375 8.02334 2.03791 7.86111 2.02025 7.63401C2.01434 7.52044 2.00844 7.39067 1.99668 7.25011C1.99668 7.2014 1.99668 7.14195 1.99077 7.08782C1.98487 7.00134 1.97897 6.91481 1.97306 6.82286V6.80129C1.96716 6.70934 1.96127 6.6174 1.9554 6.52548C1.9495 6.42816 1.94358 6.33622 1.93768 6.2389C1.92002 5.92527 1.89645 5.61705 1.87879 5.37912C1.87289 5.29795 1.86699 5.22768 1.86108 5.16282C1.86108 5.13578 1.85524 5.10332 1.85524 5.0817C1.84934 5.01142 1.84343 4.96271 1.83753 4.9303C1.83162 4.90326 1.83162 4.88706 1.82571 4.88706C1.78474 4.37931 1.85586 3.86919 2.03484 3.38726C2.21382 2.90532 2.49696 2.46148 2.86731 2.08231C3.23766 1.70314 3.6876 1.39645 4.19019 1.18059C4.69279 0.964724 5.23769 0.844137 5.79228 0.826047C6.99463 0.788224 8.19698 0.752167 9.39931 0.717887C10.9671 0.669227 12.5289 0.625986 14.0966 0.588111C19.1418 0.447552 24.2007 0.335805 29.2733 0.252866L33.2693 0.188006C38.5502 0.106838 43.8487 0.0527386 49.165 0.0257173C50.5382 0.0203512 51.9173 0.0149344 53.2906 0.00951626C54.935 0.00409809 56.5814 0.00228866 58.2297 0.00409471C61.4123 0.00409471 64.6067 0.00951491 67.7953 0.0257173C68.1077 0.0257173 68.4142 0.0311388 68.7265 0.0311388C71.5143 0.0473933 74.3021 0.069033 77.0899 0.0960543C79.0879 0.117675 81.0879 0.142905 83.0898 0.171749C84.7518 0.19337 86.4159 0.218599 88.0819 0.247444C88.9836 0.263647 89.8736 0.290737 90.7754 0.296103C90.9404 0.301521 91.1054 0.301525 91.2704 0.301525C91.4296 0.301525 91.5887 0.301521 91.7478 0.296103H91.7537C92.0838 0.296103 92.4138 0.285321 92.7438 0.269067C92.8382 0.269067 92.9266 0.263645 93.0209 0.258279C93.4244 0.231285 93.8301 0.262296 94.2232 0.350183C94.2353 0.349326 94.2475 0.351189 94.2586 0.355605C94.9058 0.53324 95.5257 0.785806 96.1034 1.10721C96.1623 1.13967 96.2271 1.16672 96.2861 1.19917C101.2 3.67325 105.723 6.75147 109.73 10.3485C109.877 10.4783 110.025 10.6135 110.166 10.7433C111.551 12.014 112.865 13.3388 114.18 14.6583C114.398 14.88 114.616 15.1016 114.828 15.3288C115.315 15.8278 115.747 16.3693 116.119 16.9456C116.381 17.3503 116.58 17.7873 116.708 18.2434C116.767 18.4597 116.791 18.6868 116.856 18.9031C116.918 19.2512 116.905 19.607 116.817 19.9504C116.729 20.2937 116.568 20.6177 116.343 20.9038V20.9038Z" fill="url(#paint1_linear_33_2)"/>
<path d="M114.179 14.6581C112.865 13.3387 111.551 12.0139 110.166 10.7431C110.024 10.6133 109.877 10.4781 109.729 10.3483C104.826 10.2997 99.9222 10.0888 95.0244 9.76975C83.7966 9.03976 72.5925 8.07725 61.3647 7.29313C50.1429 6.50911 38.9152 5.8494 27.6579 5.80074C21.9763 5.77906 16.3182 5.9413 10.6601 6.32526C7.77222 6.5199 4.86063 6.57939 1.97266 6.80649C2.00804 7.42296 2.0375 7.9691 2.04925 8.07725C2.16713 10.0239 1.96675 12.0139 2.14357 13.9443C2.1424 14.0608 2.17715 14.1751 2.2438 14.2742C2.24971 14.2796 2.25562 14.2904 2.26737 14.2958C4.67741 14.5752 7.1054 14.7034 9.53445 14.6797C15.1984 14.723 20.8506 14.431 26.5145 14.458C28.0057 14.4688 29.5008 14.4868 30.9997 14.5121C31.7424 14.5283 32.4909 14.5446 33.2395 14.5608C33.6725 14.5408 34.1067 14.5589 34.536 14.6148C35.0772 14.6988 35.6276 14.7206 36.1745 14.6797C37.4063 14.6527 38.6323 14.5446 39.8641 14.4472C41.0192 14.3499 42.1744 14.2633 43.3355 14.2525C47.75 14.2093 52.0996 15.2799 56.5141 15.334C57.697 15.2968 58.8813 15.3438 60.0563 15.4746C60.7459 15.5882 61.4119 15.7828 62.0956 15.9343C63.2531 16.197 64.4396 16.3367 65.6319 16.3506C66.2321 16.365 66.8327 16.3415 67.4295 16.2803C68.0149 16.2452 68.6025 16.2561 69.1859 16.3128C71.6849 16.4317 74.1858 16.5327 76.6887 16.6156C78.6513 16.6805 80.614 16.7273 82.5766 16.7562C73.5532 17.4754 64.5297 18.1693 55.5063 18.838C50.8737 19.1787 46.2235 19.5518 41.5674 19.5518C36.54 19.5518 31.5125 19.0057 26.4674 19.2598C22.0117 19.4869 17.5147 19.833 13.0943 20.4116C9.65234 20.8658 5.98637 21.8176 2.40881 22.0879C2.36168 22.5097 2.30269 22.926 2.28503 23.3532C2.27328 23.5533 2.30268 23.7588 2.29683 23.9589C2.27391 24.1674 2.30209 24.378 2.37933 24.5753C2.5017 24.7968 2.70976 24.9684 2.96279 25.0566C3.1498 25.1363 3.34537 25.1979 3.54631 25.2404C4.34786 25.4297 5.16124 25.5919 5.98045 25.7163C7.33606 25.6676 8.69161 25.5865 10.0177 25.4351C13.9254 24.9971 18.2278 24.8457 22.2121 24.1103L24.7228 23.9643C29.3435 23.591 33.934 22.9517 38.4673 22.0501C41.3906 21.5201 44.3493 21.1254 47.308 20.8063C47.6911 20.7631 48.0506 20.6657 48.4278 20.6387C48.7343 20.6117 49.0467 20.59 49.3531 20.5684C50.5908 20.4819 51.8305 20.4116 53.0721 20.3575C55.5476 20.2494 58.0347 20.2007 60.516 20.1791C63.0032 20.1575 65.4845 20.1683 67.9718 20.1683C70.4589 20.1737 72.9402 20.1683 75.4274 20.1304C77.9087 20.098 80.3959 20.0223 82.8713 19.8817C83.6552 19.8384 84.4332 19.7843 85.2112 19.7303C83.1321 19.2866 81.0234 18.9687 78.8989 18.7785C82.8006 18.4757 86.6827 18.0287 90.5451 17.4375C92.9498 17.0644 95.3485 16.6426 97.7768 16.3885C98.988 16.2579 100.206 16.1839 101.425 16.1668C102.032 16.1559 102.639 16.1668 103.246 16.2046C103.798 16.2792 104.356 16.3135 104.914 16.3074C105.303 16.2641 105.663 16.1235 106.058 16.0911C106.677 16.0424 107.295 15.9991 107.92 15.9505C109.158 15.8531 110.397 15.745 111.639 15.626C111.969 15.5936 112.305 15.5611 112.641 15.5233C113.36 15.4476 114.091 15.3881 114.828 15.3286C114.615 15.1015 114.397 14.8798 114.179 14.6581ZM106.47 23.2667C100.284 22.9252 94.0825 22.8945 87.8929 23.1747C86.6021 23.2235 85.3408 23.2505 84.0619 23.3965C83.4489 23.4722 82.8301 23.5425 82.2112 23.6074C79.7417 23.8778 77.2663 24.0977 74.785 24.2671C73.8184 24.3374 72.8518 24.3969 71.8852 24.4509C74.3901 24.4347 76.897 24.4185 79.4058 24.4023C81.9106 24.3861 84.4175 24.3681 86.9263 24.3482C88.1817 24.3428 89.437 24.3319 90.6865 24.3266C91.3172 24.3212 91.9419 24.3157 92.5667 24.3104C92.8326 24.3249 93.0995 24.3122 93.3623 24.2725C93.5214 24.2401 93.6747 24.1806 93.8339 24.1589C94.4199 24.1257 95.008 24.1438 95.5902 24.213C96.209 24.2455 96.8338 24.2779 97.4526 24.3104C98.6963 24.3807 99.9399 24.46 101.183 24.5483C103.14 24.6835 105.097 24.8348 107.054 24.9917C108.651 25.1269 110.244 25.2819 111.834 25.4567L111.845 25.4459C111.981 25.3377 112.116 25.2242 112.252 25.1107C112.741 24.7051 113.236 24.2941 113.708 23.8669C111.303 23.6344 108.893 23.4181 106.47 23.2667ZM65.5671 27.8089C54.5809 27.6089 43.6185 27.0303 32.6265 27.0681C26.8328 27.0844 21.0451 27.1709 15.2633 27.3277C10.9961 27.4413 6.67004 27.4196 2.40881 27.8252C2.33301 28.0983 2.28371 28.3769 2.26146 28.6579C2.21433 29.15 2.19662 29.6529 2.13773 30.145C6.88225 30.3234 11.6857 30.026 16.4184 30.0152C22.2062 30.0043 27.9939 30.0602 33.7817 30.1828C44.7501 30.4208 55.7067 30.9777 66.6751 31.1561C77.8321 31.34 88.9715 30.6046 100.105 30.0909C102.174 29.9936 104.248 29.9341 106.329 29.8908C106.753 29.5718 107.177 29.242 107.596 28.9067C108.881 27.8955 110.148 26.8572 111.403 25.8082C107.26 26.1759 103.111 26.5274 98.9556 26.7383C87.8339 27.3006 76.7064 28.009 65.5671 27.8089Z" fill="url(#paint2_linear_33_2)"/>
<path d="M82.1712 25.8645C79.882 24.6899 76.0804 25.0524 74.2684 26.6332C73.9904 26.8844 73.7696 27.1838 73.6189 27.514C73.4682 27.8441 73.3906 28.1985 73.3906 28.5565C73.3906 28.9144 73.4682 29.2688 73.6189 29.599C73.7696 29.9292 73.9904 30.2286 74.2684 30.4797C76.9104 32.6608 81.5485 31.7301 83.2236 29.0301C83.2557 29.0035 83.2878 28.9769 83.3198 28.9503C84.5991 27.8898 83.6881 26.1283 82.1712 25.8645Z" fill="#EB924D"/>
<path d="M82.7142 24.8308C80.4249 23.6562 76.6234 24.0186 74.8113 25.5995C74.5333 25.8507 74.3126 26.1501 74.1619 26.4802C74.0112 26.8104 73.9336 27.1648 73.9336 27.5228C73.9336 27.8807 74.0112 28.2351 74.1619 28.5653C74.3126 28.8955 74.5333 29.1949 74.8113 29.4461C77.4534 31.627 82.0915 30.6964 83.7666 27.9964L83.8628 27.9166C85.1421 26.8561 84.231 25.0946 82.7142 24.8308Z" fill="url(#paint3_linear_33_2)"/>
<path d="M82.1712 25.4973C79.882 24.3227 76.0804 24.6852 74.2684 26.266C73.9904 26.5172 73.7696 26.8166 73.6189 27.1468C73.4682 27.4769 73.3906 27.8313 73.3906 28.1893C73.3906 28.5472 73.4682 28.9016 73.6189 29.2318C73.7696 29.562 73.9904 29.8614 74.2684 30.1126C76.9104 32.2935 81.5485 31.3628 83.2236 28.6629C83.2557 28.6363 83.2878 28.6097 83.3198 28.5831C84.5991 27.5226 83.6881 25.7611 82.1712 25.4973Z" fill="url(#paint4_linear_33_2)"/>
<path d="M27.6007 4.76372C26.9322 4.4654 26.1858 4.34536 25.4465 4.41727C24.7073 4.48918 24.0049 4.75015 23.4195 5.17045C23.2724 5.30334 23.1556 5.46174 23.0759 5.63644C22.9961 5.81113 22.9551 5.99863 22.9551 6.18802C22.9551 6.37741 22.9961 6.56491 23.0759 6.73961C23.1556 6.9143 23.2724 7.0727 23.4195 7.2056C24.8173 8.35951 27.2712 7.86708 28.1575 6.43861L28.2084 6.39636C28.3454 6.26876 28.4409 6.10869 28.4843 5.9341C28.5277 5.75951 28.5173 5.57728 28.4542 5.40781C28.3911 5.23835 28.2779 5.08834 28.1271 4.97458C27.9764 4.86083 27.7941 4.78782 27.6007 4.76372V4.76372Z" fill="#EB924D"/>
<path d="M27.8878 4.21687C27.2193 3.91854 26.4729 3.79849 25.7337 3.87039C24.9944 3.94229 24.292 4.20325 23.7066 4.62355C23.5595 4.75644 23.4427 4.91484 23.363 5.08954C23.2832 5.26423 23.2422 5.45173 23.2422 5.64112C23.2422 5.83051 23.2832 6.01801 23.363 6.1927C23.4427 6.3674 23.5595 6.5258 23.7066 6.65869C25.1044 7.8126 27.5583 7.32022 28.4446 5.8917L28.4956 5.84951C28.6325 5.7219 28.728 5.56184 28.7714 5.38724C28.8148 5.21265 28.8044 5.03042 28.7413 4.86096C28.6782 4.69149 28.565 4.54149 28.4142 4.42773C28.2635 4.31398 28.0812 4.24096 27.8878 4.21687V4.21687Z" fill="url(#paint5_linear_33_2)"/>
<path d="M27.6007 4.56939C26.9322 4.27107 26.1858 4.15102 25.4465 4.22293C24.7073 4.29484 24.0049 4.55581 23.4195 4.97611C23.2724 5.109 23.1556 5.2674 23.0759 5.4421C22.9961 5.61679 22.9551 5.80429 22.9551 5.99368C22.9551 6.18307 22.9961 6.37057 23.0759 6.54526C23.1556 6.71996 23.2724 6.87836 23.4195 7.01125C24.8173 8.16516 27.2712 7.67274 28.1575 6.24427L28.2084 6.20202C28.3454 6.07441 28.4409 5.91436 28.4843 5.73976C28.5277 5.56517 28.5173 5.38294 28.4542 5.21348C28.3911 5.04401 28.2779 4.894 28.1271 4.78025C27.9764 4.66649 27.7941 4.59348 27.6007 4.56939V4.56939Z" fill="url(#paint6_linear_33_2)"/>
<path d="M16.3805 8.31665C14.4853 7.34425 11.3381 7.64428 9.83797 8.95303C9.60783 9.16097 9.42507 9.40882 9.30032 9.68218C9.17557 9.95553 9.11133 10.2489 9.11133 10.5453C9.11133 10.8416 9.17557 11.135 9.30032 11.4083C9.42507 11.6817 9.60783 11.9296 9.83797 12.1375C12.0252 13.9431 15.865 13.1726 17.2518 10.9374L17.3315 10.8713C18.3905 9.99332 17.6363 8.53505 16.3805 8.31665Z" fill="#EB924D"/>
<path d="M16.8298 7.46066C14.9345 6.4883 11.7874 6.78834 10.2872 8.09708C10.0571 8.30502 9.87429 8.55287 9.74954 8.82622C9.62479 9.09957 9.56055 9.39295 9.56055 9.68929C9.56055 9.98563 9.62479 10.279 9.74954 10.5524C9.87429 10.8257 10.0571 11.0736 10.2872 11.2815C12.4745 13.0871 16.3142 12.3166 17.701 10.0814L17.7807 10.0153C18.8397 9.13737 18.0855 7.67905 16.8298 7.46066Z" fill="url(#paint7_linear_33_2)"/>
<path d="M16.3805 8.01245C14.4853 7.04005 11.3381 7.34008 9.83797 8.64883C9.60783 8.85677 9.42507 9.10462 9.30032 9.37798C9.17557 9.65133 9.11133 9.94471 9.11133 10.2411C9.11133 10.5374 9.17557 10.8308 9.30032 11.1041C9.42507 11.3775 9.60783 11.6254 9.83797 11.8333C12.0252 13.6389 15.865 12.8684 17.2518 10.6332L17.3315 10.5671C18.3905 9.68911 17.6363 8.23085 16.3805 8.01245Z" fill="url(#paint8_linear_33_2)"/>
<path d="M2.83216 23.8788C2.79803 24.2757 2.84196 24.675 2.96185 25.0577C2.70884 24.9695 2.50079 24.7979 2.37839 24.5764C2.30114 24.3791 2.27292 24.1685 2.29582 23.9599C2.30173 23.7598 2.27226 23.5543 2.28407 23.3543C2.31939 22.581 2.47265 21.8239 2.51983 21.0561C2.57872 20.1369 2.64357 19.223 2.72017 18.3091C2.70943 18.0302 2.80534 17.7567 2.99131 17.5359C3.12354 17.4277 3.28068 17.3482 3.45103 17.3034C3.89798 17.1513 4.35984 17.039 4.83021 16.9681C5.04826 16.9303 5.28402 16.9303 5.49617 16.8762C5.72768 16.8047 5.96671 16.7558 6.20936 16.7302C8.79082 16.4544 11.3703 16.1786 13.9479 15.9028C11.1778 16.4165 8.40773 16.9284 5.63761 17.4385C5.09782 17.5368 4.37741 17.5327 3.92666 17.8586C3.75582 17.9966 3.60148 18.1508 3.46626 18.3188C3.42236 18.3687 3.03708 19.0762 3.18614 19.0808C5.22165 19.143 7.25719 19.2052 9.29274 19.2674C7.78462 19.4923 6.28135 19.7426 4.78296 20.0183C4.02722 20.1574 3.17109 20.3727 2.83692 21.0099C2.65506 21.4484 2.61161 21.925 2.7116 22.3851C2.73555 22.5315 2.79046 22.6695 2.82204 22.814C2.86791 23.1675 2.87131 23.5246 2.83216 23.8788V23.8788Z" fill="#EB924D"/>
<path d="M102.766 9.41913C102.607 9.40835 102.454 9.40293 102.301 9.39209H103.049C102.955 9.39751 102.861 9.40835 102.766 9.41913Z" fill="#EB924D"/>
<path d="M116.347 20.9021C116.31 20.9637 116.282 21.0298 116.265 21.0984C116.251 21.1939 116.232 21.2886 116.206 21.382C116.175 21.519 116.092 21.6415 115.972 21.7279C115.852 21.8143 115.703 21.8591 115.551 21.8543C115.391 21.8511 115.232 21.8291 115.078 21.7888C115.135 21.6398 115.214 21.4985 115.312 21.3685C115.373 21.2517 115.429 21.1328 115.479 21.0118C115.592 20.7412 115.681 20.4627 115.745 20.1791C115.863 19.6343 115.919 19.0797 115.913 18.5242C115.959 17.8871 115.779 17.2533 115.4 16.7181C114.651 15.8313 113.225 15.8042 111.999 15.8637C110.938 15.9124 109.877 15.9664 108.822 16.0151C110.361 15.8529 111.903 15.6889 113.449 15.523C112.824 14.6957 112.197 13.8683 111.569 13.041C111.05 12.2194 110.319 11.5269 109.441 11.0241C108.647 10.715 107.793 10.555 106.93 10.5536C104.82 10.4239 102.716 10.2995 100.606 10.1697C102.885 10.1263 105.156 9.91108 107.396 9.52617C106.665 8.85567 105.905 8.21221 105.127 7.59037C104.019 6.6981 102.864 5.85458 101.673 5.05967C100.482 4.25935 99.2506 3.51316 97.9894 2.81557C97.3587 2.46948 96.7163 2.12882 96.068 1.80982C95.7556 1.65296 95.4197 1.51782 95.1191 1.33938C95.0347 1.27759 94.9415 1.22663 94.8421 1.18793C94.7648 1.17096 94.6858 1.1619 94.6063 1.16089C94.1878 1.14469 93.7694 1.15011 93.351 1.14469C92.1073 1.13392 90.8618 1.12852 89.6143 1.12849C89.2253 1.12849 88.8304 1.12849 88.4355 1.12307H86.1664C85.1173 1.11765 84.0682 1.11765 83.019 1.11765H82.8658C81.2038 1.11224 79.5417 1.11223 77.8796 1.10681C77.0486 1.10681 76.2176 1.10681 75.3865 1.10144C74.9939 1.12857 74.5994 1.12313 74.2078 1.0852C73.8509 0.963935 73.4869 0.861039 73.1175 0.776986C72.753 0.768021 72.3884 0.786101 72.0271 0.831059C71.1194 0.901339 70.2118 0.977034 69.31 1.06899C68.8949 1.06881 68.4935 1.205 68.1784 1.4529C68.0972 1.55866 68.0044 1.65651 67.9014 1.74491C67.7584 1.80397 67.6022 1.83131 67.4456 1.82474C67.2889 1.81817 67.1362 1.77787 66.9996 1.70708C66.4094 1.51745 65.7916 1.40991 65.1667 1.38804C64.6008 1.36642 64.0468 1.45832 63.4811 1.42586C63.1317 1.39333 62.7851 1.33914 62.4437 1.26368C61.0561 1.06785 59.6566 0.950467 58.2532 0.912175C57.2277 0.841843 56.1963 0.793234 55.1708 0.760777C51.8466 0.652623 48.5167 0.706649 45.1925 0.836425C43.5305 0.901338 41.8684 0.980654 40.2063 1.07436C39.4233 1.17141 38.6323 1.204 37.8429 1.17173C37.6248 1.14469 37.4244 1.06357 37.2064 1.02575C36.9801 0.995154 36.751 0.986095 36.5226 0.998713C35.5973 1.00408 34.672 1.0095 33.7526 1.01491C32.674 1.02033 31.5895 1.01491 30.5051 1.01491C30.1397 1.01491 29.786 1.0852 29.4324 1.0852C29.1023 1.0852 28.7782 1.02033 28.454 1.02033C27.7668 1.02586 27.0869 1.15063 26.4502 1.38804C26.2153 1.50173 25.9552 1.56461 25.6898 1.57189C25.2065 1.55021 24.8706 1.12848 24.4344 0.939211C23.3913 0.479553 22.3185 1.35016 21.2517 0.998713C20.723 0.862762 20.1731 0.809726 19.6251 0.841846C18.9119 0.836428 18.1988 0.836425 17.4915 0.836425C15.0809 0.847261 12.6703 0.922962 10.2716 1.14469C9.07513 1.25826 7.8846 1.40424 6.69993 1.59893C6.12822 1.69083 5.54471 1.84764 4.96716 1.90714C4.80095 1.90553 4.63759 1.94674 4.49564 2.02608C3.78839 2.48574 1.83751 5.02185 3.22843 5.91944C3.71659 6.16207 4.2739 6.26207 4.82572 6.20604C8.3738 6.15738 11.9238 6.11233 15.4758 6.07089C11.6448 6.35201 7.81188 6.63139 3.97696 6.90904C3.72691 6.91105 3.48005 6.96076 3.25207 7.05502C2.5153 7.42272 2.76877 8.27708 2.66855 8.89355C2.59309 9.72573 2.63271 10.5633 2.78644 11.3864C2.89841 12.4246 3.03396 13.4628 3.20488 14.4956C3.03396 14.474 2.86303 14.4578 2.69211 14.4362C2.52544 14.4378 2.36469 14.3796 2.24421 14.2739C2.17756 14.1749 2.1428 14.0605 2.14398 13.9441C1.96715 12.0136 2.16754 10.0237 2.04966 8.07702C2.04375 8.02294 2.03791 7.86071 2.02025 7.63361C2.01434 7.52004 2.00844 7.39027 1.99668 7.24971C1.99668 7.201 1.99668 7.14155 1.99077 7.08742C1.98487 7.00094 1.97897 6.91441 1.97306 6.82245V6.80089C1.96716 6.70894 1.96127 6.617 1.9554 6.52508C1.9495 6.42776 1.94358 6.33581 1.93768 6.23849C1.92002 5.92487 1.89645 5.61665 1.87879 5.37872C1.87289 5.29755 1.86699 5.22727 1.86108 5.16241C1.86108 5.13537 1.85524 5.10292 1.85524 5.0813C1.84934 5.01102 1.84343 4.9623 1.83753 4.9299C1.83162 4.90286 1.83162 4.88666 1.82571 4.88666C1.78474 4.37891 1.85586 3.86879 2.03484 3.38686C2.21382 2.90492 2.49696 2.46108 2.86731 2.08191C3.23766 1.70274 3.6876 1.39605 4.19019 1.18018C4.69279 0.964322 5.23769 0.843735 5.79228 0.825645C6.99463 0.787822 8.19698 0.751765 9.39931 0.717485C10.9671 0.668825 12.5289 0.625584 14.0966 0.587709C19.1418 0.44715 24.2007 0.335403 29.2733 0.252464L33.2693 0.187604C38.5502 0.106436 43.8487 0.0523367 49.165 0.0253153C50.5382 0.0199492 51.9173 0.0145324 53.2906 0.00911427C58.1118 -0.00708812 62.9466 -0.00168867 67.7953 0.0253153C68.1077 0.0253153 68.4142 0.0307369 68.7265 0.0307369C71.5143 0.0469913 74.3021 0.068631 77.0899 0.0956523C79.0879 0.117273 81.0878 0.142502 83.0898 0.171347C84.7518 0.192968 86.4159 0.218197 88.0819 0.247042C88.8422 0.257879 89.6024 0.268667 90.3628 0.284921C90.5004 0.280419 90.6382 0.284016 90.7754 0.295701L90.8814 0.311958C90.9842 0.342544 91.0917 0.357163 91.1997 0.355203C91.3824 0.344367 91.5651 0.317374 91.7537 0.295701C91.9346 0.265594 92.118 0.249319 92.3018 0.247042C92.4492 0.247042 92.5965 0.257881 92.7438 0.268665C92.8441 0.274083 92.9502 0.284917 93.0563 0.290335C93.4452 0.32274 93.8343 0.344363 94.2232 0.349781C94.2353 0.348924 94.2475 0.350787 94.2586 0.355203C94.9058 0.532838 95.5257 0.785404 96.1033 1.10681C96.1623 1.13927 96.2271 1.16631 96.2861 1.19877C101.2 3.67285 105.723 6.75106 109.73 10.3481C109.877 10.4779 110.025 10.6131 110.166 10.7429C111.551 12.0136 112.865 13.3384 114.18 14.6579C114.398 14.8796 114.616 15.1012 114.828 15.3284C115.315 15.8274 115.747 16.3689 116.119 16.9452C116.381 17.3499 116.58 17.7869 116.708 18.243C116.767 18.4593 116.791 18.6864 116.856 18.9027C116.983 19.5422 116.836 20.2023 116.445 20.7443C116.411 20.7985 116.377 20.8496 116.347 20.9021Z" fill="#EB924D"/>
<path d="M115.215 22.4719C115.02 22.6395 114.826 22.8018 114.631 22.964C114.301 23.2398 114.024 23.575 113.706 23.867C113.234 24.2942 112.739 24.7051 112.25 25.1107C112.115 25.2243 111.979 25.3378 111.832 25.4568C111.69 25.5758 111.543 25.6947 111.402 25.8083C110.146 26.8573 108.879 27.8956 107.594 28.9067C107.176 29.242 106.751 29.5719 106.327 29.8909C105.879 30.2424 105.425 30.583 104.965 30.9183C102.704 32.6176 100.308 34.1611 97.7986 35.5363L97.5333 35.6822C97.3671 35.7815 97.1892 35.8632 97.0029 35.9256C96.9178 35.9432 96.8308 35.9523 96.7436 35.9526H96.6552C96.6426 35.9459 96.6284 35.9421 96.6139 35.9418C96.4687 35.9301 96.3226 35.9319 96.1778 35.9472C94.8576 35.985 93.5374 36.0193 92.2171 36.0499C90.225 36.0932 88.2348 36.1365 86.2466 36.1797C81.8734 36.2608 77.51 36.3257 73.1565 36.3744C71.4002 36.3906 69.6438 36.4069 67.8933 36.4123C66.7735 36.4231 65.6478 36.4285 64.522 36.4339C62.6832 36.4447 60.8443 36.4447 59.0113 36.4447C57.9505 36.4447 56.8895 36.4447 55.8287 36.4393C54.7619 36.4393 53.701 36.4339 52.646 36.4285C52.3926 36.4285 52.145 36.4285 51.8975 36.4231C50.0173 36.4177 48.149 36.4015 46.2748 36.3853C45.6382 36.3798 45.0076 36.3744 44.371 36.3636C43.0803 36.3528 41.7895 36.3366 40.4988 36.3149C39.7326 36.3095 38.9664 36.2987 38.1943 36.2825C36.2258 36.2554 34.2691 36.2176 32.3064 36.1797C30.5383 36.1473 28.7701 36.104 27.0019 36.0608C26.1296 36.0446 25.2633 36.0229 24.391 36.0013C22.4991 35.9526 20.6091 35.8986 18.7212 35.8391C17.9726 35.8174 17.2182 35.7904 16.4697 35.7688C15.1082 35.7255 13.7507 35.6805 12.3971 35.6336C11.79 35.612 11.1829 35.5903 10.5759 35.5633C8.97862 35.5092 7.38335 35.4497 5.79009 35.3848C5.00558 35.3546 4.24702 35.1184 3.6045 34.7043C2.96197 34.2902 2.46248 33.7156 2.16535 33.0488C1.92358 32.4685 1.82886 31.8454 1.88836 31.2265C1.89156 31.1168 1.90937 31.0078 1.94139 30.9021C2.00869 30.7441 2.06192 30.5813 2.10056 30.4154C2.13594 30.2045 2.1536 29.9882 2.17126 29.7719C2.19483 29.5664 2.20664 29.3556 2.21845 29.1447C2.2302 28.9825 2.24792 28.8202 2.25967 28.658C2.27659 28.4473 2.3081 28.2378 2.354 28.0307C2.36581 27.9604 2.38936 27.8901 2.40702 27.8253C2.42468 27.7712 2.44239 27.7171 2.46596 27.6631C2.49902 27.5682 2.54454 27.4774 2.60151 27.3927C2.64181 27.3242 2.69131 27.2606 2.74886 27.2034C2.804 27.1458 2.8652 27.0932 2.93154 27.0466C4.09856 26.2463 6.37355 26.2571 8.07099 26.2246C9.45601 26.2409 10.8352 26.2517 12.2438 26.322C11.8313 26.322 11.4659 26.5004 11.0709 26.5329C10.5287 26.5815 9.97467 26.5923 9.4325 26.6194C8.35389 26.6789 7.27533 26.7384 6.20263 26.7979C5.45142 26.8077 4.70469 26.9059 3.98068 27.0899C3.705 27.1548 3.4529 27.2853 3.24987 27.4684C3.05375 27.6886 2.9219 27.951 2.86675 28.2308C2.6647 28.7841 2.58066 29.3679 2.61922 29.9504C2.64869 30.1126 2.71349 30.2694 2.73711 30.437C2.75277 30.6171 2.75079 30.7981 2.7312 30.9778C2.67922 31.5912 2.78208 32.2074 3.03177 32.7785C3.69188 34.1303 5.41878 34.7197 7.00418 34.9901C8.94324 35.3145 10.5759 35.6228 12.5326 35.3795L21.1081 35.4606C22.782 35.4768 24.4499 35.4984 26.1238 35.5038C26.4008 35.5092 26.6601 35.4281 26.9312 35.4227C27.332 35.4227 27.7505 35.4876 28.1512 35.5146C28.9705 35.5741 29.7956 35.612 30.6208 35.639C32.6364 35.6985 34.658 35.6715 36.6737 35.5525C37.1424 35.4793 37.6217 35.4848 38.0883 35.5687C38.7698 35.7158 39.4687 35.7849 40.1687 35.7742C41.8249 35.8445 43.487 35.8499 45.1431 35.8012C45.5439 35.7904 45.9388 35.7742 46.3396 35.7525C46.9774 35.7533 47.6108 35.6564 48.2138 35.466C48.5203 35.3578 48.8091 35.201 49.1274 35.1199C50.0233 34.8928 50.9486 35.3091 51.8268 35.612C52.9643 35.9959 54.2078 35.8121 55.3984 35.8877C56.9952 36.0373 58.6043 36.0409 60.2019 35.8986C60.2195 35.8986 60.2313 35.8931 60.249 35.8931C61.0165 35.8136 61.766 35.6257 62.471 35.3362C62.8132 35.1388 63.2005 35.0167 63.6026 34.9793C64.0825 35.0555 64.5331 35.2435 64.9111 35.5254C66.2253 36.2446 67.8521 36.2284 69.3727 36.077C70.6622 35.8702 71.9724 35.7922 73.2802 35.8445C73.8225 35.8931 74.3412 35.8228 74.8893 35.8283C75.5612 35.8283 76.2389 35.8337 76.9168 35.8337C77.6421 35.8372 78.3674 35.8404 79.0928 35.8433C80.7605 35.8496 82.4283 35.8513 84.0961 35.8484C85.7636 35.8439 87.4311 35.83 89.0985 35.8067C89.9319 35.7942 90.7652 35.7784 91.5985 35.7592C92.015 35.7496 92.4315 35.7389 92.848 35.7274C93.0555 35.7215 93.2649 35.7071 93.4724 35.7091C93.6055 35.7105 93.7217 35.7597 93.8533 35.767C94.615 35.7821 95.3743 35.6834 96.1014 35.4748C96.8287 35.2837 97.5333 35.0264 98.2048 34.7067C99.5863 34.012 100.902 33.212 102.137 32.3152C102.704 31.9271 103.27 31.539 103.837 31.1509C104.124 30.9546 104.41 30.7583 104.697 30.562C104.825 30.4966 104.941 30.4124 105.04 30.3127C105.196 30.0829 104.726 29.9015 104.548 29.8831C103.942 29.8204 103.32 29.8061 102.708 29.7719C105.266 29.8368 107.635 28.4417 109.362 26.7059C109.18 26.6734 108.991 26.641 108.808 26.6086C109.309 26.4459 109.797 26.2526 110.27 26.03C110.873 25.7451 111.451 25.4159 111.997 25.0458C112.542 24.6764 113.053 24.2658 113.523 23.8183C113.759 23.5967 113.983 23.3641 114.201 23.1208C114.28 23.0371 114.353 22.9486 114.419 22.8558C114.46 22.7963 114.508 22.7423 114.543 22.6828C114.557 22.6637 114.563 22.6408 114.561 22.6179C114.555 22.5963 114.531 22.5854 114.508 22.5746C114.26 22.4664 113.936 22.5314 113.718 22.3746C113.747 22.3962 113.906 22.3691 113.948 22.3691C114.036 22.3746 114.119 22.3745 114.207 22.38C114.378 22.3962 114.543 22.4178 114.714 22.4448C114.819 22.4592 114.926 22.4629 115.032 22.4557C115.093 22.4557 115.155 22.4611 115.215 22.4719V22.4719Z" fill="#EB924D"/>
<path d="M115.149 22.3743C115.108 22.423 115.067 22.4717 115.026 22.5204C114.825 22.7475 114.619 22.9638 114.401 23.1801C112.114 22.6177 109.674 22.0878 107.299 21.6714C109.922 21.8445 112.538 22.0788 115.149 22.3743Z" fill="#EB924D"/>
<path d="M50.2355 6.40729C46.3642 7.01688 42.4048 6.98208 38.5469 6.30455C42.4388 6.11116 46.3401 6.28866 50.2355 6.40729Z" fill="#EB924D"/>
<path d="M81.7726 9.32388C79.8142 9.5565 77.8346 9.59954 75.8663 9.45229C70.4662 9.22228 64.9485 8.97122 59.9316 7.26336C62.9912 7.25294 66.0244 7.71922 69.0545 8.08213C73.2305 8.58227 77.5771 8.96029 81.7726 9.32388Z" fill="#EB924D"/>
<path d="M84.2386 9.16702C82.8053 9.1254 81.3781 8.98213 79.9527 8.83896C73.5136 8.19233 67.0745 7.54571 60.6355 6.89911C53.652 6.19782 46.6239 5.49554 39.6154 5.94072C38.6836 5.92988 37.6877 6.03267 36.7559 6.02183C41.0522 6.45886 45.3786 6.59477 49.6974 6.4284C51.3948 6.30999 53.0993 6.30349 54.7978 6.40897C56.1497 6.56992 57.4906 6.80118 58.814 7.10161C61.3125 7.60264 63.8363 7.99389 66.3702 8.31252C73.4497 9.16694 80.5863 9.55975 87.7264 9.488C86.4144 9.34468 85.5592 9.20542 84.2386 9.16702Z" fill="url(#paint9_linear_33_2)"/>
<path d="M27.5649 14.918C24.1457 15.2654 20.6949 15.2586 17.2773 14.898C20.7006 14.629 24.1429 14.6357 27.5649 14.918V14.918Z" fill="#EB924D"/>
<path d="M30.2636 14.944C25.4232 14.8552 20.5821 14.8371 15.7402 14.8896C16.3274 14.8551 16.9121 14.791 17.4917 14.6976C18.0938 14.6278 18.696 14.5578 19.2998 14.5014C20.5059 14.3777 21.7217 14.3532 22.9326 14.4283C23.1288 14.4334 23.3249 14.418 23.5173 14.3823C23.803 14.3661 24.0897 14.3752 24.3735 14.4093C24.9929 14.4444 25.6118 14.4861 26.2302 14.5344C27.4668 14.631 28.7006 14.7539 29.9315 14.9031C30.0422 14.9165 30.1529 14.9302 30.2636 14.944Z" fill="url(#paint10_linear_33_2)"/>
<path d="M39.6467 22.1748C38.3271 22.6488 37.0075 23.1229 35.6879 23.5969C34.8651 23.9116 34.0207 24.1765 33.1602 24.39C32.0371 24.6144 30.895 24.7495 29.7466 24.7938C26.8608 24.9783 23.9196 25.135 21.1113 24.4981C27.3704 24.4416 33.5118 23.3141 39.6467 22.1748Z" fill="#EB924D"/>
<path d="M45.529 20.8418C42.1869 21.6431 38.8448 22.4444 35.5027 23.2458C33.9166 23.6527 32.3088 23.9848 30.6857 24.2405C28.6623 24.4906 26.6224 24.6103 24.5808 24.5987C22.7714 24.62 20.9619 24.6223 19.1523 24.6056C19.8511 24.5051 20.5523 24.4217 21.2561 24.3554C21.5415 24.3285 21.8499 24.338 22.1304 24.2985C23.5843 24.1626 25.0456 24.1052 26.5068 24.1265C28.0727 23.9925 29.6279 23.7688 31.1634 23.4565C33.6087 23.0884 36.0434 22.6636 38.4718 22.2112C40.8281 21.7721 43.1786 21.307 45.529 20.8418Z" fill="url(#paint11_linear_33_2)"/>
<path d="M103.801 26.8442C101.032 27.7593 97.9975 27.5938 95.0605 27.4225C94.4454 27.371 93.8266 27.3665 93.2106 27.4089C92.8179 27.4526 92.4279 27.5148 92.0421 27.5952C90.3053 27.9606 88.5406 28.2035 86.7633 28.3216C84.9811 28.439 83.1913 28.2297 81.498 27.7061C86.1393 28.3904 90.9226 27.0588 95.6224 26.968C96.7926 26.9454 97.9642 26.9944 99.1331 26.9403C100.731 26.8663 102.201 26.8642 103.801 26.8442Z" fill="#EB924D"/>
<path d="M79.7051 27.5379C82.2407 27.9494 84.8178 28.106 87.3904 28.0046C89.0452 27.8837 90.6731 27.5498 92.3232 27.3842C94.2807 27.1877 96.2557 27.2294 98.2246 27.2012C101.761 27.1505 105.289 26.8739 108.783 26.3735C107.805 26.3521 106.827 26.3578 105.849 26.3905C104.988 26.4193 104.133 26.3736 103.269 26.3892C101.352 26.4239 99.438 26.5379 97.5276 26.6832C95.6202 26.8284 93.7159 27.005 91.8102 27.1663C89.908 27.3273 88.0036 27.4734 86.0952 27.557C84.1853 27.6407 82.2708 27.6618 80.3607 27.5729C80.1445 27.5628 79.9195 27.5655 79.7051 27.5379Z" fill="url(#paint12_linear_33_2)"/>
<path d="M19.1378 24V10.9091H24.3026C25.2912 10.9091 26.1349 11.0859 26.8338 11.4396C27.5369 11.7891 28.0717 12.2855 28.4382 12.929C28.8089 13.5682 28.9943 14.3203 28.9943 15.1854C28.9943 16.0547 28.8068 16.8026 28.4318 17.429C28.0568 18.0511 27.5135 18.5284 26.8018 18.8608C26.0945 19.1932 25.2379 19.3594 24.2322 19.3594H20.7741V17.1349H23.7848C24.3132 17.1349 24.7521 17.0625 25.1016 16.9176C25.451 16.7727 25.7109 16.5554 25.8814 16.2656C26.0561 15.9759 26.1435 15.6158 26.1435 15.1854C26.1435 14.7507 26.0561 14.3842 25.8814 14.0859C25.7109 13.7876 25.4489 13.5618 25.0952 13.4084C24.7457 13.2507 24.3047 13.1719 23.772 13.1719H21.9055V24H19.1378ZM26.2074 18.0426L29.4609 24H26.4055L23.2223 18.0426H26.2074ZM36.1154 24.1918C35.1054 24.1918 34.2361 23.9872 33.5074 23.5781C32.783 23.1648 32.2248 22.581 31.8327 21.8267C31.4407 21.0682 31.2446 20.1712 31.2446 19.1357C31.2446 18.1257 31.4407 17.2393 31.8327 16.4766C32.2248 15.7138 32.7766 15.1193 33.4882 14.6932C34.2042 14.267 35.0436 14.054 36.0067 14.054C36.6544 14.054 37.2574 14.1584 37.8157 14.3672C38.3782 14.5717 38.8682 14.8807 39.2858 15.294C39.7077 15.7074 40.0358 16.2273 40.2702 16.8537C40.5046 17.4759 40.6218 18.2045 40.6218 19.0398V19.7876H32.3313V18.1001H38.0586C38.0586 17.7081 37.9733 17.3608 37.8029 17.0582C37.6324 16.7557 37.3959 16.5192 37.0934 16.3487C36.7951 16.174 36.4478 16.0866 36.0515 16.0866C35.6381 16.0866 35.2716 16.1825 34.952 16.3743C34.6367 16.5618 34.3895 16.8153 34.2105 17.1349C34.0316 17.4503 33.94 17.8018 33.9357 18.1896V19.794C33.9357 20.2798 34.0252 20.6996 34.2042 21.0533C34.3874 21.407 34.6452 21.6797 34.9776 21.8714C35.31 22.0632 35.7042 22.1591 36.1601 22.1591C36.4627 22.1591 36.7397 22.1165 36.9911 22.0312C37.2425 21.946 37.4577 21.8182 37.6367 21.6477C37.8157 21.4773 37.952 21.2685 38.0458 21.0213L40.5642 21.1875C40.4364 21.7926 40.1743 22.321 39.778 22.7727C39.386 23.2202 38.8789 23.5696 38.2567 23.821C37.6388 24.0682 36.925 24.1918 36.1154 24.1918ZM47.7221 27.8864C46.8399 27.8864 46.0836 27.7649 45.4529 27.522C44.8265 27.2834 44.3279 26.9574 43.9571 26.544C43.5864 26.1307 43.3456 25.6662 43.2348 25.1506L45.7533 24.8118C45.83 25.0078 45.9515 25.1911 46.1176 25.3615C46.2838 25.532 46.5033 25.6683 46.776 25.7706C47.053 25.8771 47.3897 25.9304 47.786 25.9304C48.3783 25.9304 48.8662 25.7855 49.2498 25.4957C49.6375 25.2102 49.8314 24.7308 49.8314 24.0575V22.2614H49.7164C49.5971 22.5341 49.4181 22.7919 49.1794 23.0348C48.9408 23.2777 48.634 23.4759 48.259 23.6293C47.884 23.7827 47.4365 23.8594 46.9167 23.8594C46.1794 23.8594 45.5083 23.6889 44.9032 23.348C44.3023 23.0028 43.8229 22.4766 43.4649 21.7692C43.1113 21.0575 42.9344 20.1584 42.9344 19.0717C42.9344 17.9595 43.1155 17.0305 43.4777 16.2848C43.8399 15.5391 44.3215 14.9808 44.9223 14.6101C45.5274 14.2393 46.1901 14.054 46.9103 14.054C47.46 14.054 47.9202 14.1477 48.2909 14.3352C48.6617 14.5185 48.96 14.7486 49.1858 15.0256C49.4159 15.2983 49.5928 15.5668 49.7164 15.831H49.8186V14.1818H52.5225V24.0959C52.5225 24.9311 52.3179 25.63 51.9088 26.1925C51.4998 26.755 50.933 27.1768 50.2086 27.4581C49.4884 27.7436 48.6596 27.8864 47.7221 27.8864ZM47.7796 21.8139C48.2185 21.8139 48.5892 21.7053 48.8918 21.4879C49.1986 21.2663 49.433 20.951 49.5949 20.5419C49.7611 20.1286 49.8442 19.6342 49.8442 19.0589C49.8442 18.4837 49.7632 17.9851 49.6013 17.5632C49.4394 17.1371 49.205 16.8068 48.8982 16.5724C48.5914 16.3381 48.2185 16.2209 47.7796 16.2209C47.3321 16.2209 46.955 16.3423 46.6482 16.5852C46.3414 16.8239 46.1091 17.1562 45.9515 17.5824C45.7938 18.0085 45.7149 18.5007 45.7149 19.0589C45.7149 19.6257 45.7938 20.1158 45.9515 20.5291C46.1134 20.9382 46.3456 21.2557 46.6482 21.4815C46.955 21.7031 47.3321 21.8139 47.7796 21.8139ZM55.5894 24V14.1818H58.3124V24H55.5894ZM56.9573 12.9162C56.5525 12.9162 56.2051 12.782 55.9154 12.5135C55.6299 12.2408 55.4871 11.9148 55.4871 11.5355C55.4871 11.1605 55.6299 10.8388 55.9154 10.5703C56.2051 10.2976 56.5525 10.1612 56.9573 10.1612C57.3621 10.1612 57.7073 10.2976 57.9928 10.5703C58.2826 10.8388 58.4275 11.1605 58.4275 11.5355C58.4275 11.9148 58.2826 12.2408 57.9928 12.5135C57.7073 12.782 57.3621 12.9162 56.9573 12.9162ZM69.5627 16.9815L67.0698 17.1349C67.0272 16.9219 66.9356 16.7301 66.795 16.5597C66.6543 16.3849 66.469 16.2464 66.2388 16.1442C66.013 16.0376 65.7424 15.9844 65.4271 15.9844C65.0052 15.9844 64.6494 16.0739 64.3596 16.2528C64.0698 16.4276 63.9249 16.6619 63.9249 16.956C63.9249 17.1903 64.0187 17.3885 64.2062 17.5504C64.3937 17.7124 64.7154 17.8423 65.1714 17.9403L66.9484 18.2983C67.9029 18.4943 68.6146 18.8097 69.0833 19.2443C69.5521 19.679 69.7864 20.25 69.7864 20.9574C69.7864 21.6009 69.5968 22.1655 69.2175 22.6513C68.8425 23.1371 68.3269 23.5163 67.6707 23.7891C67.0187 24.0575 66.2665 24.1918 65.4143 24.1918C64.1146 24.1918 63.079 23.9212 62.3077 23.38C61.5407 22.8345 61.0911 22.093 60.959 21.1555L63.6373 21.0149C63.7183 21.4112 63.9143 21.7138 64.2254 21.9226C64.5364 22.1271 64.9349 22.2294 65.4207 22.2294C65.8979 22.2294 66.2815 22.1378 66.5712 21.9545C66.8653 21.767 67.0144 21.5263 67.0187 21.2322C67.0144 20.9851 66.91 20.7827 66.7055 20.625C66.5009 20.4631 66.1856 20.3395 65.7594 20.2543L64.0592 19.9155C63.1004 19.7237 62.3866 19.3913 61.9178 18.9183C61.4533 18.4453 61.2211 17.8423 61.2211 17.1094C61.2211 16.4787 61.3915 15.9354 61.7325 15.4794C62.0776 15.0234 62.5613 14.6719 63.1835 14.4247C63.8099 14.1776 64.5428 14.054 65.3823 14.054C66.6224 14.054 67.5982 14.3161 68.3099 14.8402C69.0258 15.3643 69.4434 16.0781 69.5627 16.9815ZM77.6234 14.1818V16.2273H71.7108V14.1818H77.6234ZM73.0531 11.8295H75.7761V20.983C75.7761 21.2344 75.8145 21.4304 75.8912 21.571C75.9679 21.7074 76.0744 21.8033 76.2108 21.8587C76.3514 21.9141 76.5133 21.9418 76.6966 21.9418C76.8244 21.9418 76.9522 21.9311 77.0801 21.9098C77.2079 21.8842 77.3059 21.8651 77.3741 21.8523L77.8024 23.8786C77.666 23.9212 77.4743 23.9702 77.2271 24.0256C76.9799 24.0852 76.6795 24.1214 76.3258 24.1342C75.6696 24.1598 75.0943 24.0724 74.6 23.8722C74.1099 23.6719 73.7285 23.3608 73.4558 22.9389C73.1831 22.517 73.0488 21.9844 73.0531 21.3409V11.8295ZM84.6662 24.1918C83.6562 24.1918 82.7869 23.9872 82.0582 23.5781C81.3338 23.1648 80.7755 22.581 80.3835 21.8267C79.9914 21.0682 79.7954 20.1712 79.7954 19.1357C79.7954 18.1257 79.9914 17.2393 80.3835 16.4766C80.7755 15.7138 81.3274 15.1193 82.039 14.6932C82.7549 14.267 83.5944 14.054 84.5575 14.054C85.2052 14.054 85.8082 14.1584 86.3664 14.3672C86.9289 14.5717 87.419 14.8807 87.8366 15.294C88.2585 15.7074 88.5866 16.2273 88.821 16.8537C89.0554 17.4759 89.1726 18.2045 89.1726 19.0398V19.7876H80.8821V18.1001H86.6093C86.6093 17.7081 86.5241 17.3608 86.3537 17.0582C86.1832 16.7557 85.9467 16.5192 85.6441 16.3487C85.3458 16.174 84.9985 16.0866 84.6022 16.0866C84.1889 16.0866 83.8224 16.1825 83.5028 16.3743C83.1875 16.5618 82.9403 16.8153 82.7613 17.1349C82.5824 17.4503 82.4907 17.8018 82.4865 18.1896V19.794C82.4865 20.2798 82.576 20.6996 82.7549 21.0533C82.9382 21.407 83.196 21.6797 83.5284 21.8714C83.8608 22.0632 84.2549 22.1591 84.7109 22.1591C85.0135 22.1591 85.2904 22.1165 85.5419 22.0312C85.7933 21.946 86.0085 21.8182 86.1875 21.6477C86.3664 21.4773 86.5028 21.2685 86.5966 21.0213L89.115 21.1875C88.9872 21.7926 88.7251 22.321 88.3288 22.7727C87.9368 23.2202 87.4297 23.5696 86.8075 23.821C86.1896 24.0682 85.4758 24.1918 84.6662 24.1918ZM91.8495 24V14.1818H94.4895V15.8949H94.5917C94.7707 15.2855 95.0711 14.8253 95.493 14.5142C95.9149 14.1989 96.4007 14.0412 96.9504 14.0412C97.0868 14.0412 97.2338 14.0497 97.3914 14.0668C97.5491 14.0838 97.6876 14.1072 97.8069 14.1371V16.5533C97.6791 16.5149 97.5022 16.4808 97.2764 16.451C97.0505 16.4212 96.8439 16.4062 96.6564 16.4062C96.2558 16.4062 95.8978 16.4936 95.5825 16.6683C95.2714 16.8388 95.0243 17.0774 94.841 17.3842C94.662 17.6911 94.5726 18.0447 94.5726 18.4453V24H91.8495Z" fill="white"/>
<defs>
<linearGradient id="paint0_linear_33_2" x1="83.8479" y1="-48.6135" x2="67.9166" y2="-1.8833" gradientUnits="userSpaceOnUse">
<stop stop-color="#CF5C2B"/>
<stop offset="1" stop-color="#59173E"/>
</linearGradient>
<linearGradient id="paint1_linear_33_2" x1="64.7762" y1="-14.2855" x2="49.8494" y2="71.5228" gradientUnits="userSpaceOnUse">
<stop stop-color="#CF5C2B"/>
<stop offset="1" stop-color="#59173E"/>
</linearGradient>
<linearGradient id="paint2_linear_33_2" x1="63.8825" y1="-12.9742" x2="44.381" y2="95.5764" gradientUnits="userSpaceOnUse">
<stop stop-color="#CF5C2B"/>
<stop offset="1" stop-color="#59173E"/>
</linearGradient>
<linearGradient id="paint3_linear_33_2" x1="83.219" y1="17.1627" x2="78.2714" y2="31.5788" gradientUnits="userSpaceOnUse">
<stop stop-color="#CF5C2B"/>
<stop offset="1" stop-color="#59173E"/>
</linearGradient>
<linearGradient id="paint4_linear_33_2" x1="95.3017" y1="-7.76544" x2="59.762" y2="82.1197" gradientUnits="userSpaceOnUse">
<stop stop-color="#CF5C2B"/>
<stop offset="1" stop-color="#59173E"/>
</linearGradient>
<linearGradient id="paint5_linear_33_2" x1="28.1549" y1="0.159836" x2="25.5372" y2="7.78706" gradientUnits="userSpaceOnUse">
<stop stop-color="#CF5C2B"/>
<stop offset="1" stop-color="#59173E"/>
</linearGradient>
<linearGradient id="paint6_linear_33_2" x1="41.9788" y1="-28.8492" x2="6.43883" y2="61.0365" gradientUnits="userSpaceOnUse">
<stop stop-color="#CF5C2B"/>
<stop offset="1" stop-color="#59173E"/>
</linearGradient>
<linearGradient id="paint7_linear_33_2" x1="17.2477" y1="1.11243" x2="13.1517" y2="13.0471" gradientUnits="userSpaceOnUse">
<stop stop-color="#CF5C2B"/>
<stop offset="1" stop-color="#59173E"/>
</linearGradient>
<linearGradient id="paint8_linear_33_2" x1="33.2516" y1="-32.2999" x2="-2.28801" y2="57.5851" gradientUnits="userSpaceOnUse">
<stop stop-color="#CF5C2B"/>
<stop offset="1" stop-color="#59173E"/>
</linearGradient>
<linearGradient id="paint9_linear_33_2" x1="77.0739" y1="-17.9856" x2="68.6113" y2="-0.538984" gradientUnits="userSpaceOnUse">
<stop stop-color="#CF5C2B"/>
<stop offset="1" stop-color="#59173E"/>
</linearGradient>
<linearGradient id="paint10_linear_33_2" x1="46.5875" y1="-38.5049" x2="34.1498" y2="-5.03765" gradientUnits="userSpaceOnUse">
<stop stop-color="#CF5C2B"/>
<stop offset="1" stop-color="#59173E"/>
</linearGradient>
<linearGradient id="paint11_linear_33_2" x1="57.5706" y1="-34.4221" x2="45.133" y2="-0.954868" gradientUnits="userSpaceOnUse">
<stop stop-color="#CF5C2B"/>
<stop offset="1" stop-color="#59173E"/>
</linearGradient>
<linearGradient id="paint12_linear_33_2" x1="113.557" y1="-13.605" x2="100.252" y2="19.5912" gradientUnits="userSpaceOnUse">
<stop stop-color="#CF5C2B"/>
<stop offset="1" stop-color="#59173E"/>
</linearGradient>
</defs>
</svg>
