<svg width="104" height="41" viewBox="0 0 104 41" fill="none" xmlns="http://www.w3.org/2000/svg">
<g filter="url(#filter0_d_27_5320)">
<path d="M98.2651 12.6302C97.545 11.8341 96.7515 11.0965 95.8933 10.4255C95.4966 10.0969 95.0999 9.76824 94.7033 9.43963C93.9404 8.80762 93.1776 8.17564 92.4148 7.54368C92.0963 7.22038 91.7341 6.9357 91.3371 6.69653C90.9759 6.50339 90.6403 6.2727 90.3367 6.00903C88.8418 4.87427 87.284 3.81123 85.6694 2.82417C84.4215 1.98561 83.0225 1.35499 81.5365 0.961141C80.8724 0.829561 80.1992 0.739821 79.5217 0.692558C78.5493 0.604286 77.5769 0.515989 76.6046 0.42766L75.1306 0.293776C74.9365 0.280546 74.7442 0.250748 74.5562 0.204774C74.2372 0.12052 73.9164 0.24402 73.589 0.201487C72.9672 0.142828 72.342 0.120011 71.7171 0.133175C71.0325 0.124027 70.3478 0.115361 69.6631 0.107183C66.931 0.0744385 64.1987 0.049217 61.4664 0.0315198C58.7444 0.0139081 56.0223 0.00390942 53.3003 0.0015156C50.5886 -0.000835479 47.8769 0.00450396 45.1652 0.0175417C42.4639 0.0305795 39.7626 0.0513985 37.0614 0.0799961C34.3705 0.108551 31.6798 0.144999 28.9891 0.189342C26.3088 0.233585 23.6287 0.285797 20.9487 0.34597C18.279 0.405987 15.6096 0.474078 12.9404 0.550253C11.5432 0.590179 10.146 0.632341 8.74896 0.67674C8.63308 0.671941 8.51698 0.678563 8.40264 0.696491C8.28491 0.725003 8.16866 0.767363 8.05376 0.804382C7.81574 0.879216 7.58232 0.965821 7.35451 1.06381C6.90312 1.24469 6.51005 1.52907 6.21306 1.8896C6.0498 2.10287 5.9363 2.3434 5.78427 2.56299C5.69784 2.66299 5.61708 2.76699 5.54232 2.87461C5.25635 3.44683 4.9096 3.9918 4.5071 4.5016C4.11811 5.04833 3.94464 5.70067 4.0155 6.35032C4.07882 7.15952 4.10007 7.97808 4.17839 8.78411C4.30349 10.0718 4.18887 11.3612 4.3409 12.6562C4.32889 12.7354 4.33504 12.8161 4.35893 12.893C4.38282 12.9699 4.42393 13.0415 4.47964 13.103C4.53536 13.1645 4.60445 13.2147 4.6825 13.2503C4.76055 13.286 4.84586 13.3063 4.93295 13.31L6.26543 13.5768C5.71592 13.9036 4.8959 13.9283 4.60625 14.4671C4.52541 14.6464 4.48325 14.8383 4.48212 15.0323C4.42989 15.7217 4.35939 16.4097 4.30875 17.0991C4.28601 17.4088 4.26728 17.7189 4.25605 18.0291C4.24529 18.3259 4.21818 18.6086 4.1878 18.9034C4.11722 19.5873 3.92694 20.4807 4.15537 21.1497C4.37626 21.7965 5.25577 21.8235 5.86492 21.9804C5.70765 22.0139 5.55961 22.0768 5.43005 22.1651C5.30049 22.2535 5.19221 22.3655 5.11199 22.494C5.01788 22.6152 4.95107 22.7453 4.86133 22.8693C4.78264 22.9781 4.71042 23.0908 4.64496 23.2068C4.51402 23.439 4.40993 23.6831 4.33438 23.9353C4.28406 24.0903 4.25446 24.2504 4.24627 24.412C4.23863 24.5685 4.23163 24.725 4.22526 24.8816C4.21249 25.1947 4.20233 25.5078 4.19478 25.8211C4.17964 26.4474 4.17481 27.0739 4.1803 27.7004C4.18565 28.3065 4.02944 28.895 4.31024 29.4932C4.55872 30.0316 4.96843 30.4944 5.49187 30.8279C6.01532 31.1614 6.63108 31.352 7.26776 31.3776C13.8998 31.7119 20.5527 31.8503 27.1924 31.9937C33.95 32.1396 40.7087 32.2228 47.4685 32.2432C54.2774 32.2644 61.086 32.2237 67.8945 32.1213C70.1967 32.0915 72.4988 31.9656 74.7922 32.1015C76.905 32.2108 79.0234 32.1906 81.1333 32.0409C82.9671 31.9243 84.6054 31.9276 86.0499 30.7137C89.2369 28.0354 92.6029 25.5403 95.7899 22.8675C96.6704 22.1635 97.4789 21.3873 98.2053 20.5483C98.9694 19.6953 99.5313 18.7054 99.855 17.6419C99.9941 17.1728 100.034 16.6834 99.9713 16.2006C99.9335 15.9997 99.8741 15.8027 99.7942 15.6125C99.7038 15.4497 99.6356 15.2772 99.591 15.0991C99.5334 14.742 99.4117 14.3961 99.2309 14.0755C98.9735 13.5598 98.6493 13.0745 98.2651 12.6302Z" fill="url(#paint0_linear_27_5320)"/>
<path d="M99.4602 17.152C99.378 17.2895 99.291 17.4227 99.2136 17.5469C99.1846 17.5913 99.1556 17.6401 99.1266 17.68C99.0868 17.7291 99.0376 17.7712 98.9815 17.8042C98.8586 17.8544 98.7222 17.8699 98.5898 17.8486C98.5751 17.8493 98.5604 17.8478 98.5462 17.8441C96.4474 17.68 94.2906 17.1697 92.2788 17.7421C92.8318 17.932 93.4151 18.037 94.0053 18.0527C95.5334 18.168 97.0567 18.2879 98.5801 18.4032C98.5656 18.4165 98.5511 18.4254 98.5366 18.4387C98.377 18.5762 98.2174 18.7093 98.0578 18.8424C97.787 19.0687 97.5597 19.3438 97.2986 19.5834C96.9117 19.9339 96.5054 20.2711 96.1041 20.6039C95.9928 20.6971 95.8816 20.7902 95.7607 20.8878C95.6446 20.9854 95.5238 21.0831 95.4077 21.1763C94.3776 22.037 93.3379 22.8889 92.2837 23.7185C91.9403 23.9937 91.5921 24.2643 91.2439 24.5261C90.8764 24.8144 90.504 25.094 90.1268 25.3691C88.2711 26.7634 86.3056 28.0298 84.2463 29.1582L84.0287 29.2779C83.8923 29.3594 83.7463 29.4264 83.5934 29.4776C83.5236 29.4921 83.4522 29.4995 83.3807 29.4998H83.3081C83.1775 29.4953 83.047 29.4953 82.9164 29.4953C81.838 29.482 80.7451 29.5486 79.6667 29.5796C78.0321 29.6151 76.3991 29.6506 74.7678 29.6861C72.877 29.7261 70.9861 29.7586 69.0952 29.7838C67.4075 29.8059 65.7181 29.8266 64.0271 29.8459C62.5861 29.8592 61.1449 29.8725 59.7086 29.8769C58.7898 29.8858 57.8662 29.8902 56.9425 29.8947C55.4336 29.9035 53.9248 29.9035 52.4209 29.9035C51.5504 29.9035 50.6799 29.9035 49.8094 29.8991H48.7649C48.2426 29.8991 47.7203 29.8947 47.198 29.8902C46.9901 29.8902 46.7869 29.8902 46.5838 29.8858C45.0412 29.8814 43.5082 29.8681 41.9704 29.8548C41.4481 29.8503 40.9306 29.8459 40.4083 29.837C39.3492 29.8281 38.2902 29.8148 37.2311 29.7971C36.6024 29.7926 35.9737 29.7838 35.3402 29.7705C33.725 29.7482 32.1195 29.7172 30.5091 29.6861C29.8659 29.6773 29.2276 29.6639 28.5844 29.6506C27.7768 29.6329 26.9644 29.6151 26.1567 29.5885C25.441 29.5752 24.7301 29.5575 24.0144 29.5397C22.4621 29.4998 20.9114 29.4554 19.3622 29.4066C19.0915 29.4022 18.8206 29.3933 18.5498 29.3845C18.2064 29.3756 17.8583 29.3622 17.5149 29.3489C16.3978 29.3135 15.2839 29.2765 14.1733 29.238C13.6751 29.2203 13.177 29.2025 12.679 29.1804C11.3732 29.1182 10.0578 29.0339 8.75214 29.0339C8.10844 29.0091 7.48603 28.8153 6.95883 28.4755C6.43163 28.1358 6.0218 27.6643 5.778 27.1172C5.57962 26.641 5.5019 26.1297 5.55073 25.622C5.55335 25.5319 5.56796 25.4425 5.59424 25.3557C5.64945 25.2261 5.69313 25.0926 5.72483 24.9564C5.75386 24.7834 5.76836 24.6059 5.78285 24.4284C5.79734 24.2598 5.81187 24.0869 5.82156 23.9138C5.83121 23.7807 5.84575 23.6475 5.85539 23.5145C5.86927 23.3416 5.89512 23.1697 5.93278 22.9998C5.94247 22.9421 5.9618 22.8844 5.97629 22.8312C5.99078 22.7868 6.00531 22.7425 6.02465 22.6981C6.05177 22.6203 6.08912 22.5458 6.13587 22.4762C6.16894 22.42 6.20955 22.3679 6.25677 22.3209C6.30202 22.2736 6.35223 22.2305 6.40666 22.1923C7.36422 21.5356 9.23088 21.5445 10.6237 21.5178C10.8945 21.509 11.1459 21.5046 11.3732 21.4913C11.9777 21.4557 12.5822 21.4424 13.1916 21.4469C11.7552 21.4428 10.3219 21.327 8.90687 21.1008C8.23469 20.9988 7.56731 20.8657 6.90962 20.7104C6.74475 20.6755 6.58429 20.6249 6.43084 20.5595C6.22322 20.4872 6.0525 20.3464 5.95211 20.1646C5.88873 20.0028 5.8656 19.83 5.88441 19.6588C5.88921 19.4946 5.86508 19.326 5.87473 19.1619C5.88922 18.8114 5.93762 18.4697 5.97629 18.1237C6.01496 17.8441 6.04883 17.5602 6.06817 17.2762C6.11653 16.5219 6.16975 15.7721 6.2326 15.0223C6.22375 14.7934 6.30244 14.569 6.45506 14.3878C6.56355 14.299 6.69247 14.2338 6.83223 14.197C7.19895 14.0723 7.57791 13.9801 7.96386 13.9219C8.14282 13.8909 8.33622 13.8909 8.51034 13.8465C8.70027 13.7879 8.8964 13.7477 9.09548 13.7267C11.2136 13.5005 13.3302 13.2742 15.4451 13.0479C15.6966 13.0213 15.9529 12.9947 16.2043 12.9681C13.0126 12.6131 9.82087 12.2493 6.62914 11.8943C6.4889 11.8766 6.34865 11.8633 6.20841 11.8455C6.07166 11.8469 5.93975 11.7991 5.8409 11.7124C5.78621 11.6311 5.7577 11.5373 5.75866 11.4418C5.61357 9.85778 5.77799 8.22503 5.68127 6.62775C5.67642 6.58338 5.67163 6.45027 5.65714 6.26393C5.65229 6.17074 5.64745 6.06426 5.6378 5.94893C5.6378 5.90897 5.6378 5.86019 5.63295 5.81577C5.62811 5.74481 5.62327 5.67382 5.61842 5.59837V5.58067C5.61358 5.50522 5.60875 5.42979 5.60393 5.35437C5.59909 5.27452 5.59423 5.19907 5.58939 5.11922C5.5749 4.86188 5.55556 4.60899 5.54107 4.41376C5.53623 4.34716 5.53139 4.2895 5.52654 4.23628C5.52654 4.2141 5.52175 4.18746 5.52175 4.16972C5.5169 4.11206 5.51206 4.07209 5.50722 4.0455C5.50237 4.02331 5.50236 4.01002 5.49752 4.01002C5.4639 3.59341 5.52226 3.17485 5.66911 2.77941C5.81596 2.38398 6.04829 2.0198 6.35216 1.70869C6.65604 1.39758 7.02522 1.14593 7.43761 0.968811C7.84999 0.791693 8.2971 0.69275 8.75214 0.677908C9.73868 0.646873 10.7252 0.617288 11.7118 0.58916C12.9981 0.549235 14.2796 0.513755 15.566 0.482678C19.7056 0.367347 23.8564 0.275658 28.0186 0.207605L31.2974 0.154386C35.6304 0.0877869 39.9779 0.0433979 44.34 0.0212266C45.4668 0.0168236 46.5983 0.0123791 47.7251 0.00793341C49.0744 0.00348774 50.4252 0.00200307 51.7777 0.00348496C54.3891 0.00348496 57.0102 0.00793231 59.6264 0.0212266C59.8827 0.0212266 60.1342 0.025675 60.3905 0.025675C62.6779 0.039012 64.9653 0.0567676 67.2527 0.078939C68.8921 0.0966789 70.5331 0.11738 72.1757 0.141048C73.5395 0.158788 74.9048 0.179489 76.2718 0.203156C77.0117 0.216451 77.7419 0.238679 78.4819 0.243081C78.6173 0.247527 78.7527 0.24753 78.8881 0.24753C79.0186 0.24753 79.1492 0.247527 79.2797 0.243081H79.2846C79.5554 0.243081 79.8262 0.234235 80.097 0.220898C80.1745 0.220898 80.247 0.21645 80.3243 0.212047C80.6555 0.189897 80.9883 0.215342 81.3109 0.287455C81.3208 0.286752 81.3308 0.28828 81.3399 0.291904C81.8709 0.437655 82.3796 0.644889 82.8535 0.908607C82.9019 0.935238 82.9551 0.95743 83.0035 0.984061C87.0357 3.01407 90.747 5.53979 94.0343 8.49121C94.1552 8.5977 94.2761 8.70863 94.3922 8.81511C95.5286 9.85779 96.607 10.9448 97.6854 12.0274C97.8644 12.2093 98.0433 12.3912 98.2174 12.5776C98.6168 12.987 98.9715 13.4313 99.2765 13.9042C99.4919 14.2363 99.6548 14.5948 99.7601 14.969C99.8084 15.1465 99.8278 15.3329 99.881 15.5104C99.932 15.7959 99.9211 16.088 99.8489 16.3697C99.7767 16.6514 99.6447 16.9172 99.4602 17.152V17.152Z" fill="url(#paint1_linear_27_5320)"/>
<path d="M97.6861 12.0269C96.6077 10.9443 95.5293 9.85733 94.3929 8.81465C94.2768 8.70816 94.1559 8.59723 94.035 8.49075C90.0115 8.45083 85.988 8.27779 81.9693 8.01601C72.7568 7.41704 63.5636 6.62729 54.3511 5.98391C45.1435 5.34061 35.9309 4.7993 26.6942 4.75938C22.0324 4.7416 17.3899 4.87471 12.7473 5.18976C10.3778 5.34946 7.98876 5.39828 5.61914 5.58461C5.64817 6.09043 5.67234 6.53855 5.68199 6.62729C5.77871 8.22457 5.61429 9.85732 5.75938 11.4413C5.75842 11.5368 5.78693 11.6307 5.84162 11.7119C5.84647 11.7164 5.85132 11.7252 5.86096 11.7297C7.83842 11.9589 9.83062 12.0641 11.8237 12.0447C16.471 12.0802 21.1087 11.8406 25.7561 11.8628C26.9796 11.8716 28.2063 11.8864 29.4362 11.9072C30.0456 11.9205 30.6598 11.9338 31.2739 11.9471C31.6293 11.9307 31.9855 11.9456 32.3378 11.9915C32.7818 12.0603 33.2334 12.0782 33.6822 12.0447C34.6929 12.0225 35.6988 11.9338 36.7095 11.8539C37.6574 11.7741 38.6052 11.7031 39.5579 11.6942C43.18 11.6587 46.749 12.5372 50.3711 12.5815C51.3417 12.551 52.3134 12.5896 53.2775 12.6969C53.8433 12.7901 54.3898 12.9498 54.9508 13.0741C55.9005 13.2896 56.8741 13.4043 57.8523 13.4157C58.3449 13.4275 58.8377 13.4082 59.3273 13.358C59.8076 13.3292 60.2898 13.3381 60.7684 13.3846C62.8189 13.4823 64.871 13.5651 66.9246 13.6331C68.535 13.6863 70.1453 13.7248 71.7557 13.7484C64.3519 14.3386 56.948 14.908 49.5442 15.4566C45.7431 15.7362 41.9276 16.0423 38.1071 16.0423C33.982 16.0423 29.8569 15.5942 25.7174 15.8027C22.0614 15.9891 18.3716 16.273 14.7446 16.7478C11.9204 17.1205 8.91244 17.9014 5.97701 18.1232C5.93834 18.4693 5.88994 18.8109 5.87545 19.1614C5.8658 19.3256 5.88993 19.4942 5.88513 19.6584C5.86632 19.8295 5.88945 20.0023 5.95283 20.1642C6.05322 20.3459 6.22394 20.4867 6.43156 20.559C6.585 20.6245 6.74547 20.675 6.91034 20.7099C7.56803 20.8652 8.23541 20.9983 8.90759 21.1003C10.0199 21.0604 11.1321 20.9939 12.2202 20.8696C15.4265 20.5103 18.9567 20.386 22.2258 19.7826L24.2859 19.6628C28.0773 19.3565 31.8439 18.832 35.5634 18.0922C37.962 17.6573 40.3897 17.3335 42.8174 17.0717C43.1317 17.0362 43.4266 16.9563 43.7362 16.9341C43.9877 16.9119 44.244 16.8942 44.4954 16.8764C45.511 16.8054 46.5282 16.7478 47.5469 16.7034C49.578 16.6147 51.6188 16.5747 53.6547 16.557C55.6955 16.5393 57.7314 16.5481 59.7723 16.5481C61.813 16.5526 63.8489 16.5481 65.8897 16.5171C67.9256 16.4904 69.9664 16.4283 71.9976 16.313C72.6407 16.2775 73.2791 16.2331 73.9174 16.1887C72.2115 15.8247 70.4813 15.5638 68.7381 15.4078C71.9395 15.1593 75.1248 14.7926 78.294 14.3075C80.267 14.0013 82.2352 13.6553 84.2277 13.4467C85.2215 13.3396 86.2206 13.2789 87.2211 13.2648C87.7192 13.256 88.2174 13.2648 88.7154 13.2959C89.1685 13.3571 89.6261 13.3853 90.084 13.3802C90.4032 13.3447 90.6982 13.2293 91.0222 13.2027C91.53 13.1628 92.0378 13.1273 92.5504 13.0874C93.5659 13.0075 94.5831 12.9188 95.6018 12.8211C95.8726 12.7945 96.1483 12.7679 96.424 12.7368C97.014 12.6747 97.6136 12.6259 98.2181 12.5771C98.044 12.3908 97.8651 12.2089 97.6861 12.0269ZM91.3607 19.0904C86.285 18.8102 81.1965 18.785 76.1178 19.015C75.0587 19.0549 74.0238 19.0771 72.9744 19.1969C72.4714 19.2591 71.9637 19.3167 71.4559 19.37C69.4296 19.5918 67.3985 19.7722 65.3626 19.9113C64.5695 19.9689 63.7764 20.0177 62.9833 20.0621C65.0386 20.0488 67.0955 20.0355 69.154 20.0222C71.2093 20.0089 73.2662 19.9941 75.3247 19.9778C76.3547 19.9734 77.3848 19.9645 78.41 19.9601C78.9275 19.9556 79.4401 19.9512 79.9527 19.9468C80.1709 19.9587 80.3899 19.9483 80.6055 19.9157C80.7361 19.8891 80.8618 19.8403 80.9924 19.8225C81.4733 19.7953 81.9558 19.8101 82.4335 19.8669C82.9413 19.8935 83.4539 19.9201 83.9617 19.9468C84.9821 20.0044 86.0025 20.0695 87.0229 20.142C88.6284 20.2529 90.2339 20.3771 91.8395 20.5058C93.15 20.6167 94.4573 20.7439 95.7614 20.8874L95.7711 20.8785C95.8823 20.7897 95.9935 20.6966 96.1048 20.6034C96.5061 20.2706 96.9124 19.9334 97.2993 19.5829C95.3262 19.3921 93.3483 19.2147 91.3607 19.0904ZM57.7992 22.8174C48.7849 22.6532 39.7901 22.1785 30.771 22.2095C26.0172 22.2229 21.2683 22.2939 16.5243 22.4226C13.023 22.5157 9.47341 22.498 5.97701 22.8307C5.91482 23.0548 5.87436 23.2834 5.85611 23.514C5.81744 23.9177 5.8029 24.3304 5.75459 24.7341C9.64753 24.8805 13.5888 24.6365 17.4721 24.6276C22.221 24.6187 26.9699 24.6646 31.7189 24.7652C40.7185 24.9604 49.7086 25.4174 58.7083 25.5638C67.8628 25.7147 77.0028 25.1113 86.1379 24.6898C87.8353 24.6099 89.5376 24.5611 91.2447 24.5256C91.5928 24.2638 91.941 23.9932 92.2844 23.7181C93.3386 22.8884 94.3783 22.0365 95.4084 21.1758C92.0087 21.4775 88.6042 21.7659 85.1949 21.9389C76.0694 22.4003 66.9391 22.9815 57.7992 22.8174Z" fill="url(#paint2_linear_27_5320)"/>
<path d="M71.4194 21.2222C69.5411 20.2584 66.4218 20.5558 64.9351 21.8529C64.707 22.059 64.5258 22.3047 64.4022 22.5756C64.2785 22.8465 64.2148 23.1373 64.2148 23.431C64.2148 23.7247 64.2785 24.0155 64.4022 24.2864C64.5258 24.5573 64.707 24.803 64.9351 25.0091C67.1029 26.7986 70.9085 26.035 72.2829 23.8196C72.3093 23.7978 72.3356 23.776 72.3619 23.7542C73.4115 22.884 72.664 21.4386 71.4194 21.2222Z" fill="#EB924D"/>
<path d="M71.8647 20.374C69.9864 19.4103 66.8672 19.7077 65.3803 21.0048C65.1522 21.2109 64.9711 21.4565 64.8475 21.7274C64.7238 21.9984 64.6602 22.2891 64.6602 22.5829C64.6602 22.8766 64.7238 23.1673 64.8475 23.4383C64.9711 23.7092 65.1522 23.9548 65.3803 24.1609C67.5482 25.9504 71.3538 25.1868 72.7283 22.9715L72.8072 22.906C73.8568 22.0358 73.1093 20.5905 71.8647 20.374Z" fill="url(#paint3_linear_27_5320)"/>
<path d="M71.4194 20.9209C69.5411 19.9572 66.4218 20.2546 64.9351 21.5517C64.707 21.7578 64.5258 22.0034 64.4022 22.2743C64.2785 22.5452 64.2148 22.836 64.2148 23.1297C64.2148 23.4234 64.2785 23.7142 64.4022 23.9851C64.5258 24.2561 64.707 24.5017 64.9351 24.7078C67.1029 26.4973 70.9085 25.7337 72.2829 23.5183C72.3093 23.4965 72.3356 23.4747 72.3619 23.4528C73.4115 22.5827 72.664 21.1374 71.4194 20.9209Z" fill="url(#paint4_linear_27_5320)"/>
<path d="M26.6458 3.90883C26.0972 3.66406 25.4848 3.56556 24.8783 3.62456C24.2717 3.68357 23.6954 3.8977 23.215 4.24256C23.0943 4.3516 22.9985 4.48157 22.9331 4.62491C22.8677 4.76825 22.834 4.92209 22.834 5.07749C22.834 5.23289 22.8677 5.38673 22.9331 5.53007C22.9985 5.67341 23.0943 5.80338 23.215 5.91242C24.362 6.85922 26.3754 6.45518 27.1026 5.2831L27.1444 5.24843C27.2568 5.14373 27.3352 5.0124 27.3708 4.86914C27.4064 4.72589 27.3978 4.57637 27.3461 4.43732C27.2943 4.29827 27.2014 4.17518 27.0777 4.08185C26.954 3.98851 26.8044 3.9286 26.6458 3.90883V3.90883Z" fill="#EB924D"/>
<path d="M26.8801 3.46012C26.3316 3.21534 25.7192 3.11683 25.1126 3.17583C24.5061 3.23482 23.9298 3.44895 23.4494 3.7938C23.3287 3.90284 23.2329 4.03281 23.1675 4.17615C23.102 4.31949 23.0684 4.47334 23.0684 4.62873C23.0684 4.78413 23.102 4.93798 23.1675 5.08132C23.2329 5.22466 23.3287 5.35463 23.4494 5.46367C24.5964 6.41047 26.6098 6.00646 27.337 4.83434L27.3788 4.79972C27.4912 4.69502 27.5695 4.56368 27.6052 4.42043C27.6408 4.27717 27.6322 4.12765 27.5805 3.9886C27.5287 3.84955 27.4358 3.72648 27.3121 3.63314C27.1884 3.5398 27.0388 3.47989 26.8801 3.46012V3.46012Z" fill="url(#paint5_linear_27_5320)"/>
<path d="M26.6458 3.74916C26.0972 3.50439 25.4848 3.40589 24.8783 3.46489C24.2717 3.5239 23.6954 3.73802 23.215 4.08288C23.0943 4.19192 22.9985 4.32189 22.9331 4.46523C22.8677 4.60857 22.834 4.76242 22.834 4.91781C22.834 5.07321 22.8677 5.22706 22.9331 5.3704C22.9985 5.51373 23.0943 5.64371 23.215 5.75275C24.362 6.69955 26.3754 6.2955 27.1026 5.12343L27.1444 5.08876C27.2568 4.98406 27.3352 4.85273 27.3708 4.70947C27.4064 4.56622 27.3978 4.4167 27.3461 4.27765C27.2943 4.1386 27.2014 4.01552 27.0777 3.92218C26.954 3.82884 26.8044 3.76893 26.6458 3.74916V3.74916Z" fill="url(#paint6_linear_27_5320)"/>
<path d="M17.439 6.82416C15.884 6.02629 13.3017 6.27247 12.0708 7.34631C11.882 7.51693 11.732 7.7203 11.6297 7.94459C11.5273 8.16888 11.4746 8.40961 11.4746 8.65276C11.4746 8.89592 11.5273 9.13664 11.6297 9.36093C11.732 9.58522 11.882 9.7886 12.0708 9.95921C13.8655 11.4407 17.0161 10.8085 18.154 8.9745L18.2193 8.9203C19.0883 8.19989 18.4694 7.00335 17.439 6.82416Z" fill="#EB924D"/>
<path d="M17.8082 6.12198C16.2532 5.32415 13.6709 5.57033 12.44 6.64417C12.2511 6.81479 12.1012 7.01815 11.9988 7.24244C11.8965 7.46672 11.8438 7.70745 11.8438 7.9506C11.8438 8.19375 11.8965 8.43448 11.9988 8.65877C12.1012 8.88305 12.2511 9.08642 12.44 9.25704C14.2347 10.7386 17.3852 10.1064 18.5231 8.27231L18.5885 8.21811C19.4575 7.49774 18.8386 6.30117 17.8082 6.12198Z" fill="url(#paint7_linear_27_5320)"/>
<path d="M17.439 6.57465C15.884 5.77678 13.3017 6.02296 12.0708 7.0968C11.882 7.26742 11.732 7.47079 11.6297 7.69508C11.5273 7.91936 11.4746 8.16009 11.4746 8.40325C11.4746 8.6464 11.5273 8.88713 11.6297 9.11142C11.732 9.33571 11.882 9.53908 12.0708 9.7097C13.8655 11.1912 17.0161 10.559 18.154 8.72498L18.2193 8.67077C19.0883 7.95036 18.4694 6.75384 17.439 6.57465Z" fill="url(#paint8_linear_27_5320)"/>
<path d="M6.32312 19.5927C6.29512 19.9184 6.33116 20.246 6.42953 20.56C6.22193 20.4876 6.05123 20.3468 5.9508 20.1651C5.88741 20.0032 5.86426 19.8304 5.88305 19.6593C5.88789 19.4951 5.86372 19.3265 5.87341 19.1623C5.90239 18.5279 6.02814 17.9067 6.06685 17.2767C6.11517 16.5224 6.16838 15.7726 6.23124 15.0227C6.22242 14.7939 6.30112 14.5695 6.4537 14.3883C6.5622 14.2995 6.69114 14.2343 6.83091 14.1975C7.19764 14.0727 7.5766 13.9806 7.96255 13.9224C8.14146 13.8914 8.33491 13.8914 8.50898 13.847C8.69893 13.7884 8.89506 13.7482 9.09416 13.7272C11.2123 13.5009 13.3288 13.2746 15.4438 13.0483C13.1709 13.4698 10.898 13.8898 8.62503 14.3084C8.18213 14.3891 7.59102 14.3856 7.22117 14.6531C7.08099 14.7663 6.95436 14.8929 6.84341 15.0307C6.80739 15.0716 6.49126 15.6521 6.61356 15.6559C8.28373 15.7069 9.95392 15.758 11.6241 15.809C10.3867 15.9935 9.15323 16.1989 7.92378 16.4252C7.30369 16.5393 6.60122 16.7159 6.32703 17.2388C6.17781 17.5986 6.14216 17.9896 6.2242 18.3672C6.24386 18.4872 6.28891 18.6005 6.31481 18.7191C6.35245 19.0091 6.35524 19.3021 6.32312 19.5927V19.5927Z" fill="#EB924D"/>
<path d="M88.3215 7.72873C88.1909 7.71988 88.0652 7.71543 87.9395 7.70654H88.5536C88.4762 7.71099 88.3988 7.71988 88.3215 7.72873Z" fill="#EB924D"/>
<path d="M99.4634 17.1505C99.433 17.201 99.4105 17.2552 99.3964 17.3115C99.3851 17.3899 99.369 17.4675 99.3482 17.5442C99.3227 17.6566 99.2547 17.7571 99.1563 17.828C99.0578 17.8989 98.9353 17.9356 98.8102 17.9317C98.6791 17.9291 98.5489 17.9111 98.4228 17.878C98.4696 17.7557 98.534 17.6398 98.6142 17.5331C98.6644 17.4373 98.7102 17.3397 98.7518 17.2404C98.8441 17.0184 98.917 16.7899 98.9696 16.5572C99.0665 16.1102 99.1126 15.6551 99.1072 15.1993C99.1456 14.6766 98.9979 14.1565 98.6865 13.7174C98.0723 12.9898 96.902 12.9676 95.8961 13.0164C95.0257 13.0563 94.1552 13.1007 93.2896 13.1406C94.5517 13.0075 95.8171 12.8729 97.0858 12.7368C96.5732 12.058 96.0589 11.3791 95.5431 10.7003C95.1172 10.0262 94.5178 9.45797 93.7973 9.0454C93.1456 8.79177 92.4451 8.66052 91.7372 8.6594C90.0059 8.55292 88.2795 8.45083 86.5482 8.34435C88.4179 8.30877 90.2811 8.13217 92.1192 7.81634C91.5196 7.26619 90.8958 6.73823 90.2574 6.228C89.3482 5.49587 88.4004 4.80376 87.4235 4.15153C86.4467 3.49485 85.4359 2.88259 84.401 2.31021C83.8836 2.02624 83.3565 1.74672 82.8245 1.48498C82.5682 1.35627 82.2926 1.24539 82.0459 1.09898C81.9767 1.04828 81.9002 1.00647 81.8186 0.974709C81.7552 0.960791 81.6904 0.953353 81.6252 0.952526C81.2818 0.939231 80.9385 0.943678 80.5952 0.939233C79.5748 0.930398 78.5527 0.925968 77.5291 0.925939C77.21 0.925939 76.8859 0.925937 76.5619 0.921491H74.7001C73.8393 0.917045 72.9785 0.917049 72.1177 0.917049H71.992C70.6282 0.912603 69.2645 0.912598 67.9007 0.908152C67.2189 0.908152 66.537 0.908152 65.8551 0.903749C65.5329 0.926006 65.2092 0.921547 64.8879 0.890417C64.5951 0.790921 64.2964 0.706493 63.9933 0.637527C63.6943 0.630171 63.3951 0.645006 63.0987 0.681894C62.3539 0.73956 61.6092 0.801669 60.8692 0.877117C60.5287 0.876971 60.1993 0.988719 59.9408 1.19212C59.8741 1.2789 59.798 1.35919 59.7135 1.43172C59.5961 1.48018 59.468 1.50262 59.3395 1.49723C59.2109 1.49183 59.0856 1.45876 58.9736 1.40068C58.4893 1.24508 57.9823 1.15685 57.4696 1.1389C57.0053 1.12116 56.5507 1.19657 56.0865 1.16994C55.7999 1.14324 55.5155 1.09878 55.2354 1.03686C54.0968 0.876188 52.9485 0.77987 51.797 0.748451C50.9555 0.690743 50.1093 0.650859 49.2678 0.624228C46.5403 0.535485 43.808 0.579815 41.0805 0.686297C39.7168 0.73956 38.3531 0.804639 36.9893 0.881527C36.3468 0.96116 35.6978 0.987894 35.0501 0.961416C34.8711 0.93923 34.7067 0.872675 34.5278 0.841641C34.3421 0.816537 34.1541 0.809104 33.9668 0.819457C33.2076 0.82386 32.4484 0.828305 31.6939 0.83275C30.8089 0.837196 29.9191 0.83275 29.0293 0.83275C28.7295 0.83275 28.4393 0.890417 28.1492 0.890417C27.8784 0.890417 27.6124 0.837192 27.3464 0.837192C26.7825 0.841733 26.2246 0.944106 25.7022 1.1389C25.5095 1.23219 25.2961 1.28378 25.0783 1.28975C24.6818 1.27197 24.4061 0.925934 24.0483 0.770635C23.1923 0.39348 22.3122 1.10783 21.4368 0.819457C21.003 0.707907 20.5517 0.664391 20.1021 0.690746C19.517 0.6863 18.9318 0.686297 18.3515 0.686297C16.3736 0.695188 14.3957 0.757302 12.4275 0.939233C11.4458 1.03242 10.4689 1.1522 9.49688 1.31194C9.02778 1.38735 8.549 1.51602 8.07512 1.56483C7.93874 1.56352 7.8047 1.59733 7.68823 1.66242C7.10792 2.03958 5.5072 4.12049 6.64847 4.85698C7.04901 5.05606 7.50629 5.13811 7.95906 5.09213C10.8703 5.05221 13.7832 5.01525 16.6976 4.98125C13.5542 5.21191 10.4092 5.44114 7.26265 5.66896C7.05747 5.6706 6.85493 5.71139 6.66786 5.78873C6.06333 6.09044 6.27131 6.79145 6.18908 7.29727C6.12717 7.98008 6.15967 8.66734 6.28581 9.34266C6.37768 10.1946 6.4889 11.0464 6.62914 11.8938C6.4889 11.8761 6.34865 11.8628 6.20841 11.8451C6.07166 11.8464 5.93975 11.7987 5.8409 11.712C5.78621 11.6307 5.7577 11.5368 5.75866 11.4413C5.61357 9.85733 5.77799 8.22458 5.68127 6.6273C5.67642 6.58293 5.67163 6.44981 5.65714 6.26348C5.65229 6.17029 5.64745 6.06381 5.6378 5.94848C5.6378 5.90851 5.6378 5.85973 5.63295 5.81532C5.62811 5.74436 5.62327 5.67336 5.61842 5.59791V5.58022C5.61358 5.50477 5.60875 5.42933 5.60393 5.35391C5.59909 5.27406 5.59423 5.19862 5.58939 5.11876C5.5749 4.86143 5.55556 4.60853 5.54107 4.41331C5.53623 4.34671 5.53139 4.28905 5.52654 4.23583C5.52654 4.21364 5.52175 4.18701 5.52175 4.16927C5.5169 4.1116 5.51206 4.07163 5.50722 4.04504C5.50237 4.02286 5.50236 4.00957 5.49752 4.00957C5.4639 3.59295 5.52226 3.17439 5.66911 2.77896C5.81596 2.38353 6.04829 2.01935 6.35216 1.70823C6.65604 1.39712 7.02522 1.14547 7.43761 0.968356C7.84999 0.791238 8.29709 0.692295 8.75214 0.677452C9.73868 0.646418 10.7252 0.616833 11.7118 0.588705C12.9981 0.54878 14.2796 0.5133 15.566 0.482223C19.7056 0.366892 23.8564 0.275203 28.0186 0.20715L31.2974 0.153931C35.6304 0.0873319 39.9779 0.0429429 44.34 0.0207715C45.4668 0.0163686 46.5983 0.011924 47.7251 0.00747838C51.6809 -0.00581589 55.648 -0.00138558 59.6264 0.0207715C59.8827 0.0207715 60.1342 0.02522 60.3905 0.02522C62.6779 0.038557 64.9653 0.0563126 67.2527 0.078484C68.8921 0.0962239 70.5331 0.116925 72.1757 0.140593C73.5395 0.158333 74.9048 0.179034 76.2718 0.202701C76.8956 0.211593 77.5195 0.220445 78.1433 0.233782C78.2563 0.230087 78.3693 0.233039 78.4819 0.242626L78.5689 0.255965C78.6532 0.281062 78.7414 0.293057 78.83 0.291448C78.9799 0.282557 79.1299 0.260409 79.2846 0.242626C79.433 0.217923 79.5835 0.204569 79.7343 0.202701C79.8552 0.202701 79.9761 0.211594 80.097 0.220443C80.1792 0.224889 80.2663 0.233778 80.3534 0.238224C80.6725 0.264812 80.9917 0.282554 81.3109 0.287C81.3208 0.286297 81.3308 0.287825 81.3399 0.291448C81.8709 0.4372 82.3796 0.644434 82.8535 0.908152C82.9019 0.934783 82.9551 0.956975 83.0035 0.983606C87.0357 3.01362 90.747 5.53933 94.0343 8.49076C94.1552 8.59724 94.2761 8.70817 94.3921 8.81465C95.5286 9.85734 96.607 10.9443 97.6854 12.027C97.8644 12.2089 98.0433 12.3908 98.2174 12.5771C98.6168 12.9866 98.9715 13.4309 99.2765 13.9037C99.4919 14.2358 99.6548 14.5944 99.76 14.9686C99.8084 15.1461 99.8277 15.3324 99.881 15.5099C99.9857 16.0346 99.8649 16.5762 99.5439 17.021C99.5163 17.0654 99.4882 17.1073 99.4634 17.1505Z" fill="#EB924D"/>
<path d="M98.5371 18.4383C98.3775 18.5759 98.2179 18.709 98.0584 18.8421C97.7875 19.0684 97.5602 19.3435 97.2991 19.583C96.9122 19.9335 96.506 20.2707 96.1046 20.6035C95.9934 20.6967 95.8821 20.7898 95.7612 20.8875C95.6452 20.9851 95.5243 21.0827 95.4083 21.1759C94.3782 22.0366 93.3385 22.8885 92.2842 23.7182C91.9408 23.9933 91.5927 24.2639 91.2445 24.5257C90.877 24.8141 90.5046 25.0936 90.1274 25.3687C88.2717 26.763 86.3061 28.0295 84.2468 29.1578L84.0292 29.2776C83.8928 29.359 83.7468 29.426 83.594 29.4772C83.5241 29.4917 83.4528 29.4991 83.3812 29.4994H83.3087C83.2984 29.4939 83.2867 29.4908 83.2748 29.4906C83.1557 29.4809 83.0358 29.4824 82.917 29.495C81.8337 29.526 80.7505 29.5541 79.6672 29.5793C78.0326 29.6148 76.3997 29.6503 74.7683 29.6858C71.1801 29.7523 67.5998 29.8056 64.0277 29.8455C62.5866 29.8588 61.1455 29.8721 59.7092 29.8766C58.7903 29.8854 57.8667 29.8899 56.943 29.8943C55.4342 29.9032 53.9254 29.9032 52.4214 29.9032C51.5509 29.9032 50.6804 29.9032 49.81 29.8987C48.9347 29.8987 48.0642 29.8943 47.1986 29.8899C46.9906 29.8899 46.7875 29.8899 46.5844 29.8854C45.0417 29.881 43.5087 29.8677 41.9709 29.8544C41.4486 29.85 40.9312 29.8455 40.4089 29.8366C39.3498 29.8278 38.2907 29.8145 37.2316 29.7967C36.603 29.7922 35.9743 29.7834 35.3408 29.7701C33.7256 29.7479 32.1201 29.7168 30.5097 29.6858C29.0589 29.6592 27.6081 29.6237 26.1573 29.5882C25.4415 29.5749 24.7307 29.5571 24.015 29.5394C22.4626 29.4994 20.9119 29.4551 19.3628 29.4062C18.7486 29.3885 18.1296 29.3663 17.5155 29.3486C16.3983 29.3131 15.2845 29.2761 14.1738 29.2376C13.6757 29.2199 13.1776 29.2022 12.6795 29.18C11.3689 29.1356 10.06 29.0868 8.7527 29.0335C8.109 29.0087 7.48659 28.8149 6.95939 28.4752C6.43219 28.1354 6.02235 27.664 5.77855 27.1168C5.58017 26.6407 5.50246 26.1294 5.55128 25.6216C5.55391 25.5316 5.56851 25.4422 5.59479 25.3554C5.65001 25.2257 5.69369 25.0922 5.72539 24.9561C5.75442 24.783 5.76891 24.6056 5.7834 24.4281C5.80274 24.2595 5.81243 24.0865 5.82212 23.9134C5.83176 23.7803 5.8463 23.6472 5.85594 23.5141C5.86982 23.3412 5.89568 23.1693 5.93334 22.9994C5.94303 22.9417 5.96236 22.8841 5.97685 22.8308C5.99134 22.7864 6.00587 22.7421 6.0252 22.6977C6.05233 22.6199 6.08968 22.5454 6.13642 22.4759C6.16949 22.4197 6.21011 22.3675 6.25733 22.3206C6.30257 22.2733 6.35278 22.2302 6.40722 22.1919C7.36478 21.5353 9.23143 21.5441 10.6242 21.5175C11.7606 21.5308 12.8923 21.5397 14.0481 21.5974C13.7096 21.5974 13.4097 21.7438 13.0857 21.7704C12.6408 21.8103 12.1862 21.8192 11.7413 21.8414C10.8563 21.8902 9.97135 21.939 9.09119 21.9878C8.47481 21.9959 7.86211 22.0764 7.26805 22.2274C7.04185 22.2807 6.835 22.3878 6.66842 22.538C6.50749 22.7187 6.39931 22.934 6.35405 23.1636C6.18828 23.6176 6.11932 24.0966 6.15095 24.5745C6.17514 24.7076 6.2283 24.8363 6.24768 24.9738C6.26054 25.1216 6.25891 25.2701 6.24284 25.4175C6.20019 25.9209 6.28459 26.4264 6.48946 26.895C7.03109 28.0042 8.44803 28.4878 9.74887 28.7097C11.3399 28.9759 12.6795 29.2288 14.285 29.0291L21.3213 29.0957C22.6948 29.109 24.0633 29.1267 25.4367 29.1312C25.664 29.1356 25.8768 29.069 26.0993 29.0646C26.4281 29.0646 26.7715 29.1179 27.1003 29.14C27.7725 29.1889 28.4496 29.2199 29.1266 29.2421C30.7805 29.2909 32.4392 29.2687 34.0931 29.1711C34.4777 29.1111 34.8709 29.1156 35.2538 29.1844C35.813 29.3051 36.3864 29.3618 36.9608 29.353C38.3197 29.4107 39.6835 29.4151 41.0424 29.3752C41.3712 29.3663 41.6953 29.353 42.0241 29.3352C42.5474 29.3358 43.0671 29.2564 43.5619 29.1001C43.8134 29.0114 44.0503 28.8827 44.3115 28.8162C45.0466 28.6298 45.8058 28.9714 46.5264 29.2199C47.4597 29.5349 48.4801 29.3841 49.457 29.4462C50.7672 29.5689 52.0874 29.5719 53.3983 29.4551C53.4128 29.4551 53.4224 29.4506 53.4369 29.4506C54.0667 29.3854 54.6817 29.2312 55.2601 28.9936C55.5409 28.8317 55.8586 28.7315 56.1886 28.7008C56.5824 28.7633 56.9521 28.9176 57.2622 29.1489C58.3406 29.739 59.6753 29.7257 60.923 29.6015C61.9811 29.4318 63.0561 29.3678 64.1292 29.4107C64.5742 29.4506 64.9997 29.3929 65.4495 29.3974C66.0008 29.3974 66.5569 29.4018 67.113 29.4018C67.7082 29.4047 68.3033 29.4073 68.8985 29.4097C70.2669 29.4149 71.6353 29.4163 73.0037 29.4139C74.372 29.4102 75.7402 29.3988 77.1083 29.3797C77.7921 29.3694 78.4759 29.3565 79.1596 29.3408C79.5014 29.3328 79.8431 29.3241 80.1848 29.3146C80.3551 29.3098 80.5269 29.298 80.6972 29.2996C80.8064 29.3007 80.9017 29.3411 81.0097 29.3471C81.6347 29.3595 82.2577 29.2786 82.8543 29.1074C83.451 28.9506 84.0292 28.7394 84.5801 28.4771C85.7137 27.9071 86.7931 27.2507 87.8069 26.5148C88.2717 26.1964 88.7366 25.878 89.2014 25.5596C89.4365 25.3985 89.6717 25.2374 89.9069 25.0763C90.0122 25.0227 90.1072 24.9536 90.1882 24.8718C90.3162 24.6832 89.9305 24.5344 89.7848 24.5193C89.2873 24.4678 88.777 24.4562 88.2752 24.4281C90.374 24.4813 92.3181 23.3366 93.735 21.9124C93.5851 21.8857 93.4303 21.8592 93.2804 21.8325C93.6913 21.699 94.092 21.5404 94.4797 21.3578C94.9749 21.124 95.4488 20.8539 95.8966 20.5502C96.344 20.2471 96.763 19.9103 97.1492 19.5431C97.3426 19.3612 97.5264 19.1704 97.7053 18.9707C97.7703 18.9021 97.8301 18.8295 97.8842 18.7533C97.9181 18.7045 97.9568 18.6602 97.9858 18.6113C97.9973 18.5957 98.0025 18.5769 98.0003 18.5581C97.9955 18.5404 97.9761 18.5315 97.9568 18.5226C97.7536 18.4338 97.4877 18.4871 97.3088 18.3585C97.3329 18.3762 97.4635 18.354 97.4974 18.354C97.5699 18.3584 97.6376 18.3584 97.7101 18.3629C97.8504 18.3762 97.9858 18.394 98.1261 18.4161C98.2125 18.4279 98.3 18.4309 98.3872 18.425C98.4375 18.425 98.4877 18.4295 98.5371 18.4383V18.4383Z" fill="#EB924D"/>
<path d="M98.4805 18.3585C98.4467 18.3984 98.4129 18.4384 98.379 18.4783C98.2146 18.6647 98.0453 18.8422 97.8664 19.0196C95.9901 18.5582 93.988 18.1234 92.0391 17.7817C94.191 17.9237 96.3382 18.116 98.4805 18.3585Z" fill="#EB924D"/>
<path d="M45.2196 5.25675C42.0431 5.75693 38.7944 5.72837 35.6289 5.17245C38.8223 5.01377 42.0234 5.15941 45.2196 5.25675Z" fill="#EB924D"/>
<path d="M71.0966 7.6503C69.4897 7.84117 67.8654 7.87648 66.2504 7.75566C61.8195 7.56694 57.2922 7.36094 53.1758 5.95961C55.6862 5.95106 58.175 6.33365 60.6612 6.63143C64.0877 7.0418 67.6541 7.35197 71.0966 7.6503Z" fill="#EB924D"/>
<path d="M73.1184 7.52141C71.9424 7.48725 70.7713 7.3697 69.6017 7.25223C64.3184 6.72166 59.0351 6.1911 53.7518 5.66056C48.0217 5.08514 42.255 4.50891 36.5045 4.87418C35.74 4.86529 34.9228 4.94963 34.1582 4.94074C37.6834 5.29932 41.2332 5.41084 44.7769 5.27434C46.1697 5.17718 47.5682 5.17185 48.9618 5.25839C50.0711 5.39045 51.1713 5.5802 52.2572 5.82671C54.3072 6.23781 56.3781 6.55884 58.4571 6.82028C64.2659 7.52134 70.1216 7.84365 75.9802 7.78477C74.9037 7.66718 74.2019 7.55291 73.1184 7.52141Z" fill="url(#paint9_linear_27_5320)"/>
<path d="M26.6168 12.24C23.8114 12.5249 20.9799 12.5194 18.1758 12.2235C20.9846 12.0028 23.8091 12.0083 26.6168 12.24V12.24Z" fill="#EB924D"/>
<path d="M28.8307 12.2617C24.8591 12.1889 20.8868 12.174 16.9141 12.2171C17.3959 12.1888 17.8756 12.1362 18.3511 12.0595C18.8452 12.0022 19.3393 11.9448 19.8347 11.8986C20.8244 11.797 21.8219 11.777 22.8155 11.8386C22.9764 11.8428 23.1374 11.8301 23.2952 11.8008C23.5297 11.7876 23.7649 11.795 23.9978 11.8229C24.506 11.8518 25.0138 11.886 25.5212 11.9256C26.5359 12.0049 27.5482 12.1057 28.5582 12.2282C28.649 12.2392 28.7399 12.2503 28.8307 12.2617Z" fill="url(#paint10_linear_27_5320)"/>
<path d="M36.5308 18.1948C35.448 18.5838 34.3653 18.9727 33.2825 19.3617C32.6074 19.6199 31.9146 19.8373 31.2085 20.0124C30.287 20.1965 29.3499 20.3074 28.4076 20.3438C26.0398 20.4951 23.6265 20.6237 21.3223 20.1011C26.4579 20.0548 31.497 19.1297 36.5308 18.1948Z" fill="#EB924D"/>
<path d="M41.3572 17.1011C38.615 17.7586 35.8728 18.4161 33.1305 19.0736C31.8291 19.4075 30.5099 19.6799 29.1781 19.8898C27.5179 20.0949 25.8441 20.1931 24.1689 20.1837C22.6843 20.2011 21.1996 20.203 19.7148 20.1894C20.2882 20.1069 20.8635 20.0384 21.441 19.984C21.6752 19.962 21.9282 19.9697 22.1584 19.9374C23.3513 19.8258 24.5503 19.7787 25.7492 19.7962C27.0341 19.6863 28.3102 19.5027 29.5701 19.2465C31.5764 18.9444 33.5742 18.5959 35.5667 18.2247C37.5001 17.8644 39.4287 17.4828 41.3572 17.1011Z" fill="url(#paint11_linear_27_5320)"/>
<path d="M89.1709 22.0264C86.8992 22.7772 84.4091 22.6414 81.9993 22.5009C81.4945 22.4586 80.9868 22.4549 80.4814 22.4897C80.1592 22.5255 79.8392 22.5765 79.5226 22.6425C78.0976 22.9424 76.6496 23.1416 75.1913 23.2386C73.729 23.3349 72.2604 23.1632 70.8711 22.7336C74.6793 23.295 78.6041 22.2024 82.4603 22.1279C83.4204 22.1094 84.3818 22.1496 85.3409 22.1052C86.6522 22.0444 87.8581 22.0427 89.1709 22.0264Z" fill="#EB924D"/>
<path d="M69.4004 22.5952C71.4809 22.9329 73.5954 23.0613 75.7063 22.9782C77.0641 22.8789 78.3998 22.6049 79.7537 22.4691C81.3598 22.3079 82.9804 22.342 84.5959 22.3189C87.4973 22.2773 90.392 22.0504 93.2589 21.6397C92.4566 21.6223 91.6542 21.6269 90.8517 21.6537C90.1455 21.6773 89.4438 21.6399 88.7351 21.6527C87.1622 21.6811 85.5915 21.7747 84.024 21.8939C82.4589 22.013 80.8965 22.1579 79.3328 22.2903C77.772 22.4224 76.2094 22.5422 74.6436 22.6109C73.0765 22.6796 71.5056 22.6969 69.9383 22.6239C69.7609 22.6156 69.5763 22.6178 69.4004 22.5952Z" fill="url(#paint12_linear_27_5320)"/>
<path d="M16.0114 21V9.36364H20.6023C21.4811 9.36364 22.2311 9.52083 22.8523 9.83523C23.4773 10.1458 23.9527 10.5871 24.2784 11.1591C24.608 11.7273 24.7727 12.3958 24.7727 13.1648C24.7727 13.9375 24.6061 14.6023 24.2727 15.1591C23.9394 15.7121 23.4564 16.1364 22.8239 16.4318C22.1951 16.7273 21.4337 16.875 20.5398 16.875H17.4659V14.8977H20.142C20.6117 14.8977 21.0019 14.8333 21.3125 14.7045C21.6231 14.5758 21.8542 14.3826 22.0057 14.125C22.161 13.8674 22.2386 13.5473 22.2386 13.1648C22.2386 12.7784 22.161 12.4527 22.0057 12.1875C21.8542 11.9223 21.6212 11.7216 21.3068 11.5852C20.9962 11.4451 20.6042 11.375 20.1307 11.375H18.4716V21H16.0114ZM22.2955 15.7045L25.1875 21H22.4716L19.642 15.7045H22.2955ZM31.1026 21.1705C30.2048 21.1705 29.4321 20.9886 28.7844 20.625C28.1404 20.2576 27.6442 19.7386 27.2957 19.0682C26.9473 18.3939 26.773 17.5966 26.773 16.6761C26.773 15.7784 26.9473 14.9905 27.2957 14.3125C27.6442 13.6345 28.1348 13.1061 28.7673 12.7273C29.4037 12.3485 30.1499 12.1591 31.006 12.1591C31.5817 12.1591 32.1177 12.2519 32.6139 12.4375C33.1139 12.6193 33.5495 12.8939 33.9207 13.2614C34.2957 13.6288 34.5874 14.0909 34.7957 14.6477C35.0041 15.2008 35.1082 15.8485 35.1082 16.5909V17.2557H27.7389V15.7557H32.8298C32.8298 15.4072 32.7541 15.0985 32.6026 14.8295C32.451 14.5606 32.2408 14.3504 31.9719 14.1989C31.7067 14.0436 31.398 13.9659 31.0457 13.9659C30.6783 13.9659 30.3526 14.0511 30.0685 14.2216C29.7882 14.3883 29.5685 14.6136 29.4094 14.8977C29.2503 15.178 29.1688 15.4905 29.1651 15.8352V17.2614C29.1651 17.6932 29.2446 18.0663 29.4037 18.3807C29.5666 18.6951 29.7957 18.9375 30.0912 19.108C30.3866 19.2784 30.737 19.3636 31.1423 19.3636C31.4113 19.3636 31.6575 19.3258 31.881 19.25C32.1045 19.1742 32.2957 19.0606 32.4548 18.9091C32.6139 18.7576 32.7351 18.572 32.8185 18.3523L35.0571 18.5C34.9435 19.0379 34.7105 19.5076 34.3582 19.9091C34.0098 20.3068 33.559 20.6174 33.006 20.8409C32.4567 21.0606 31.8223 21.1705 31.1026 21.1705ZM41.4196 24.4545C40.6355 24.4545 39.9632 24.3466 39.4026 24.1307C38.8457 23.9186 38.4026 23.6288 38.073 23.2614C37.7435 22.8939 37.5295 22.4811 37.431 22.0227L39.6696 21.7216C39.7378 21.8958 39.8457 22.0587 39.9935 22.2102C40.1412 22.3617 40.3363 22.483 40.5787 22.5739C40.8249 22.6686 41.1241 22.7159 41.4764 22.7159C42.0029 22.7159 42.4366 22.5871 42.7776 22.3295C43.1223 22.0758 43.2946 21.6496 43.2946 21.0511V19.4545H43.1923C43.0863 19.697 42.9272 19.9261 42.7151 20.142C42.5029 20.358 42.2302 20.5341 41.8969 20.6705C41.5635 20.8068 41.1658 20.875 40.7037 20.875C40.0484 20.875 39.4518 20.7235 38.9139 20.4205C38.3798 20.1136 37.9537 19.6458 37.6355 19.017C37.3211 18.3845 37.1639 17.5852 37.1639 16.6193C37.1639 15.6307 37.3249 14.8049 37.6469 14.142C37.9688 13.4792 38.3969 12.983 38.931 12.6534C39.4688 12.3239 40.0579 12.1591 40.698 12.1591C41.1866 12.1591 41.5957 12.2424 41.9253 12.4091C42.2548 12.572 42.52 12.7765 42.7207 13.0227C42.9253 13.2652 43.0825 13.5038 43.1923 13.7386H43.2832V12.2727H45.6866V21.0852C45.6866 21.8277 45.5048 22.4489 45.1412 22.9489C44.7776 23.4489 44.2738 23.8239 43.6298 24.0739C42.9897 24.3277 42.2529 24.4545 41.4196 24.4545ZM41.4707 19.0568C41.8609 19.0568 42.1904 18.9602 42.4594 18.767C42.7321 18.5701 42.9404 18.2898 43.0844 17.9261C43.2321 17.5587 43.306 17.1193 43.306 16.608C43.306 16.0966 43.234 15.6534 43.0901 15.2784C42.9461 14.8996 42.7378 14.6061 42.4651 14.3977C42.1923 14.1894 41.8609 14.0852 41.4707 14.0852C41.073 14.0852 40.7378 14.1932 40.4651 14.4091C40.1923 14.6212 39.9859 14.9167 39.8457 15.2955C39.7056 15.6742 39.6355 16.1117 39.6355 16.608C39.6355 17.1117 39.7056 17.5473 39.8457 17.9148C39.9897 18.2784 40.1961 18.5606 40.4651 18.7614C40.7378 18.9583 41.073 19.0568 41.4707 19.0568ZM48.4128 21V12.2727H50.8332V21H48.4128ZM49.6287 11.1477C49.2688 11.1477 48.9601 11.0284 48.7026 10.7898C48.4488 10.5473 48.3219 10.2576 48.3219 9.92045C48.3219 9.58712 48.4488 9.30114 48.7026 9.0625C48.9601 8.82008 49.2688 8.69886 49.6287 8.69886C49.9885 8.69886 50.2954 8.82008 50.5491 9.0625C50.8067 9.30114 50.9355 9.58712 50.9355 9.92045C50.9355 10.2576 50.8067 10.5473 50.5491 10.7898C50.2954 11.0284 49.9885 11.1477 49.6287 11.1477ZM60.8335 14.7614L58.6176 14.8977C58.5797 14.7083 58.4983 14.5379 58.3733 14.3864C58.2483 14.2311 58.0835 14.108 57.879 14.017C57.6782 13.9223 57.4377 13.875 57.1574 13.875C56.7824 13.875 56.4661 13.9545 56.2085 14.1136C55.9509 14.2689 55.8222 14.4773 55.8222 14.7386C55.8222 14.947 55.9055 15.1231 56.0722 15.267C56.2388 15.411 56.5248 15.5265 56.9301 15.6136L58.5097 15.9318C59.3581 16.1061 59.9907 16.3864 60.4074 16.7727C60.8241 17.1591 61.0324 17.6667 61.0324 18.2955C61.0324 18.8674 60.8638 19.3693 60.5267 19.8011C60.1934 20.233 59.735 20.5701 59.1517 20.8125C58.5722 21.0511 57.9036 21.1705 57.146 21.1705C55.9907 21.1705 55.0703 20.9299 54.3847 20.4489C53.7028 19.964 53.3032 19.3049 53.1858 18.4716L55.5665 18.3466C55.6384 18.6989 55.8127 18.9678 56.0892 19.1534C56.3657 19.3352 56.7199 19.4261 57.1517 19.4261C57.5759 19.4261 57.9169 19.3447 58.1744 19.1818C58.4358 19.0152 58.5684 18.8011 58.5722 18.5398C58.5684 18.3201 58.4756 18.1402 58.2938 18C58.1119 17.8561 57.8316 17.7462 57.4528 17.6705L55.9415 17.3693C55.0892 17.1989 54.4547 16.9034 54.0381 16.483C53.6252 16.0625 53.4188 15.5265 53.4188 14.875C53.4188 14.3144 53.5703 13.8314 53.8733 13.4261C54.1801 13.0208 54.61 12.7083 55.1631 12.4886C55.7199 12.2689 56.3714 12.1591 57.1176 12.1591C58.2199 12.1591 59.0873 12.392 59.7199 12.858C60.3563 13.3239 60.7275 13.9583 60.8335 14.7614ZM67.9986 12.2727V14.0909H62.7429V12.2727H67.9986ZM63.9361 10.1818H66.3565V18.3182C66.3565 18.5417 66.3906 18.7159 66.4588 18.8409C66.527 18.9621 66.6217 19.0473 66.7429 19.0966C66.8679 19.1458 67.0118 19.1705 67.1747 19.1705C67.2884 19.1705 67.402 19.161 67.5156 19.142C67.6293 19.1193 67.7164 19.1023 67.777 19.0909L68.1577 20.892C68.0365 20.9299 67.866 20.9735 67.6463 21.0227C67.4266 21.0758 67.1596 21.108 66.8452 21.1193C66.2618 21.142 65.7505 21.0644 65.3111 20.8864C64.8755 20.7083 64.5365 20.4318 64.294 20.0568C64.0516 19.6818 63.9323 19.2083 63.9361 18.6364V10.1818ZM74.2588 21.1705C73.3611 21.1705 72.5884 20.9886 71.9406 20.625C71.2967 20.2576 70.8005 19.7386 70.452 19.0682C70.1035 18.3939 69.9293 17.5966 69.9293 16.6761C69.9293 15.7784 70.1035 14.9905 70.452 14.3125C70.8005 13.6345 71.291 13.1061 71.9236 12.7273C72.5599 12.3485 73.3062 12.1591 74.1622 12.1591C74.738 12.1591 75.274 12.2519 75.7702 12.4375C76.2702 12.6193 76.7058 12.8939 77.077 13.2614C77.452 13.6288 77.7437 14.0909 77.952 14.6477C78.1603 15.2008 78.2645 15.8485 78.2645 16.5909V17.2557H70.8952V15.7557H75.9861C75.9861 15.4072 75.9103 15.0985 75.7588 14.8295C75.6073 14.5606 75.3971 14.3504 75.1281 14.1989C74.863 14.0436 74.5543 13.9659 74.202 13.9659C73.8346 13.9659 73.5088 14.0511 73.2247 14.2216C72.9444 14.3883 72.7247 14.6136 72.5656 14.8977C72.4065 15.178 72.3251 15.4905 72.3213 15.8352V17.2614C72.3213 17.6932 72.4009 18.0663 72.5599 18.3807C72.7228 18.6951 72.952 18.9375 73.2474 19.108C73.5429 19.2784 73.8933 19.3636 74.2986 19.3636C74.5675 19.3636 74.8137 19.3258 75.0372 19.25C75.2607 19.1742 75.452 19.0606 75.6111 18.9091C75.7702 18.7576 75.8914 18.572 75.9747 18.3523L78.2134 18.5C78.0997 19.0379 77.8668 19.5076 77.5145 19.9091C77.166 20.3068 76.7152 20.6174 76.1622 20.8409C75.613 21.0606 74.9785 21.1705 74.2588 21.1705ZM80.644 21V12.2727H82.9906V13.7955H83.0815C83.2406 13.2538 83.5077 12.8447 83.8827 12.5682C84.2577 12.2879 84.6895 12.1477 85.1781 12.1477C85.2993 12.1477 85.43 12.1553 85.5702 12.1705C85.7103 12.1856 85.8334 12.2064 85.9395 12.233V14.3807C85.8259 14.3466 85.6687 14.3163 85.4679 14.2898C85.2671 14.2633 85.0834 14.25 84.9168 14.25C84.5607 14.25 84.2425 14.3277 83.9622 14.483C83.6857 14.6345 83.466 14.8466 83.3031 15.1193C83.144 15.392 83.0645 15.7064 83.0645 16.0625V21H80.644Z" fill="white"/>
</g>
<defs>
<filter id="filter0_d_27_5320" x="0" y="0" width="104" height="40.2485" filterUnits="userSpaceOnUse" color-interpolation-filters="sRGB">
<feFlood flood-opacity="0" result="BackgroundImageFix"/>
<feColorMatrix in="SourceAlpha" type="matrix" values="0 0 0 0 0 0 0 0 0 0 0 0 0 0 0 0 0 0 127 0" result="hardAlpha"/>
<feOffset dy="4"/>
<feGaussianBlur stdDeviation="2"/>
<feComposite in2="hardAlpha" operator="out"/>
<feColorMatrix type="matrix" values="0 0 0 0 0 0 0 0 0 0 0 0 0 0 0 0 0 0 0.25 0"/>
<feBlend mode="normal" in2="BackgroundImageFix" result="effect1_dropShadow_27_5320"/>
<feBlend mode="normal" in="SourceGraphic" in2="effect1_dropShadow_27_5320" result="shape"/>
</filter>
<linearGradient id="paint0_linear_27_5320" x1="72.7982" y1="-39.8882" x2="59.7265" y2="-1.54549" gradientUnits="userSpaceOnUse">
<stop stop-color="#CF5C2B"/>
<stop offset="1" stop-color="#59173E"/>
</linearGradient>
<linearGradient id="paint1_linear_27_5320" x1="57.1492" y1="-11.7213" x2="44.9016" y2="58.6855" gradientUnits="userSpaceOnUse">
<stop stop-color="#CF5C2B"/>
<stop offset="1" stop-color="#59173E"/>
</linearGradient>
<linearGradient id="paint2_linear_27_5320" x1="56.417" y1="-10.6457" x2="40.4158" y2="78.4215" gradientUnits="userSpaceOnUse">
<stop stop-color="#CF5C2B"/>
<stop offset="1" stop-color="#59173E"/>
</linearGradient>
<linearGradient id="paint3_linear_27_5320" x1="72.2789" y1="14.0822" x2="68.2194" y2="25.9108" gradientUnits="userSpaceOnUse">
<stop stop-color="#CF5C2B"/>
<stop offset="1" stop-color="#59173E"/>
</linearGradient>
<linearGradient id="paint4_linear_27_5320" x1="82.1932" y1="-6.37158" x2="53.0324" y2="67.3803" gradientUnits="userSpaceOnUse">
<stop stop-color="#CF5C2B"/>
<stop offset="1" stop-color="#59173E"/>
</linearGradient>
<linearGradient id="paint5_linear_27_5320" x1="27.0993" y1="0.131273" x2="24.9515" y2="6.38951" gradientUnits="userSpaceOnUse">
<stop stop-color="#CF5C2B"/>
<stop offset="1" stop-color="#59173E"/>
</linearGradient>
<linearGradient id="paint6_linear_27_5320" x1="38.4432" y1="-23.6712" x2="9.28219" y2="50.0811" gradientUnits="userSpaceOnUse">
<stop stop-color="#CF5C2B"/>
<stop offset="1" stop-color="#59173E"/>
</linearGradient>
<linearGradient id="paint7_linear_27_5320" x1="18.1511" y1="0.913173" x2="14.7904" y2="10.7058" gradientUnits="userSpaceOnUse">
<stop stop-color="#CF5C2B"/>
<stop offset="1" stop-color="#59173E"/>
</linearGradient>
<linearGradient id="paint8_linear_27_5320" x1="31.282" y1="-26.5022" x2="2.12131" y2="47.2496" gradientUnits="userSpaceOnUse">
<stop stop-color="#CF5C2B"/>
<stop offset="1" stop-color="#59173E"/>
</linearGradient>
<linearGradient id="paint9_linear_27_5320" x1="67.2397" y1="-14.7577" x2="60.296" y2="-0.442494" gradientUnits="userSpaceOnUse">
<stop stop-color="#CF5C2B"/>
<stop offset="1" stop-color="#59173E"/>
</linearGradient>
<linearGradient id="paint10_linear_27_5320" x1="42.2247" y1="-31.5938" x2="32.0194" y2="-4.13349" gradientUnits="userSpaceOnUse">
<stop stop-color="#CF5C2B"/>
<stop offset="1" stop-color="#59173E"/>
</linearGradient>
<linearGradient id="paint11_linear_27_5320" x1="51.2375" y1="-28.2436" x2="41.0323" y2="-0.783369" gradientUnits="userSpaceOnUse">
<stop stop-color="#CF5C2B"/>
<stop offset="1" stop-color="#59173E"/>
</linearGradient>
<linearGradient id="paint12_linear_27_5320" x1="97.1762" y1="-11.1631" x2="86.2591" y2="16.0748" gradientUnits="userSpaceOnUse">
<stop stop-color="#CF5C2B"/>
<stop offset="1" stop-color="#59173E"/>
</linearGradient>
</defs>
</svg>
